<?xml version="1.0" encoding="utf-8"?>
<!-- Generator: Adobe Illustrator 19.0.0, SVG Export Plug-In . SVG Version: 6.00 Build 0)  -->
<svg version="1.1" id="Calque_1" xmlns="http://www.w3.org/2000/svg" xmlns:xlink="http://www.w3.org/1999/xlink" x="0px" y="0px"
	 viewBox="-4 300.9 240 240" style="enable-background:new -4 300.9 240 240;" xml:space="preserve">
<style type="text/css">
	.st0{fill:#FFFFFF;}
</style>
<title>pictos_JRS</title>
<path class="st0" d="M97.3,359.8c-3.1,0-5.6,2.5-5.6,5.6v7.9H41.2c-0.9,0-1.6,0.8-1.7,1.7v38c0,1.8,1.4,3.4,3.3,3.4h0.1h55.5v-1.1
	c0-1.8,1.4-3.4,3.3-3.4h0.1h18.1c1.8,0,3.4,1.4,3.4,3.3v0.1v1.1H181c1.8,0,3.4-1.4,3.4-3.3V413v-37.9c0-0.9-0.8-1.6-1.7-1.7H130
	v-7.9c0-3.1-2.5-5.6-5.6-5.6L97.3,359.8L97.3,359.8z M97.3,364.3h27.2c0.5-0.1,1.1,0.3,1.1,0.8c0,0.1,0,0.2,0,0.3v7.9H96.2v-7.9
	c-0.1-0.5,0.3-1.1,0.8-1.1C97.1,364.3,97.2,364.3,97.3,364.3z M101.8,414.1c-0.6,0-1.1,0.5-1.1,1.1v4.5c0,0.6,0.5,1.1,1.1,1.1h18.1
	c0.6,0,1.1-0.5,1.1-1.1v-4.5c0-0.6-0.5-1.1-1.1-1.1H101.8z M39.5,417.5v62.8c0,0.9,0.8,1.6,1.7,1.7h141.5c0.9,0,1.6-0.8,1.7-1.7
	v-62.8c-1,0.7-2.2,1.1-3.4,1.1h-57.7v1.1c0,1.8-1.4,3.4-3.3,3.4h-0.1h-18.1c-1.8,0-3.4-1.4-3.4-3.3v-0.1v-1.1H42.9
	C41.7,418.6,40.5,418.2,39.5,417.5z"/>
</svg>
