<?xml version="1.0" encoding="utf-8"?>
<!-- Generator: Adobe Illustrator 19.0.0, SVG Export Plug-In . SVG Version: 6.00 Build 0)  -->
<svg version="1.1" id="Calque_1" xmlns="http://www.w3.org/2000/svg" xmlns:xlink="http://www.w3.org/1999/xlink" x="0px" y="0px"
	 viewBox="-4 300.9 240 240" style="enable-background:new -4 300.9 240 240;" xml:space="preserve">
<style type="text/css">
	.st0{fill:#FFFFFF;}
</style>
<title>pictos_JRS</title>
<path class="st0" d="M180,495.3H53.5V457l0.2-0.6c7.2-16.9,26.7-22.7,36.2-24.6c-12.5-12.2-15.2-31.3-6.5-46.4l1.3-2.3l31,13.4
	l33.2-13.4l1.3,2.2c8.7,15.2,6.1,34.3-6.4,46.5c9.5,1.9,29,7.7,36.2,24.6l0.2,0.6v38.1L180,495.3z M118,489.4h56.2v-31
	c-6.9-15.5-27.5-20-34.2-21L118,489.4z M59.5,489.4h56.2l-22-52c-6.7,1.1-27.3,5.5-34.2,21V489.4L59.5,489.4z M101.2,439.6
	l15.7,37.4l15.8-37.3c-10,4.5-21.6,4.5-31.6,0L101.2,439.6z M87.3,390.9c-7.7,16.3-0.7,35.6,15.5,43.3c16.3,7.7,35.6,0.7,43.3-15.5
	c4.2-8.8,4.2-19,0-27.8l-30.6,12.4L87.3,390.9z M65.3,420c-5.9,0-10.6-4.7-10.6-10.6c0.1-4.6,3.1-8.6,7.5-10.1v-33l53.4-23.3
	l62.3,25.7L115.7,393L69,373v26.3c5.5,2,8.3,8.1,6.3,13.6C73.8,417.3,69.8,420,65.3,420z M65.3,404.7c-2.5,0.2-4.5,2.2-4.6,4.7
	c0,2.6,2.1,4.8,4.7,4.8s4.8-2.1,4.8-4.7c0-2.5-1.9-4.6-4.4-4.8h-0.7H65.3z M72.7,368.3l43.2,18.5l46.5-18.1l-46.5-19.3L72.7,368.3z"
	/>
</svg>
