<?xml version="1.0" encoding="utf-8"?>
<!-- Generator: Adobe Illustrator 19.0.0, SVG Export Plug-In . SVG Version: 6.00 Build 0)  -->
<svg version="1.1" id="Calque_1" xmlns="http://www.w3.org/2000/svg" xmlns:xlink="http://www.w3.org/1999/xlink" x="0px" y="0px"
	 viewBox="-4 300.9 240 240" style="enable-background:new -4 300.9 240 240;" xml:space="preserve">
<style type="text/css">
	.st0{fill:#FFFFFF;}
</style>
<title>pictos_JRS</title>
<path class="st0" d="M50.9,394.3v88.6c0,6.6,5.2,12,11.8,12c0,0,0,0,0,0h106.5c6.6,0,11.9-5.4,11.8-12c0,0,0,0,0,0v-88.6H50.9z
	 M83.4,486H59.8v-23.7h23.7V486z M83.4,456.4H59.8v-23.7h23.7V456.4L83.4,456.4z M83.4,426.8H59.8v-23.7h23.7V426.8L83.4,426.8z
	 M113,486H89.4v-23.7H113V486z M113,456.4H89.4v-23.7H113V456.4L113,456.4z M113,426.8H89.4v-23.7H113V426.8L113,426.8z M142.6,486
	H119v-23.7h23.7L142.6,486L142.6,486z M142.6,456.4H119v-23.7h23.7L142.6,456.4L142.6,456.4z M142.6,426.8H119v-23.7h23.7
	L142.6,426.8L142.6,426.8z M172.2,486h-23.6v-23.7h23.7L172.2,486L172.2,486z M172.2,456.4h-23.6v-23.7h23.7L172.2,456.4
	L172.2,456.4z M172.2,426.8h-23.6v-23.7h23.7L172.2,426.8L172.2,426.8z"/>
<path class="st0" d="M169.3,364.7H150v-13.3c0-2.5-2-4.4-4.4-4.4s-4.4,2-4.4,4.4v13.3H90.8v-13.3c0-2.5-2-4.4-4.4-4.4
	c-2.4,0-4.4,2-4.4,4.4v13.3H62.7c-6.6,0-11.9,5.4-11.8,12c0,0,0,0,0,0v10.2l0,0v1.5h130.2v-1.5l0,0v-10.3
	C181.1,370.1,175.8,364.7,169.3,364.7z M86.4,385.4c-4.9,0-8.9-4-8.9-8.9c0-3.2,1.7-6.1,4.4-7.7v7.7c0,2.5,2,4.4,4.4,4.4
	c2.5,0,4.4-2,4.4-4.4c0,0,0,0,0,0v-7.7c4.2,2.4,5.7,7.9,3.3,12.1C92.6,383.7,89.6,385.4,86.4,385.4z M145.6,385.4
	c-4.9,0-8.9-4-8.9-8.9c0-3.2,1.7-6.1,4.4-7.7v7.7c0,2.5,2,4.4,4.4,4.4s4.4-2,4.4-4.4l0,0v-7.7c4.2,2.4,5.7,7.9,3.3,12.1
	C151.7,383.7,148.8,385.4,145.6,385.4z"/>
</svg>
