<svg id="Calque_1" data-name="Calque 1" xmlns="http://www.w3.org/2000/svg" viewBox="0 0 240 240"><defs><style>.cls-1{fill:#f4b821;}.cls-2{fill:#333;}</style></defs><title>pictos_JRS</title><rect class="cls-1" x="42.46" y="-455.36" width="155.07" height="60.57"/><path class="cls-2" d="M125.12,105.83a32.08,32.08,0,0,1,26.61,27,14.92,14.92,0,0,1,.79,27.51l-4.32,21.1a89.25,89.25,0,0,1-56.4,0l-4.32-21.1a14.92,14.92,0,0,1,.79-27.51,32.09,32.09,0,0,1,26.62-27v-0.76l10.23-3.62v4.38Zm23.25,55.67a14.92,14.92,0,0,1-11.09-2.94,14.93,14.93,0,0,1-17.28.62,14.93,14.93,0,0,1-17.28-.62,14.94,14.94,0,0,1-11.09,2.94l3.47,16.93a85.37,85.37,0,0,0,49.8,0ZM120,154.18a11.09,11.09,0,0,0,17.28-1.09,11.09,11.09,0,1,0,10.92-17.32,28.25,28.25,0,0,0-56.4,0,11.09,11.09,0,1,0,10.92,17.32,11.09,11.09,0,0,0,15.46,2.7A10.87,10.87,0,0,0,120,154.18Zm-14.8-23.39a3.09,3.09,0,1,0-3.09,3.09,3.09,3.09,0,0,0,3.09-3.09h0Zm7.7-10.43a3.09,3.09,0,1,0-3.09,3.09,3.09,3.09,0,0,0,3.09-3.09h0Zm20.72-.79a3.09,3.09,0,1,0-3.09,3.09,3.09,3.09,0,0,0,3.09-3.09h0Zm-3.2,9.56a3.09,3.09,0,1,0-3.09,3.09,3.09,3.09,0,0,0,3.09-3.09h0ZM140.58,137a3.09,3.09,0,1,0-3.09,3.09,3.09,3.09,0,0,0,3.09-3.09h0Zm-23.52,11.89a3.09,3.09,0,1,0-3.09,3.09,3.09,3.09,0,0,0,3.09-3.09h0Zm-10.55-5.11a3.09,3.09,0,1,0-3.09,3.09,3.09,3.09,0,0,0,3.09-3.09h0Zm-12.65,3.05a3.09,3.09,0,1,0-3.09,3.09,3.09,3.09,0,0,0,3.09-3.09h0Zm24.6-13.61a3.09,3.09,0,1,0-3.09,3.09,3.09,3.09,0,0,0,3.09-3.09h0Zm10.94,10.54a3.09,3.09,0,1,0-3.09,3.09,3.09,3.09,0,0,0,3.09-3.09h0Zm12.29,4.18a3.09,3.09,0,1,0-3.09,3.09,3.09,3.09,0,0,0,3.09-3.09h0Zm12-4.61a3.09,3.09,0,1,0-3.09,3.09,3.09,3.09,0,0,0,3.09-3.09h0Z"/><path class="cls-2" d="M122.77,70.13l-3.61-3.56-2.56,4.37a3.94,3.94,0,0,0-.22,3.56,7.8,7.8,0,0,1-1.36-.86,8.11,8.11,0,0,1-1.42-11.39L120,54l6.4,8.23a8.28,8.28,0,0,1,.86,1.36,8.12,8.12,0,0,1-3.63,10.89A4,4,0,0,0,122.77,70.13Z"/><path class="cls-2" d="M118.17,82.55a5.12,5.12,0,0,0-3.28,4.78V89.8L125,86.22a5.12,5.12,0,0,0-3.16-3.67V78.66a1.84,1.84,0,0,0-3.67,0v3.89"/><polygon class="cls-2" points="125.12 91.27 114.89 94.89 114.89 99.98 125.12 96.36 125.12 91.27"/></svg>