<svg xmlns="http://www.w3.org/2000/svg" xmlns:xlink="http://www.w3.org/1999/xlink" viewBox="0 0 240 240"><defs><style>.cls-1,.cls-5{fill:#29abe2;}.cls-2{isolation:isolate;}.cls-3{fill:#f4b821;}.cls-4{clip-path:url(#clip-path);}.cls-5{mix-blend-mode:multiply;}.cls-6{fill:#fff;}</style><clipPath id="clip-path"><rect class="cls-1" x="42.46" y="88.08" width="155.07" height="60.57"/></clipPath></defs><title>pictos_JRS</title><g class="cls-2"><g id="Calque_1" data-name="Calque 1"><rect class="cls-3" x="-214.54" y="87.64" width="155.07" height="60.57"/><rect class="cls-1" x="42.46" y="88.08" width="155.07" height="60.57"/><g class="cls-4"><polygon class="cls-5" points="130.13 65.26 122.13 68.22 119.16 60.21 116.19 61.31 119.14 69.32 111.14 72.28 112.24 75.26 120.25 72.3 123.21 80.31 126.19 79.21 123.23 71.2 131.24 68.24 130.13 65.26"/><circle class="cls-5" cx="128.57" cy="112.51" r="1.34" transform="translate(-34.51 163.44) rotate(-58.53)"/><circle class="cls-5" cx="124.96" cy="118.41" r="1.34" transform="translate(-41.27 163.18) rotate(-58.53)"/><circle class="cls-5" cx="121.34" cy="124.32" r="1.34" transform="translate(-48.03 162.92) rotate(-58.53)"/><circle class="cls-5" cx="134.47" cy="116.12" r="1.34" transform="translate(-34.77 170.2) rotate(-58.53)"/><circle class="cls-5" cx="140.37" cy="119.74" r="1.34" transform="translate(-35.03 176.96) rotate(-58.53)"/><circle class="cls-5" cx="146.27" cy="123.35" r="1.34" transform="matrix(0.52, -0.85, 0.85, 0.52, -35.29, 183.72)"/><circle class="cls-5" cx="130.86" cy="122.03" r="1.34" transform="translate(-41.53 169.94) rotate(-58.53)"/><circle class="cls-5" cx="136.76" cy="125.64" r="1.34" transform="translate(-41.79 176.7) rotate(-58.53)"/><circle class="cls-5" cx="142.66" cy="129.25" r="1.34" transform="translate(-42.05 183.46) rotate(-58.53)"/><circle class="cls-5" cx="127.25" cy="127.93" r="1.34" transform="translate(-48.29 169.68) rotate(-58.53)"/><circle class="cls-5" cx="133.15" cy="131.54" r="1.34" transform="translate(-48.55 176.44) rotate(-58.53)"/><circle class="cls-5" cx="139.05" cy="135.15" r="1.34" transform="translate(-48.81 183.2) rotate(-58.53)"/><circle class="cls-5" cx="132.47" cy="106.14" r="1.34" transform="translate(-27.22 163.72) rotate(-58.53)"/><circle class="cls-5" cx="138.37" cy="109.75" r="1.34" transform="translate(-27.48 170.48) rotate(-58.53)"/><circle class="cls-5" cx="144.27" cy="113.37" r="1.34" transform="translate(-27.74 177.24) rotate(-58.53)"/><circle class="cls-5" cx="150.17" cy="116.98" r="1.34" transform="translate(-28 184) rotate(-58.53)"/><circle class="cls-5" cx="3.24" cy="147.13" r="3.31" transform="translate(-141.46 120.27) rotate(-78.23)"/><circle class="cls-5" cx="-0.24" cy="163.79" r="3.31" transform="translate(-160.54 130.14) rotate(-78.23)"/><circle class="cls-5" cx="19.9" cy="150.6" r="3.31" transform="translate(-131.6 139.35) rotate(-78.23)"/><circle class="cls-5" cx="36.56" cy="154.08" r="3.31" transform="translate(-121.73 158.43) rotate(-78.23)"/><circle class="cls-5" cx="53.23" cy="157.55" r="3.31" transform="translate(-111.87 177.51) rotate(-78.23)"/><circle class="cls-5" cx="16.43" cy="167.27" r="3.31" transform="translate(-150.67 149.22) rotate(-78.23)"/><circle class="cls-5" cx="33.09" cy="170.74" r="3.31" transform="translate(-140.81 168.29) rotate(-78.23)"/><circle class="cls-5" cx="49.75" cy="174.21" r="3.31" transform="translate(-130.95 187.37) rotate(-78.23)"/><circle class="cls-5" cx="12.95" cy="183.93" r="3.31" transform="translate(-169.75 159.08) rotate(-78.23)"/><circle class="cls-5" cx="29.62" cy="187.4" r="3.31" transform="translate(-159.89 178.16) rotate(-78.23)"/><circle class="cls-5" cx="46.28" cy="190.88" r="3.31" transform="translate(-150.03 197.23) rotate(-78.23)"/><circle class="cls-5" cx="6.98" cy="129.14" r="3.31" transform="translate(-120.87 109.63) rotate(-78.23)"/><circle class="cls-5" cx="23.65" cy="132.62" r="3.31" transform="translate(-111 128.71) rotate(-78.23)"/><circle class="cls-5" cx="40.31" cy="136.09" r="3.31" transform="translate(-101.14 147.78) rotate(-78.23)"/><circle class="cls-5" cx="56.97" cy="139.56" r="3.31" transform="translate(-91.28 166.86) rotate(-78.23)"/><circle class="cls-5" cx="211.62" cy="77.76" r="26.26"/><rect class="cls-5" x="189.37" y="117.92" width="11.79" height="54.79"/><rect class="cls-5" x="147.31" y="16.71" width="11.79" height="54.79"/></g><path class="cls-6" d="M57.39,119.67v28.41a3.82,3.82,0,0,0,3.79,3.84H95.34a3.82,3.82,0,0,0,3.79-3.84V119.67H57.39Zm10.44,29.41H60.24v-7.59h7.59v7.59Zm0-9.49H60.24V132h7.59v7.59Zm0-9.49H60.24v-7.59h7.59v7.59Zm9.49,19H69.72v-7.59h7.59v7.59Zm0-9.49H69.72V132h7.59v7.59Zm0-9.49H69.72v-7.59h7.59v7.59Zm9.49,19H79.21v-7.59H86.8v7.59Zm0-9.49H79.21V132H86.8v7.59Zm0-9.49H79.21v-7.59H86.8v7.59Zm9.49,19H88.7v-7.59h7.59v7.59Zm0-9.49H88.7V132h7.59v7.59Zm0-9.49H88.7v-7.59h7.59v7.59Z"/><path class="cls-6" d="M95.34,110.18H89.17v-4.27a1.42,1.42,0,1,0-2.85,0v4.27H70.2v-4.27a1.42,1.42,0,1,0-2.85,0v4.27H61.18A3.82,3.82,0,0,0,57.39,114v3.28h0v0.47H99.13v-0.47h0V114A3.82,3.82,0,0,0,95.34,110.18Zm-26.56,6.64a2.84,2.84,0,0,1-1.42-5.31V114a1.42,1.42,0,0,0,2.85,0v-2.46A2.84,2.84,0,0,1,68.77,116.82Zm19,0a2.84,2.84,0,0,1-1.42-5.31V114a1.42,1.42,0,0,0,2.85,0v-2.46A2.84,2.84,0,0,1,87.75,116.82Z"/></g></g></svg>