<svg xmlns="http://www.w3.org/2000/svg" xmlns:xlink="http://www.w3.org/1999/xlink" viewBox="0 0 240 240"><defs><style>.cls-1,.cls-4{fill:#8cc63f;}.cls-2{isolation:isolate;}.cls-3{clip-path:url(#clip-path);}.cls-4{mix-blend-mode:multiply;}.cls-5{fill:#fff;}</style><clipPath id="clip-path"><rect class="cls-1" x="42.46" y="87.88" width="155.07" height="60.57"/></clipPath></defs><title>pictos_JRS</title><g class="cls-2"><g id="Calque_1" data-name="Calque 1"><rect class="cls-1" x="42.46" y="87.88" width="155.07" height="60.57"/><g class="cls-3"><polygon class="cls-4" points="182.01 128.27 174.26 124.7 177.83 116.94 174.94 115.61 171.37 123.37 163.61 119.8 162.29 122.69 170.04 126.26 166.47 134.01 169.36 135.34 172.93 127.59 180.69 131.16 182.01 128.27"/><path class="cls-4" d="M160.36,105.29c-0.44,0-2.17-.28-2.6-0.28a215.69,215.69,0,0,1-41.53-5A215.69,215.69,0,0,1,76.37,87.29C65.79,82.7,52.14,78.72,38.56,76q-5,5.06-10,10.13Q17.09,97.71,5.71,109.31c20,1.29,45.42,7.15,62.68,14.64a215.7,215.7,0,0,0,39.85,12.72,215.71,215.71,0,0,0,41.53,5c13.91,0.27,31.51,3.2,47.31,7.59l7.49,0.25Z"/><circle class="cls-4" cx="112.5" cy="87" r="1.34" transform="translate(-17.23 28.74) rotate(-13.53)"/><circle class="cls-4" cx="105.77" cy="88.62" r="1.34" transform="translate(-17.8 27.21) rotate(-13.53)"/><circle class="cls-4" cx="99.04" cy="90.24" r="1.34" transform="translate(-18.36 25.68) rotate(-13.53)"/><circle class="cls-4" cx="114.12" cy="93.73" r="1.34" transform="translate(-18.76 29.3) rotate(-13.53)"/><circle class="cls-4" cx="115.74" cy="100.45" r="1.34" transform="translate(-20.29 29.87) rotate(-13.53)"/><circle class="cls-4" cx="117.36" cy="107.18" r="1.34" transform="translate(-21.82 30.43) rotate(-13.53)"/><circle class="cls-4" cx="107.39" cy="95.35" r="1.34" transform="translate(-19.33 27.77) rotate(-13.53)"/><circle class="cls-4" cx="109.01" cy="102.07" r="1.34" transform="translate(-20.86 28.34) rotate(-13.53)"/><circle class="cls-4" cx="110.63" cy="108.8" r="1.34" transform="translate(-22.39 28.9) rotate(-13.53)"/><circle class="cls-4" cx="100.66" cy="96.96" r="1.34" transform="translate(-19.89 26.24) rotate(-13.53)"/><circle class="cls-4" cx="102.28" cy="103.69" r="1.34" transform="translate(-21.42 26.81) rotate(-13.53)"/><circle class="cls-4" cx="103.9" cy="110.42" r="1.34" transform="translate(-22.95 27.37) rotate(-13.53)"/><circle class="cls-4" cx="119.76" cy="85.25" r="1.34" transform="translate(-16.62 30.39) rotate(-13.53)"/><circle class="cls-4" cx="121.38" cy="91.98" r="1.34" transform="translate(-18.15 30.95) rotate(-13.53)"/><circle class="cls-4" cx="123" cy="98.71" r="1.34" transform="translate(-19.68 31.52) rotate(-13.53)"/><circle class="cls-4" cx="124.62" cy="105.43" r="1.34" transform="translate(-21.21 32.08) rotate(-13.53)"/><circle class="cls-4" cx="59.11" cy="62.48" r="3.31" transform="translate(-24.57 42.6) rotate(-33.23)"/><circle class="cls-4" cx="44.87" cy="71.81" r="3.31" transform="translate(-32.01 36.33) rotate(-33.23)"/><circle class="cls-4" cx="30.63" cy="81.14" r="3.31" transform="translate(-39.45 30.05) rotate(-33.23)"/><circle class="cls-4" cx="68.44" cy="76.72" r="3.31" transform="translate(-30.85 50.04) rotate(-33.23)"/><circle class="cls-4" cx="77.77" cy="90.96" r="3.31" transform="translate(-37.13 57.48) rotate(-33.23)"/><circle class="cls-4" cx="87.09" cy="105.2" r="3.31" transform="matrix(0.84, -0.55, 0.55, 0.84, -43.4, 64.92)"/><circle class="cls-4" cx="54.2" cy="86.05" r="3.31" transform="translate(-38.29 43.77) rotate(-33.23)"/><circle class="cls-4" cx="63.53" cy="100.29" r="3.31" transform="translate(-44.57 51.2) rotate(-33.23)"/><circle class="cls-4" cx="72.85" cy="114.53" r="3.31" transform="matrix(0.84, -0.55, 0.55, 0.84, -50.84, 58.64)"/><circle class="cls-4" cx="39.96" cy="95.38" r="3.31" transform="translate(-45.73 37.49) rotate(-33.23)"/><circle class="cls-4" cx="49.29" cy="109.61" r="3.31" transform="translate(-52 44.93) rotate(-33.23)"/><circle class="cls-4" cx="58.61" cy="123.85" r="3.31" transform="matrix(0.84, -0.55, 0.55, 0.84, -58.28, 52.37)"/><circle class="cls-4" cx="74.48" cy="52.41" r="3.31" transform="matrix(0.84, -0.55, 0.55, 0.84, -16.54, 49.38)"/><circle class="cls-4" cx="83.81" cy="66.65" r="3.31" transform="translate(-22.82 56.82) rotate(-33.23)"/><circle class="cls-4" cx="93.14" cy="80.89" r="3.31" transform="matrix(0.84, -0.55, 0.55, 0.84, -29.1, 64.26)"/><circle class="cls-4" cx="102.46" cy="95.13" r="3.31" transform="translate(-35.38 71.7) rotate(-33.23)"/><circle class="cls-4" cx="120.79" cy="167.51" r="26.26" transform="translate(-83.07 134.48) rotate(-45)"/><rect class="cls-4" x="130.57" y="129.96" width="11.79" height="54.79" transform="translate(151.24 -50.4) rotate(45)"/><rect class="cls-4" x="142.65" y="139.73" width="11.79" height="54.79" transform="translate(161.68 -56.09) rotate(45)"/></g><path class="cls-5" d="M74.89,111.68A1.89,1.89,0,0,0,73,113.55v2.62H56.36a0.58,0.58,0,0,0-.56.56v12.54a1.1,1.1,0,0,0,1.12,1.12H75.27V130a1.1,1.1,0,0,1,1.12-1.12h6A1.1,1.1,0,0,1,83.5,130v0.37H102.6a1.1,1.1,0,0,0,1.12-1.12V116.73a0.58,0.58,0,0,0-.56-0.56H85.75v-2.62a1.89,1.89,0,0,0-1.87-1.87h-9Zm0,1.5h9a0.33,0.33,0,0,1,.37.37v2.62H74.52v-2.62A0.33,0.33,0,0,1,74.89,113.18Zm1.5,16.47A0.4,0.4,0,0,0,76,130v1.5a0.4,0.4,0,0,0,.37.37h6a0.4,0.4,0,0,0,.37-0.37V130a0.4,0.4,0,0,0-.37-0.37h-6ZM55.8,130.77v20.78a0.58,0.58,0,0,0,.56.56h46.8a0.58,0.58,0,0,0,.56-0.56V130.77a1.93,1.93,0,0,1-1.12.37H83.5v0.37a1.1,1.1,0,0,1-1.12,1.12h-6a1.1,1.1,0,0,1-1.12-1.12v-0.37H56.92A1.93,1.93,0,0,1,55.8,130.77Z"/></g></g></svg>