<svg xmlns="http://www.w3.org/2000/svg" xmlns:xlink="http://www.w3.org/1999/xlink" viewBox="0 0 240 240"><defs><style>.cls-1,.cls-4{fill:#9e005d;}.cls-2{isolation:isolate;}.cls-3{clip-path:url(#clip-path);}.cls-4{mix-blend-mode:multiply;}.cls-5{fill:#fff;}</style><clipPath id="clip-path"><rect class="cls-1" x="42.46" y="84.86" width="155.07" height="60.57"/></clipPath></defs><title>pictos_JRS</title><g class="cls-2"><g id="Calque_1" data-name="Calque 1"><rect class="cls-1" x="42.46" y="84.86" width="155.07" height="60.57"/><g class="cls-3"><polygon class="cls-4" points="146.15 201.73 143.19 193.72 151.2 190.76 150.1 187.78 142.09 190.74 139.13 182.73 136.15 183.84 139.11 191.84 131.1 194.81 132.2 197.78 140.21 194.82 143.17 202.83 146.15 201.73"/><path class="cls-4" d="M146.77,170.49c-0.3-.32-1.34-1.73-1.64-2a215.69,215.69,0,0,1-25.84-32.9A215.69,215.69,0,0,1,100.1,98.38C95.87,87.65,89,75.19,81.33,63.68l-14.27.06q-16.24.1-32.48,0.25c13.24,15.06,27.06,37.17,34,54.68a215.7,215.7,0,0,0,19.18,37.17,215.71,215.71,0,0,0,25.84,32.9c9.65,10,20,24.54,28.08,38.82l5.12,5.47V170.49Z"/><circle class="cls-4" cx="125.86" cy="123.72" r="1.34" transform="translate(-45.37 166.48) rotate(-58.53)"/><circle class="cls-4" cx="119.95" cy="120.11" r="1.34" transform="translate(-45.11 159.72) rotate(-58.53)"/><circle class="cls-4" cx="114.05" cy="116.49" r="1.34" transform="translate(-44.85 152.96) rotate(-58.53)"/><circle class="cls-4" cx="122.24" cy="129.62" r="1.34" transform="translate(-52.13 166.22) rotate(-58.53)"/><circle class="cls-4" cx="118.63" cy="135.52" r="1.34" transform="translate(-58.89 165.96) rotate(-58.53)"/><circle class="cls-4" cx="115.02" cy="141.42" r="1.34" transform="translate(-65.65 165.7) rotate(-58.53)"/><circle class="cls-4" cx="116.34" cy="126.01" r="1.34" transform="translate(-51.87 159.46) rotate(-58.53)"/><circle class="cls-4" cx="112.73" cy="131.91" r="1.34" transform="translate(-58.63 159.2) rotate(-58.53)"/><circle class="cls-4" cx="109.12" cy="137.81" r="1.34" transform="translate(-65.39 158.94) rotate(-58.53)"/><circle class="cls-4" cx="110.44" cy="122.4" r="1.34" transform="translate(-51.61 152.7) rotate(-58.53)"/><circle class="cls-4" cx="106.83" cy="128.3" r="1.34" transform="translate(-58.37 152.44) rotate(-58.53)"/><circle class="cls-4" cx="103.22" cy="134.2" r="1.34" transform="translate(-65.13 152.18) rotate(-58.53)"/><circle class="cls-4" cx="132.23" cy="127.62" r="1.34" transform="translate(-45.65 173.78) rotate(-58.53)"/><circle class="cls-4" cx="128.61" cy="133.52" r="1.34" transform="translate(-52.41 173.52) rotate(-58.53)"/><circle class="cls-4" cx="125" cy="139.42" r="1.34" transform="translate(-59.17 173.25) rotate(-58.53)"/><circle class="cls-4" cx="121.39" cy="145.32" r="1.34" transform="translate(-65.93 172.99) rotate(-58.53)"/><circle class="cls-4" cx="105.44" cy="68.63" r="3.31" transform="translate(16.74 157.85) rotate(-78.23)"/><circle class="cls-4" cx="88.78" cy="65.16" r="3.31" transform="translate(6.87 138.77) rotate(-78.23)"/><circle class="cls-4" cx="72.11" cy="61.69" r="3.31" transform="translate(-2.99 119.7) rotate(-78.23)"/><circle class="cls-4" cx="101.97" cy="85.3" r="3.31" transform="translate(-2.34 167.71) rotate(-78.23)"/><circle class="cls-4" cx="98.5" cy="101.96" r="3.31" transform="translate(-21.42 177.58) rotate(-78.23)"/><circle class="cls-4" cx="95.02" cy="118.62" r="3.31" transform="translate(-40.49 187.44) rotate(-78.23)"/><circle class="cls-4" cx="85.31" cy="81.82" r="3.31" transform="translate(-12.2 148.64) rotate(-78.23)"/><circle class="cls-4" cx="81.83" cy="98.49" r="3.31" transform="translate(-31.28 158.5) rotate(-78.23)"/><circle class="cls-4" cx="78.36" cy="115.15" r="3.31" transform="translate(-50.36 168.36) rotate(-78.23)"/><circle class="cls-4" cx="68.64" cy="78.35" r="3.31" transform="translate(-22.07 129.56) rotate(-78.23)"/><circle class="cls-4" cx="65.17" cy="95.01" r="3.31" transform="translate(-41.14 139.42) rotate(-78.23)"/><circle class="cls-4" cx="61.69" cy="111.68" r="3.31" transform="translate(-60.22 149.28) rotate(-78.23)"/><circle class="cls-4" cx="123.43" cy="72.38" r="3.31" transform="translate(27.39 178.45) rotate(-78.23)"/><circle class="cls-4" cx="119.96" cy="89.05" r="3.31" transform="translate(8.31 188.31) rotate(-78.23)"/><circle class="cls-4" cx="116.48" cy="105.71" r="3.31" transform="translate(-10.77 198.17) rotate(-78.23)"/><circle class="cls-4" cx="113.01" cy="122.37" r="3.31" transform="translate(-29.85 208.03) rotate(-78.23)"/><circle class="cls-4" cx="74.79" cy="186.51" r="26.26"/><rect class="cls-4" x="87.16" y="163.02" width="11.79" height="54.79" transform="translate(283.46 97.36) rotate(90)"/><rect class="cls-4" x="198.76" y="102.23" width="11.79" height="54.79" transform="translate(334.27 -75.03) rotate(90)"/></g><path class="cls-5" d="M84.74,123a5.15,5.15,0,1,0-5.15-5.15A5.18,5.18,0,0,0,84.74,123Zm0-9.3a4.15,4.15,0,1,1-4.15,4.15A4.18,4.18,0,0,1,84.74,113.74Z"/><path class="cls-5" d="M100.64,131.33a5.59,5.59,0,1,0,5.59-5.59A5.6,5.6,0,0,0,100.64,131.33Zm10.12,0a4.52,4.52,0,1,1-4.52-4.52A4.5,4.5,0,0,1,110.75,131.33Z"/><path class="cls-5" d="M60.81,137.92a5.59,5.59,0,1,0-5.59-5.53A5.6,5.6,0,0,0,60.81,137.92Zm0-10.12a4.52,4.52,0,1,1-4.52,4.52A4.5,4.5,0,0,1,60.81,127.81Z"/><path class="cls-5" d="M97.06,123.22a0.5,0.5,0,0,0,.38.63,12.87,12.87,0,0,0,1.51.31H99a0.5,0.5,0,0,0,.06-1,10.65,10.65,0,0,1-1.38-.25A0.45,0.45,0,0,0,97.06,123.22Z"/><path class="cls-5" d="M94,122.09h0a7.78,7.78,0,0,0,1.45.94,3,3,0,1,0,5.59,1.32v-0.13c4.65-.38,8.17-3.64,8.17-7.66,0-4.27-4-7.73-9-7.73s-8.92,3.46-8.92,7.66A7.33,7.33,0,0,0,94,122.09Zm6.28-12.25c4.4,0,8,3,8,6.72s-3.46,6.6-7.79,6.72a0.45,0.45,0,0,0-.38.19,0.52,0.52,0,0,0-.06.44,1.38,1.38,0,0,1,.06.5,1.95,1.95,0,0,1-3.9,0,2.07,2.07,0,0,1,.38-1.19,0.52,0.52,0,0,0,.06-0.44,0.63,0.63,0,0,0-.25-0.31,12.07,12.07,0,0,1-1.7-1.07,6.23,6.23,0,0,1-2.39-4.77C92.22,112.86,95.8,109.84,100.26,109.84Z"/><path class="cls-5" d="M59.17,119.83H69.92a5.21,5.21,0,0,0,4.15,2.76h0.06a1.19,1.19,0,0,0,1.19-1.19,1.83,1.83,0,0,0-.13-0.57,3.66,3.66,0,0,1-.25-1h1.51a1.19,1.19,0,0,0,1.19-1.19V106.7a1.19,1.19,0,0,0-1.19-1.19H59.17A1.19,1.19,0,0,0,58,106.7v12A1.14,1.14,0,0,0,59.17,119.83ZM59,106.7a0.2,0.2,0,0,1,.19-0.19H76.45a0.2,0.2,0,0,1,.19.19v12a0.2,0.2,0,0,1-.19.19H74.38a0.54,0.54,0,0,0-.38.19,0.46,0.46,0,0,0-.13.38,7.67,7.67,0,0,0,.38,1.88,0.06,0.06,0,0,0,.06.06v0.06a0.2,0.2,0,0,1-.19.19h0a4.29,4.29,0,0,1-3.46-2.51,0.42,0.42,0,0,0-.44-0.25H59.17A0.2,0.2,0,0,1,59,118.7v-12Z"/><path class="cls-5" d="M98.75,128a1.51,1.51,0,1,0,1.51,1.51A1.49,1.49,0,0,0,98.75,128Zm0,2.07a0.5,0.5,0,1,1,.5-0.5A0.5,0.5,0,0,1,98.75,130.07Z"/><path class="cls-5" d="M107.61,137.23h-2.83a3.73,3.73,0,0,0-1.45.31,31.91,31.91,0,0,0-6.79-2.83,3,3,0,0,0-.38-3.33l-0.57-.69-4.65-6a3.07,3.07,0,0,0-1.13-.88,3.13,3.13,0,0,0-1.82-.57H87.63l-2,.13h-1.7L82,123.22H81.6a3.24,3.24,0,0,0-2.07.75,2,2,0,0,0-.75.69l-4.08,5.4-4.9-4.4-0.06-.06a2.63,2.63,0,0,0-1.95-.38,3.63,3.63,0,0,0-1.26.75h0V126a2.21,2.21,0,0,0-.44,1.76,2.1,2.1,0,0,0,.88,1.51l5,5.53a28.91,28.91,0,0,0-8.23,3.77,3,3,0,0,0-1.51-.38H59.42a3.51,3.51,0,0,0-3.52,3.52v12.06a0.54,0.54,0,0,0,.5.5h8.8a0.48,0.48,0,0,0,.31-0.13l0.5,0.38a3,3,0,0,0,1.13.5c0.19,0,.31.06,0.5,0.06a1.74,1.74,0,0,0,1.32-.57,1.86,1.86,0,0,0,.31-1.45,1.94,1.94,0,0,0-.31-0.75,45.71,45.71,0,0,0,32.42-.82v1.13a0.54,0.54,0,0,0,.5.5h8.8a0.54,0.54,0,0,0,.5-0.5v-12A3.6,3.6,0,0,0,107.61,137.23ZM83.49,124.35l0.31,1-0.31,1.51-0.88-2.58Zm1.32,1.38,0.63,3.08-0.69,1.7-0.57-1.7Zm1.26,1.19-0.31-1.63,0.25-.94,0.94-.06Zm-1.13-2.58-0.19.57-0.19-.57h0.38Zm-17.28,4.27-0.06-.06a1.38,1.38,0,0,1-.5-0.88,1.2,1.2,0,0,1,.25-0.94A1.06,1.06,0,0,1,68,126.3H68a1.1,1.1,0,0,1,1.07.19l5.34,4.77a0.46,0.46,0,0,0,.38.13,0.54,0.54,0,0,0,.38-0.19l4.46-5.84a1.69,1.69,0,0,1,.5-0.44l0.06-.06a2.2,2.2,0,0,1,1.38-.5l1.63,4.71h0l1.07,3.14a0.47,0.47,0,0,0,.44.31h0a0.64,0.64,0,0,0,.5-0.31l1.19-3.14h0L88,124.35h0a2.27,2.27,0,0,1,1.26.38c0.06,0,.06.06,0.13,0.06a1.72,1.72,0,0,1,.75.57l4.65,6,0.57,0.69a2.12,2.12,0,0,1,.13,2.45l-3.27-.75,0.25-.57a0.47,0.47,0,0,0-.06-0.5l-1.26-1.76a0.51,0.51,0,0,0-.57-0.19,0.5,0.5,0,0,0-.31.5v2.14a45.61,45.61,0,0,0-5.84-.38,43,43,0,0,0-5,.31v-1.88a0.48,0.48,0,0,0-.38-0.5,0.51,0.51,0,0,0-.57.19l-1.76,2.58c-1.26.25-2.51,0.5-3.71,0.82Zm23.62,4.08L91.47,133l-0.19.44v-0.69Zm-12.88.75a0.57,0.57,0,0,0-.31.06l0.31-.44v0.38ZM68.16,153.94a0.67,0.67,0,0,1-.82.13,1.7,1.7,0,0,1-.69-0.31l-4.15-3.2a1.32,1.32,0,0,1-.5-0.69V149.8L60,145a0.52,0.52,0,1,0-.94.44l2,4.77a2.83,2.83,0,0,0,.88,1.19l2.45,1.88H56.91v-11.5a2.52,2.52,0,0,1,2.51-2.51h2.83a2.52,2.52,0,0,1,2.51,2.51v5.91l-1.38-5.21a0.52,0.52,0,0,0-1,.25l1.57,5.78a1.21,1.21,0,0,0,.31.57l3.52,3.46a1.62,1.62,0,0,1,.5.82A1.17,1.17,0,0,1,68.16,153.94ZM84.43,154c-6.28,0-12.75-1.26-17-3.27a0.38,0.38,0,0,0-.25-0.06l-1.51-1.51v-7.35a3.56,3.56,0,0,0-1.07-2.51c3.83-2.64,11.62-5.21,19.79-5.21,6.53,0,13.32,1.57,18,4.15a3.48,3.48,0,0,0-1.13,2.51v2.14l-1.88,1.45H99.32l-5.15.31a2.46,2.46,0,0,0-1.51.57,1.66,1.66,0,0,0-.63,1.32,2.19,2.19,0,0,0,1.07,1.82,2.6,2.6,0,0,0,1.19.31h5.28a2.32,2.32,0,0,0,1.32-.38l0.31-.19v2.45A44.56,44.56,0,0,1,84.43,154Zm25.63-1.76h-7.79v-4.71l3.39-1.82a0.51,0.51,0,0,0-.5-0.88l-4.71,2.51h-0.06a1.44,1.44,0,0,1-.88.25H94.29a1.67,1.67,0,0,1-.75-0.19,1.38,1.38,0,0,1-.57-0.94,0.65,0.65,0,0,1,.31-0.5,1.54,1.54,0,0,1,.94-0.31l5.15-.31a1.12,1.12,0,0,0,.63-0.25l4.52-3.52a0.49,0.49,0,0,0-.63-0.75l-1.7,1.32v-1.32a2.52,2.52,0,0,1,2.51-2.51h2.83a2.52,2.52,0,0,1,2.51,2.51v11.43Z"/><path class="cls-5" d="M63.82,113.8a0.94,0.94,0,1,0-.94-0.94A0.86,0.86,0,0,0,63.82,113.8Z"/><path class="cls-5" d="M67.72,113.8a0.94,0.94,0,1,0-.94-0.94A0.93,0.93,0,0,0,67.72,113.8Z"/><path class="cls-5" d="M71.8,113.8a0.94,0.94,0,1,0-.94-0.94A0.86,0.86,0,0,0,71.8,113.8Z"/><path class="cls-5" d="M96.24,117.88h0a0.94,0.94,0,0,0,0-1.88h0A0.94,0.94,0,1,0,96.24,117.88Z"/><path class="cls-5" d="M100.2,117.88a0.94,0.94,0,1,0-.94-0.94A1,1,0,0,0,100.2,117.88Z"/><path class="cls-5" d="M104.22,117.88a0.94,0.94,0,1,0-.94-0.94A1,1,0,0,0,104.22,117.88Z"/></g></g></svg>