<svg xmlns="http://www.w3.org/2000/svg" xmlns:xlink="http://www.w3.org/1999/xlink" viewBox="0 0 240 240"><defs><style>.cls-1,.cls-4{fill:#f74d2b;}.cls-2{isolation:isolate;}.cls-3{clip-path:url(#clip-path);}.cls-4{mix-blend-mode:multiply;}.cls-5{fill:#fff;}</style><clipPath id="clip-path"><rect class="cls-1" x="42.46" y="87.66" width="155.07" height="60.57"/></clipPath></defs><title>pictos_JRS</title><g class="cls-2"><g id="Calque_1" data-name="Calque 1"><rect class="cls-1" x="42.46" y="87.66" width="155.07" height="60.57"/><g class="cls-3"><polygon class="cls-4" points="176.41 86.81 168.4 89.77 165.44 81.76 162.46 82.86 165.42 90.87 157.41 93.83 158.51 96.81 166.52 93.85 169.48 101.86 172.46 100.76 169.5 92.75 177.51 89.79 176.41 86.81"/><path class="cls-4" d="M145.17,86.19c-0.32.3-1.73,1.34-2,1.64a215.69,215.69,0,0,1-32.9,25.84,215.69,215.69,0,0,1-37.17,19.18c-10.73,4.24-23.19,11.07-34.7,18.78q0,7.14.06,14.27,0.1,16.24.25,32.48c15.06-13.24,37.17-27.06,54.68-34a215.7,215.7,0,0,0,37.17-19.18,215.71,215.71,0,0,0,32.9-25.84c10-9.65,24.54-20,38.82-28.08l5.47-5.12H145.17Z"/><circle class="cls-4" cx="98.4" cy="107.11" r="1.34" transform="translate(-44.32 135.12) rotate(-58.53)"/><circle class="cls-4" cx="94.78" cy="113.01" r="1.34" transform="translate(-51.08 134.86) rotate(-58.53)"/><circle class="cls-4" cx="91.17" cy="118.91" r="1.34" transform="translate(-57.84 134.6) rotate(-58.53)"/><circle class="cls-4" cx="104.3" cy="110.72" r="1.34" transform="translate(-44.58 141.88) rotate(-58.53)"/><circle class="cls-4" cx="110.2" cy="114.33" r="1.34" transform="translate(-44.84 148.64) rotate(-58.53)"/><circle class="cls-4" cx="116.1" cy="117.94" r="1.34" transform="translate(-45.1 155.4) rotate(-58.53)"/><circle class="cls-4" cx="100.69" cy="116.62" r="1.34" transform="translate(-51.34 141.62) rotate(-58.53)"/><circle class="cls-4" cx="106.59" cy="120.23" r="1.34" transform="translate(-51.6 148.38) rotate(-58.53)"/><circle class="cls-4" cx="112.49" cy="123.84" r="1.34" transform="translate(-51.86 155.14) rotate(-58.53)"/><circle class="cls-4" cx="97.07" cy="122.52" r="1.34" transform="translate(-58.1 141.36) rotate(-58.53)"/><circle class="cls-4" cx="102.97" cy="126.13" r="1.34" transform="translate(-58.36 148.12) rotate(-58.53)"/><circle class="cls-4" cx="108.88" cy="129.75" r="1.34" transform="translate(-58.62 154.88) rotate(-58.53)"/><circle class="cls-4" cx="102.3" cy="100.74" r="1.34" transform="translate(-37.03 135.4) rotate(-58.53)"/><circle class="cls-4" cx="108.2" cy="104.35" r="1.34" transform="translate(-37.29 142.16) rotate(-58.53)"/><circle class="cls-4" cx="114.1" cy="107.96" r="1.34" transform="translate(-37.55 148.92) rotate(-58.53)"/><circle class="cls-4" cx="120" cy="111.57" r="1.34" transform="translate(-37.81 155.68) rotate(-58.53)"/><circle class="cls-4" cx="43.31" cy="127.52" r="3.31" transform="translate(-90.37 143.9) rotate(-78.23)"/><circle class="cls-4" cx="39.84" cy="144.18" r="3.31" transform="translate(-109.44 153.76) rotate(-78.23)"/><circle class="cls-4" cx="36.36" cy="160.85" r="3.31" transform="translate(-128.52 163.62) rotate(-78.23)"/><circle class="cls-4" cx="59.97" cy="130.99" r="3.31" transform="translate(-80.5 162.98) rotate(-78.23)"/><circle class="cls-4" cx="76.64" cy="134.47" r="3.31" transform="translate(-70.64 182.05) rotate(-78.23)"/><circle class="cls-4" cx="93.3" cy="137.94" r="3.31" transform="translate(-60.78 201.13) rotate(-78.23)"/><circle class="cls-4" cx="56.5" cy="147.66" r="3.31" transform="translate(-99.58 172.84) rotate(-78.23)"/><circle class="cls-4" cx="73.16" cy="151.13" r="3.31" transform="translate(-89.72 191.92) rotate(-78.23)"/><circle class="cls-4" cx="89.83" cy="154.6" r="3.31" transform="translate(-79.85 210.99) rotate(-78.23)"/><circle class="cls-4" cx="53.03" cy="164.32" r="3.31" transform="translate(-118.66 182.7) rotate(-78.23)"/><circle class="cls-4" cx="69.69" cy="167.79" r="3.31" transform="translate(-108.79 201.78) rotate(-78.23)"/><circle class="cls-4" cx="86.35" cy="171.27" r="3.31" transform="translate(-98.93 220.86) rotate(-78.23)"/><circle class="cls-4" cx="47.06" cy="109.53" r="3.31" transform="translate(-69.77 133.25) rotate(-78.23)"/><circle class="cls-4" cx="63.72" cy="113.01" r="3.31" transform="translate(-59.91 152.33) rotate(-78.23)"/><circle class="cls-4" cx="80.39" cy="116.48" r="3.31" transform="translate(-50.05 171.41) rotate(-78.23)"/><circle class="cls-4" cx="97.05" cy="119.95" r="3.31" transform="translate(-40.18 190.48) rotate(-78.23)"/><circle class="cls-4" cx="161.19" cy="158.17" r="26.26"/><rect class="cls-4" x="159.2" y="112.52" width="11.79" height="54.79"/><rect class="cls-4" x="174.65" y="110.88" width="11.79" height="54.79"/></g><path class="cls-5" d="M70.71,152.31h0a0.59,0.59,0,0,1-.74-0.36L58,118.28a0.49,0.49,0,0,1,.4-0.62h0a0.59,0.59,0,0,1,.74.36l12,33.62A0.62,0.62,0,0,1,70.71,152.31Z"/><g class="cls-2"><g class="cls-2"><path class="cls-5" d="M79.55,133.35c-0.11,0-.17.05-0.29,0.05a28,28,0,0,0-4.56,1.19,22.36,22.36,0,0,0-7.3,3.9L60,117.5a22.36,22.36,0,0,1,7.3-3.9,34.46,34.46,0,0,1,4.56-1.19c0.11,0,.17-0.05.29-0.05l7.42,21"/><path class="cls-5" d="M102.65,126.59a12.67,12.67,0,0,1-6.16,4.62,29.52,29.52,0,0,1-3.82,1.09l-7.42-21a20.09,20.09,0,0,0,3.82-1.09,12.37,12.37,0,0,0,6.16-4.62l7.42,21"/></g></g></g></g></svg>