<svg xmlns="http://www.w3.org/2000/svg" xmlns:xlink="http://www.w3.org/1999/xlink" viewBox="0 0 240 240"><defs><style>.cls-1,.cls-4{fill:#d4145a;}.cls-2{isolation:isolate;}.cls-3{clip-path:url(#clip-path);}.cls-4{mix-blend-mode:multiply;}.cls-5{fill:#fff;}</style><clipPath id="clip-path"><rect class="cls-1" x="42.46" y="84.07" width="155.07" height="60.57" transform="translate(240 228.71) rotate(-180)"/></clipPath></defs><title>pictos_JRS</title><g class="cls-2"><g id="Calque_1" data-name="Calque 1"><rect class="cls-1" x="42.46" y="84.07" width="155.07" height="60.57" transform="translate(240 228.71) rotate(-180)"/><g class="cls-3"><path class="cls-4" d="M93.23,59c0.3,0.32,1.34,1.73,1.64,2a215.69,215.69,0,0,1,25.84,32.9,215.69,215.69,0,0,1,19.18,37.17c4.24,10.73,11.07,23.19,18.78,34.7l14.27-.06q16.24-.1,32.48-0.25c-13.24-15.06-27.06-37.17-34-54.68a215.7,215.7,0,0,0-19.18-37.17,215.71,215.71,0,0,0-25.84-32.9c-9.65-10-20-24.54-28.08-38.82L93.23-3.52V59Z"/><circle class="cls-4" cx="114.14" cy="105.78" r="1.34" transform="translate(-35.67 147.92) rotate(-58.53)"/><circle class="cls-4" cx="120.05" cy="109.4" r="1.34" transform="matrix(0.52, -0.85, 0.85, 0.52, -35.93, 154.68)"/><circle class="cls-4" cx="125.95" cy="113.01" r="1.34" transform="translate(-36.19 161.44) rotate(-58.53)"/><circle class="cls-4" cx="117.76" cy="99.88" r="1.34" transform="translate(-28.91 148.18) rotate(-58.53)"/><circle class="cls-4" cx="121.37" cy="93.98" r="1.34" transform="translate(-22.15 148.44) rotate(-58.53)"/><circle class="cls-4" cx="124.98" cy="88.08" r="1.34" transform="translate(-15.39 148.7) rotate(-58.53)"/><circle class="cls-4" cx="123.66" cy="103.5" r="1.34" transform="matrix(0.52, -0.85, 0.85, 0.52, -29.17, 154.94)"/><circle class="cls-4" cx="127.27" cy="97.59" r="1.34" transform="translate(-22.41 155.2) rotate(-58.53)"/><circle class="cls-4" cx="130.88" cy="91.69" r="1.34" transform="translate(-15.65 155.46) rotate(-58.53)"/><circle class="cls-4" cx="129.56" cy="107.11" r="1.34" transform="translate(-29.43 161.7) rotate(-58.53)"/><circle class="cls-4" cx="133.17" cy="101.21" r="1.34" transform="translate(-22.67 161.96) rotate(-58.53)"/><circle class="cls-4" cx="136.78" cy="95.3" r="1.34" transform="translate(-15.91 162.22) rotate(-58.53)"/><circle class="cls-4" cx="107.77" cy="101.89" r="1.34" transform="translate(-35.39 140.62) rotate(-58.53)"/><circle class="cls-4" cx="111.39" cy="95.98" r="1.34" transform="matrix(0.52, -0.85, 0.85, 0.52, -28.63, 140.88)"/><circle class="cls-4" cx="115" cy="90.08" r="1.34" transform="translate(-21.87 141.14) rotate(-58.53)"/><circle class="cls-4" cx="118.61" cy="84.18" r="1.34" transform="translate(-15.11 141.4) rotate(-58.53)"/><circle class="cls-4" cx="134.56" cy="160.87" r="3.31" transform="translate(-50.38 259.77) rotate(-78.23)"/><circle class="cls-4" cx="151.22" cy="164.34" r="3.31" transform="translate(-40.52 278.85) rotate(-78.23)"/><circle class="cls-4" cx="167.89" cy="167.82" r="3.31" transform="translate(-30.66 297.93) rotate(-78.23)"/><circle class="cls-4" cx="138.03" cy="144.21" r="3.31" transform="translate(-31.31 249.91) rotate(-78.23)"/><circle class="cls-4" cx="141.5" cy="127.54" r="3.31" transform="translate(-12.23 240.05) rotate(-78.23)"/><circle class="cls-4" cx="144.98" cy="110.88" r="3.31" transform="translate(6.85 230.18) rotate(-78.23)"/><circle class="cls-4" cx="154.69" cy="147.68" r="3.31" transform="translate(-21.44 268.99) rotate(-78.23)"/><circle class="cls-4" cx="158.17" cy="131.02" r="3.31" transform="translate(-2.37 259.12) rotate(-78.23)"/><circle class="cls-4" cx="161.64" cy="114.35" r="3.31" transform="translate(16.71 249.26) rotate(-78.23)"/><circle class="cls-4" cx="171.36" cy="151.15" r="3.31" transform="translate(-11.58 288.06) rotate(-78.23)"/><circle class="cls-4" cx="174.83" cy="134.49" r="3.31" transform="translate(7.5 278.2) rotate(-78.23)"/><circle class="cls-4" cx="178.31" cy="117.83" r="3.31" transform="translate(26.57 268.34) rotate(-78.23)"/><circle class="cls-4" cx="116.57" cy="157.12" r="3.31" transform="translate(-61.03 239.18) rotate(-78.23)"/><circle class="cls-4" cx="120.04" cy="140.46" r="3.31" transform="translate(-41.95 229.31) rotate(-78.23)"/><circle class="cls-4" cx="123.52" cy="123.79" r="3.31" transform="translate(-22.88 219.45) rotate(-78.23)"/><circle class="cls-4" cx="126.99" cy="107.13" r="3.31" transform="translate(-3.8 209.59) rotate(-78.23)"/><rect class="cls-4" x="141.06" y="11.7" width="11.79" height="54.79" transform="translate(107.86 186.04) rotate(-90)"/><rect class="cls-4" x="29.46" y="72.49" width="11.79" height="54.79" transform="translate(-64.53 135.23) rotate(-90)"/></g><path class="cls-5" d="M92.14,106H62.77c-2.45,0-5.77,1.9-5.77,4.35V120H54v1h3v20H54v2h3v8.48c0,2.45,3.32,4.52,5.77,4.52H92.14c2.45,0,3.86-2.07,3.86-4.52V110.35C96,107.9,94.59,106,92.14,106ZM95,151.48c0,1.62-1.25,3.52-2.86,3.52H62.77c-1.62,0-3.77-1.91-3.77-3.52V143h4v-2H59V121h4v-1H59v-9.65c0-1.62,2.16-2.35,3.77-2.35H92.14c1.62,0,2.86.74,2.86,2.35v41.13Z"/><path class="cls-5" d="M88.93,129.9a1.21,1.21,0,0,0,.52-0.35,1.8,1.8,0,0,0-.78-0.25l-0.67,0V127l1-.22a1,1,0,0,0,.47-0.35c0-.13,0-0.23-0.09-0.25l-1.9-.26L87,124.09v0l0.81-.23a0.74,0.74,0,0,0,.38-0.35c0-.13,0-0.23-0.14-0.25L76.37,121.1a0.27,0.27,0,0,0-.23.06l-9.08,6.35a1.81,1.81,0,0,0-.78,1.73,2.44,2.44,0,0,0,.82,1.92h0l0,0h0.1l0.54,0.11a2.53,2.53,0,0,0-.14.91,2.71,2.71,0,0,0,.4,1.43l-0.42.29a1.82,1.82,0,0,0-.79,1.73,2.43,2.43,0,0,0,.82,1.92s0.09-.08.14-0.06L80.11,140h0l0.44,0.22a1,1,0,0,0,.07.07,0.32,0.32,0,0,0,.23-0.05l8.1-6.9a0.33,0.33,0,0,0,.11-0.34,3.47,3.47,0,0,0-1.09-.25l-1,0v-1.87Zm-9.93.91h0.55a0.45,0.45,0,0,1-.23-0.08l6.68-6.1v2.21l-7,6.32v-2.35Zm-12-.23v-2.36l12,2.44V133Zm12,8.9L68,137v-2.35l11,2.44v2.35Zm-11-5.89v-2L79.54,135h0l0.45-.51s0.05-.29.07-0.29,0.16,0.48.23,0.43L80.56,135H80v1Zm19-.3-7,6.34,0.23-2.36h0.18a0.52,0.52,0,0,0,.28-0.08l0.42-.34,0.19,0h0.08a0.5,0.5,0,0,1-.25-0.08L87,131.44v1.85Zm-6.06,2.89,0.19-2.35h0.16c0.08,0-.17,0-0.11-0.08L88,127.63v2.21Z"/></g></g></svg>