<svg xmlns="http://www.w3.org/2000/svg" xmlns:xlink="http://www.w3.org/1999/xlink" viewBox="0 0 240 240"><defs><style>.cls-1,.cls-4{fill:#f4b821;}.cls-2{isolation:isolate;}.cls-3{clip-path:url(#clip-path);}.cls-4{mix-blend-mode:multiply;}.cls-5{fill:#fff;}</style><clipPath id="clip-path"><rect class="cls-1" x="42.46" y="87.64" width="155.07" height="60.57"/></clipPath></defs><title>pictos_JRS</title><g class="cls-2"><g id="Calque_1" data-name="Calque 1"><rect class="cls-1" x="42.46" y="87.64" width="155.07" height="60.57"/><g class="cls-3"><polygon class="cls-4" points="164.68 87.63 156.92 84.06 160.49 76.3 157.61 74.97 154.04 82.73 146.28 79.16 144.95 82.04 152.71 85.61 149.14 93.37 152.03 94.7 155.59 86.94 163.35 90.51 164.68 87.63"/><circle class="cls-4" cx="130.2" cy="119.84" r="1.34" transform="translate(-24.43 33.79) rotate(-13.53)"/><circle class="cls-4" cx="123.47" cy="121.46" r="1.34" transform="translate(-24.99 32.26) rotate(-13.53)"/><circle class="cls-4" cx="116.75" cy="123.08" r="1.34" transform="translate(-25.56 30.73) rotate(-13.53)"/><circle class="cls-4" cx="131.82" cy="126.57" r="1.34" transform="translate(-25.95 34.35) rotate(-13.53)"/><circle class="cls-4" cx="133.44" cy="133.3" r="1.34" transform="translate(-27.48 34.92) rotate(-13.53)"/><circle class="cls-4" cx="135.06" cy="140.02" r="1.34" transform="translate(-29.01 35.49) rotate(-13.53)"/><circle class="cls-4" cx="125.09" cy="128.19" r="1.34" transform="translate(-26.52 32.83) rotate(-13.53)"/><circle class="cls-4" cx="126.71" cy="134.92" r="1.34" transform="translate(-28.05 33.39) rotate(-13.53)"/><circle class="cls-4" cx="128.33" cy="141.64" r="1.34" transform="translate(-29.58 33.96) rotate(-13.53)"/><circle class="cls-4" cx="118.36" cy="129.81" r="1.34" transform="translate(-27.09 31.3) rotate(-13.53)"/><circle class="cls-4" cx="119.98" cy="136.53" r="1.34" transform="translate(-28.61 31.86) rotate(-13.53)"/><circle class="cls-4" cx="121.6" cy="143.26" r="1.34" transform="translate(-30.14 32.43) rotate(-13.53)"/><circle class="cls-4" cx="137.46" cy="118.1" r="1.34" transform="translate(-23.82 35.44) rotate(-13.53)"/><circle class="cls-4" cx="139.08" cy="124.82" r="1.34" transform="translate(-25.34 36.01) rotate(-13.53)"/><circle class="cls-4" cx="140.7" cy="131.55" r="1.34" transform="translate(-26.87 36.57) rotate(-13.53)"/><circle class="cls-4" cx="142.32" cy="138.28" r="1.34" transform="translate(-28.4 37.14) rotate(-13.53)"/><circle class="cls-4" cx="17.1" cy="55.7" r="3.31" transform="translate(-27.72 18.47) rotate(-33.23)"/><circle class="cls-4" cx="2.86" cy="65.02" r="3.31" transform="translate(-35.16 12.2) rotate(-33.23)"/><circle class="cls-4" cx="26.42" cy="69.94" r="3.31" transform="translate(-34 25.91) rotate(-33.23)"/><circle class="cls-4" cx="35.75" cy="84.17" r="3.31" transform="translate(-40.28 33.35) rotate(-33.23)"/><circle class="cls-4" cx="45.08" cy="98.41" r="3.31" transform="translate(-46.56 40.79) rotate(-33.23)"/><circle class="cls-4" cx="12.18" cy="79.26" r="3.31" transform="translate(-41.44 19.63) rotate(-33.23)"/><circle class="cls-4" cx="21.51" cy="93.5" r="3.31" transform="matrix(0.84, -0.55, 0.55, 0.84, -47.72, 27.07)"/><circle class="cls-4" cx="30.84" cy="107.74" r="3.31" transform="translate(-53.99 34.51) rotate(-33.23)"/><circle class="cls-4" cx="-2.05" cy="88.59" r="3.31" transform="translate(-48.88 13.36) rotate(-33.23)"/><circle class="cls-4" cx="7.27" cy="102.83" r="3.31" transform="translate(-55.16 20.8) rotate(-33.23)"/><circle class="cls-4" cx="16.6" cy="117.07" r="3.31" transform="matrix(0.84, -0.55, 0.55, 0.84, -61.43, 28.23)"/><circle class="cls-4" cx="32.47" cy="45.63" r="3.31" transform="matrix(0.84, -0.55, 0.55, 0.84, -19.69, 25.25)"/><circle class="cls-4" cx="41.79" cy="59.87" r="3.31" transform="matrix(0.84, -0.55, 0.55, 0.84, -25.97, 32.69)"/><circle class="cls-4" cx="51.12" cy="74.11" r="3.31" transform="matrix(0.84, -0.55, 0.55, 0.84, -32.25, 40.13)"/><circle class="cls-4" cx="60.45" cy="88.35" r="3.31" transform="translate(-38.53 47.57) rotate(-33.23)"/><circle class="cls-4" cx="213.5" cy="153.99" r="26.26" transform="translate(-46.36 196.07) rotate(-45)"/><rect class="cls-4" x="148.27" y="162.81" width="11.79" height="54.79" transform="translate(179.64 -53.3) rotate(45)"/><rect class="cls-4" x="190.1" y="61.49" width="11.79" height="54.79" transform="translate(120.26 -112.55) rotate(45)"/></g><path class="cls-5" d="M109.66,141.21l-3.44-7.75a12.35,12.35,0,0,0,1.48-5.85c0-7.9-7.57-14.33-16.87-14.33-7.13,0-13.52,3.88-15.88,9.52-8.72.55-15.62,6.73-15.62,14.27a12.38,12.38,0,0,0,1.48,5.85l-3.44,7.74A1.2,1.2,0,0,0,59,152.26l7.61-3.43a18.82,18.82,0,0,0,9.62,2.57c7.31,0,13.53-4,15.87-9.52a18.68,18.68,0,0,0,8.39-2.52l7.61,3.43a1.19,1.19,0,0,0,.49.11A1.2,1.2,0,0,0,109.66,141.21ZM76.2,149a16.33,16.33,0,0,1-8.88-2.54,1.2,1.2,0,0,0-1.14-.09l-5.33,2.4,2.41-5.42a1.2,1.2,0,0,0-.06-1.1,10.11,10.11,0,0,1-1.46-5.18c0-6.57,6.49-11.92,14.47-11.92s14.46,5.35,14.46,11.92S84.18,149,76.2,149Zm24.66-12.09a1.2,1.2,0,0,0-1.14.09,16.06,16.06,0,0,1-6.9,2.41,12.15,12.15,0,0,0,.24-2.33c0-7.5-6.82-13.66-15.46-14.26,2.28-4.26,7.47-7.13,13.23-7.13,8,0,14.47,5.35,14.47,11.92a10.09,10.09,0,0,1-1.46,5.18,1.2,1.2,0,0,0-.06,1.1l2.41,5.42Z"/></g></g></svg>