<svg id="Calque_1" data-name="Calque 1" xmlns="http://www.w3.org/2000/svg" viewBox="0 0 240 240"><defs><style>.cls-1{fill:#333;}</style></defs><title>pictos_JRS</title><path class="cls-1" d="M65.37,130C65.37,92.17,93,60.7,128,60.7c27.9,0,46.61,18.7,46.61,43.94,0,23.9-12.62,43.64-31.17,43.64-10.24,0-16.78-4.9-17.82-12.62-4.75,7.72-11.43,12.62-19,12.62-9.2,0-15.88-8.32-15.88-20,0-18.41,11.73-35,26.42-35,5.5,0,11,3.41,14.55,11.14l3.86-9.95h15.14L142,128.54c-1.78,6.53.14,9.94,5.64,9.94,9.35,0,18.55-14.54,18.55-33.25,0-20.34-14.4-37-38-37-31,0-54.33,28.5-54.33,62.05,0,24.94,16.18,41.41,38.3,41.41a48.86,48.86,0,0,0,23.45-6.09l3.41,6.53a54.23,54.23,0,0,1-27.16,7.12C85.41,179.3,65.37,160,65.37,130Zm64.12-13.21c0-5.64-2.67-8.91-8.31-8.91-7,0-13.36,8.32-13.36,17.52,0,4.6,2.37,9.05,7.57,9.05C121.78,134.47,129.5,127.94,129.5,116.81Z"/></svg>