<svg id="Calque_1" data-name="Calque 1" xmlns="http://www.w3.org/2000/svg" viewBox="0 0 240 240"><defs><style>.cls-1{fill:#1b1464;}.cls-2{fill:#fff;}</style></defs><title>pictos_JRS</title><circle class="cls-1" cx="120" cy="120" r="58.42"/><path class="cls-2" d="M138.37,142.11H101.63V131l0.07-.16c2.08-4.9,7.74-6.6,10.5-7.14a11.11,11.11,0,0,1-1.89-13.48l0.38-.67,9,3.89,9.63-3.9,0.37,0.64a11.11,11.11,0,0,1-1.87,13.51c2.76,0.55,8.42,2.24,10.5,7.14l0.07,0.16v11.06Zm-18-1.71h16.33v-9c-2-4.49-8-5.8-9.94-6.1Zm-17,0h16.33l-6.39-15.11c-1.94.31-7.92,1.61-9.94,6.1v9Zm12.07-14.46L120,136.79l4.59-10.84A11.16,11.16,0,0,1,115.41,125.95Zm-4-14.15a9.45,9.45,0,1,0,17.09,0l-8.89,3.6Zm-6.38,8.46a3.09,3.09,0,0,1-3.09-3.08,3.18,3.18,0,0,1,2.18-2.93v-9.57l15.51-6.77,18.1,7.47-18.1,7.07-13.55-5.8v7.64A3.08,3.08,0,0,1,105.06,120.25Zm0-4.45a1.46,1.46,0,0,0-1.34,1.37,1.38,1.38,0,1,0,1.49-1.36H105Zm2.11-10.58,12.54,5.36,13.49-5.27-13.49-5.57Z"/></svg>