<svg id="Calque_1" data-name="Calque 1" xmlns="http://www.w3.org/2000/svg" viewBox="0 0 240 240"><defs><style>.cls-1{fill:#29abe2;}.cls-2{fill:#fff;}</style></defs><title>pictos_JRS</title><circle class="cls-1" cx="120" cy="120" r="58.42"/><path class="cls-2" d="M98.75,111.31v28.93a3.89,3.89,0,0,0,3.86,3.91h34.77a3.89,3.89,0,0,0,3.86-3.91V111.31H98.75Zm10.62,29.94h-7.73v-7.73h7.73v7.73Zm0-9.66h-7.73v-7.73h7.73v7.73Zm0-9.66h-7.73v-7.73h7.73v7.73ZM119,141.25h-7.73v-7.73H119v7.73Zm0-9.66h-7.73v-7.73H119v7.73Zm0-9.66h-7.73v-7.73H119v7.73Zm9.66,19.32H121v-7.73h7.73v7.73Zm0-9.66H121v-7.73h7.73v7.73Zm0-9.66H121v-7.73h7.73v7.73Zm9.66,19.32h-7.73v-7.73h7.73v7.73Zm0-9.66h-7.73v-7.73h7.73v7.73Zm0-9.66h-7.73v-7.73h7.73v7.73Z"/><path class="cls-2" d="M137.38,101.65h-6.28V97.3a1.45,1.45,0,1,0-2.9,0v4.35H111.79V97.3a1.45,1.45,0,1,0-2.9,0v4.35h-6.28a3.89,3.89,0,0,0-3.86,3.91v3.34h0v0.48h42.5v-0.48h0v-3.34A3.89,3.89,0,0,0,137.38,101.65Zm-27,6.76a2.9,2.9,0,0,1-1.45-5.4v2.51a1.45,1.45,0,0,0,2.9,0V103A2.9,2.9,0,0,1,110.34,108.41Zm19.32,0a2.9,2.9,0,0,1-1.45-5.4v2.51a1.45,1.45,0,0,0,2.9,0V103A2.9,2.9,0,0,1,129.66,108.41Z"/></svg>