<svg id="Calque_1" data-name="Calque 1" xmlns="http://www.w3.org/2000/svg" viewBox="0 0 240 240"><title>pictos_JRS</title><path d="M198.9,145.3l-10.38-23.38A37.26,37.26,0,0,0,193,104.26C193,80.42,170.16,61,142.08,61c-21.51,0-40.8,11.71-47.94,28.74C67.83,91.41,47,110.08,47,132.84a37.37,37.37,0,0,0,4.48,17.66L41.1,173.88a3.63,3.63,0,0,0,4.8,4.78l23-10.34a56.8,56.8,0,0,0,29,7.76c22.07,0,40.85-12,47.89-28.73a56.39,56.39,0,0,0,25.32-7.61l23,10.34a3.58,3.58,0,0,0,1.49.32A3.63,3.63,0,0,0,198.9,145.3Zm-101,23.53a49.28,49.28,0,0,1-26.81-7.66,3.63,3.63,0,0,0-3.45-.26l-16.08,7.24,7.27-16.36a3.63,3.63,0,0,0-.19-3.31,30.52,30.52,0,0,1-4.4-15.64c0-19.84,19.58-36,43.66-36s43.65,16.14,43.65,36S122,168.83,97.91,168.83Zm74.43-36.49a3.62,3.62,0,0,0-3.45.26,48.47,48.47,0,0,1-20.82,7.28,36.68,36.68,0,0,0,.74-7c0-22.63-20.58-41.22-46.67-43.05,6.89-12.87,22.54-21.51,39.94-21.51,24.07,0,43.66,16.14,43.66,36a30.46,30.46,0,0,1-4.4,15.62,3.63,3.63,0,0,0-.19,3.31l7.27,16.37Z"/></svg>