<svg id="Calque_1" data-name="Calque 1" xmlns="http://www.w3.org/2000/svg" viewBox="0 0 240 240"><defs><style>.cls-1{fill:#c1272d;}</style></defs><title>pictos_JRS</title><path class="cls-1" d="M73.22,157l34.33-31.71,9.81,9.06a3.88,3.88,0,0,0,5.28,0l9.81-9.05L166.78,157H73.22Zm-6-69,34.65,32L67.18,152V88Zm99.6-5L120,126.2,73.22,83h93.55Zm6,69-34.65-32,34.65-32v64Zm7.66-73.44a4.12,4.12,0,0,0-.17-0.84,3.91,3.91,0,0,0-.47-0.77,3.58,3.58,0,0,0-.29-0.47l-0.05,0a4,4,0,0,0-.78-0.57,3.51,3.51,0,0,0-.45-0.3,3,3,0,0,0-.63-0.15,3.48,3.48,0,0,0-.85-0.17l-0.08,0H63.22a3.89,3.89,0,0,0-1,.2,3.35,3.35,0,0,0-.48.12,3.81,3.81,0,0,0-.52.35,3.91,3.91,0,0,0-.72.53l-0.06,0a3.53,3.53,0,0,0-.28.47,3.91,3.91,0,0,0-.47.77,4.12,4.12,0,0,0-.17.84,3.33,3.33,0,0,0-.11.57v81.75a3.48,3.48,0,0,0,.11.57,4.23,4.23,0,0,0,.17.84,4.42,4.42,0,0,0,.47.77,3.44,3.44,0,0,0,.28.46,0.43,0.43,0,0,1,.06,0,3.77,3.77,0,0,0,1.15.81s0.08,0.06.12,0.09a4,4,0,0,0,1.53.31H176.71a4,4,0,0,0,1.52-.31l0.12-.09a3.86,3.86,0,0,0,1.15-.81l0.05,0a3.49,3.49,0,0,0,.29-0.46,4.42,4.42,0,0,0,.47-0.77,4.23,4.23,0,0,0,.17-0.84,4.57,4.57,0,0,0,.11-0.57V79.12a4.31,4.31,0,0,0-.11-0.57h0Z"/></svg>