<?xml version="1.0" encoding="utf-8"?>
<!-- Generator: Adobe Illustrator 19.0.0, SVG Export Plug-In . SVG Version: 6.00 Build 0)  -->
<svg version="1.1" id="Capa_1" xmlns="http://www.w3.org/2000/svg" xmlns:xlink="http://www.w3.org/1999/xlink" x="0px" y="0px"
	 viewBox="-703 285 512 512" style="enable-background:new -703 285 512 512;" xml:space="preserve">
<style type="text/css">
	.st0{fill:#FFFFFF;}
</style>
<g>
	<g>
		<path class="st0" d="M-294.4,565.3c-4.3-2.8-7.7-6.6-10.2-11.3c13.9-17.1,21.4-37.8,21.4-59c0-55.7-51.1-101.1-113.8-101.1
			c-51,0-94.3,29.9-108.7,71.1c3.7-0.3,7.5-0.5,11.3-0.5c3.4,0,6.8,0.1,10,0.4c13.9-30,47.8-51.2,87.4-51.2
			c51.9,0,94.1,36.5,94.1,81.3c0,18.5-7.1,36.1-20.5,50.6l-4.1,4.4l2.1,5.7c1.8,4.8,4.1,9.3,7,13.3c-6.3-0.9-12-2.9-17.1-5.9l-5-2.9
			l-5,2.9c-4.6,2.6-9.4,4.8-14.4,6.7c0.8,5.4,1.3,10.9,1.3,16.5c0,1.3-0.1,2.6-0.1,3.9c6.2-1.9,12.3-4.4,18.1-7.4
			c9,4.4,19.1,6.6,30,6.6c3.7,0,7.4-0.3,11-0.7c5.3-0.7,9.4-4.6,10.6-9.8C-287.7,573.6-289.9,568.3-294.4,565.3z"/>
		<g>
			<path class="st0" d="M-494.6,484.3c-64.2,0-116.2,45.6-116.2,101.9c0,24.2,9.7,46.5,25.8,64c-3,8-8.4,17.2-18.3,23.7
				c-2.5,1.6-1.7,5.4,1.2,5.8c10.3,1.4,28,1.7,44.4-8c18.2,10.3,39.8,16.3,63.1,16.3c64.2,0,116.2-45.6,116.2-101.9
				C-378.4,529.9-430.4,484.3-494.6,484.3z M-536.3,598.7c-6.9,0-12.5-5.6-12.5-12.5s5.6-12.5,12.5-12.5s12.5,5.6,12.5,12.5
				C-523.8,593.1-529.4,598.7-536.3,598.7z M-494.6,598.7c-6.9,0-12.5-5.6-12.5-12.5s5.6-12.5,12.5-12.5s12.5,5.6,12.5,12.5
				C-482.1,593.1-487.6,598.7-494.6,598.7z M-452.8,598.7c-6.9,0-12.5-5.6-12.5-12.5s5.6-12.5,12.5-12.5s12.5,5.6,12.5,12.5
				S-445.9,598.7-452.8,598.7z"/>
		</g>
	</g>
</g>
</svg>
