<?xml version="1.0" encoding="utf-8"?>
<!-- Generator: Adobe Illustrator 19.0.0, SVG Export Plug-In . SVG Version: 6.00 Build 0)  -->
<svg version="1.1" id="Capa_1" xmlns="http://www.w3.org/2000/svg" xmlns:xlink="http://www.w3.org/1999/xlink" x="0px" y="0px"
	 viewBox="-703 285 512 512" style="enable-background:new -703 285 512 512;" xml:space="preserve">
<style type="text/css">
	.st0{fill:#FFFFFF;}
</style>
<g>
	<g>
		<g>
			<path class="st0" d="M-325.3,386h-243.4c-18.3,0-33.3,15-33.3,33.3v243.4c0,18.3,15,33.3,33.3,33.3h243.4
				c18.3,0,33.3-15,33.3-33.3V419.3C-292,401-307,386-325.3,386z M-500.4,409h106.8v27.6h-106.8V409z M-320.8,664.1h-252.4V463
				h252.4L-320.8,664.1L-320.8,664.1z"/>
			<rect x="-547.7" y="554.5" class="st0" width="33.3" height="33.3"/>
			<rect x="-547.7" y="607.2" class="st0" width="33.3" height="33.3"/>
			<rect x="-491.9" y="501.8" class="st0" width="33.3" height="33.3"/>
			<rect x="-491.9" y="554.5" class="st0" width="33.3" height="33.3"/>
			<rect x="-491.9" y="607.2" class="st0" width="33.3" height="33.3"/>
			<rect x="-436.1" y="501.8" class="st0" width="33.3" height="33.3"/>
			<rect x="-436.1" y="554.5" class="st0" width="33.3" height="33.3"/>
			<rect x="-436.1" y="607.2" class="st0" width="33.3" height="33.3"/>
			<rect x="-380.3" y="501.8" class="st0" width="33.3" height="33.3"/>
			<rect x="-380.3" y="554.5" class="st0" width="33.3" height="33.3"/>
		</g>
	</g>
</g>
</svg>
