<?xml version="1.0" encoding="utf-8"?>
<!-- Generator: Adobe Illustrator 19.0.0, SVG Export Plug-In . SVG Version: 6.00 Build 0)  -->
<svg version="1.1" id="Capa_1" xmlns="http://www.w3.org/2000/svg" xmlns:xlink="http://www.w3.org/1999/xlink" x="0px" y="0px"
	 viewBox="-703 285 512 512" style="enable-background:new -703 285 512 512;" xml:space="preserve">
<style type="text/css">
	.st0{fill:#FFFFFF;}
</style>
<g>
	<path class="st0" d="M-346.5,577.6c0,4.8-3.9,8.8-8.8,8.8H-392c-4.8,0-8.8-3.9-8.8-8.8v-16.7h-92.6v16.7c0,4.8-3.9,8.8-8.8,8.8
		h-36.7c-4.8,0-8.8-3.9-8.8-8.8v-16.7h-46.8v130.7c0,8.2,6.7,14.9,14.9,14.9h264.8c8.2,0,14.9-6.7,14.9-14.9V560.9h-46.8V577.6z"/>
	<path class="st0" d="M-296.9,437.6h-85.9v-47.7c0-8-6.5-14.5-14.5-14.5h-99.5c-8,0-14.5,6.5-14.5,14.5v47.7h-85.9
		c-8.2,0-14.9,6.7-14.9,14.9v83.3h64.5v-16.3c0-4.8,3.9-8.8,8.8-8.8h36.7c4.8,0,8.8,3.9,8.8,8.8v16.3h92.6v-16.3
		c0-4.8,3.9-8.8,8.8-8.8h36.7c4.8,0,8.8,3.9,8.8,8.8v16.3h64.5v-83.3C-282,444.3-288.7,437.6-296.9,437.6z M-482.2,404.4h70.5v33.2
		h-70.5L-482.2,404.4L-482.2,404.4z"/>
</g>
</svg>
