<?xml version="1.0" encoding="utf-8"?>
<!-- Generator: Adobe Illustrator 19.0.0, SVG Export Plug-In . SVG Version: 6.00 Build 0)  -->
<svg version="1.1" id="Calque_1" xmlns="http://www.w3.org/2000/svg" xmlns:xlink="http://www.w3.org/1999/xlink" x="0px" y="0px"
	 viewBox="-4 300.9 240 240" style="enable-background:new -4 300.9 240 240;" xml:space="preserve">
<style type="text/css">
	.st0{fill:#F9F9F9;}
</style>
<title>pictos_JRS</title>
<path class="st0" d="M51.6,468.6l44.4-41l12.7,11.7c1.9,1.8,4.9,1.8,6.9,0l12.7-11.7l44.4,41H51.6z M43.8,379.4l44.7,41.4
	l-44.8,41.3L43.8,379.4L43.8,379.4z M172.5,373L112,428.8L51.6,373H172.5L172.5,373z M180.3,462.1l-44.8-41.3l44.7-41.3L180.3,462.1
	L180.3,462.1z M190.2,367.2c0-0.4-0.1-0.7-0.2-1.1c-0.2-0.4-0.4-0.7-0.6-1c-0.1-0.2-0.3-0.5-0.4-0.6H189c-0.3-0.3-0.6-0.5-1-0.7
	c-0.2-0.2-0.4-0.3-0.5-0.4c-0.3-0.1-0.5-0.2-0.8-0.2c-0.4-0.1-0.7-0.2-1.1-0.2h-0.1H38.6c-0.5,0-0.9,0.1-1.3,0.3
	c-0.2,0-0.5,0.1-0.6,0.2c-0.3,0.1-0.5,0.3-0.6,0.5c-0.4,0.2-0.6,0.5-0.9,0.7h-0.1c-0.2,0.2-0.3,0.4-0.4,0.6c-0.3,0.3-0.5,0.6-0.6,1
	c-0.1,0.4-0.2,0.7-0.2,1.1c-0.1,0.3-0.1,0.5-0.2,0.7v105.6c0,0.3,0.1,0.5,0.2,0.7c0,0.4,0.1,0.7,0.2,1.1c0.2,0.4,0.4,0.7,0.6,1
	c0.1,0.2,0.3,0.5,0.4,0.6h0.1c0.5,0.5,0.9,0.8,1.4,1.1c0,0,0.1,0.1,0.2,0.1c0.6,0.3,1.3,0.4,2,0.4h146.6c0.6,0,1.4-0.2,2-0.4
	l0.2-0.1c0.5-0.3,1.1-0.6,1.4-1.1h0.1c0.2-0.2,0.3-0.4,0.4-0.6c0.3-0.3,0.5-0.6,0.6-1c0.1-0.4,0.2-0.7,0.2-1.1
	c0.1-0.3,0.1-0.5,0.2-0.7V367.9C190.3,367.7,190.2,367.5,190.2,367.2L190.2,367.2L190.2,367.2z"/>
</svg>
