<?xml version="1.0" encoding="utf-8"?>
<!-- Generator: Adobe Illustrator 19.0.0, SVG Export Plug-In . SVG Version: 6.00 Build 0)  -->
<svg version="1.1" id="Capa_1" xmlns="http://www.w3.org/2000/svg" xmlns:xlink="http://www.w3.org/1999/xlink" x="0px" y="0px"
	 viewBox="-703 285 512 512" style="enable-background:new -703 285 512 512;" xml:space="preserve">
<style type="text/css">
	.st0{fill:#FFFFFF;}
</style>
<g>
	<g id="Layer_5_59_">
		<g>
			<path class="st0" d="M-425.3,606.3c-6,3.7-13.7,5.7-21.7,5.7s-15.7-2-21.7-5.7l-98.2-60.3c0,0-8.9-5.4-8.9,6.9
				c0,14,0,55.9,0,55.9c0,0.6,0,3.4,0,4.2c0,31.7,57.7,65.9,128.8,65.9s128.8-34.2,128.8-65.9c0-0.9,0-3.7,0-4.2c0,0,0-44.5,0-59.3
				c0-9.9-6.3-5.1-6.3-5.1L-425.3,606.3z"/>
			<path class="st0" d="M-283.6,498.2c7.5-4.6,7.5-12.2,0-16.8l-149.7-74.8c-7.5-4.6-19.9-4.6-27.5,0l-149.7,74.8
				c-7.5,4.6-7.5,12.2,0,16.8l149.7,91.8c7.5,4.6,19.9,4.6,27.5,0"/>
			<path class="st0" d="M-289.8,634.2c0-25.3,0-101.4,0-101.4s0.1-4.8-2.8-3.2c-2.3,1.3-7.9,4.4-9.9,6.1c-2.3,2-1.8,6.4-1.8,6.4
				s0,69,0,92.1c0,1.3-1.1,1.9-1.7,2.2c-5.2,3-8.7,8.7-8.7,15.1c0,9.7,7.8,17.5,17.5,17.5c9.7,0,17.5-7.8,17.5-17.5
				c0-6.5-3.5-12.1-8.7-15.1C-288.7,636.1-289.8,635.5-289.8,634.2z"/>
		</g>
	</g>
</g>
</svg>
