<?xml version="1.0" encoding="utf-8"?>
<!-- Generator: Adobe Illustrator 19.0.0, SVG Export Plug-In . SVG Version: 6.00 Build 0)  -->
<svg version="1.1" id="Calque_1" xmlns="http://www.w3.org/2000/svg" xmlns:xlink="http://www.w3.org/1999/xlink" x="0px" y="0px"
	 viewBox="-4 300.9 240 240" style="enable-background:new -4 300.9 240 240;" xml:space="preserve">
<style type="text/css">
	.st0{fill:#FFFFFF;}
</style>
<title>pictos_JRS</title>
<path class="st0" d="M204.6,450.5l-12.1-27.4c3.4-6.4,5.2-13.5,5.2-20.7c0-28-26.8-50.7-59.7-50.7c-25.2,0-47.9,13.7-56.2,33.7
	c-30.9,1.9-55.3,23.8-55.3,50.5c0,7.2,1.8,14.3,5.2,20.7L19.4,484c-1,2.1-0.1,4.6,2,5.7c1.2,0.6,2.6,0.6,3.8,0l27-12.1
	c10.3,6,22.1,9.2,34.1,9.1c25.7,0,47.9-14.1,56.2-33.7c10.5-0.6,20.7-3.6,29.7-8.9l26.8,12.3c0.5,0.3,1.1,0.4,1.7,0.4
	c2.3,0.1,4.3-1.8,4.4-4.1C205,451.8,204.9,451.2,204.6,450.5z M86.1,478.1c-11.1,0.1-22.1-3-31.5-9c-1.2-0.8-2.7-0.9-4.1-0.3
	l-19,8.5L40,458c0.6-1.3,0.5-2.7-0.2-3.9c-3.4-5.5-5.1-11.9-5.2-18.3c0-23.3,23-42.2,51.2-42.2s51.2,18.9,51.2,42.2
	C137.1,459.1,114.3,478.1,86.1,478.1L86.1,478.1z M173.4,435.3c-1.3-0.6-2.8-0.5-4.1,0.3c-7.4,4.7-15.7,7.6-24.4,8.5
	c0.6-2.7,0.8-5.5,0.9-8.2c0-26.5-24.1-48.2-54.7-50.5c8.1-15.1,26.4-25.2,46.8-25.2c28.2,0,51.2,18.9,51.2,42.2
	c0,6.5-1.8,12.8-5.1,18.3c-0.7,1.2-0.8,2.6-0.2,3.9l8.5,19.3L173.4,435.3z"/>
</svg>
