<?xml version="1.0" encoding="utf-8"?>
<!-- Generator: Adobe Illustrator 19.0.0, SVG Export Plug-In . SVG Version: 6.00 Build 0)  -->
<svg version="1.1" id="Layer_1" xmlns="http://www.w3.org/2000/svg" xmlns:xlink="http://www.w3.org/1999/xlink" x="0px" y="0px"
	 viewBox="-703 285 512 512" style="enable-background:new -703 285 512 512;" xml:space="preserve">
<style type="text/css">
	.st0{fill:#FFFFFF;}
</style>
<g>
	<path class="st0" d="M-447,506.2c34.5,0,62.6-28.1,62.6-62.6S-412.5,381-447,381s-62.6,28.1-62.6,62.6S-481.5,506.2-447,506.2z
		 M-477.3,436.9c3.7-3.7,9.7-3.7,13.4,0l9,9l24.8-24.8c3.7-3.7,9.7-3.7,13.4,0c3.7,3.7,3.7,9.7,0,13.4l-31.4,31.4
		c-1.8,1.8-4.3,2.8-6.7,2.8s-4.8-0.9-6.7-2.8l-15.7-15.7C-481,446.6-481,440.6-477.3,436.9z"/>
	<path class="st0" d="M-570.2,472.4c20.3,0,36.8-16.5,36.8-36.8c0-20.3-16.5-36.8-36.8-36.8s-36.8,16.5-36.8,36.8
		S-590.5,472.4-570.2,472.4z"/>
	<path class="st0" d="M-603.4,525.1v76.4c0,17.6,14.2,31.8,31.8,31.8h41.4v56.5c0,4.3,3.5,7.8,7.8,7.8h36.7c4.3,0,7.8-3.5,7.8-7.8
		v-81.4c0-14.8-12-26.8-26.8-26.8H-537v-56.4c0-18.3-14.9-33.2-33.2-33.2C-588.5,492-603.4,506.8-603.4,525.1z"/>
	<path class="st0" d="M-323.8,472.4c20.3,0,36.8-16.5,36.8-36.8c0-20.3-16.5-36.8-36.8-36.8s-36.8,16.5-36.8,36.8
		S-344.1,472.4-323.8,472.4z"/>
	<path class="st0" d="M-357,525.1v56.4h-32.3c-14.8,0-26.8,12-26.8,26.8v81.4c0,4.3,3.5,7.8,7.8,7.8h36.7c4.3,0,7.8-3.5,7.8-7.8
		v-56.5h41.4c17.6,0,31.8-14.2,31.8-31.8v-76.4c0-18.3-14.9-33.2-33.2-33.2C-342.1,492-357,506.8-357,525.1L-357,525.1z"/>
	<path class="st0" d="M-391.9,544.6c5.2,0,9.5-4.2,9.5-9.5c0-5.2-4.2-9.5-9.5-9.5h-110.1c-5.2,0-9.5,4.2-9.5,9.5
		c0,5.2,4.2,9.5,9.5,9.5h45.6v147c0,5.2,4.2,9.5,9.5,9.5s9.5-4.2,9.5-9.5v-147H-391.9z"/>
</g>
</svg>
