<?xml version="1.0" encoding="utf-8"?>
<!-- Generator: Adobe Illustrator 19.0.0, SVG Export Plug-In . SVG Version: 6.00 Build 0)  -->
<svg version="1.1" id="Capa_1" xmlns="http://www.w3.org/2000/svg" xmlns:xlink="http://www.w3.org/1999/xlink" x="0px" y="0px"
	 viewBox="-703 285 512 512" style="enable-background:new -703 285 512 512;" xml:space="preserve">
<style type="text/css">
	.st0{fill:#FFFFFF;}
</style>
<g id="XMLID_800_">
	<path id="XMLID_803_" class="st0" d="M-394.8,632.4c7.1-3,11.8-10.1,11.6-18.2c-0.3-10.3-9.1-18.6-19.6-18.6h-6.2
		c-4.6-12.9-9-25.8-12.9-38.7c4.5-3.8,7.1-9.4,6.9-15.4c-0.3-9.3-7.3-16.7-16.3-18.2c-10.1-39.1-16.6-77.5-19.5-114.1
		c5.1-3,8.1-8.6,7.7-14.7c-0.6-8.2-7.6-14.6-16-14.6h-13.7c-8.4,0-15.4,6.4-16,14.6c-0.4,6.1,2.6,11.7,7.7,14.7
		c-2.8,36.6-9.4,74.9-19.5,114.1c-9,1.4-16,8.9-16.3,18.2c-0.2,6,2.3,11.7,6.9,15.4c-3.9,12.8-8.3,25.8-12.9,38.7h-6.2
		c-10.5,0-19.3,8.3-19.6,18.6c-0.2,8.1,4.5,15.1,11.6,18.2c-14.1,33.9-25.4,54.8-25.9,55.7c-2,3.7-1.3,8.3,1.7,11.2
		c1.7,1.7,4.1,2.7,6.7,2.7h48.4l-1.1-5.2c-1.5-7.3,1.1-15.8,7.1-23.3c8.2-10.1,21-16.1,34.2-16.1c13.3,0,26.1,6,34.3,16.1
		c6.1,7.5,8.6,15.9,7.1,23.3l-1.1,5.2h48.4c2.6,0,5-0.9,6.7-2.7c3-2.9,3.7-7.6,1.7-11.2C-369.4,687.2-380.8,666.3-394.8,632.4z"/>
</g>
</svg>
