<?xml version="1.0" encoding="utf-8"?>
<!-- Generator: Adobe Illustrator 19.0.0, SVG Export Plug-In . SVG Version: 6.00 Build 0)  -->
<svg version="1.1" id="Capa_1" xmlns="http://www.w3.org/2000/svg" xmlns:xlink="http://www.w3.org/1999/xlink" x="0px" y="0px"
	 viewBox="-703 285 512 512" style="enable-background:new -703 285 512 512;" xml:space="preserve">
<style type="text/css">
	.st0{fill:#FFFFFF;}
</style>
<g>
	<g>
		<path class="st0" d="M-316.7,577.4c-17.8,1.1-41.1,18.8-63.7,29c-27.6,12.5-70.6,2.5-70.6,2.5c6.6-3.1,33.6-9.5,39-11.9
			c28.9-12.7,26.4-39.2,12.7-38.9c-18.1,0.3-28.8,4.8-65,9.7c-27.5,3.7-59.9,2.4-75.5,8.3c-22,8.4-57.4,64.9-57.4,64.9l54.7,53.1
			c0,0,33.9-33.4,50.4-33.4c37.6,0,39.1-0.5,74-2.4c14.8-0.8,17.9-1.4,26.4-4.3c45.2-15.3,93.8-56,94.7-60.9
			C-294.9,581.7-307.3,576.8-316.7,577.4z"/>
		<path class="st0" d="M-542.5,539c1.5,1,3.4,1.1,5,0.4c29.3-13.2,59-13.2,88.3,0c1.4,0.6,3,0.6,4.3,0c29.3-13.2,59-13.2,88.3,0
			c0.7,0.3,1.4,0.5,2.1,0.5c1,0,2-0.3,2.9-0.8c1.5-1,2.4-2.6,2.4-4.4V403.5c0-3.6-3-4.8-3.1-4.8c-15.7-7.1-31.8-10.6-47.9-10.6
			c-14.1,0-28.3,2.8-42.3,8.3v64.3c0,2.5-2,4.6-4.6,4.6c-2.5,0-4.6-2.1-4.6-4.6v-64.3c-13.9-5.5-28.1-8.3-42.2-8.3
			c-16.1,0-32.2,3.6-47.9,10.6c-0.1,0-3.1,1.6-3.1,4.8v131.1C-544.9,536.3-544,538-542.5,539z M-534.4,509.6c13.4-5.3,27-8,40.5-8
			c15.3,0,30.7,3.4,45.8,10.2c0.7,0.3,1.5,0.3,2.1,0c15-6.8,30.4-10.2,45.8-10.2c13.6,0,27.2,2.7,40.5,8v17
			c-13.5-5.1-27.3-7.7-41.1-7.7c-15.5,0-31.1,3.3-46.3,9.8c-15.2-6.5-30.8-9.8-46.3-9.8c-13.7,0-27.5,2.6-41.1,7.7L-534.4,509.6
			L-534.4,509.6z"/>
	</g>
</g>
</svg>
