<?xml version="1.0" encoding="utf-8"?>
<!-- Generator: Adobe Illustrator 19.0.0, SVG Export Plug-In . SVG Version: 6.00 Build 0)  -->
<svg version="1.1" id="Calque_1" xmlns="http://www.w3.org/2000/svg" xmlns:xlink="http://www.w3.org/1999/xlink" x="0px" y="0px"
	 viewBox="-185 277 240 240" style="enable-background:new -185 277 240 240;" xml:space="preserve">
<style type="text/css">
	.st0{fill:#144E88;}
</style>
<title>pictos_JRS</title>
<g id="_9DRLTt">
	<path class="st0" d="M-108.6,416.8l-0.4-0.5c-0.1,0.2-0.1,0.3-0.1,0.5c0.1,1.8,0.1,3.6,0.3,5.4s0.7,3.5,1.1,5.2l0,0
		c0.3,1.2,0.2,1.5-1,1.8c-0.8,0.2-0.9,0.2-0.8,1.1c0,1.2,0.1,2.3,0.2,3.5c0,1,0.8,1.9,1.8,2c0.1,0,0.3,0,0.4-0.1
		c0.6-1,1.2-2.1,1.7-3.1c0.1-0.2,0-0.4-0.1-0.6c-0.5-0.2-0.3-0.5-0.2-0.8l1.8-3.7l0.2-0.4l1.1-2.1h-0.8c-0.7,0-0.8-0.3-0.6-0.9
		c0.1-0.2,0.1-0.5,0.1-0.8c-0.3-2.2-0.2-4.3,0.1-6.5c0.2-1.1,0.4-2.1,0.7-3.2c0.3-1.5,0.5-3,0.5-4.5c0-1.2,0.2-2.4,0.7-3.5
		c0-0.2,0-0.4-0.1-0.5c-0.2-0.5-0.5-0.9-0.6-1.4c-0.2-0.6-0.2-1.2,0.1-1.7c0.2-0.3,0.3-0.7,0.5-1c0.5-1.1,0.9-2.4,1-3.6
		c0.2-0.7,0.4-1.4,0.7-2.1c0.4-0.9,0.9-1.7,1.3-2.6c0.4-1,1.1-1.8,2-2.4c0.5-0.3,1-0.8,1.5-1.1c0.4-0.4,1.1-0.6,1.7-0.4l-0.7,0.5
		l0.7,0.8h0.2c-0.2-0.6,0.2-0.7,0.5-0.9c0.3-0.2,0.7-0.4,1-0.6c0.3-0.1,0.4-0.4,0.3-0.6c0-0.1-0.1-0.2-0.2-0.2c-0.8-0.8-1.1-2-1-3.1
		c0.3-1.6,1.3-2.9,2.8-3.6c0.4-0.2,0.8-0.2,1.2-0.1c1.9,0.2,3.5,1.3,4.6,2.9c0.2,0.3,0.4,0.6,0.5,0.9c0.2,0.4,0.1,0.8-0.2,1.1
		c-0.4,0.5-0.8,1.1-1,1.8c0,0.2,0,0.3,0,0.5c0.3,0.6,0.2,1.3-0.4,1.7c-0.4,0.4-0.8,0.9-1.1,1.4c-0.2,0.3-0.6,0.4-0.9,0.2
		c0,0,0,0,0,0c-0.5-0.2-1-0.4-1.5-0.7c-0.3-0.2-0.8-0.2-1,0.1l-1,0.9c1.1,0.7,1.9,1.9,2.1,3.2c0.3,0.7,0.2,1.4-0.1,2
		c-0.2,0.4-0.3,0.8-0.4,1.3c-0.1,0.5-0.2,1.1-0.4,1.6c-0.4,1.4-0.4,2.9,0.1,4.3c0.2,0.7,0.4,1.4,0.6,2.2c0.1,0.3,0.1,0.6,0.1,1
		c-0.1,0-0.2,0-0.3,0c-1.8-0.5-3.8,0.5-4.3,2.4c-0.2,0.5-0.2,1.1-0.1,1.7c0.1,0.6,0.3,1.2,0.5,1.7c0.2,0.2,0.1,0.6-0.1,0.8
		c-1.5,1.6-2.3,3.7-2.3,5.9c0,0.6,0,1.2,0,1.9h0.4c0.1-0.4,0.1-0.7,0.1-1.1c0.1-1.8,0.8-3.6,1.9-5c0.2-0.3,0.5-0.5,0.8-0.7
		c0.6-0.2,0.8-0.8,0.6-1.4c0-0.1-0.1-0.2-0.2-0.3c-0.6-0.9-0.8-2-0.4-3c0.3-0.9,1.1-1.6,2.1-1.6c1.8-0.1,3.5,0.9,4.1,2.6
		c0,0.1,0,0.2,0,0.3c-0.3,0.5-0.6,0.9-1,1.4c-0.1,0.1-0.2,0.2-0.2,0.4c0.3,0.9-0.6,1.4-0.8,2.1c-0.1,0.4-0.6,0.4-1,0.2
		c-0.7-0.3-0.8-0.3-0.8,0.5c0,0.8,0.2,1.2,0.2,1.8c0,0.3,0,0.6,0,1c0.1,0,0.3,0,0.4,0c0.4-0.4,0.6-0.9,0.7-1.4
		c0-0.4,0.2-0.8,0.5-1.1c0.4-0.2,0.8-0.1,1,0.3c0,0,0,0,0,0c0.7,0.7,0.6,1,0,1.7c-0.2,0.4-0.3,0.8-0.4,1.2c-0.5,1-0.9,1.9-1.4,2.9
		c-0.1,0.4-0.5,0.6-0.9,0.5c-0.1,0-0.1,0-0.2-0.1c0.5,1,0.6,2.2,0.2,3.3c-0.1,0.3-0.1,0.6,0,1c0.2,1.1,0.3,2.2,0.5,3.3
		c0.1,0.6,0.3,1.2,0.4,1.8l-0.3,0.1c-0.5,0.1-0.9,0.5-0.9,1.1c0,0.1,0,0.2,0.1,0.4c0.2,0.7,0.4,1.4,0.6,2.2c0.1,0.3,0.2,0.6-0.3,0.8
		c-0.5,0.2-0.1,0.5,0.1,0.6c0.8,0.6,1.8,1.1,2.9,1.3c0.3,0,0.5,0.1,0.8,0.2v0.2c-0.2,0.1-0.4,0.2-0.6,0.2c-1.2,0-2.5,0-3.7,0.1
		c-1,0-1.1-0.2-1-1.1c0-0.5,0.3-1.1-0.4-1.4c-0.2-0.3-0.3-0.6-0.3-0.9c-0.2-0.7-0.4-1.3-0.6-2c0-0.1-0.1-0.2-0.2-0.3
		c-0.1,0-0.2,0.1-0.3,0.2c-0.2,0.2-0.5,0.4-0.7,0.6c-0.6,0.5-1.3,0.9-1.9,1.3c-0.2,0.2-0.4,0.5-0.5,0.7c-0.5-0.1-0.7,0-0.5,0.6
		c0.2,0.5,0.5,1.1,0.7,1.5c0.2,0.2,0.4,0.4,0.7,0.5l0.3,0.2c-0.1,0.1-0.2,0.2-0.3,0.3c-0.7,0.1-1.4-0.1-1.9-0.6
		c-0.4-0.7-1.1-1.2-1.8-1.6c-0.4-0.2-0.6-0.7-0.4-1.1c0-0.4,0.3-0.7,0.6-0.7c0.3-0.1,0.6-0.3,0.9-0.5c0.1-0.1,0.2-0.2,0.3-0.3
		c0-0.7,0.4-1.3,1.1-1.5c0.7-0.6,0.7-0.5,0.2-1.3c0.8-0.8,1.2-1.9,1-3c0-0.1,0-0.2,0-0.3c0.7-1.2-0.2-2.1-0.7-3.1
		c-0.3-0.3-0.8-0.3-1.1,0c0,0-0.1,0.1-0.1,0.1c-1.6,2.3-3.5,4.4-4.4,7.1c-0.1,0.4-0.3,0.8-0.9,0.5c-0.2,0-0.3,0.1-0.4,0.3
		c-0.6,1-0.3,2.4,0.7,3c0,0,0,0,0,0c0.7,0.6,1.3,1.1,2.1,1.6c0.3,0.2,0.6,0.3,0.9,0.4c0.2,0.1,0.3,0.2,0.4,0.4
		c-0.2,0.1-0.3,0.3-0.5,0.4c-0.1,0-0.2,0-0.3,0c-1,0.3-2,0.2-2.9-0.4c-0.5-0.2-1-0.2-1.6-0.3c-0.4,0-0.8,0-1.2,0
		c-1.9-0.1-3.7,0-5.6,0.4c-0.5,0.2-1-0.1-1.2-0.6c-0.1-0.2-0.1-0.3,0-0.5c0-0.4,0.1-0.8,0.2-1.2c0.3-1.2,0.3-2.4,0-3.5
		c-0.2-1-0.4-2-0.5-3.1c0-0.4-0.4-0.7-0.8-0.7c-0.8-0.1-1.6,0.1-2.2,0.5c-0.6,0.2-1.2,0.3-1.8,0.3c-0.4,0-0.8,0.2-1.1,0.5
		c-0.8,1.1-1.7,2.2-2.6,3.2c-0.5,0.7-0.6,1.6-0.1,2.3c0.2,0.2,0.4,0.4,0.6,0.5c0.5,0.3,1.1,0.5,1.6,0.8c0.3,0.1,0.7,0.2,1,0.3
		c0.2,0,0.4,0.1,0.6,0.1c0.2,0.1,0.3,0.3,0.5,0.4c-0.1,0.2-0.3,0.3-0.5,0.4c-1.4,0.4-2.9,0.4-4.3,0.1c-0.3,0-0.7,0-1,0l-3.9,0.3
		c-0.9,0-1.8,0.2-2.7,0.2c-0.5,0.1-1.1-0.2-1.2-0.7c-0.1-0.2,0-0.5,0.1-0.7c0.6-2.4,0.6-4.8-0.2-7.1c0-0.3-0.3-0.6-0.6-0.6
		c-1.8-0.3-3.5-0.3-5.3-0.2c-0.4,0.1-0.8,0.2-1.2,0.4c-1.8,1-3.6,1.9-5.4,2.9c-0.6,0.3-0.9,1.1-0.6,1.7c0,0.1,0.1,0.1,0.1,0.2
		c0.2,0.3,0.2,0.7,0.4,1c0.4,0.7,0.8,1.4,1.3,2.1c0.4,0.2,0.8,0.4,1.2,0.5c0.2,0.1,0.4,0.3,0.6,0.4c-0.2,0.2-0.3,0.3-0.6,0.4
		c-0.8,0.1-1.7,0.2-2.5,0.3c-1.1,0.2-2.2-0.5-2.4-1.6c0,0,0,0,0-0.1c-0.2-0.7-0.7-1.4-1.4-1.7c-0.4-0.1-0.7-0.3-1-0.6
		c-0.5-0.3-0.7-1-0.4-1.5c0.1-0.2,0.3-0.4,0.6-0.5c0.9-0.5,1.8-1.1,2.4-1.9c1.2-1.3,2.5-2.5,3.8-3.7c0.3-0.3,0.3-0.5-0.1-0.6
		c-0.3-0.1-0.6-0.3-0.9-0.5c-0.4-0.4-1-0.5-1.4-0.1l-0.1-0.2c0.2-0.2,0.5-0.5,0.7-0.7c1.7-1,3.1-2.5,4.2-4.2
		c0.1-0.2,0.1-0.3,0.1-0.5c-0.6-2.5-0.5-5.1,0.3-7.6c0.7-2,1.4-3.9,2.3-5.8c0.2-0.5,0.1-0.5-0.4-0.7c-0.8-0.3-1.5-0.7-2.2-1.2
		c-0.8-0.6-1.1-1.6-0.7-2.6c0.1-0.8,0.5-1.5,1.1-2c0.1-0.4,0.1-0.8,0-1.2c-0.1,0-0.2,0-0.4,0c-0.7,0.3-1.4,0.6-2.1,0.9
		c-0.2,0.1-0.3,0.3-0.4,0.5c-0.2,0.3-0.3,0.7-0.4,1.1c-0.4,0.3-0.9,0.4-1.3,0.1l-0.5-0.4c0.1-0.1,0.2-0.2,0.3-0.3
		c0.1-0.1,0.1-0.2,0.1-0.3c-0.1-0.1-0.2-0.1-0.3-0.1l-0.6-0.1c1.1-0.6,2.1-1.2,3-1.9c0.5-0.4,1-0.9,1.4-1.4c0.7-0.7,1.5-1.2,2.3-1.4
		c0.2-0.1,0.4-0.2,0.5-0.4c0-0.2,0-0.5-0.2-0.6c-0.9-0.6-1.1-1.8-0.6-2.7c0.4-0.9,1.3-1.5,2.3-1.4c0.6,0,1.2,0.1,1.8,0.2
		c0.9,0.2,1.5,1,1.3,1.9c-0.1,0.3-0.2,0.6-0.4,0.8c-0.1,0.1-0.2,0.3-0.1,0.5c0.1,0.6-0.1,1.2-0.5,1.6c-0.3,0.5-0.9,0.7-1.4,0.4
		c0,0,0,0,0,0c-0.1,0-0.2,0-0.3,0c0,0.1,0.1,0.3,0.2,0.4c0.5,0.5,1.3,0.4,1.8-0.1c0,0,0.1-0.1,0.1-0.1c0.2-0.3,0.3-0.6,0.5-0.9
		c0.8-1.3,1.8-2.5,3-3.5c0.4-0.5,0.9-0.7,1.5-0.7c-0.2,0.3-0.5,0.5-0.6,0.8c0,0.2,0.1,0.3,0.2,0.4c0.6-0.7,1.2-1.3,1.8-1.9
		c0.2-0.2,0.3-0.4,0.2-0.6c-0.2-0.3-0.4-0.5-0.7-0.6c-0.8,0.1-1.5-0.5-1.6-1.3c0-0.2,0-0.3,0-0.5c0-0.9,0.1-1.8,0.4-2.6
		c0.5-1.2,1.6-2.1,2.9-2.4c0.8-0.3,1.8-0.2,2.6,0.2c0.2,0.1,0.4,0.1,0.6,0.1c0.5-0.1,1,0.2,1.2,0.6c0.4,0.6,0.7,1.2,1,1.8
		c0.6,1.4,0.6,1.4-0.4,2.4c-0.2,0.1-0.3,0.4-0.3,0.6c0.4,0.9-0.2,1.6-0.3,2.4c0,0.1,0,0.2-0.1,0.3c-0.1,0.6-0.6,1.1-1.2,1
		c-0.2,0-0.5-0.1-0.6-0.3c-0.3-0.3-0.8-0.3-1.1,0.1c-0.1,0.1-0.1,0.1-0.1,0.2c0,0.1-0.1,0.2-0.2,0.3c-0.6,0.7-0.5,0.7-0.2,1.6
		c0.6,1.3,1.1,2.6,1.5,3.9c0.2,0.7,0.1,1.4-0.4,1.9c-1.1,1.3-1.9,2.7-2.5,4.3c-0.2,0.7-0.4,1.5-0.5,2.2c0,0.2,0.1,0.4,0.2,0.6
		c0.5,0.9,0.5,2.1,0,3c0,0.1-0.1,0.1-0.1,0.2c-0.5,0.2-0.8,0.8-0.6,1.3c0,0.8,0,1.6,0,2.4c0,0.2,0,0.4,0,0.6c-0.2,0.6-0.2,1.2,0,1.7
		c0.2,1.1,0.3,2.2,0.4,3.3c0.4,2.3,0.8,4.7,1.2,7c0.1,0.5,0.1,1.1,0.1,1.6c0,0.2-0.2,0.4-0.4,0.4c-0.4,0.1-0.8,0.2-1.3,0.2
		c-0.2,0-0.5,0.1-0.5,0.4c0,0,0,0.1,0,0.1c-0.1,1.3-0.1,2.6,0,3.9c0.2,1,0.9,1.9,1.8,2.4c0.2,0,0.3-0.1,0.4-0.2
		c0.4-0.5,0.7-1.1,1-1.7c0.3-0.6,0.9-1.4,1.3-2.1c0.5-1,1-2,1.6-3c0-0.1,0.1-0.3,0.2-0.4c-0.5-0.2-1.1-0.4-1.7-0.6
		c-0.3,0-0.6,0.1-0.9,0.3c0.1-0.3,0.2-0.6,0.4-0.8c0.8-0.7,1.2-1.8,1.1-2.9c0.1-2.5,0.3-5,0.8-7.5c0.1-0.8,0.2-1.6,0.3-2.4
		c0-0.9,0.4-1.6,1.2-2c-0.3-0.3-0.3-0.3-1.4,0.5c0.4-1,0.7-1.8,1-2.7c0.4-1.2,1-2.3,1.4-3.4c0.1-0.4,0.1-0.9,0-1.3
		c-0.2-0.7-0.5-1.3-0.8-2c-0.4-1-0.4-2.1,0-3c0.7-1.7,1.4-3.4,2-5.1c0.5-1.2,1.6-2.2,2.9-2.6c0.1,0,0.3,0,0.4,0
		c-0.2,0.7,0.3,0.8,0.7,0.9c0.1-0.3,0.1-0.7,0.2-1c0.2-0.5,0-1.1-0.6-1.4c-0.2-0.1-0.4-0.1-0.6-0.1c-0.3,0-0.5,0-0.8-0.2
		c-1.8-1.7-2.6-3.7-1-6.1l0.4-0.5c-0.8-0.2-1.3-0.9-1.1-1.7c0,0,0-0.1,0-0.1c0-0.3,0-0.7,0-1c0-0.8,0.3-1.5,0.9-2
		c0.2-0.2,0.3-0.4,0.3-0.6c-0.2-1.5,0.6-2.9,2-3.5c1.1-0.4,2.2-0.7,3.3-0.6c0.2,0,0.4-0.1,0.5-0.2c0.2-0.3,0.5-0.4,0.8-0.4
		c0.4,0.1,0.8,0.1,1.1-0.2c0.1-0.1,0.3-0.1,0.4,0c2.3,0.3,4.3,1.6,5.5,3.5c1.1,1.9,1,4.3-0.1,6.2c-0.4,0.7-1.1,1.2-1.9,1.3
		c0,0.9,0.2,1.8,0.5,2.6c0.3,0.8,0.6,1.6,0.8,2.5c0.1,0.5,0.2,0.9,0.4,1.4c0.2,0.4,0.1,0.9-0.3,1.1c-0.7,0.8-1.5,1.5-2.1,2.4
		c-0.3,0.4-0.5,0.8-1.2,0.5c0.2,0.5,0.5,0.7,1,0.3l0.1,0.1c-0.1,0.2-0.2,0.4-0.3,0.6c-0.8,0.8-1.6,1.6-2.4,2.4
		c-0.6,0.6-1,1.4-1.1,2.3c-0.4,2.6-0.4,5.2-0.2,7.9c0.1,1.3,0.4,2.5,0.6,3.8C-108,415.3-108.1,416.1-108.6,416.8z M-110.1,393.8
		c-0.1,1.3,0.4,1.8,1.5,1.6c0.2,0,0.5,0,0.7,0c0.2,0,0.4-0.1,0.6-0.2c0.6-0.6,1.3-1.2,1.9-1.9c0.2-0.2,0.2-0.4,0.2-0.7
		c0.1-1.5-0.1-3-0.7-4.4c-0.2-0.5-0.7-0.9-1.2-1c0,0.2,0,0.4,0,0.6c0,0.4-0.2,0.8-0.4,1.2c-0.4,0.4-0.5,1-0.2,1.4
		c0.1,0.3,0.1,0.6,0,0.9c-0.3,0.3-0.4,0.8-0.4,1.2c0,0.3-0.1,0.6-0.2,0.9c0,0.4-0.4,0.7-0.9,0.7c-0.1,0-0.2,0-0.3-0.1L-110.1,393.8z
		"/>
	<path class="st0" d="M49,342.6c-0.9,1.3-2,2.5-3.4,3.4c-0.5,0.2-0.9,0.3-1.4,0.3c-2.1,0.3-4.3,0.5-6.4,0.8
		c-2.4,0.3-4.8,0.7-7.1,1.1c-2.9,0.5-5.6,1.1-8.4,1.6s-5.8,1.2-8.7,1.9c-2.6,0.6-5.2,1.2-7.8,1.8c-4.4,1.1-8.8,2.2-13.2,3.5
		c-4.8,1.3-9.5,2.7-14.1,4.2c-4.7,1.4-9.4,3-14,4.6c-6.8,2.5-13.6,5.1-20.3,7.8c-3.7,1.4-7.2,3.1-10.9,4.6l-0.4,0.1
		c0-0.7-0.1-1.4-0.2-2.1c-0.3-2.5-0.4-5.1-0.8-7.6c-0.5-3.5-1.5-6.9-3-10c-2-4.6-5.6-8.4-10-10.7c-2.6-1.2-5.3-2-8.1-2.4
		c-2.7-0.4-5.4-0.7-8.1-0.7c-2,0-3.9-0.1-5.9,0c-3.7,0.3-7.5,0.7-11.2,1.1c-2.5,0.3-4.9,0.7-7.4,1.1c-1.6,0.3-3.2,0.6-4.8,0.9
		c-2.5,0.5-5.1,1-7.6,1.6c-2,0.4-3.9,0.9-5.9,1.4c-2.7,0.7-5.4,1.4-8.1,2.1c-2.3,0.7-4.5,1.3-6.7,2c-2.9,0.9-5.8,1.7-8.8,2.7
		c-3.5,1.1-7,2.3-10.5,3.5c-1.4,0.4-2.7,0.9-4,1.4c-0.5,0.2-0.7,0-0.6-0.5c0-0.2,0-0.3,0.1-0.5c0.1-0.8,0.7-1.5,1.5-1.7
		c2.9-0.8,5.7-1.8,8.6-2.7c2.9-0.9,6-1.9,9.1-2.9s6.2-1.9,9.3-2.9c3.7-1.1,7.3-2.2,11-3.2s7.1-1.9,10.7-2.9c3.2-0.8,6.4-1.6,9.7-2.2
		c3.3-0.7,6.9-1.3,10.4-1.8c3.5-0.5,7.4-1,11.1-1.2c4.8-0.3,9.7-0.2,14.5,0.4c4.1,0.5,8,1.5,11.8,3.1c5.7,2.4,10.4,6.5,13.6,11.9
		c1.9,3.2,3.3,6.7,4.1,10.3c0.1,0.5,0.3,0.5,0.7,0.4c2.4-0.9,4.7-1.8,7.1-2.6c3.9-1.4,7.8-2.7,11.8-3.9c3.4-1.1,6.8-2.2,10.3-3.2
		c4.6-1.3,9.3-2.6,14-3.8c2.3-0.6,4.5-1.2,6.8-1.7c3.4-0.8,6.8-1.5,10.2-2.3c2.1-0.5,4.1-0.9,6.2-1.3c3.4-0.6,6.8-1.2,10.2-1.8
		c2.6-0.4,5.1-0.8,7.7-1.2c2.6-0.4,5-0.6,7.5-0.9c3-0.3,6.1-0.6,9.1-0.9l0.9-0.1L49,342.6z"/>
	<path class="st0" d="M-39.4,438.9c0.3-1.1,0.6-2.1,0.9-3c1.6-5.3,3.5-10.6,5.6-15.7c2.7-6.7,5.5-13.3,8.3-20
		c0.5-1.1,0.5-1.1-0.7-1.1c-1.2,0-2.7,0.2-4,0.3h-0.9c0.4-0.6,0.6-1.1,0.9-1.5c0.7-1.2,1.9-2.2,3.2-2.7c1.1-0.3,2.2-0.4,3.4-0.4
		c2-0.1,3.9-0.1,5.9,0c4.5,0,9,0.6,13.4,1.8c2,0.5,3.8,1.6,5.3,3c1.5,1.4,1.9,3.6,1.3,5.5c-0.8,2.2-2.2,4.1-4,5.5
		c-2.6,2.1-5.5,3.8-8.6,5.1c-1.9,0.8-3.8,1.5-5.7,2.3c-0.4,0.1-0.6,0.3-0.3,0.7c1.8,2.9,3.5,5.7,5.3,8.6c1.2,2.1,2.8,3.9,4.7,5.4
		c1.4,1.1,3.1,1.7,4.9,1.7c0.1,0,0.2,0,0.3,0.1c-0.1,0.3-0.3,0.5-0.4,0.7c-0.9,0.8-1.8,1.5-2.9,2.1c-1.2,0.6-2.5,1-3.8,1.2
		c-1.5,0.3-3-0.2-4.2-1.1c-1.6-1.2-2.9-2.7-3.9-4.4c-2-3.3-3.9-6.7-5.9-10.1c-0.7-1.2-1.4-2.3-2.3-3.3c-0.2-0.3-0.2-0.5,0.1-0.7
		c1.3-1,2.7-1.8,4.3-2.3c0.3-0.1,0.7-0.2,1.1-0.2c2.7,0.1,5.4-0.6,7.6-2.2c1.8-1,3.5-2.3,4.8-3.9c0.8-1,1.3-2.1,1.5-3.3
		c0.2-1.6-0.4-3.2-1.7-4.1c-1.6-1.3-3.6-2.1-5.6-2.5c-1.8-0.4-3.6-0.6-5.4-0.9c-0.3,0-0.5,0.1-0.6,0.3c-1.7,3.5-3.5,7.1-5.1,10.7
		c-1.2,2.7-2.3,5.4-3.4,8.2c-1.1,2.7-2,5.5-2.9,8.2c-0.8,2.6-1.5,5.1-2.1,7.8c-0.1,1-0.8,1.8-1.8,2.1c-1.8,0.7-3.7,1.4-5.5,2.1
		C-38.7,438.8-39,438.9-39.4,438.9z"/>
	<path class="st0" d="M5.5,428.8c0.6,1.9,1.7,3.5,3.2,4.7c2.1,1.7,4.8,2.3,7.4,1.7c2.3-0.4,4.4-1.3,6.2-2.6c1.9-1.4,3.2-3.5,3.3-5.9
		c0.1-1.2-0.3-2.4-1-3.5c-1.1-1.6-2.6-2.9-4.3-3.9c-1.4-0.9-2.9-1.8-4.3-2.7c-1.9-1.1-3.5-2.6-4.7-4.4c-1.7-3-1.3-6.7,1.1-9.2
		c3.4-3.4,7.6-5.8,12.3-7.1c2.4-0.7,4.8-1,7.3-1.2c2.3-0.2,4.7,0.1,6.9,0.9l0.4,0.2c-0.2,0.4-0.5,0.8-0.7,1.2
		c-1.1,1.3-2.5,2.4-4.1,3.1c-0.3,0.2-0.7,0.1-0.9-0.1c-3.2-2.2-7.3-2.7-11-1.4c-3,1.1-5.1,3.8-5.4,6.9c-0.3,2,0.6,4.1,2.3,5.2
		c1.3,1,2.9,1.7,4.3,2.6c1.8,1.1,3.5,2.1,5.2,3.3c0.9,0.6,1.6,1.3,2.3,2.1c1.7,2,1.9,4.8,0.7,7.1c-0.9,1.9-2.3,3.6-3.9,4.9
		c-3.1,2.7-6.7,4.8-10.5,6.2c-3.1,1.2-6.4,1.7-9.7,1.5c-1.8-0.1-3.6-0.5-5.2-1.4l-0.2-0.1c-1.8-1.1-2-1.8-1.1-3.7
		C2.2,431.6,3.7,430,5.5,428.8z"/>
	<path class="st0" d="M-70,439.6l2.9-0.6c5-1,9.2-4.1,11.6-8.6c1.7-3,3-6.1,4-9.4c1-3.3,2.1-6.5,2.9-9.9c0.9-3.7,1.7-7.5,2.5-11.3
		c0.2-0.9,0.3-1.9,0.5-2.8c0.1-0.5,0.4-0.8,0.8-1.1c1-0.5,2-0.8,3-1c1.9-0.3,3.9-0.4,5.9-0.6c0.1,0,0.2,0,0.3,0
		c-0.1,0.4-0.3,0.8-0.4,1.2c-1.6,4.6-3.3,9.2-4.9,13.8c-2,5.6-3.8,11.3-6.3,16.7c-1.1,2.9-2.7,5.6-4.6,8c-2.3,2.7-5.4,4.7-8.8,5.9
		c-1.7,0.6-3.5,0.9-5.3,0.9c-1,0.1-2.1,0-3-0.4c-0.4-0.2-0.7-0.5-1-0.8L-70,439.6z"/>
	<path class="st0" d="M-51.5,448.4c0.2,0.7,0.5,0.6,0.9,0.4c0.5-0.4,1.2-0.3,1.6,0.1c0,0,0,0,0,0c0.2,0.1,0.4,0.1,0.6,0
		c1-0.8,2.1-0.6,2.2,1.1c0,0.6,0,1.2,0,1.7c-0.1,0.2-0.2,0.4-0.4,0.5c-0.1-0.2-0.2-0.4-0.2-0.6c0-0.7,0-1.4-0.1-2.1
		c0-0.3-0.3-0.6-0.6-0.6c-0.1,0-0.2,0-0.3,0.1c-0.6,0.2-0.9,0.7-0.8,1.3c0,0.5,0,1,0,1.4c-0.1,0.2-0.2,0.3-0.4,0.4
		c-0.1-0.2-0.2-0.3-0.2-0.5c0-0.7,0-1.4-0.1-2.1c0-0.4-0.3-0.6-0.7-0.6c-0.2,0-0.3,0.1-0.4,0.2c-0.5,0.2-0.9,0.8-0.8,1.3
		c0,0.4,0,0.9,0,1.3c-0.1,0.2-0.2,0.3-0.3,0.4c-0.1-0.1-0.3-0.3-0.3-0.4c0-1,0-1.9,0-2.8C-51.8,448.9-51.7,448.6-51.5,448.4z"/>
	<path class="st0" d="M-33.8,450.9c0,0.6,0,1.1,0,1.7c0,0.8-0.7,1.4-1.5,1.4c-0.2,0-0.4-0.1-0.6-0.2c-0.1-0.1-0.2-0.2-0.2-0.3
		c0-0.1,0.1-0.2,0.2-0.2c0.2,0,0.4,0,0.6,0c0.5,0,0.9-0.4,0.9-0.9c0-0.1,0-0.1,0-0.2c-0.1-0.1-0.2-0.2-0.4-0.2
		c-0.6,0.4-1.4,0.4-1.9-0.1c-0.6-0.6-0.8-1.5-0.4-2.3c0.2-0.7,0.9-1.2,1.6-1.2c1.7-0.1,1.8,0,1.8,1.6
		C-33.8,450.4-33.8,450.7-33.8,450.9L-33.8,450.9L-33.8,450.9z M-34.5,450.3v-0.4c0-0.7-0.2-0.8-0.9-0.8c-0.8,0-1.4,0.6-1.5,1.4
		c0,0.3,0.1,0.6,0.2,0.8c0.2,0.5,0.8,0.7,1.3,0.5c0.1,0,0.2-0.1,0.3-0.2C-34.5,451.4-34.3,450.8-34.5,450.3L-34.5,450.3z"/>
	<path class="st0" d="M11.4,452l-0.3,0.2c-0.6,0.5-1.5,0.4-2-0.3c-0.1-0.2-0.2-0.3-0.3-0.5c-0.5-1-0.1-2.2,0.9-2.7
		c0.4-0.2,0.8-0.2,1.3-0.2c0.6,0.1,0.7-0.1,0.7-0.6c0-0.4,0-0.8,0-1.2c0.1-0.2,0.2-0.3,0.3-0.4c0.1,0.1,0.2,0.3,0.2,0.4
		c0,1.7,0,3.4,0,5c-0.1,0.2-0.1,0.4-0.3,0.6L11.4,452z M11.7,450.4c0-1.1-0.4-1.4-1.2-1.3c-0.9,0.3-1.3,1.2-1,2.1c0,0,0,0.1,0,0.1
		c0.2,0.5,0.7,0.8,1.2,0.6c0.2-0.1,0.3-0.1,0.4-0.3C11.5,451.4,11.7,450.9,11.7,450.4L11.7,450.4z"/>
	<path class="st0" d="M30.5,452.4l-0.2-0.5c-0.1,0-0.2,0-0.3,0.1c-0.5,0.5-1.2,0.6-1.7,0.2c-0.6-0.4-0.9-1.1-0.8-1.8
		c0-1,0.8-1.9,1.8-2c0.2,0,0.4,0,0.6,0.1c0.5,0,0.6-0.1,0.6-0.5c0-0.4,0-0.8,0-1.3c0.1-0.2,0.2-0.3,0.4-0.5c0.1,0.1,0.2,0.3,0.2,0.4
		c0,1.7,0,3.4,0,5.1c0.1,0.3-0.1,0.5-0.3,0.6C30.7,452.4,30.6,452.5,30.5,452.4z M30.4,450.4c0-1.1-0.4-1.5-1.2-1.3
		c-0.8,0.2-1.3,1.1-1.1,1.9c0.2,1.1,0.9,1.3,1.8,0.7C30.4,451.3,30.5,450.8,30.4,450.4L30.4,450.4z"/>
	<path class="st0" d="M-45.2,451.3c0-0.8,0-1.5,0-2.3c0-0.2,0.1-0.3,0.2-0.5c0.1,0.1,0.2,0.2,0.4,0.3c0.1,0.1,0.3,0.1,0.5,0
		c0.6-0.5,1.6-0.4,2.1,0.2c0.2,0.3,0.3,0.6,0.3,1c0.2,1-0.4,2.1-1.4,2.3c-0.3,0.1-0.7,0.1-1,0c-0.4-0.1-0.5,0-0.5,0.4
		c0,0.2,0,0.4,0,0.6c0,0.2-0.1,0.4-0.3,0.6c-0.4,0-0.3-0.3-0.3-0.5C-45.2,452.7-45.2,452-45.2,451.3L-45.2,451.3L-45.2,451.3z
		 M-44.6,450.5c0,0.7-0.2,1.2,0.6,1.4c0.6,0.2,1.2-0.1,1.5-0.6c0.3-0.6,0.3-1.4-0.2-2c-0.3-0.3-0.7-0.4-1.1-0.1
		C-44.3,449.4-44.6,449.9-44.6,450.5L-44.6,450.5z"/>
	<path class="st0" d="M-54.8,448.6c1.1,0,1.9,1,1.9,2s-1,1.9-2,1.9c-1.1,0-1.9-0.9-1.9-2c-0.1-1,0.7-1.9,1.7-1.9
		C-55,448.5-54.9,448.6-54.8,448.6z M-56.2,450.5c-0.1,0.7,0.5,1.4,1.2,1.4c0,0,0.1,0,0.1,0c0.8,0,1.4-0.6,1.4-1.4c0,0,0,0,0,0
		c0.1-0.8-0.5-1.5-1.3-1.5c0,0-0.1,0-0.1,0C-55.6,449-56.2,449.7-56.2,450.5L-56.2,450.5z"/>
	<path class="st0" d="M21.1,450.4h-0.9c-0.5,0-0.7,0.3-0.5,0.7c0.3,0.6,1.1,1,1.8,0.8c0.3,0,0.5,0,0.8,0c0,0.5-0.5,0.4-0.7,0.5
		c-1.1,0.3-2.2-0.3-2.5-1.3c-0.1-0.4-0.1-0.8,0-1.2c0.2-0.7,0.9-1.3,1.6-1.3c0.7-0.1,1.5,0.3,1.7,1c0.2,0.6,0.1,0.8-0.6,0.8
		L21.1,450.4L21.1,450.4z M20.8,449.9L20.8,449.9c0.2,0,0.3,0,0.5,0c0.2,0,0.3-0.1,0.4-0.2c0-0.2,0-0.4-0.2-0.5
		c-0.3-0.4-0.9-0.4-1.3-0.1c-0.2,0.2-0.3,0.4-0.4,0.6c0.2,0,0.4,0.1,0.6,0.2C20.6,449.9,20.7,449.9,20.8,449.9z"/>
	<path class="st0" d="M36.5,450.4h-0.9c-0.5,0-0.6,0.2-0.4,0.6c0.3,0.7,1.1,1.1,1.8,0.9c0.2,0,0.5-0.4,0.7,0
		c-0.2,0.2-0.4,0.3-0.6,0.4c-0.9,0.3-1.8-0.1-2.4-0.8c-0.4-0.8-0.3-1.7,0.1-2.4c0.4-0.6,1.2-0.8,1.9-0.7c0.6,0.1,1,0.5,1.1,1.1
		c0.2,0.5,0,0.7-0.5,0.7L36.5,450.4L36.5,450.4z M36.3,450L36.3,450c0.2,0,0.3,0,0.5,0c0.2,0,0.3-0.1,0.4-0.2c0-0.2,0-0.3-0.1-0.5
		c-0.3-0.4-0.9-0.5-1.4-0.2c0,0,0,0-0.1,0.1c-0.2,0.2-0.3,0.4-0.4,0.6c0.2,0,0.4,0.1,0.6,0.2C36,450,36.1,449.9,36.3,450L36.3,450z"
		/>
	<path class="st0" d="M16.5,451.8c0,0.2-0.1,0.4-0.2,0.5c-1,0.5-2.1,0.2-2.9-0.6c-0.6-0.9-0.4-2.2,0.4-2.9c0.7-0.6,1.8-0.5,2.4,0.3
		c0.2,0.2,0.3,0.5,0.3,0.8c0,0.3,0,0.5-0.4,0.5h-1.9c-0.6,0-0.8,0.3-0.5,0.8c0.3,0.6,0.9,0.9,1.6,0.8
		C15.7,451.9,16,451.9,16.5,451.8z M15,448.9c-0.3,0.2-0.6,0.3-0.9,0.5c-0.1,0.1-0.1,0.3-0.1,0.4c0.1,0.1,0.2,0.2,0.3,0.2
		c0.4,0,0.8,0,1.1,0c0.2,0,0.3-0.1,0.4-0.2c0-0.2,0-0.3-0.2-0.4C15.5,449.2,15.2,449,15,448.9L15,448.9z"/>
	<path class="st0" d="M-26.6,450.4h-1c-0.4,0-0.5,0.2-0.4,0.6c0.3,0.8,1.1,1.2,1.9,1c0.3,0,0.5,0,0.8,0c-0.2,0.2-0.5,0.3-0.7,0.4
		c-0.8,0.3-1.7,0-2.2-0.7c-0.5-0.7-0.5-1.5-0.1-2.2c0.4-0.7,1.2-1.1,2-0.9c0.6,0.1,1.1,0.6,1.2,1.2c0.1,0.4,0,0.6-0.5,0.6
		L-26.6,450.4L-26.6,450.4z M-26.9,450c0.1,0,0.2,0,0.3,0l0.7-0.3c-0.2-0.3-0.4-0.5-0.6-0.7c-0.3-0.1-0.6,0-0.8,0.1
		c-0.2,0.2-0.4,0.4-0.5,0.6l0.7,0.2C-27,450-27,449.9-26.9,450L-26.9,450z"/>
	<path class="st0" d="M-9.3,451.9c-0.1,0.1-0.1,0.3-0.2,0.4c-1,0.4-2.2,0.1-2.9-0.8c-0.5-1-0.1-2.3,0.9-2.9c0.8-0.4,1.8-0.1,2.2,0.7
		c0.1,0.1,0.1,0.3,0.2,0.4c0.1,0.4,0,0.6-0.5,0.6h-1.9c-0.5,0-0.6,0.2-0.4,0.6c0.3,0.7,1.1,1.2,1.8,0.9l0.7-0.2L-9.3,451.9z
		 M-10.9,448.9c-0.3,0.2-0.6,0.3-0.9,0.6c-0.3,0.2-0.1,0.5,0.2,0.5c0.3,0,0.7,0,1,0c0.2,0,0.4-0.1,0.6-0.2c-0.1-0.2-0.2-0.4-0.4-0.6
		C-10.4,449.1-10.6,449-10.9,448.9L-10.9,448.9z"/>
	<path class="st0" d="M-64.6,452c-0.5,0.5-1.2,0.6-1.8,0.3c-0.3-0.1-0.5-0.4-0.6-0.7c0-0.3,0.2-0.6,0.5-0.8c0.4-0.2,0.8-0.3,1.2-0.4
		c0.3-0.1,0.7-0.1,0.6-0.6c0-0.5-0.4-0.8-0.9-0.8c0,0,0,0,0,0c-0.2,0-0.5,0.1-0.7,0.1c-0.2,0-0.4,0.2-0.6,0.2l-0.1-0.1
		c0.1-0.2,0.2-0.4,0.3-0.5c0.6-0.1,1.1-0.2,1.7-0.2c0.5,0,0.8,0.4,0.8,0.9c0,0.5,0,1.1,0.1,1.6c0,0.3,0.1,0.5,0.1,0.8
		c0,0.2,0,0.3,0,0.5l-0.5-0.2C-64.4,452.1-64.5,452.1-64.6,452z M-65.6,452.3c0.3-0.3,0.6-0.6,0.9-0.9c0-0.2,0-0.4,0-0.5
		c-0.2,0-0.3,0-0.5,0c-0.2,0-0.5,0.1-0.7,0.2c-0.2,0.1-0.4,0.3-0.4,0.6C-66.1,451.9-65.9,452.1-65.6,452.3z"/>
	<path class="st0" d="M-38.6,452.2c-0.5,0.2-1.1,0.3-1.6,0.3c-0.5,0.1-0.9-0.3-1-0.7c-0.1-0.4,0.2-0.9,0.7-0.9c0,0,0,0,0,0l1-0.3
		c0.4-0.1,0.7-0.1,0.6-0.7c0-0.5-0.4-0.8-0.9-0.8c0,0,0,0-0.1,0c-0.3,0.1-0.6,0.2-0.9,0.3c-0.1,0.1-0.3,0.1-0.4,0
		c0.1-0.2,0.2-0.3,0.3-0.5c0.2-0.1,0.4-0.2,0.6-0.2c1.3-0.2,2,0,2,1.6c0,0.6,0.1,1.2,0.2,1.9c0,0.1,0,0.2-0.1,0.3
		c-0.1,0.1-0.3,0.1-0.4,0C-38.5,452.3-38.6,452.2-38.6,452.2z M-39.8,452.3c0.3-0.2,0.6-0.5,0.9-0.8c0-0.2,0-0.4,0-0.5
		c-0.2,0-0.3,0-0.5,0c-0.2,0-0.5,0.1-0.7,0.2c-0.2,0.1-0.4,0.4-0.4,0.6C-40.3,452-40.1,452.2-39.8,452.3L-39.8,452.3z"/>
	<path class="st0" d="M24.2,449c0.4-0.2,0.8-0.3,1.2-0.4c0.4-0.1,0.9,0.1,1,0.6c0,0,0,0.1,0,0.1c0.1,0.9,0.2,1.9,0.2,2.9
		c-0.1,0.1-0.2,0.2-0.3,0.3c-0.1-0.1-0.2-0.2-0.3-0.4c0-0.4,0-0.9,0-1.3c0-0.1,0-0.2,0-0.3c0-0.8-0.4-1.2-0.8-1.2
		c-0.7,0.1-1.2,0.7-1.2,1.4c0,0.5,0,1,0,1.5c0,0.2-0.1,0.3-0.2,0.4c-0.2,0-0.3-0.1-0.4-0.2c0,0,0-0.1,0-0.1c0-0.9,0-1.8,0-2.7
		c0.1-0.2,0.1-0.4,0.3-0.6L24.2,449z"/>
	<path class="st0" d="M-32.8,450.5c0-0.5,0-0.9,0-1.4c0-0.2,0.1-0.3,0.2-0.4c0.1,0.1,0.3,0.2,0.4,0.2c0.1,0.1,0.3,0.1,0.4,0.1
		c0.1,0,0.2-0.1,0.3-0.2c0.5-0.4,1.2-0.4,1.7,0.1c0.2,0.2,0.3,0.5,0.3,0.9c0,0.7,0,1.4,0,2.1c-0.1,0.2-0.2,0.3-0.4,0.4
		c-0.1-0.1-0.2-0.3-0.3-0.5c0-0.7,0-1.4,0-2.1c0-0.7-0.5-0.8-1.1-0.5c-0.6,0.2-1,0.8-0.9,1.4c0,0.4,0,0.8,0,1.3
		c-0.1,0.2-0.2,0.3-0.3,0.5c-0.1-0.1-0.2-0.3-0.3-0.5C-32.8,451.4-32.8,451-32.8,450.5L-32.8,450.5L-32.8,450.5z"/>
	<path class="st0" d="M16.9,449.1c0-0.1,0-0.1,0-0.2c0.5-0.3,0.7-0.9,0.6-1.5c0.1-0.7,0.7-1.2,1.4-1.1c0.1,0,0.2,0,0.3,0.1
		c0.1,0.1,0.2,0.2,0.3,0.4c-0.1,0.1-0.3,0.1-0.4,0.2c-0.3-0.1-0.7,0-0.8,0.3c0,0,0,0,0,0.1c-0.1,0.4-0.1,0.9,0,1.3
		c0.1,0.1,0.2,0.1,0.3,0.1c0.1,0.1,0.2,0.1,0.3,0.2c-0.1,0.1-0.2,0.2-0.3,0.3c-0.5,0-0.5,0.3-0.5,0.7c0,0.7,0,1.3,0,2
		c0,0.2-0.1,0.4-0.3,0.6c-0.4,0-0.3-0.3-0.3-0.6c0-0.6,0-1.2,0-1.9S17.5,449.1,16.9,449.1z"/>
	<path class="st0" d="M-2.1,448.7c0,0.2-0.1,0.4-0.2,0.5c-0.4,0.9-0.8,1.8-1.2,2.7c-0.1,0.2-0.2,0.3-0.4,0.3c-0.2,0-0.4-0.2-0.5-0.4
		c-0.4-0.9-0.8-1.9-1.2-2.9c0-0.2,0-0.3,0-0.5c0.2,0,0.4,0.1,0.5,0.3c0.3,0.6,0.5,1.2,0.8,1.9c0.1,0.2,0.2,0.4,0.4,0.6
		c0.7-0.9,0.6-2.2,1.5-2.9L-2.1,448.7z"/>
	<path class="st0" d="M-14.4,448.5c0.3,0.1,0.6,0.1,0.9,0.2c0.1,0.1,0.2,0.2,0.2,0.3c-0.1,0.1-0.2,0.1-0.3,0.1
		c-0.2-0.1-0.4-0.1-0.7-0.2c-0.3,0.1-0.5,0.2-0.8,0.3c0.1,0.2,0.2,0.4,0.4,0.6c0.3,0.2,0.6,0.4,0.9,0.5c0.5,0.2,0.7,0.7,0.6,1.1
		c-0.1,0.5-0.6,0.8-1.1,0.8c-0.5,0-0.9-0.1-1.4-0.3c-0.1-0.1-0.1-0.1-0.2-0.2c0.1-0.1,0.2-0.2,0.3-0.2c0.2,0.1,0.5,0.1,0.7,0.2
		c0.3,0.2,0.7,0,0.9-0.3c0,0,0,0,0,0c0-0.3-0.2-0.5-0.4-0.7c-0.2-0.2-0.4-0.3-0.7-0.4c-0.5-0.1-0.8-0.6-0.8-1.2
		C-15.6,448.7-15,448.4-14.4,448.5z"/>
	<path class="st0" d="M-60.1,451.9c-0.1,0.2-0.2,0.3-0.3,0.5c-1,0.4-2.1-0.1-2.5-1c-0.5-0.9-0.1-2.1,0.9-2.5c0.1,0,0.1,0,0.2-0.1
		c0.5-0.1,1-0.2,1.5-0.1c0.1,0.1,0.2,0.2,0.2,0.4c-0.1,0.1-0.3,0.1-0.5,0.1c-0.5-0.2-1.1,0-1.4,0.4c-0.4,0.5-0.5,1.2-0.1,1.7
		c0.3,0.5,0.9,0.7,1.4,0.6l0.5-0.1L-60.1,451.9z"/>
	<path class="st0" d="M-57.9,452.4c-1,0.1-1.9-0.6-2.1-1.6c0-0.1,0-0.2,0-0.4c-0.1-1,0.7-1.9,1.8-2c0.1,0,0.2,0,0.2,0
		c0.2,0,0.3,0,0.5,0c0.1,0.1,0.3,0.2,0.4,0.4c-0.2,0.1-0.3,0.1-0.5,0.1c-0.7-0.2-1.4,0.2-1.7,0.9c-0.3,0.6,0,1.4,0.6,1.7
		c0.4,0.1,0.7,0.1,1.1,0.1c0.2,0,0.3,0.1,0.5,0.1c-0.1,0.2-0.3,0.3-0.4,0.4C-57.6,452.4-57.7,452.4-57.9,452.4z"/>
	<path class="st0" d="M-23.9,448.6l0.3,0.5c0.2-0.1,0.3-0.3,0.5-0.4c0.2-0.1,0.5-0.1,0.8-0.1c0.1,0.1,0.2,0.2,0.2,0.3
		c-0.1,0.1-0.2,0.2-0.4,0.3c-0.7,0-1.2,0.5-1.3,1.2c0,0.5,0,1,0,1.4c-0.1,0.2-0.2,0.3-0.3,0.5c-0.1-0.1-0.2-0.3-0.3-0.5
		c0-0.9,0-1.8,0-2.7c0.1-0.2,0.1-0.4,0.3-0.6L-23.9,448.6z"/>
	<path class="st0" d="M-8.4,450.6c0-0.5,0-1,0-1.4c0-0.2,0.1-0.3,0.2-0.4c0.2,0.2,0.6,0.3,0.9,0.2c0.3,0,0.6-0.2,0.8-0.2
		c0.1,0.1,0.2,0.2,0.2,0.3c-0.1,0.1-0.2,0.3-0.3,0.3c-0.7,0-1.3,0.6-1.3,1.4c0,0,0,0.1,0,0.1c0,0.4,0,0.8,0,1.2
		c-0.1,0.2-0.2,0.4-0.3,0.5c-0.1-0.2-0.2-0.3-0.3-0.5C-8.4,451.5-8.4,451.1-8.4,450.6L-8.4,450.6L-8.4,450.6z"/>
	<path class="st0" d="M32.1,450.6c0-0.5,0-1,0-1.4c0.1-0.2,0.1-0.3,0.3-0.5c0.1,0.1,0.2,0.2,0.3,0.2c0.2,0,0.3,0,0.5,0
		c0.3-0.1,0.5-0.2,0.8-0.2c0.1,0.1,0.2,0.2,0.3,0.3c-0.1,0.1-0.2,0.2-0.4,0.3c-0.7,0-1.2,0.6-1.3,1.3c0,0.5,0,1,0,1.4
		c0.1,0.2,0,0.3-0.2,0.4c-0.2,0.1-0.3,0-0.4-0.2c0-0.1,0-0.1,0-0.2C32.1,451.5,32.1,451,32.1,450.6L32.1,450.6L32.1,450.6z"/>
	<path class="st0" d="M0.4,448.6l0.3,0.5c0.2-0.2,0.4-0.3,0.6-0.4c0.2-0.1,0.5-0.1,0.7-0.1c0.1,0.1,0.2,0.2,0.3,0.3
		c-0.1,0.1-0.2,0.3-0.3,0.3c-0.7,0-1.2,0.6-1.2,1.2c0,0,0,0,0,0c0,0.5,0,0.9,0,1.4c0.1,0.2,0,0.3-0.2,0.4c-0.2,0.1-0.3,0-0.4-0.2
		c0-0.1,0-0.2,0-0.3c0-0.9,0-1.8,0-2.7c0-0.2,0.1-0.4,0.2-0.6L0.4,448.6z"/>
	<path class="st0" d="M-1,450.5c0,0.5,0,1,0,1.4c-0.1,0.2-0.2,0.3-0.3,0.4c-0.1-0.1-0.2-0.3-0.3-0.4c0-0.9,0-1.8,0-2.8
		c0.1-0.2,0.2-0.4,0.4-0.5c0.1,0.2,0.2,0.4,0.2,0.6C-1,449.6-1,450-1,450.5L-1,450.5L-1,450.5z"/>
	<path class="st0" d="M-18.4,449.9c0,0.4-0.3,0.7-0.7,0.6c-0.4,0-0.7-0.3-0.6-0.7l0,0c0-0.4,0.3-0.7,0.7-0.6
		C-18.7,449.2-18.4,449.5-18.4,449.9z"/>
	<path class="st0" d="M5.3,450.5c-0.4,0-0.7-0.2-0.7-0.6c0,0,0-0.1,0-0.1c-0.1-0.3,0.2-0.7,0.5-0.7c0,0,0.1,0,0.1,0
		c0.4,0,0.7,0.2,0.7,0.6c0,0,0,0.1,0,0.1C5.9,450.1,5.7,450.5,5.3,450.5C5.3,450.5,5.3,450.5,5.3,450.5z"/>
	<path class="st0" d="M14.7,447.9c0.4-0.4,0.3-1.1,1.1-1c0,0.5-0.4,1-0.9,1C14.8,447.9,14.7,447.9,14.7,447.9z"/>
	<path class="st0" d="M-0.7,447.4c-0.2,0.2-0.4,0.3-0.7,0.4c-0.2-0.1-0.3-0.3-0.4-0.5c0.1-0.2,0.2-0.3,0.4-0.3
		C-1.1,447.1-0.8,447.2-0.7,447.4z"/>
</g>
</svg>
