<?xml version="1.0" encoding="iso-8859-1"?>
<!-- Generator: Adobe Illustrator 18.1.1, SVG Export Plug-In . SVG Version: 6.00 Build 0)  -->
<svg version="1.1" xmlns="http://www.w3.org/2000/svg" xmlns:xlink="http://www.w3.org/1999/xlink" x="0px" y="0px"
	 viewBox="0 0 512 512" style="enable-background:new 0 0 512 512;" xml:space="preserve">
<g id="Capa_1">
	<g>
		<g>
			<path style="fill:#F07347;" d="M256,0C114.842,0,0,114.842,0,256s114.842,256,256,256s256-114.842,256-256S397.158,0,256,0z
				 M256,457.528c-111.121,0-201.533-90.401-201.533-201.528S144.879,54.472,256,54.472S457.533,144.873,457.533,256
				S367.121,457.528,256,457.528z"/>
			<path style="fill:#F07347;" d="M389.417,248.096H274.37V109.767c0-11.641-9.438-21.079-21.079-21.079
				s-21.079,9.438-21.079,21.079v159.407c0,11.641,9.438,21.079,21.079,21.079h136.126c11.641,0,21.079-9.438,21.079-21.079
				C410.496,257.533,401.058,248.096,389.417,248.096z"/>
		</g>
	</g>
</g>
<g id="Layer_1">
</g>
</svg>
