<?xml version="1.0" encoding="iso-8859-1"?>
<!-- Generator: Adobe Illustrator 18.1.1, SVG Export Plug-In . SVG Version: 6.00 Build 0)  -->
<svg version="1.1" xmlns="http://www.w3.org/2000/svg" xmlns:xlink="http://www.w3.org/1999/xlink" x="0px" y="0px"
	 viewBox="0 0 43.7 70" style="enable-background:new 0 0 43.7 70;" xml:space="preserve">
<g id="Layer_1_1_">
	<g>
		<polygon style="fill:#F06E3A;" points="43.7,70 21.9,55.7 0,70 0,0 43.7,0 		"/>
		<g>
			<g>
				<path style="fill:#FFFFFF;" d="M12.669,19.525c0.425,0.324,0.862,0.632,1.316,0.908c-0.231,0.557-0.436,1.144-0.62,1.751h1.863
					c0.106-0.311,0.208-0.627,0.329-0.923c0.863,0.395,1.763,0.697,2.686,0.923h7.221c0.935-0.227,1.848-0.535,2.718-0.94
					c0.121,0.3,0.221,0.622,0.332,0.94h1.828c-0.183-0.608-0.387-1.194-0.62-1.751c0.455-0.275,0.893-0.584,1.315-0.908
					c0.812,0.791,1.519,1.685,2.106,2.659h2.598c-2.517-5.14-7.788-8.699-13.888-8.699c-6.102,0-11.371,3.559-13.887,8.699h2.596
					C11.149,21.21,11.857,20.313,12.669,19.525z M29.689,18.388c-0.238,0.17-0.477,0.337-0.725,0.492
					c-0.308-0.567-0.644-1.106-1.006-1.591C28.568,17.608,29.142,17.98,29.689,18.388z M27.451,19.692
					c-0.781,0.359-1.585,0.648-2.413,0.851c-0.231-1.67-0.564-3.283-1.039-4.516C25.335,16.702,26.518,17.984,27.451,19.692z
					 M21.676,15.784c0.059-0.001,0.116-0.008,0.176-0.008s0.117,0.007,0.176,0.008c0.423,0.693,0.933,2.423,1.309,5.054
					c-0.492,0.058-0.987,0.095-1.484,0.095c-0.5,0-0.994-0.037-1.484-0.095C20.744,18.207,21.253,16.477,21.676,15.784z
					 M19.696,16.054c-0.469,1.23-0.799,2.829-1.029,4.49c-0.815-0.199-1.606-0.483-2.371-0.831
					C17.224,18.02,18.391,16.738,19.696,16.054z M15.745,17.289c-0.362,0.485-0.695,1.025-1.007,1.591
					c-0.247-0.154-0.486-0.321-0.724-0.491C14.561,17.98,15.135,17.608,15.745,17.289z"/>
				<path style="fill:#FFFFFF;" d="M31.036,38.376c-0.423-0.325-0.864-0.632-1.315-0.91c0.229-0.555,0.435-1.143,0.62-1.75h-1.828
					c-0.105,0.317-0.209,0.638-0.33,0.939c-0.871-0.404-1.786-0.709-2.719-0.939h-7.22c-0.923,0.226-1.822,0.529-2.685,0.923
					c-0.123-0.297-0.223-0.614-0.331-0.923h-1.862c0.183,0.608,0.388,1.195,0.619,1.751c-0.454,0.275-0.89,0.584-1.316,0.907
					c-0.811-0.789-1.519-1.684-2.104-2.658H7.968c2.516,5.138,7.785,8.699,13.886,8.699s11.371-3.561,13.887-8.699h-2.598
					C32.556,36.69,31.848,37.586,31.036,38.376z M14.014,39.513c0.238-0.17,0.477-0.338,0.724-0.491
					c0.312,0.566,0.646,1.105,1.007,1.59C15.135,40.292,14.561,39.921,14.014,39.513z M16.294,38.19
					c0.766-0.344,1.556-0.631,2.371-0.829c0.23,1.662,0.561,3.255,1.029,4.49C18.391,41.163,17.224,39.879,16.294,38.19z
					 M22.028,42.116c-0.059,0.002-0.116,0.008-0.176,0.008s-0.117-0.006-0.176-0.008c-0.423-0.693-0.934-2.424-1.309-5.054
					c0.49-0.058,0.985-0.096,1.484-0.096c0.5,0,0.994,0.038,1.485,0.096C22.958,39.692,22.452,41.423,22.028,42.116z M23.999,41.872
					c0.475-1.232,0.808-2.845,1.039-4.516c0.827,0.204,1.632,0.493,2.413,0.852C26.518,39.917,25.335,41.199,23.999,41.872z
					 M27.957,40.611c0.362-0.487,0.698-1.027,1.006-1.591c0.248,0.155,0.487,0.323,0.725,0.493
					C29.142,39.921,28.568,40.292,27.957,40.611z"/>
				<path style="fill:#FFFFFF;" d="M11.02,32.024l0.616-2.161c0.163-0.576,0.289-1.143,0.402-1.911h0.025
					c0.126,0.754,0.239,1.309,0.39,1.911l0.578,2.161h1.797l1.885-6.143h-1.871l-0.528,2.437c-0.138,0.705-0.264,1.395-0.352,2.098
					h-0.025c-0.126-0.705-0.289-1.393-0.452-2.086l-0.616-2.449H11.36l-0.653,2.525c-0.151,0.602-0.327,1.308-0.452,2.011h-0.025
					c-0.101-0.705-0.226-1.383-0.352-2.024l-0.49-2.514H7.439l1.784,6.145L11.02,32.024L11.02,32.024z"/>
				<path style="fill:#FFFFFF;" d="M24.087,28.316c-0.14,0.705-0.263,1.395-0.35,2.099h-0.026c-0.125-0.705-0.289-1.394-0.451-2.087
					l-0.619-2.449h-1.508l-0.653,2.525c-0.151,0.603-0.327,1.308-0.452,2.011h-0.025c-0.101-0.705-0.226-1.384-0.352-2.025
					l-0.49-2.514h-1.948l1.784,6.145h1.797l0.616-2.16c0.163-0.579,0.289-1.144,0.402-1.912h0.025
					c0.126,0.754,0.24,1.309,0.391,1.912l0.578,2.16h1.797l1.882-6.145h-1.873L24.087,28.316z"/>
				<path style="fill:#FFFFFF;" d="M33.865,28.316c-0.139,0.705-0.264,1.395-0.351,2.099H33.49c-0.125-0.705-0.29-1.394-0.453-2.087
					l-0.616-2.449h-1.51l-0.654,2.525c-0.15,0.603-0.327,1.308-0.453,2.011H29.78c-0.101-0.705-0.225-1.384-0.351-2.025
					l-0.491-2.514h-1.95l1.787,6.145h1.794l0.619-2.16c0.162-0.579,0.289-1.144,0.402-1.912h0.023
					c0.125,0.754,0.238,1.309,0.389,1.912l0.578,2.16h1.797l1.884-6.145h-1.873L33.865,28.316z"/>
			</g>
		</g>
	</g>
</g>
<g id="Layer_1">
</g>
</svg>
