<?xml version="1.0" encoding="iso-8859-1"?>
<!-- Generator: Adobe Illustrator 18.1.1, SVG Export Plug-In . SVG Version: 6.00 Build 0)  -->
<svg version="1.1" xmlns="http://www.w3.org/2000/svg" xmlns:xlink="http://www.w3.org/1999/xlink" x="0px" y="0px"
	 viewBox="0 0 512 512" style="enable-background:new 0 0 512 512;" xml:space="preserve">
<g id="Capa_1">
	<g>
		<g>
			<path style="fill:#F07347;" d="M255.99,59.941c108.094,0,196.069,87.954,196.069,196.069S364.084,452.059,255.99,452.059
				S59.941,364.084,59.941,255.99S147.896,59.941,255.99,59.941 M255.99,0C114.608,0,0,114.608,0,255.99S114.608,512,255.99,512
				S512,397.372,512,255.99S397.372,0,255.99,0L255.99,0z"/>
		</g>
		<g>
			<circle style="fill:#F07347;" cx="435.814" cy="255.99" r="26.514"/>
		</g>
		<g>
			<circle style="fill:#F07347;" cx="76.166" cy="255.99" r="26.514"/>
		</g>
		<g>
			<g>
				<circle style="fill:#F07347;" cx="255.99" cy="435.814" r="26.514"/>
			</g>
		</g>
		<g>
			<g>
				<circle style="fill:#F07347;" cx="255.99" cy="76.166" r="26.514"/>
			</g>
		</g>
		<path style="fill:#F07347;" d="M223.722,223.682l-73.688,138.265l138.265-73.668l73.668-138.265L223.722,223.682z M255.99,281.125
			c-13.886,0-25.135-11.249-25.135-25.135s11.249-25.135,25.135-25.135c13.886,0,25.135,11.249,25.135,25.135
			S269.876,281.125,255.99,281.125z"/>
	</g>
</g>
<g id="Layer_1">
</g>
</svg>
