<?xml version="1.0" encoding="iso-8859-1"?>
<!-- Generator: Adobe Illustrator 18.1.1, SVG Export Plug-In . SVG Version: 6.00 Build 0)  -->
<svg version="1.1" xmlns="http://www.w3.org/2000/svg" xmlns:xlink="http://www.w3.org/1999/xlink" x="0px" y="0px"
	 viewBox="0 0 421.862 421.862" style="enable-background:new 0 0 421.862 421.862;" xml:space="preserve">
<g id="reg-icon">
	<path style="fill:#F07347;" d="M210.931,0C94.437,0,0,94.437,0,210.931s94.437,210.931,210.931,210.931
		s210.931-94.437,210.931-210.931S327.425,0,210.931,0z M328.824,170.626L205.781,293.669c-3.428,3.428-7.927,5.15-12.427,5.15
		s-9-1.723-12.427-5.15l-70.31-70.31c-6.873-6.873-6.873-17.982,0-24.855c6.873-6.873,17.982-6.873,24.855,0l57.883,57.883
		l110.616-110.616c6.873-6.873,17.982-6.873,24.855,0C335.697,152.644,335.697,163.753,328.824,170.626z"/>
</g>
<g id="Layer_1">
</g>
</svg>
