<?xml version="1.0" encoding="iso-8859-1"?>
<!-- Generator: Adobe Illustrator 18.1.1, SVG Export Plug-In . SVG Version: 6.00 Build 0)  -->
<svg version="1.1" xmlns="http://www.w3.org/2000/svg" xmlns:xlink="http://www.w3.org/1999/xlink" x="0px" y="0px"
	 viewBox="0 0 34.67 34.007" style="enable-background:new 0 0 34.67 34.007;" xml:space="preserve">
<g id="Address">
	<path style="fill-rule:evenodd;clip-rule:evenodd;fill:#F06E3A;" d="M28.462,20.972h-4.058l1.727-2.493
		c3.261-4.349,2.79-11.495-1.01-15.294C23.068,1.132,20.34,0,17.435,0c-2.903,0-5.634,1.132-7.686,3.184
		C5.95,6.983,5.478,14.13,8.727,18.461l1.738,2.512H6.208L0,34.007h34.67L28.462,20.972L28.462,20.972z M17.536,6.802
		c2.186,0,3.967,1.78,3.967,3.967c0,2.187-1.781,3.967-3.967,3.967c-2.187,0-3.967-1.78-3.967-3.967
		C13.569,8.582,15.349,6.802,17.536,6.802L17.536,6.802z M6.924,22.105h4.327l6.184,8.931l6.183-8.931h4.128l5.128,10.77H1.795
		L6.924,22.105z"/>
</g>
<g id="Layer_1">
</g>
</svg>
