<?xml version="1.0" encoding="iso-8859-1"?>
<!-- Generator: Adobe Illustrator 18.1.1, SVG Export Plug-In . SVG Version: 6.00 Build 0)  -->
<svg version="1.1" xmlns="http://www.w3.org/2000/svg" xmlns:xlink="http://www.w3.org/1999/xlink" x="0px" y="0px"
	 viewBox="0 0 460.8 460.403" style="enable-background:new 0 0 460.8 460.403;" xml:space="preserve">
<g id="info-icon">
	<g>
		<g>
			<path style="fill:#FFFFFF;" d="M230.598,460.403c127.008,0,230.202-103.194,230.202-230.202S357.606,0,230.598,0
				S0,103.194,0,230.202S103.591,460.403,230.598,460.403z M230.598,31.752c109.147,0,198.053,88.905,198.053,198.053
				s-88.905,198.053-198.053,198.053S32.546,338.952,32.546,229.805S121.451,31.752,230.598,31.752z"/>
			<path style="fill:#FFFFFF;" d="M192.099,331.411c-9.129,0-16.273,7.144-16.273,16.273s7.144,16.273,16.273,16.273h106.766
				c9.129,0,16.273-7.144,16.273-16.273s-7.144-16.273-16.273-16.273h-37.309V188.13c0-9.129-7.144-16.273-16.273-16.273h-53.185
				c-9.129,0-16.273,7.144-16.273,16.273s7.144,16.273,16.273,16.273h37.309v127.008H192.099L192.099,331.411z"/>
			<circle style="fill:#FFFFFF;" cx="223.454" cy="118.673" r="26.195"/>
		</g>
	</g>
</g>
<g id="Layer_1">
</g>
</svg>
