<?xml version="1.0" encoding="iso-8859-1"?>
<!-- Generator: Adobe Illustrator 18.1.1, SVG Export Plug-In . SVG Version: 6.00 Build 0)  -->
<svg version="1.1" xmlns="http://www.w3.org/2000/svg" xmlns:xlink="http://www.w3.org/1999/xlink" x="0px" y="0px"
	 viewBox="0 0 26.689 28.596" style="enable-background:new 0 0 26.689 28.596;" xml:space="preserve">
<g id="Date">
	<g>
		<rect x="9.532" y="20.495" style="fill-rule:evenodd;clip-rule:evenodd;fill:#F06E3A;" width="3.335" height="3.337"/>
		<rect x="9.532" y="11.915" style="fill-rule:evenodd;clip-rule:evenodd;fill:#F06E3A;" width="3.335" height="3.335"/>
		<rect x="9.532" y="16.205" style="fill-rule:evenodd;clip-rule:evenodd;fill:#F06E3A;" width="3.335" height="3.336"/>
		<rect x="5.242" y="16.205" style="fill-rule:evenodd;clip-rule:evenodd;fill:#F06E3A;" width="3.337" height="3.336"/>
		<rect x="5.242" y="11.915" style="fill-rule:evenodd;clip-rule:evenodd;fill:#F06E3A;" width="3.337" height="3.335"/>
		<rect x="5.242" y="20.495" style="fill-rule:evenodd;clip-rule:evenodd;fill:#F06E3A;" width="3.337" height="3.337"/>
		<rect x="18.11" y="11.915" style="fill-rule:evenodd;clip-rule:evenodd;fill:#F06E3A;" width="3.337" height="3.335"/>
		<path style="fill-rule:evenodd;clip-rule:evenodd;fill:#F06E3A;" d="M26.213,1.906h-3.337v-1.43C22.877,0.212,22.664,0,22.401,0
			h-3.337c-0.263,0-0.476,0.212-0.476,0.476v1.43H8.102v-1.43C8.102,0.212,7.89,0,7.626,0H4.29C4.026,0,3.812,0.212,3.812,0.476
			v1.43H0.477C0.214,1.906,0,2.119,0,2.382v5.243v20.493c0,0.265,0.214,0.477,0.477,0.477h25.736c0.263,0,0.476-0.212,0.476-0.477
			V7.625V2.382C26.689,2.119,26.477,1.906,26.213,1.906L26.213,1.906z M22.401,15.25v0.953v3.337v0.953v4.29h-4.29h-0.953h-3.337
			h-0.953H9.532H8.58H4.29v-4.29V19.54v-3.337V15.25v-4.288h4.29h0.953h3.335h0.953h3.337h0.953h4.29V15.25L22.401,15.25z
			 M25.736,7.149H0.953V2.86h2.86v1.43c0,0.263,0.214,0.476,0.477,0.476h3.337c0.263,0,0.476-0.213,0.476-0.476V2.86h10.485v1.43
			c0,0.263,0.213,0.476,0.476,0.476h3.337c0.263,0,0.476-0.213,0.476-0.476V2.86h2.86V7.149z"/>
		<rect x="18.11" y="16.205" style="fill-rule:evenodd;clip-rule:evenodd;fill:#F06E3A;" width="3.337" height="3.336"/>
		<rect x="18.11" y="20.495" style="fill-rule:evenodd;clip-rule:evenodd;fill:#F06E3A;" width="3.337" height="3.337"/>
		<rect x="13.82" y="20.495" style="fill-rule:evenodd;clip-rule:evenodd;fill:#F06E3A;" width="3.337" height="3.337"/>
		<rect x="13.82" y="16.205" style="fill-rule:evenodd;clip-rule:evenodd;fill:#F06E3A;" width="3.337" height="3.336"/>
		<rect x="13.82" y="11.915" style="fill-rule:evenodd;clip-rule:evenodd;fill:#F06E3A;" width="3.337" height="3.335"/>
	</g>
</g>
<g id="Layer_1">
</g>
</svg>
