<?xml version="1.0" encoding="iso-8859-1"?>
<!-- Generator: Adobe Illustrator 18.1.1, SVG Export Plug-In . SVG Version: 6.00 Build 0)  -->
<svg version="1.1" xmlns="http://www.w3.org/2000/svg" xmlns:xlink="http://www.w3.org/1999/xlink" x="0px" y="0px"
	 viewBox="0 0 43.663 70.005" style="enable-background:new 0 0 43.663 70.005;" xml:space="preserve">
<g id="Gotolink-icon">
	<g>
		<polygon style="fill-rule:evenodd;clip-rule:evenodd;fill:#F06E3A;" points="43.663,70.005 21.833,55.735 0,70.005 0,0 43.663,0 
					"/>
		<g>
			<g>
				<g>
					<path style="fill-rule:evenodd;clip-rule:evenodd;fill:#FFFFFF;" d="M38.084,23.971l-6.477-6.477
						c-0.214-0.214-0.468-0.32-0.758-0.32c-0.136,0-0.275,0.028-0.422,0.084c-0.44,0.192-0.658,0.523-0.658,0.996v3.239H27.07
						c-1.192,0-2.297,0.061-3.314,0.185c-1.018,0.123-1.915,0.295-2.691,0.514c-0.776,0.22-1.475,0.493-2.099,0.818
						c-0.625,0.326-1.155,0.672-1.595,1.037c-0.439,0.365-0.823,0.781-1.155,1.248c-0.333,0.467-0.597,0.925-0.794,1.375
						c-0.196,0.449-0.353,0.944-0.471,1.485c-0.119,0.538-0.197,1.044-0.237,1.517c-0.039,0.473-0.059,0.984-0.059,1.535
						c0,0.629,0.099,1.315,0.296,2.058c0.196,0.741,0.412,1.382,0.65,1.922c0.235,0.54,0.514,1.099,0.834,1.678
						c0.321,0.579,0.543,0.964,0.666,1.155c0.124,0.191,0.242,0.366,0.355,0.522c0.113,0.146,0.258,0.22,0.438,0.22
						c0.045,0,0.113-0.011,0.203-0.033c0.257-0.124,0.371-0.315,0.337-0.574c-0.507-3.778-0.091-6.438,1.247-7.977
						c1.293-1.474,3.756-2.21,7.388-2.21h2.699v3.239c0,0.472,0.218,0.803,0.657,0.995c0.148,0.055,0.287,0.083,0.423,0.083
						c0.302,0,0.556-0.106,0.758-0.32l6.477-6.477c0.213-0.212,0.32-0.465,0.32-0.758C38.404,24.437,38.296,24.183,38.084,23.971z"
						/>
					<path style="fill-rule:evenodd;clip-rule:evenodd;fill:#FFFFFF;" d="M33.731,33.365c-0.214-0.09-0.41-0.045-0.59,0.135
						c-0.291,0.27-0.595,0.479-0.911,0.624c-0.202,0.112-0.303,0.275-0.303,0.489v3.61c0,0.741-0.264,1.376-0.792,1.905
						c-0.528,0.528-1.164,0.792-1.905,0.792H15.196c-0.743,0-1.378-0.265-1.906-0.792c-0.529-0.529-0.794-1.165-0.794-1.905V24.19
						c0-0.743,0.265-1.378,0.794-1.906c0.528-0.529,1.163-0.792,1.906-0.792h1.887c0.068,0,0.158-0.024,0.27-0.068
						c0.63-0.382,1.377-0.72,2.244-1.013c0.292-0.055,0.438-0.235,0.438-0.54c0-0.145-0.053-0.272-0.16-0.379
						c-0.106-0.107-0.233-0.16-0.379-0.16h-4.3c-1.338,0-2.483,0.475-3.432,1.425c-0.951,0.95-1.425,2.093-1.425,3.432v14.032
						c0,1.337,0.475,2.482,1.425,3.432c0.95,0.95,2.094,1.424,3.432,1.424h14.032c1.337,0,2.482-0.475,3.432-1.424
						c0.951-0.951,1.425-2.095,1.425-3.432v-4.369C34.087,33.628,33.969,33.465,33.731,33.365z"/>
				</g>
			</g>
		</g>
	</g>
</g>
<g id="Layer_1">
</g>
</svg>
