<?xml version="1.0" encoding="iso-8859-1"?>
<!-- Generator: Adobe Illustrator 18.1.1, SVG Export Plug-In . SVG Version: 6.00 Build 0)  -->
<svg version="1.1" xmlns="http://www.w3.org/2000/svg" xmlns:xlink="http://www.w3.org/1999/xlink" x="0px" y="0px"
	 viewBox="0 0 133.694 128.563" style="enable-background:new 0 0 133.694 128.563;" xml:space="preserve">
<g id="signup-ic">
	<g>
		<g>
			<defs>
				<rect id="SVGID_1_" y="0.027" width="133.694" height="128.536"/>
			</defs>
			<clipPath id="SVGID_2_">
				<use xlink:href="#SVGID_1_"  style="overflow:visible;"/>
			</clipPath>
			<path style="clip-path:url(#SVGID_2_);fill:#F07448;" d="M133.448,68.826v-0.492c-0.328-6.413-5.622-11.517-12.116-11.517
				c-5.24,0-9.688,3.302-11.38,7.942l-8.788-0.873V63.64c0-11.161-5.458-21.041-13.862-27.126l7.558-12.744
				c1.065,0.3,2.211,0.492,3.385,0.492c6.687,0,12.117-5.431,12.117-12.116v-0.11C110.361,5.377,104.985,0,98.299,0h-0.055
				c-6.687,0-12.117,5.431-12.117,12.117c0,3.33,1.364,6.359,3.547,8.569l-7.559,12.717c-4.365-2.101-9.278-3.275-14.463-3.275
				c-8.515,0-16.264,3.166-22.16,8.378l-3.547-3.329c0.955-1.747,1.5-3.739,1.5-5.867c0-6.687-5.43-12.118-12.116-12.118h-0.055
				c-6.659,0-12.062,5.377-12.062,12.036v0.109c0,6.687,5.43,12.117,12.117,12.117c2.375,0,4.585-0.682,6.468-1.856l3.52,3.33
				c-4.503,5.703-7.178,12.908-7.178,20.713c0,2.647,0.301,5.241,0.901,7.723l-12.716,4.258c-2.156-3.357-5.923-5.567-10.207-5.567
				C5.431,70.053,0,75.484,0,82.17v0.055C0,88.883,5.377,94.26,12.035,94.26h0.11c6.685,0,12.116-5.431,12.116-12.116
				c0-0.273,0-0.546-0.028-0.792l12.744-4.257c5.186,11.789,16.975,20.031,30.675,20.031c1.529,0,3.029-0.11,4.503-0.3l1.965,8.541
				c-3.875,2.02-6.551,6.086-6.551,10.752c0,6.687,5.431,12.118,12.118,12.118c0.845,0,1.636-0.083,2.428-0.247
				c5.541-1.118,9.689-6.031,9.689-11.871c0-6.576-5.267-11.953-11.817-12.116l-1.965-8.541
				c11.462-3.739,20.222-13.509,22.514-25.571l8.788,0.874c0.901,5.812,5.922,10.261,11.981,10.261
				c6.495,0,11.789-5.104,12.116-11.516c0-0.219,0.027-0.41,0.027-0.628V68.826z M88.966,80.451c-0.3-2.101-1.283-4.367-3.93-5.021
				c-5.322-1.365-9.661-4.395-9.661-4.395l-3.385,10.699l-0.628,2.019v-0.027l-0.545,1.691l-1.775-5.047
				c4.395-6.114-0.873-6.059-1.172-6.031c-0.301,0-5.567-0.083-1.174,6.031l-1.774,5.047l-0.546-1.691v0.027l-0.628-2.019
				l-3.383-10.699c0,0-4.34,3.057-9.661,4.395c-2.702,0.682-3.657,3.029-3.93,5.185c-3.739-4.64-5.976-10.534-5.976-16.947
				c0-14.955,12.116-27.045,27.043-27.045c14.955,0,27.045,12.117,27.045,27.045C94.806,69.998,92.622,75.839,88.966,80.451
				L88.966,80.451z M88.966,80.451"/>
		</g>
		<path style="fill:#F07448;" d="M77.722,56.627c0.164-0.464,0.3-0.955,0.382-1.419c1.474-8.896-2.893-9.197-2.893-9.197
			s-0.737-1.391-2.647-2.456c-1.282-0.764-3.055-1.337-5.43-1.146c-0.765,0.027-1.474,0.191-2.156,0.409
			c-0.873,0.3-1.664,0.71-2.374,1.228c-0.873,0.545-1.719,1.227-2.456,2.019c-1.146,1.174-2.183,2.729-2.647,4.64
			c-0.381,1.419-0.3,2.919,0.028,4.53c0.081,0.464,0.218,0.928,0.382,1.418c-0.874-0.081-1.911,0.437-0.929,3.848
			c0.71,2.511,1.364,3.221,1.883,3.248c0.465,2.976,2.757,6.796,6.551,8.106c1.555,0.545,3.247,0.545,4.802,0
			c3.739-1.338,6.114-5.13,6.577-8.106c0.491-0.027,1.173-0.737,1.883-3.248C79.632,57.064,78.594,56.546,77.722,56.627
			L77.722,56.627z M77.722,56.627"/>
	</g>
</g>
<g id="Layer_1">
</g>
</svg>
