<?xml version="1.0" encoding="iso-8859-1"?>
<!-- Generator: Adobe Illustrator 18.1.1, SVG Export Plug-In . SVG Version: 6.00 Build 0)  -->
<svg version="1.1" xmlns="http://www.w3.org/2000/svg" xmlns:xlink="http://www.w3.org/1999/xlink" x="0px" y="0px"
	 viewBox="0 0 138.044 109.483" style="enable-background:new 0 0 138.044 109.483;" xml:space="preserve">
<g id="video-ic">
	<path style="fill:#F07448;" d="M135.664,0H2.38C1.066,0,0,1.064,0,2.38v104.723c0,1.316,1.066,2.38,2.38,2.38h133.284
		c1.314,0,2.38-1.064,2.38-2.38V2.38C138.044,1.064,136.978,0,135.664,0z M23.801,104.723H4.76V83.303h19.041V104.723z
		 M23.801,78.542H4.76V57.122h19.041V78.542z M23.801,52.362H4.76V30.941h19.041V52.362z M23.801,26.181H4.76V4.76h19.041V26.181z
		 M86.961,56.75L60.78,73.411c-0.388,0.245-0.833,0.371-1.278,0.371c-0.395,0-0.788-0.098-1.145-0.293
		c-0.762-0.419-1.235-1.219-1.235-2.087V38.081c0-0.869,0.474-1.668,1.235-2.087c0.762-0.417,1.69-0.386,2.425,0.079l26.181,16.661
		c0.683,0.438,1.1,1.195,1.1,2.009C88.063,55.556,87.646,56.313,86.961,56.75z M133.284,104.723h-19.041V83.303h19.041V104.723z
		 M133.284,78.542h-19.041V57.122h19.041V78.542z M133.284,52.362h-19.041V30.941h19.041V52.362z M133.284,26.181h-19.041V4.76
		h19.041V26.181z"/>
</g>
<g id="Layer_1">
</g>
</svg>
