<?xml version="1.0" encoding="iso-8859-1"?>
<!-- Generator: Adobe Illustrator 18.1.1, SVG Export Plug-In . SVG Version: 6.00 Build 0)  -->
<svg version="1.1" xmlns="http://www.w3.org/2000/svg" xmlns:xlink="http://www.w3.org/1999/xlink" x="0px" y="0px"
	 viewBox="0 0 110.543 110.543" style="enable-background:new 0 0 110.543 110.543;" xml:space="preserve">
<g id="login-ic">
	<g>
		<path style="fill:#F07448;" d="M102.515,25.841L84.432,43.923c-1.822,1.808-1.822,7.341,0,9.163l18.082,18.069
			c1.809,1.822,8.029,1.822,8.029-1.957v-41.4C110.544,24.033,104.323,24.033,102.515,25.841L102.515,25.841z M102.515,25.841"/>
		<path style="fill:#F07448;" d="M55.271,0H0v82.908l41.454,27.636V96.725h13.817c7.624,0,13.818-6.193,13.818-13.817V13.818
			C69.089,6.18,62.895,0,55.271,0L55.271,0z M55.266,82.908H41.448V27.636L20.721,13.818h34.545V82.908z M55.266,82.908"/>
	</g>
</g>
<g id="Layer_1">
</g>
</svg>
