<?xml version="1.0" encoding="iso-8859-1"?>
<!-- Generator: Adobe Illustrator 18.1.1, SVG Export Plug-In . SVG Version: 6.00 Build 0)  -->
<svg version="1.1" xmlns="http://www.w3.org/2000/svg" xmlns:xlink="http://www.w3.org/1999/xlink" x="0px" y="0px"
	 viewBox="0 0 23.757 23.755" style="enable-background:new 0 0 23.757 23.755;" xml:space="preserve">
<g id="Close-bt">
	<g>
		<path style="fill-rule:evenodd;clip-rule:evenodd;fill:#F06E3A;" d="M20.28,20.277c4.636-4.638,4.636-12.16,0-16.799
			c-4.64-4.637-12.162-4.637-16.801,0c-4.638,4.638-4.638,12.161,0,16.799C8.118,24.915,15.639,24.915,20.28,20.277z"/>
		<path style="fill-rule:evenodd;clip-rule:evenodd;fill:#FFFFFF;" d="M13.87,7.839c0.564-0.562,1.486-0.562,2.043,0
			c0.563,0.565,0.563,1.482,0,2.047l-1.989,1.991l1.989,1.992c0.563,0.563,0.563,1.482,0,2.048c-0.557,0.562-1.48,0.562-2.043,0
			l-1.992-1.994l-1.994,1.994c-0.563,0.561-1.481,0.561-2.045,0c-0.561-0.566-0.561-1.485,0-2.048l1.991-1.992L7.838,9.885
			c-0.561-0.562-0.561-1.482,0-2.047c0.565-0.562,1.482-0.562,2.045,0l1.994,1.992L13.87,7.839z"/>
	</g>
</g>
<g id="Layer_1">
</g>
</svg>
