<?xml version="1.0" encoding="iso-8859-1"?>
<!-- Generator: Adobe Illustrator 18.1.1, SVG Export Plug-In . SVG Version: 6.00 Build 0)  -->
<svg version="1.1" xmlns="http://www.w3.org/2000/svg" xmlns:xlink="http://www.w3.org/1999/xlink" x="0px" y="0px"
	 viewBox="0 0 28.596 28.595" style="enable-background:new 0 0 28.596 28.595;" xml:space="preserve">
<g id="Contact">
	<path style="fill-rule:evenodd;clip-rule:evenodd;fill:#F06E3A;" d="M26.809,7.148c0.987,0,1.787-0.8,1.787-1.787V1.787h-3.574V0
		H1.788C0.805,0,0,0.803,0,1.787v25.02c0,0.984,0.805,1.788,1.788,1.788h23.233v-7.149h1.787c0.987,0,1.787-0.8,1.787-1.787v-3.575
		h-3.574v-1.787h1.787c0.987,0,1.787-0.801,1.787-1.787V8.936h-3.574V7.148H26.809L26.809,7.148z M16.085,7.157
		c1.969,0,3.566,1.597,3.566,3.565c0,1.969-1.597,3.565-3.566,3.565c-1.969,0-3.565-1.595-3.565-3.565
		C12.52,8.754,14.117,7.157,16.085,7.157L16.085,7.157z M7.149,26.807H5.362V1.787h1.787V26.807L7.149,26.807z M21.448,21.446
		H10.725v-1.787c0-1.975,1.6-3.575,3.574-3.575l0,0h3.574c1.975,0,3.575,1.6,3.575,3.575V21.446z"/>
</g>
<g id="Layer_1">
</g>
</svg>
