<?xml version="1.0" encoding="iso-8859-1"?>
<!-- Generator: Adobe Illustrator 18.1.1, SVG Export Plug-In . SVG Version: 6.00 Build 0)  -->
<svg version="1.1" xmlns="http://www.w3.org/2000/svg" xmlns:xlink="http://www.w3.org/1999/xlink" x="0px" y="0px"
	 viewBox="0 0 512 483.304" style="enable-background:new 0 0 512 483.304;" xml:space="preserve">
<g id="Layer_1_1_">
	<g>
		<g>
			<path style="fill:#EF6E3A;" d="M332.271,0.985L181.239,60.413L0,0v422.891l181.239,60.413l151.032-60.413L512,483.304V60.413
				L332.271,0.985z M166.136,152.398c-42.791,7.226-75.516,44.44-75.516,89.254v120.826h30.206V241.652
				c0-28.092,19.296-51.69,45.31-58.426v247.283L45.31,390.231V62.866l120.826,40.277V152.398z M317.168,380.131l-1.722,0.689
				l-119.104,47.641V183.227c26.014,6.736,45.31,30.334,45.31,58.426c0,44.814,32.726,82.028,75.516,89.254V380.131z
				 M317.168,300.071c-26.014-6.736-45.31-30.334-45.31-58.425c0-44.814-32.726-82.028-75.516-89.254v-49.231l1.487-0.586
				l119.339-46.958V300.071z M466.69,420.269l-119.316-40.103v-49.26c42.791-7.226,75.516-44.44,75.516-89.254v-79.709
				c8.99-5.232,15.103-14.861,15.103-26.014c0-16.68-13.527-30.206-30.206-30.206c-16.68,0-30.207,13.527-30.207,30.206
				c0,11.152,6.113,20.782,15.103,26.014v79.709c0,28.092-19.296,51.69-45.31,58.425V53.701l119.316,39.45L466.69,420.269
				L466.69,420.269z"/>
		</g>
	</g>
</g>
<g id="Layer_1">
</g>
</svg>
