<?xml version="1.0" encoding="utf-8"?>
<!-- Generator: Adobe Illustrator 19.0.0, SVG Export Plug-In . SVG Version: 6.00 Build 0)  -->
<svg version="1.1" id="Layer_1" xmlns="http://www.w3.org/2000/svg" xmlns:xlink="http://www.w3.org/1999/xlink" x="0px" y="0px"
	 viewBox="0 0 150 100" style="enable-background:new 0 0 150 100;" xml:space="preserve">
<style type="text/css">
	.st0{fill:#FFFFFF;}
	.st1{fill:#FFFFFF;stroke:#FFFFFF;stroke-width:0.75;stroke-linejoin:round;stroke-miterlimit:10;}
</style>
<g id="XMLID_51_">
	<path id="XMLID_36_" class="st0" d="M85.7,40.4V46H87v1.6h-4.2V46h1.2v-7.2h-1.2v-1.6h2.7l5.1,6.5v-4.9h-1.3v-1.6h4.2v1.6h-1.2v8.8
		h-1L85.7,40.4z"/>
	<path id="XMLID_98_" class="st0" d="M94.5,45.9h1.2v-7.2h-1.2v-1.6h3.9c3.8,0,6,2,6,5.1c0,3.2-2.1,5.3-6.2,5.3h-3.8L94.5,45.9
		L94.5,45.9z M98.4,45.9c2.7,0,4-1.4,4-3.7c0-2.3-1.6-3.5-4.2-3.5h-0.9v7.2H98.4z"/>
	<path id="XMLID_95_" class="st0" d="M105.7,45.9h1.2v-7.2h-1.2v-1.6h4c2.4,0,4.1,1,4.1,3.2c0,1.4-0.8,2.4-2,2.8l1.6,2.8h1.2v1.6
		h-2.4l-2.1-4c-0.2,0-0.4,0-0.6,0c-0.3,0-0.6,0-0.8,0v2.4h1.3v1.6h-4.2L105.7,45.9L105.7,45.9L105.7,45.9z M111.9,40.4
		c0-1.1-0.9-1.6-2.4-1.6h-1v3.4c0.2,0,0.4,0,1,0C111,42.1,111.9,41.5,111.9,40.4z"/>
	<path id="XMLID_31_" class="st0" d="M115.5,45.9h1.2v-7.2h-1.2v-1.6h7.8v2.9h-1.7v-1.4h-3.1v2.8h3.2V43h-3.2v2.9h3.1v-1.4h1.7v2.9
		h-7.8V45.9z"/>
	<path id="XMLID_30_" class="st0" d="M45.6,12.8c-16.1,0-28.1,11.9-28.1,27.7c0,16.6,11.4,27.7,28.3,27.7c7.5,0,14.7-2.7,20-7.6
		l-3.2-3.4c-4.8,4.4-10.5,6.6-16.7,6.6C32.5,63.8,23,54,23,40.4c0-13.2,9.7-23.2,22.5-23.2c6.9,0,10.3,2,11.9,3.2l1.6,1.2L58,23.3
		c-0.1,0.3-0.3,1-0.3,1.9c0,2.4,1.6,3.8,4.2,3.8c2.4,0,3.9-1.9,3.9-4.7C65.7,18.8,57.6,12.8,45.6,12.8z"/>
	<path id="XMLID_90_" class="st0" d="M29.2,42.4c0-3,2.2-5.4,5.3-5.4c3.2,0,5.3,2.4,5.3,5.4c0,3-2.2,5.4-5.3,5.4
		C31.3,47.8,29.2,45.4,29.2,42.4z M38,42.4c0-2.2-1.4-3.7-3.5-3.7c-2,0-3.5,1.6-3.5,3.7c0,2.2,1.4,3.7,3.5,3.7
		C36.6,46.1,38,44.5,38,42.4z"/>
	<path id="XMLID_27_" class="st0" d="M40.9,45.9h1.3l0.3-7.2h-1.3v-1.6H44l3.2,5.8l3.2-5.8h2.8v1.6h-1.3l0.3,7.2h1.3v1.6h-4.2v-1.6
		h1.3l-0.2-5.3l-2.9,5.2h-0.2l-2.9-5.2l-0.2,5.3h1.3v1.6h-4.2L40.9,45.9L40.9,45.9z"/>
	<path id="XMLID_86_" class="st0" d="M54.6,45.9h1.2v-7.2h-1.2v-1.6h4.2c2.2,0,3.9,1.3,3.9,3.4c0,2.4-1.7,3.6-4.1,3.6
		c-0.5,0-0.8,0-1,0V46h1.3v1.6h-4.2V45.9z M60.9,40.6c0-1.1-0.9-1.8-2.2-1.8h-1.1v3.7c0.2,0,0.4,0,1.2,0
		C60.1,42.5,60.9,41.8,60.9,40.6z"/>
	<path id="XMLID_83_" class="st0" d="M63.8,45.9h1.2v-7.2h-1.2v-1.6h4c2.4,0,4.1,1,4.1,3.2c0,1.4-0.8,2.4-2,2.8l1.6,2.8h1.2v1.6
		h-2.4l-2.1-4c-0.2,0-0.4,0-0.6,0c-0.3,0-0.6,0-0.8,0v2.4h1.3v1.6h-4.2L63.8,45.9L63.8,45.9L63.8,45.9z M70.1,40.4
		c0-1.1-0.9-1.6-2.4-1.6h-1v3.4c0.2,0,0.4,0,1,0C69.1,42.1,70.1,41.5,70.1,40.4z"/>
	<path id="XMLID_22_" class="st0" d="M73.6,45.9h1.2v-7.2h-1.2v-1.6h7.7v2.9h-1.7v-1.4h-3.1v2.8h3.2V43h-3.2v2.9h3.1v-1.4h1.7v2.9
		h-7.7V45.9z"/>
	<path id="XMLID_79_" class="st1" d="M76.2,67.4H77l1.8-7.7h-1.2v0h1.3l-0.4,1.8c0.4-1,1.3-1.9,2.4-1.9c1.2,0,1.9,0.8,1.9,2.1
		c0,1.6-1,3.2-2.7,3.2c-1.2,0-1.9-0.9-1.9-2.1v-0.1L77,67.3h1.2v0L76.2,67.4L76.2,67.4z M82.6,61.7c0-1.3-0.7-2.1-1.8-2.1
		c-1.6,0-2.7,1.8-2.7,3.2c0,1.2,0.8,2.1,1.9,2.1C81.6,65,82.6,63.3,82.6,61.7z"/>
	<path id="XMLID_76_" class="st1" d="M84.6,62.7c0-1.6,1.1-3.1,2.7-3.1c1.3,0,2.2,0.8,2.2,2.4c0,1.6-1.2,3.1-2.7,3.1
		C85.6,65,84.6,64.1,84.6,62.7z M89.5,61.8c0-1.4-0.9-2.3-2.1-2.3c-1.6,0-2.7,1.5-2.7,3c0,1.4,0.9,2.3,2.1,2.3
		C88.4,65,89.5,63.4,89.5,61.8z"/>
	<path id="XMLID_17_" class="st1" d="M92.4,59.6l-0.7,2.8c-0.1,0.6-0.2,1.1-0.2,1.4c0,0.7,0.4,1.2,1.1,1.2c1.2,0,2.4-1.4,2.7-3.1
		l0.5-2.2h0l-1,4c0,0.2,0,0.4,0,0.6c0,0.4,0.2,0.7,0.6,0.7s0.7-0.3,1-1h0c-0.3,0.8-0.5,1.1-1,1.1c-0.4,0-0.7-0.3-0.7-0.8
		c0-0.2,0-0.3,0-0.6l0.3-1C94.7,64,93.6,65,92.7,65c-0.8,0-1.2-0.5-1.2-1.2c0-0.3,0-0.7,0.2-1.4l0.7-2.7h-1.2v0L92.4,59.6L92.4,59.6
		z"/>
	<path id="XMLID_16_" class="st1" d="M99.6,59.7h-1.1v0h1.3l-0.5,2.1c0.5-1.4,1.1-2.2,1.8-2.2c0.3,0,0.4,0.1,0.4,0.3
		c0,0,0,0.1-0.1,0.1c-0.1,0-0.1,0-0.1-0.1c0,0,0-0.1,0-0.1c0,0-0.1,0-0.2,0c-0.8,0-1.5,1.2-2.1,3.2L98.4,65h-0.1L99.6,59.7z"/>
	<g id="XMLID_52_">
		<path id="XMLID_71_" class="st0" d="M43.4,81.4c0-2.9,2-5.6,4.5-5.6c1.2,0,2.1,1,2.4,1.9l0.6-1.8h2l-1.4,5.8
			c0,0.3-0.1,0.7-0.1,0.9c0,0.3,0.1,0.5,0.4,0.5s0.7-0.2,1.1-1.4l0.9,0.3c-0.6,2-1.6,2.5-2.6,2.5c-1.1,0-1.8-0.8-1.8-1.9
			c-0.7,1-1.7,1.9-3.1,1.9C44.5,84.6,43.4,83.4,43.4,81.4z M49.8,79.5c0-1.1-0.5-1.8-1.6-1.8c-1.4,0-2.6,1.6-2.6,3.4
			c0,1,0.5,1.8,1.5,1.8C48.6,82.9,49.8,81.4,49.8,79.5z"/>
		<path id="XMLID_68_" class="st0" d="M53.1,86.6h1.3l2.1-8.8h-1.6l0.5-1.8h3.4l-0.4,1.9c0.7-1.1,1.9-2.1,3.2-2.1
			c2,0,2.9,1.4,2.9,3.4c0,2.9-2,5.5-4.5,5.5c-1.3,0-2.1-0.9-2.5-1.8l-0.9,3.7H58l-0.5,1.8h-4.9L53.1,86.6z M62,79.5
			c0-1-0.5-1.9-1.6-1.9c-1.5,0-2.7,1.5-2.7,3.4c0,1.1,0.5,1.8,1.7,1.8C60.9,82.8,62,81.2,62,79.5z"/>
		<path id="XMLID_65_" class="st0" d="M64.1,86.6h1.3l2.1-8.8h-1.6l0.5-1.8h3.4l-0.4,1.9c0.7-1.1,1.9-2.1,3.2-2.1
			c2,0,2.9,1.4,2.9,3.4c0,2.9-2,5.5-4.5,5.5c-1.3,0-2.1-0.9-2.5-1.8l-0.9,3.7H69l-0.5,1.8h-4.9L64.1,86.6z M73,79.5
			c0-1-0.5-1.9-1.6-1.9c-1.5,0-2.7,1.5-2.7,3.4c0,1.1,0.5,1.8,1.7,1.8C71.9,82.8,73,81.2,73,79.5z"/>
		<path id="XMLID_9_" class="st0" d="M78.4,77.8h-1.6l0.5-1.8h3.4l-0.5,2.4c1-1.8,2-2.7,3-2.7c0.8,0,1.4,0.5,1.4,1.4
			c0,0.8-0.6,1.4-1.4,1.4c-0.7,0-1.2-0.5-1.3-1c-0.6,0.2-1.6,1.3-2.1,3l-1,3.9h-2.2L78.4,77.8z"/>
		<path id="XMLID_61_" class="st0" d="M86.6,81v0.1c0,1,0.8,1.8,2.4,1.8c0.9,0,1.8-0.2,2.8-0.8L91.4,84c-0.9,0.4-1.6,0.6-2.9,0.6
			c-2.1,0-4-1.3-4-3.7c0-2.9,2.1-5.2,4.6-5.2c2.2,0,3.7,1.2,3.7,3.3c0,0.5,0,1.2-0.3,1.9L86.6,81L86.6,81z M86.9,79.5h3.8
			c0-0.2,0-0.4,0-0.6c0-0.8-0.5-1.3-1.6-1.3C88.1,77.6,87.3,78.4,86.9,79.5z"/>
		<path id="XMLID_6_" class="st0" d="M99.7,82.8c0-0.3,0-0.6,0.1-1l0.6-2.4c0-0.3,0-0.5,0-0.7c0-0.8-0.5-1.2-1.2-1.2
			c-0.9,0-1.5,0.6-1.9,1.9l-1.3,5H94l1.7-6.8h-1.6l0.5-1.8H98l-0.4,2c0.6-1.1,1.8-2.1,2.9-2.1c1.3,0,2.3,0.9,2.3,2.5
			c0,0.4,0,0.9-0.2,1.4l-0.6,2.3c0,0.2,0,0.4,0,0.6c0,0.4,0.1,0.6,0.5,0.6c0.3,0,0.7-0.2,1.1-1.4l0.9,0.3c-0.5,1.8-1.4,2.5-2.6,2.5
			C100.4,84.6,99.7,83.9,99.7,82.8z"/>
		<path id="XMLID_57_" class="st0" d="M109.7,75.8c1.2,0,2,1,2.4,1.9l1.3-5.6h-1.5l0.5-1.8h3.7l-2.7,11.6c0,0.4-0.1,0.7-0.1,0.9
			c0,0.3,0.1,0.5,0.4,0.5c0.3,0,0.7-0.2,1.1-1.4l0.9,0.3c-0.6,2-1.7,2.5-2.6,2.5c-1.1,0-1.8-0.8-1.8-1.9c-0.7,1-1.7,1.9-3.1,1.9
			c-1.6,0-2.7-1.3-2.7-3.3C105.3,78.5,107.2,75.8,109.7,75.8z M111.8,79.5c0-1.1-0.5-1.8-1.6-1.8c-1.4,0-2.6,1.6-2.6,3.4
			c0,1,0.5,1.8,1.5,1.8C110.5,82.9,111.8,81.4,111.8,79.5z"/>
		<path id="XMLID_3_" class="st0" d="M118.3,77.8h-1.5l0.5-1.8h3.4l-0.5,2.4c1-1.8,2-2.7,3-2.7c0.8,0,1.4,0.5,1.4,1.4
			c0,0.8-0.6,1.4-1.4,1.4c-0.7,0-1.2-0.5-1.3-1c-0.6,0.2-1.6,1.3-2.1,3l-1,3.9h-2.2L118.3,77.8z"/>
		<path id="XMLID_53_" class="st0" d="M126.6,81v0.1c0,1,0.8,1.8,2.4,1.8c0.9,0,1.8-0.2,2.8-0.8l-0.4,1.9c-0.9,0.4-1.6,0.6-2.9,0.6
			c-2.1,0-4-1.3-4-3.7c0-2.9,2.1-5.2,4.6-5.2c2.2,0,3.7,1.2,3.7,3.3c0,0.5,0,1.2-0.3,1.9L126.6,81L126.6,81z M126.8,79.5h3.8
			c0-0.2,0-0.4,0-0.6c0-0.8-0.5-1.3-1.6-1.3C128.1,77.6,127.2,78.4,126.8,79.5z"/>
	</g>
</g>
</svg>
