<?xml version="1.0" encoding="utf-8"?>
<!-- Generator: Adobe Illustrator 19.0.0, SVG Export Plug-In . SVG Version: 6.00 Build 0)  -->
<svg version="1.1" id="Layer_1" xmlns="http://www.w3.org/2000/svg" xmlns:xlink="http://www.w3.org/1999/xlink" x="0px" y="0px"
	 viewBox="0 0 500 250" style="enable-background:new 0 0 500 250;" xml:space="preserve">
<style type="text/css">
	.st0{fill:none;stroke:#010101;stroke-width:2;stroke-linecap:round;stroke-linejoin:round;stroke-miterlimit:10;}
</style>
<g>
	<circle id="XMLID_8_" class="st0" cx="322.2" cy="139.4" r="32.3"/>
	<path id="XMLID_7_" class="st0" d="M339.8,167c24.1,7.5,41.6,30,41.6,56.6H263c0-5.8,0.9-11.3,2.4-16.5l-13.9,5.3
		c-1.2,0.5-2.4,0.7-3.7,0.7c-3.4,0-6.6-1.7-8.6-4.6L210.4,164c-3.1-4.7-1.7-11.1,3-14.1c4.7-3.1,11.1-1.7,14.1,3l24.4,37.5l33-12.7
		c5.8-4.7,12.5-8.4,19.8-10.7"/>
	<polyline id="XMLID_6_" class="st0" points="220.8,180 132.6,180 132.6,28.5 327,28.5 327,107.4 	"/>
	<line id="XMLID_5_" class="st0" x1="174.9" y1="97.2" x2="208.7" y2="148.2"/>
	<path id="XMLID_4_" class="st0" d="M212.6,57.4c1.6,0,77.3,0,77.3,0"/>
	<path id="XMLID_3_" class="st0" d="M212.6,84.6c1.6,0,77.3,0,77.3,0"/>
	<path id="XMLID_2_" class="st0" d="M212.6,111.8c1.3,0,61.2,0,61.2,0"/>
	<line id="XMLID_1_" class="st0" x1="234.4" y1="207.5" x2="118.5" y2="207.5"/>
</g>
</svg>
