<svg id="Calque_1" data-name="Calque 1" xmlns="http://www.w3.org/2000/svg" viewBox="0 0 240 240"><defs><style>.cls-1{fill:#333;}</style></defs><title>pictos_JRS</title><path class="cls-1" d="M120,57.77A62.23,62.23,0,1,0,182.23,120,62.23,62.23,0,0,0,120,57.77ZM84.1,110.45h41l-9.07-9A2.39,2.39,0,0,1,116,98l10.14-10.14a2.39,2.39,0,0,1,3.39,0L160,118.34a2.39,2.39,0,0,1,0,3.39l-30.47,30.47a2.39,2.39,0,0,1-3.39,0L116,142a2.39,2.39,0,0,1,0-3.38l9.07-9.06h-41a2.39,2.39,0,0,1-2.39-2.39V112.84A2.39,2.39,0,0,1,84.1,110.45Z"/></svg>