<svg id="Calque_1" data-name="Calque 1" xmlns="http://www.w3.org/2000/svg" viewBox="0 0 240 240"><defs><style>.cls-1{fill:#333;}</style></defs><title>pictos_JRS</title><path class="cls-1" d="M138.24,92H105.78c-2.71,0-5.78,1.81-5.78,4.52V107H97v1h3v24H97v1h3v9c0,2.71,3.07,6,5.78,6h32.46c2.71,0,3.76-3.31,3.76-6V96.52C142,93.81,141,92,138.24,92ZM141,142c0,1.79-1,4-2.76,4H105.78c-1.79,0-3.78-2.23-3.78-4v-9h4v-1h-4V108h4v-1h-4V96.52c0-1.79,2-2.52,3.78-2.52h32.46c1.79,0,2.76.73,2.76,2.52V142Z"/><path class="cls-1" d="M133,119.09a0.36,0.36,0,0,0,0-.39c0-.14.06-0.25-0.08-0.28l0,0v-2.45l0-.24a0.37,0.37,0,0,0,0-.39,0.48,0.48,0,0,0-.37-0.28l-1.62-.29,0-2.06v0l0.28-.25a0.38,0.38,0,0,0,.11-0.39,0.39,0.39,0,0,0-.31-0.28l-13-2.34a0.39,0.39,0,0,0-.29.06l-10.06,7a2,2,0,0,0-.87,1.91,2.7,2.7,0,0,0,.9,2.12h0l0,0h0.11l0.59,0.12a2.79,2.79,0,0,0-.16,1,3,3,0,0,0,.44,1.58l-0.46.32a2,2,0,0,0-.87,1.91,2.69,2.69,0,0,0,.9,2.12,0.51,0.51,0,0,0,.15.07l13.62,2.86h0l0.49,0.1h0.08a0.38,0.38,0,0,0,.25-0.09l9-7.65a0.38,0.38,0,0,0,.12-0.39c0-.14.06-0.25-0.09-0.28l0,0v-2.07Zm-11,1h0.07a0.17,0.17,0,0,0,.15-0.09l7.79-6.74v2.44l-8,7v-2.6Zm-13-.26v-2.6l12,2.7v2.6Zm13,9.83L109,127v-2.6l13,2.7v2.6Zm-12-6.51v-2.22l11.63,2.46h0l0.47,0.1h0.07a0.37,0.37,0,0,0,.24-0.09l0.35-.18,0.27,0v2.6Zm21-.33-8.32,7,0-2.6h0a0.35,0.35,0,0,0,.24-0.09l0.43-.37,0.19,0h0.08a0.66,0.66,0,0,0,.34-0.09l7-5.95v2ZM123.48,126v-2.6h0.07a0.38,0.38,0,0,0,.25-0.09l7.91-6.76V119Z"/></svg>