<?xml version="1.0" encoding="utf-8"?>
<!-- Generator: Adobe Illustrator 19.0.0, SVG Export Plug-In . SVG Version: 6.00 Build 0)  -->
<svg version="1.1" id="Layer_1" xmlns="http://www.w3.org/2000/svg" xmlns:xlink="http://www.w3.org/1999/xlink" x="0px" y="0px"
	 viewBox="0 0 250 250" style="enable-background:new 0 0 250 250;" xml:space="preserve">
<style type="text/css">
	.st0{fill:#FFFFFF;}
</style>
<g sketch:type="MSPage">
	<g transform="translate(-135.000000, -225.000000)" sketch:type="MSArtboardGroup">
		<path sketch:type="MSShapeGroup" class="st0" d="M260,243.3c-59,0-106.7,47.8-106.7,106.7S201,456.7,260,456.7
			S366.7,409,366.7,350S319,243.3,260,243.3z M198.4,333.6h70.3l-15.6-15.5c-1.6-1.6-1.6-4.2,0-5.8l17.4-17.4c1.6-1.6,4.2-1.6,5.8,0
			l52.3,52.3c1.6,1.6,1.6,4.2,0,5.8l-52.3,52.3c-1.6,1.6-4.2,1.6-5.8,0l-17.4-17.4c-1.6-1.6-1.6-4.2,0-5.8l15.6-15.5h-70.3
			c-2.3,0-4.1-1.8-4.1-4.1v-24.6C194.3,335.5,196.2,333.6,198.4,333.6z"/>
	</g>
</g>
</svg>
