<svg id="Calque_1" data-name="Calque 1" xmlns="http://www.w3.org/2000/svg" viewBox="0 0 240 240"><defs><style>.cls-1{fill:#333;}</style></defs><title>pictos_JRS</title><path class="cls-1" d="M120.9,114.62a3.8,3.8,0,1,0-3.8-3.8A3.82,3.82,0,0,0,120.9,114.62Zm0-6.86a3.06,3.06,0,1,1-3.06,3.06A3.09,3.09,0,0,1,120.9,107.76Z"/><path class="cls-1" d="M132.64,120.74a4.13,4.13,0,1,0,4.13-4.13A4.14,4.14,0,0,0,132.64,120.74Zm7.47,0a3.34,3.34,0,1,1-3.34-3.34A3.32,3.32,0,0,1,140.1,120.74Z"/><path class="cls-1" d="M103.24,125.61a4.13,4.13,0,1,0-4.13-4.08A4.14,4.14,0,0,0,103.24,125.61Zm0-7.47a3.34,3.34,0,1,1-3.34,3.34A3.32,3.32,0,0,1,103.24,118.15Z"/><path class="cls-1" d="M130,114.76a0.37,0.37,0,0,0,.28.46,9.5,9.5,0,0,0,1.11.23h0a0.37,0.37,0,0,0,0-.74,7.86,7.86,0,0,1-1-.19A0.33,0.33,0,0,0,130,114.76Z"/><path class="cls-1" d="M127.72,113.93h0a5.74,5.74,0,0,0,1.07.7,2.18,2.18,0,1,0,4.13,1V115.5c3.43-.28,6-2.69,6-5.66,0-3.15-3-5.7-6.68-5.7s-6.58,2.55-6.58,5.66A5.41,5.41,0,0,0,127.72,113.93Zm4.64-9c3.25,0,5.89,2.23,5.89,5s-2.55,4.87-5.75,5a0.33,0.33,0,0,0-.28.14,0.38,0.38,0,0,0,0,.32,1,1,0,0,1,0,.37,1.44,1.44,0,0,1-2.87,0,1.53,1.53,0,0,1,.28-0.88,0.38,0.38,0,0,0,0-.32,0.46,0.46,0,0,0-.19-0.23,8.91,8.91,0,0,1-1.25-.79,4.6,4.6,0,0,1-1.76-3.52C126.42,107.11,129.06,104.88,132.36,104.88Z"/><path class="cls-1" d="M102,112.26H110a3.84,3.84,0,0,0,3.06,2h0a0.88,0.88,0,0,0,.88-0.88,1.35,1.35,0,0,0-.09-0.42,2.7,2.7,0,0,1-.19-0.74h1.11a0.88,0.88,0,0,0,.88-0.88v-8.81a0.88,0.88,0,0,0-.88-0.88H102a0.88,0.88,0,0,0-.88.88v8.86A0.84,0.84,0,0,0,102,112.26Zm-0.14-9.69a0.15,0.15,0,0,1,.14-0.14h12.75a0.15,0.15,0,0,1,.14.14v8.86a0.15,0.15,0,0,1-.14.14h-1.53a0.4,0.4,0,0,0-.28.14,0.34,0.34,0,0,0-.09.28,5.66,5.66,0,0,0,.28,1.39,0,0,0,0,0,0,0v0a0.15,0.15,0,0,1-.14.14h0a3.16,3.16,0,0,1-2.55-1.85,0.31,0.31,0,0,0-.32-0.19H102a0.15,0.15,0,0,1-.14-0.14v-8.86Z"/><path class="cls-1" d="M131.24,118.28a1.11,1.11,0,1,0,1.11,1.11A1.1,1.1,0,0,0,131.24,118.28Zm0,1.53a0.37,0.37,0,1,1,.37-0.37A0.37,0.37,0,0,1,131.24,119.81Z"/><path class="cls-1" d="M137.78,125.1H135.7a2.75,2.75,0,0,0-1.07.23,23.55,23.55,0,0,0-5-2.09,2.24,2.24,0,0,0-.28-2.46l-0.42-.51-3.43-4.45a2.27,2.27,0,0,0-.83-0.65,2.31,2.31,0,0,0-1.34-.42H123l-1.48.09H120.3l-1.39-.09h-0.32a2.39,2.39,0,0,0-1.53.56,1.47,1.47,0,0,0-.56.51l-3,4-3.62-3.25,0,0a1.94,1.94,0,0,0-1.44-.28,2.68,2.68,0,0,0-.93.56h0v0a1.63,1.63,0,0,0-.32,1.3,1.55,1.55,0,0,0,.65,1.11l3.71,4.08a21.34,21.34,0,0,0-6.07,2.78,2.2,2.2,0,0,0-1.11-.28h-2.09a2.59,2.59,0,0,0-2.6,2.6v8.9a0.4,0.4,0,0,0,.37.37h6.49a0.35,0.35,0,0,0,.23-0.09l0.37,0.28a2.21,2.21,0,0,0,.83.37c0.14,0,.23,0,0.37,0a1.28,1.28,0,0,0,1-.42,1.37,1.37,0,0,0,.23-1.07,1.43,1.43,0,0,0-.23-0.56,33.74,33.74,0,0,0,23.93-.6v0.83a0.4,0.4,0,0,0,.37.37h6.49a0.4,0.4,0,0,0,.37-0.37v-8.86A2.65,2.65,0,0,0,137.78,125.1ZM120,115.6l0.23,0.74L120,117.45l-0.65-1.9Zm1,1,0.46,2.27-0.51,1.25-0.42-1.25Zm0.93,0.88-0.23-1.21,0.19-.7,0.7,0ZM121,115.6l-0.14.42-0.14-.42H121Zm-12.75,3.15,0,0a1,1,0,0,1-.37-0.65,0.89,0.89,0,0,1,.19-0.7,0.78,0.78,0,0,1,.46-0.32h0a0.81,0.81,0,0,1,.79.14l3.94,3.52a0.34,0.34,0,0,0,.28.09,0.4,0.4,0,0,0,.28-0.14l3.29-4.31a1.25,1.25,0,0,1,.37-0.32l0,0a1.62,1.62,0,0,1,1-.37l1.21,3.48h0l0.79,2.32a0.35,0.35,0,0,0,.32.23h0a0.47,0.47,0,0,0,.37-0.23l0.88-2.32h0l1.16-3.48h0a1.67,1.67,0,0,1,.93.28s0,0,.09,0a1.27,1.27,0,0,1,.56.42l3.43,4.45,0.42,0.51a1.57,1.57,0,0,1,.09,1.81l-2.41-.56,0.19-.42a0.35,0.35,0,0,0,0-.37l-0.93-1.3a0.37,0.37,0,0,0-.42-0.14,0.37,0.37,0,0,0-.23.37v1.58a33.66,33.66,0,0,0-4.31-.28,31.7,31.7,0,0,0-3.66.23v-1.39a0.35,0.35,0,0,0-.28-0.37,0.37,0.37,0,0,0-.42.14l-1.3,1.9c-0.93.19-1.85,0.37-2.74,0.6Zm17.43,3,0.14,0.19-0.14.32v-0.51Zm-9.51.56a0.42,0.42,0,0,0-.23,0l0.23-.32v0.28Zm-7.56,15.12a0.5,0.5,0,0,1-.6.09,1.25,1.25,0,0,1-.51-0.23l-3.06-2.36a1,1,0,0,1-.37-0.51v0l-1.48-3.57a0.38,0.38,0,1,0-.7.32l1.48,3.52a2.09,2.09,0,0,0,.65.88l1.81,1.39h-5.52v-8.49a1.86,1.86,0,0,1,1.85-1.85h2.09a1.86,1.86,0,0,1,1.85,1.85v4.36l-1-3.85a0.38,0.38,0,0,0-.74.19l1.16,4.27a0.9,0.9,0,0,0,.23.42l2.6,2.55a1.19,1.19,0,0,1,.37.6A0.86,0.86,0,0,1,108.66,137.43Zm12,0a31.2,31.2,0,0,1-12.52-2.41,0.28,0.28,0,0,0-.19,0l-1.11-1.11v-5.43a2.63,2.63,0,0,0-.79-1.85c2.83-1.95,8.58-3.85,14.61-3.85a28.85,28.85,0,0,1,13.26,3.06,2.57,2.57,0,0,0-.83,1.85v1.58l-1.39,1.07h0l-3.8.23a1.82,1.82,0,0,0-1.11.42,1.23,1.23,0,0,0-.46,1,1.61,1.61,0,0,0,.79,1.34,1.92,1.92,0,0,0,.88.23h3.89a1.71,1.71,0,0,0,1-.28l0.23-.14v1.81A32.89,32.89,0,0,1,120.67,137.48Zm18.92-1.3h-5.75V132.7l2.5-1.34a0.37,0.37,0,1,0-.37-0.65l-3.48,1.85h0a1.06,1.06,0,0,1-.65.19H128a1.23,1.23,0,0,1-.56-0.14,1,1,0,0,1-.42-0.7,0.48,0.48,0,0,1,.23-0.37,1.14,1.14,0,0,1,.7-0.23l3.8-.23a0.82,0.82,0,0,0,.46-0.19l3.34-2.6a0.36,0.36,0,0,0-.46-0.56l-1.25,1v-1a1.86,1.86,0,0,1,1.85-1.85h2.09a1.86,1.86,0,0,1,1.85,1.85v8.44Z"/><path class="cls-1" d="M105.46,107.81a0.7,0.7,0,1,0-.7-0.7A0.63,0.63,0,0,0,105.46,107.81Z"/><path class="cls-1" d="M108.34,107.81a0.7,0.7,0,1,0-.7-0.7A0.68,0.68,0,0,0,108.34,107.81Z"/><path class="cls-1" d="M111.35,107.81a0.7,0.7,0,1,0-.7-0.7A0.63,0.63,0,0,0,111.35,107.81Z"/><path class="cls-1" d="M129.39,110.82h0a0.7,0.7,0,1,0,0-1.39h0A0.7,0.7,0,0,0,129.39,110.82Z"/><path class="cls-1" d="M132.31,110.82a0.7,0.7,0,1,0-.7-0.7A0.71,0.71,0,0,0,132.31,110.82Z"/><path class="cls-1" d="M135.28,110.82a0.7,0.7,0,1,0-.7-0.7A0.71,0.71,0,0,0,135.28,110.82Z"/></svg>