<?xml version="1.0" encoding="utf-8"?>
<!-- Generator: Adobe Illustrator 19.0.0, SVG Export Plug-In . SVG Version: 6.00 Build 0)  -->
<svg version="1.1" id="Calque_1" xmlns="http://www.w3.org/2000/svg" xmlns:xlink="http://www.w3.org/1999/xlink" x="0px" y="0px"
	 viewBox="-4 300.9 240 240" style="enable-background:new -4 300.9 240 240;" xml:space="preserve">
<style type="text/css">
	.st0{fill:#FFFFFF;}
</style>
<title>pictos_JRS</title>
<path class="st0" d="M119.3,405c7.3,0,13.4-6,13.4-13.4s-6-13.4-13.4-13.4c-7.3,0-13.4,6-13.4,13.4C105.9,399.1,111.9,405,119.3,405
	z M119.3,380.9c6,0,10.7,4.8,10.7,10.7c0,6-4.8,10.7-10.7,10.7c-6,0-10.7-4.8-10.7-10.7l0,0C108.6,385.8,113.4,381,119.3,380.9z"/>
<path class="st0" d="M160.6,426.6c0,8,6.5,14.5,14.5,14.5s14.5-6.5,14.5-14.5s-6.5-14.5-14.5-14.5S160.6,418.6,160.6,426.6z
	 M186.9,426.6c0,6.5-5.3,11.8-11.8,11.8s-11.8-5.3-11.8-11.8s5.3-11.8,11.8-11.8l0,0C181.6,414.8,186.8,420,186.9,426.6
	C186.9,426.5,186.9,426.6,186.9,426.6L186.9,426.6z"/>
<path class="st0" d="M57.2,443.7c8,0,14.5-6.5,14.5-14.5s-6.5-14.5-14.5-14.5s-14.5,6.5-14.5,14.5c0,0.1,0,0.1,0,0.2
	C42.7,437.3,49.2,443.7,57.2,443.7z M57.2,417.4c6.5,0,11.8,5.3,11.8,11.8s-5.3,11.8-11.8,11.8s-11.8-5.3-11.8-11.8l0,0
	C45.4,422.7,50.6,417.5,57.2,417.4C57.1,417.5,57.2,417.5,57.2,417.4L57.2,417.4z"/>
<path class="st0" d="M151.3,405.6c-0.2,0.7,0.3,1.4,1,1.6h0.1c1.3,0.3,2.6,0.6,3.9,0.8l0,0c0.7,0,1.3-0.6,1.3-1.3s-0.6-1.3-1.3-1.3
	c-1.2-0.2-2.3-0.3-3.5-0.7C152,404.6,151.4,405,151.3,405.6z"/>
<path class="st0" d="M143.3,402.6L143.3,402.6c1.1,1,2.4,1.8,3.8,2.4c-1.9,3.8-0.3,8.4,3.5,10.3c3.8,1.9,8.4,0.3,10.3-3.5
	c0.5-1,0.8-2.2,0.8-3.4v-0.4c12.1-1,21.1-9.4,21.1-19.9c0-11.1-10.5-20.1-23.5-20.1s-23.2,9-23.2,19.9
	C136.2,393.8,138.8,399.1,143.3,402.6z M159.6,371c11.4,0,20.8,7.9,20.8,17.6c0,9.7-9,17.1-20.2,17.6c-0.4,0-0.8,0.2-1,0.5
	c-0.2,0.3-0.2,0.8,0,1.1c0.1,0.4,0.1,0.9,0,1.3c-0.3,2.8-2.7,4.8-5.4,4.6c-2.5-0.2-4.4-2.2-4.6-4.6c0-1.1,0.3-2.2,1-3.1
	c0.2-0.3,0.2-0.8,0-1.1c-0.1-0.3-0.3-0.6-0.7-0.8c-1.6-0.8-3-1.7-4.4-2.8c-3.8-3-6.1-7.5-6.2-12.4c0-10.2,9.3-18.1,20.8-18.1V371z"
	/>
<path class="st0" d="M52.9,396.7H81c2.2,4,6.2,6.7,10.7,7l0,0c1.7,0,3.1-1.4,3.1-3.1c0-0.5-0.2-1-0.3-1.5c-0.3-0.9-0.6-1.7-0.7-2.6
	h3.9c1.7,0,3.1-1.4,3.1-3.1v-31c0-1.7-1.4-3.1-3.1-3.1h-45c-1.7,0-3.1,1.4-3.1,3.1v31.1c-0.1,1.6,1.2,3,2.9,3
	C52.7,396.7,52.8,396.7,52.9,396.7z M52.3,362.7c0-0.3,0.3-0.4,0.5-0.5h44.9c0.3,0,0.4,0.3,0.5,0.5v31.1c0,0.3-0.3,0.4-0.5,0.5h-5.4
	c-0.3,0-0.8,0.2-1,0.5c-0.3,0.3-0.3,0.6-0.3,1c0.1,1.6,0.4,3.3,1,4.9l0,0l0,0c0,0.3-0.3,0.4-0.5,0.5l0,0c-4-0.4-7.3-2.9-9-6.5
	c-0.2-0.4-0.6-0.7-1.1-0.7H52.9c-0.3,0-0.4-0.3-0.5-0.5v-31.1C52.3,362.4,52.3,362.7,52.3,362.7z"/>
<path class="st0" d="M155.7,417.9c-2.2,0-3.9,1.7-3.9,3.9s1.7,3.9,3.9,3.9s3.9-1.7,3.9-3.9C159.6,419.7,157.9,417.9,155.7,417.9
	C155.7,417.9,155.7,417.9,155.7,417.9z M155.7,423.3c-0.7,0-1.3-0.6-1.3-1.3s0.6-1.3,1.3-1.3s1.3,0.6,1.3,1.3l0,0
	C157,422.8,156.4,423.3,155.7,423.3z"/>
<path class="st0" d="M178.7,442h-7.3c-1.3,0-2.6,0.3-3.8,0.8c-5.5-3.1-11.5-5.6-17.6-7.3c1.5-2.9,1-6.2-1-8.6l-1.5-1.8l-12.1-15.6
	c-0.8-1-1.8-1.7-2.9-2.2c-1.4-1-3-1.5-4.8-1.5h-1.1l-5.2,0.3h-4.3l-4.9-0.3H111c-2,0-3.9,0.7-5.4,2c-0.8,0.4-1.5,1-2,1.8l-10.5,14.1
	L80.4,412l0,0c-1.5-1-3.3-1.3-5.1-1c-1.2,0.4-2.3,1.1-3.3,2l0,0l0,0c-1,1.3-1.4,2.9-1.1,4.6c0.2,1.6,1,3,2.2,3.9l13.1,14.4
	c-7.6,2.2-14.8,5.4-21.4,9.8c-1.2-0.7-2.5-1-3.9-1h-7.3c-5,0-9.2,4.1-9.2,9.1v0.1v31.3c0.1,0.7,0.6,1.2,1.3,1.3h22.8
	c0.3,0,0.6-0.1,0.8-0.3l1.3,1c0.9,0.6,1.9,1,2.9,1.3c0.5,0,0.8,0,1.3,0c1.3,0.1,2.6-0.5,3.5-1.5c0.8-1.1,1-2.4,0.8-3.8
	c-0.1-0.7-0.4-1.4-0.8-2c27.4,9.6,57.3,8.8,84.2-2.1v2.9c0.1,0.7,0.6,1.2,1.3,1.3h22.8c0.7-0.1,1.2-0.6,1.3-1.3v-31.1
	C187.9,445.7,183.7,441.8,178.7,442z M116.2,408.5l0.8,2.6l-0.8,3.9l-2.2-6.7L116.2,408.5z M119.7,412l1.6,8l-1.8,4.4l-1.5-4.4
	L119.7,412z M122.9,415.2l-0.8-4.2l0.7-2.4h2.4L122.9,415.2z M119.7,408.5l-0.5,1.5l-0.5-1.5H119.7z M74.8,419.6L74.8,419.6
	c-0.7-0.6-1.2-1.4-1.3-2.2c-0.2-0.9,0.1-1.8,0.7-2.4c0.3-0.6,1-1,1.6-1.1l0,0c1-0.3,2-0.2,2.8,0.5l13.8,12.4c0.3,0.3,0.6,0.3,1,0.3
	s0.8-0.2,1-0.5l11.6-15.1c0.3-0.4,0.8-0.9,1.3-1.1l0,0c1-0.8,2.2-1.3,3.5-1.3l4.2,12.3l0,0l2.8,8.1c0.2,0.4,0.6,0.8,1.1,0.8l0,0
	c0.5,0,1-0.3,1.3-0.8l3.1-8.1l0,0l4.1-12.3l0,0c1.1,0,2.3,0.3,3.3,1c0,0,0,0,0.3,0c0.8,0.3,1.5,0.8,2,1.5l12.1,15.6l1.5,1.8
	c1.5,1.8,1.6,4.4,0.3,6.4l-8.5-2l0.7-1.5c0.3-0.4,0.3-0.9,0-1.3l-3.3-4.6c-0.3-0.4-1-0.7-1.5-0.5s-0.9,0.8-0.8,1.3v5.5
	c-5-0.7-10.1-1-15.1-1c-4.3,0-8.6,0.3-12.9,0.8v-4.9c0.1-0.6-0.3-1.2-1-1.3c-0.5-0.2-1.1,0-1.5,0.5l-4.6,6.7
	c-3.3,0.7-6.5,1.3-9.6,2.1L74.8,419.6z M136.1,430.1l0.5,0.7l-0.5,1.1V430.1z M102.7,432.1c-0.3-0.1-0.5-0.1-0.8,0l0.8-1.1v1V432.1z
	 M76,485.3c-0.5,0.6-1.4,0.7-2.1,0.3c-0.7-0.2-1.3-0.4-1.8-0.8l-10.7-8.3c-0.6-0.4-1-1-1.3-1.8l0,0l-5.2-12.5
	c-0.3-0.7-1.1-1-1.8-0.7c-0.7,0.3-1,1.1-0.7,1.8l5.2,12.4c0.4,1.2,1.3,2.2,2.2,3.1l6.4,4.9H46.9v-29.8c0-3.5,2.9-6.5,6.5-6.5h7.3
	c3.5,0,6.5,2.9,6.5,6.5v15.3l-3.5-13.6c-0.2-0.7-1-1.1-1.6-1c-0.7,0.2-1.1,1-1,1.6l4.1,15c0.2,0.5,0.4,1,0.8,1.5l9.2,9
	c0.6,0.5,1.1,1.3,1.3,2.1c0.1,0.5,0,1-0.2,1.5L76,485.3L76,485.3z M118.3,485.3c-15.1,0.3-30.1-2.7-44-8.5c-0.2-0.1-0.4-0.1-0.7,0
	l-3.9-3.9v-19.1c0-2.4-1-4.8-2.8-6.5c9.9-6.8,30.2-13.6,51.4-13.6c16.2-0.2,32.2,3.5,46.6,10.7c-1.8,1.6-2.9,4.1-2.9,6.5v5.5
	l-4.9,3.8l0,0l-13.4,0.8c-1.5,0-2.8,0.6-3.9,1.5c-1,0.9-1.6,2.2-1.6,3.5c0.1,1.9,1.1,3.7,2.8,4.8c1,0.5,2,0.8,3.1,0.8h13.7
	c1.2,0.1,2.5-0.3,3.5-1l0.8-0.5v6.4c-13.8,5.8-28.6,8.8-43.6,8.9L118.3,485.3z M184.8,480.7h-20.2v-12.1l8.8-4.8
	c0.6-0.3,0.9-1.1,0.5-1.8c-0.3-0.6-1.1-0.9-1.8-0.5l-12.3,6.5l0,0c-0.7,0.4-1.5,0.7-2.2,0.7h-13.3c-0.7,0-1.4-0.2-2-0.5
	c-0.8-0.6-1.4-1.5-1.5-2.4c0.1-0.5,0.3-1,0.8-1.3c0.7-0.5,1.6-0.8,2.4-0.8l13.4-0.8c0.6-0.1,1.1-0.3,1.6-0.7l11.8-9.2
	c0.5-0.4,0.6-1.2,0.2-1.8c-0.4-0.5-1.2-0.6-1.8-0.2l0,0l-4.4,3.5V451c0-3.5,2.9-6.5,6.5-6.5h7.3c3.5,0,6.5,2.9,6.5,6.5v29.7
	L184.8,480.7z"/>
<path class="st0" d="M65,381.1c1.4,0,2.4-1.1,2.4-2.4c0-1.4-1.1-2.4-2.4-2.4c-1.4,0-2.4,1.1-2.4,2.4l0,0c-0.2,1.2,0.7,2.3,1.9,2.4
	C64.6,381.1,64.8,381.1,65,381.1z"/>
<path class="st0" d="M75.2,381.1c1.4,0,2.4-1.1,2.4-2.4c0-1.4-1.1-2.4-2.4-2.4c-1.4,0-2.4,1.1-2.4,2.4l0,0
	C72.7,380,73.8,381.1,75.2,381.1C75,381.1,75.1,381.1,75.2,381.1z"/>
<path class="st0" d="M85.7,381.1c1.4,0,2.4-1.1,2.4-2.4c0-1.4-1.1-2.4-2.4-2.4c-1.4,0-2.4,1.1-2.4,2.4l0,0c-0.2,1.2,0.7,2.3,1.9,2.4
	C85.4,381.1,85.5,381.1,85.7,381.1z"/>
<path class="st0" d="M149.2,391.7L149.2,391.7c1.4,0.2,2.6-0.8,2.8-2.2c0.2-1.4-0.8-2.6-2.2-2.8c-0.2,0-0.4,0-0.6,0l0,0
	c-1.4,0.2-2.3,1.4-2.2,2.8C147.2,390.7,148.1,391.5,149.2,391.7z"/>
<path class="st0" d="M159.5,391.7c1.4,0,2.4-1.1,2.4-2.4c0-1.4-1.1-2.4-2.4-2.4c-1.4,0-2.4,1.1-2.4,2.4l0,0
	C157,390.6,158.1,391.6,159.5,391.7z"/>
<path class="st0" d="M169.8,391.7c1.4,0,2.4-1.1,2.4-2.4c0-1.4-1.1-2.4-2.4-2.4c-1.4,0-2.4,1.1-2.4,2.4l0,0
	C167.4,390.6,168.5,391.6,169.8,391.7z"/>
</svg>
