<svg id="Calque_1" data-name="Calque 1" xmlns="http://www.w3.org/2000/svg" viewBox="0 0 240 240"><defs><style>.cls-1{fill:#f74d2b;}.cls-2{fill:#fff;}.cls-3{isolation:isolate;}</style></defs><title>pictos_JRS</title><circle class="cls-1" cx="120" cy="120" r="58.42"/><path class="cls-2" d="M110,146.72h0a0.6,0.6,0,0,1-.77-0.42L96.73,107.76a0.56,0.56,0,0,1,.42-0.71h0a0.6,0.6,0,0,1,.77.42l12.49,38.49A0.72,0.72,0,0,1,110,146.72Z"/><g class="cls-3"><g class="cls-3"><path class="cls-2" d="M119.21,125c-0.12,0-.18.06-0.3,0.06a27.09,27.09,0,0,0-4.76,1.37,22.76,22.76,0,0,0-7.61,4.46l-7.73-24a22.76,22.76,0,0,1,7.61-4.46,33.39,33.39,0,0,1,4.76-1.37c0.12,0,.18-0.06.3-0.06l7.73,24"/><path class="cls-2" d="M143.3,117.28a13.49,13.49,0,0,1-6.42,5.29,28.7,28.7,0,0,1-4,1.25l-7.73-24a19.54,19.54,0,0,0,4-1.25,13.17,13.17,0,0,0,6.42-5.29l7.73,24"/></g></g></svg>