<svg id="Calque_1" data-name="Calque 1" xmlns="http://www.w3.org/2000/svg" viewBox="0 0 240 240"><defs><style>.cls-1{fill:#333;}</style></defs><title>pictos_JRS</title><path class="cls-1" d="M54.9,93.37V182a11.91,11.91,0,0,0,11.84,12H173.26a11.91,11.91,0,0,0,11.84-12V93.37H54.9ZM87.45,185.1H63.78V161.43H87.45V185.1Zm0-29.59H63.78V131.84H87.45v23.67Zm0-29.59H63.78V102.25H87.45v23.67ZM117,185.1H93.37V161.43H117V185.1Zm0-29.59H93.37V131.84H117v23.67Zm0-29.59H93.37V102.25H117v23.67Zm29.59,59.18H123V161.43h23.67V185.1Zm0-29.59H123V131.84h23.67v23.67Zm0-29.59H123V102.25h23.67v23.67Zm29.59,59.18H152.55V161.43h23.67V185.1Zm0-29.59H152.55V131.84h23.67v23.67Zm0-29.59H152.55V102.25h23.67v23.67Z"/><path class="cls-1" d="M173.26,63.78H154V50.46a4.44,4.44,0,0,0-8.88,0V63.78H94.85V50.46a4.44,4.44,0,0,0-8.88,0V63.78H66.74a11.91,11.91,0,0,0-11.84,12V86h0v1.48H185.1V86h0V75.75A11.91,11.91,0,0,0,173.26,63.78ZM90.41,84.49A8.87,8.87,0,0,1,86,67.93v7.68a4.44,4.44,0,1,0,8.88,0V67.93A8.87,8.87,0,0,1,90.41,84.49Zm59.18,0a8.87,8.87,0,0,1-4.44-16.56v7.68a4.44,4.44,0,0,0,8.88,0V67.93A8.87,8.87,0,0,1,149.59,84.49Z"/></svg>