<svg id="Calque_1" data-name="Calque 1" xmlns="http://www.w3.org/2000/svg" viewBox="0 0 240 240"><defs><style>.cls-1{fill:#333;}</style></defs><title>pictos_JRS</title><path class="cls-1" d="M115.88,102.9a1.6,1.6,0,0,0-1.58,1.58v2.22H100.21a0.49,0.49,0,0,0-.47.47v10.61a0.93,0.93,0,0,0,.95.95H116.2v-0.32a0.93,0.93,0,0,1,.95-0.95h5.07a0.93,0.93,0,0,1,.95.95v0.32h16.15a0.93,0.93,0,0,0,.95-0.95V107.18a0.49,0.49,0,0,0-.47-0.47H125.07v-2.22a1.6,1.6,0,0,0-1.58-1.58h-7.6Zm0,1.27h7.6a0.28,0.28,0,0,1,.32.32v2.22h-8.23v-2.22A0.28,0.28,0,0,1,115.88,104.17Zm1.27,13.93a0.34,0.34,0,0,0-.32.32v1.27a0.34,0.34,0,0,0,.32.32h5.07a0.34,0.34,0,0,0,.32-0.32v-1.27a0.34,0.34,0,0,0-.32-0.32h-5.07Zm-17.42.95v17.57a0.49,0.49,0,0,0,.47.47h39.58a0.49,0.49,0,0,0,.47-0.47V119.05a1.63,1.63,0,0,1-.95.32H123.17v0.32a0.93,0.93,0,0,1-.95.95h-5.07a0.93,0.93,0,0,1-.95-0.95v-0.32H100.68A1.63,1.63,0,0,1,99.73,119.05Z"/></svg>