<svg id="Calque_1" data-name="Calque 1" xmlns="http://www.w3.org/2000/svg" viewBox="0 0 240 240"><defs><style>.cls-1{fill:#f4b821;}.cls-2{fill:#fff;}</style></defs><title>pictos_JRS</title><circle class="cls-1" cx="120" cy="120" r="58.42"/><path class="cls-2" d="M148.77,129.23L145,120.7a13.59,13.59,0,0,0,1.63-6.44c0-8.69-8.33-15.77-18.57-15.77-7.84,0-14.88,4.27-17.48,10.48-9.6.6-17.19,7.41-17.19,15.71A13.63,13.63,0,0,0,95,131.12l-3.79,8.52A1.32,1.32,0,0,0,93,141.39l8.38-3.77a20.71,20.71,0,0,0,10.59,2.83c8,0,14.9-4.38,17.46-10.48a20.56,20.56,0,0,0,9.24-2.78L147,131a1.31,1.31,0,0,0,.54.12A1.32,1.32,0,0,0,148.77,129.23Zm-36.83,8.58a18,18,0,0,1-9.78-2.79,1.32,1.32,0,0,0-1.26-.09L95,137.56l2.65-6a1.32,1.32,0,0,0-.07-1.21,11.13,11.13,0,0,1-1.61-5.7c0-7.24,7.14-13.12,15.92-13.12s15.92,5.89,15.92,13.12S120.72,137.81,111.95,137.81Zm27.14-13.31a1.32,1.32,0,0,0-1.26.1,17.68,17.68,0,0,1-7.59,2.65,13.38,13.38,0,0,0,.27-2.56c0-8.25-7.5-15-17-15.7,2.51-4.69,8.22-7.84,14.56-7.84,8.78,0,15.92,5.89,15.92,13.12a11.11,11.11,0,0,1-1.6,5.7,1.32,1.32,0,0,0-.07,1.21l2.65,6Z"/></svg>