<?xml version="1.0" encoding="utf-8"?>
<!-- Generator: Adobe Illustrator 19.0.0, SVG Export Plug-In . SVG Version: 6.00 Build 0)  -->
<svg version="1.1" id="Calque_1" xmlns="http://www.w3.org/2000/svg" xmlns:xlink="http://www.w3.org/1999/xlink" x="0px" y="0px"
	 viewBox="-185 277 240 240" style="enable-background:new -185 277 240 240;" xml:space="preserve">
<style type="text/css">
	.st0{fill:#F4B821;}
	.st1{fill:#29ABE2;}
	.st2{fill:#333333;}
</style>
<title>pictos_JRS</title>
<rect x="-662.5" y="-178.4" class="st0" width="155.1" height="60.6"/>
<rect x="-405.5" y="-177.9" class="st1" width="155.1" height="60.6"/>
<path class="st2" d="M-29.3,398.1c30.1-19,39.1-58.8,20.1-88.9s-58.8-39.1-88.9-20.1s-39.1,58.8-20.1,88.9c5.1,8.1,12,15,20.1,20.1
	c-49.1,15.2-82.6,60.5-82.7,111.9c0,4.2,3.3,7.6,7.5,7.6c0,0,0.1,0,0.1,0H45.8c4.2-0.1,7.6-3.4,7.6-7.6v-0.9
	C52.8,458.1,19.4,413.2-29.3,398.1z"/>
</svg>
