<?xml version="1.0" encoding="utf-8"?>
<!-- Generator: Adobe Illustrator 19.0.0, SVG Export Plug-In . SVG Version: 6.00 Build 0)  -->
<svg version="1.1" id="Calque_1" xmlns="http://www.w3.org/2000/svg" xmlns:xlink="http://www.w3.org/1999/xlink" x="0px" y="0px"
	 viewBox="-185 277 240 240" style="enable-background:new -185 277 240 240;" xml:space="preserve">
<style type="text/css">
	.st0{fill:#E78947;}
	.st1{fill:#63AEAA;}
</style>
<title>pictos_JRS</title>
<g id="G0sofm">
	<path class="st0" d="M-65.5,492.1c-1.3,0-3.2,0-5.2-0.1c-1.5-0.1-3.1-0.3-4.7-0.4c-1.8-0.2-3.5-0.5-5.3-0.8
		c-1.4-0.2-2.7-0.5-4.1-0.8c-0.7-0.2-1.4-0.3-2-0.5c-2.2-0.5-4.3-1.2-6.4-1.8c-2.1-0.7-4-1.4-6-2.2s-3.7-1.4-5.4-2.4
		c-1.8-0.9-3.2-1.5-4.7-2.4c-1.8-1-3.5-2-5.2-3.1c-1.7-1.1-3.4-2.2-5-3.4c-2.1-1.5-4.1-3.2-6.1-4.8c-2-1.7-4.2-3.8-6.1-5.7
		s-3.7-4.1-5.5-6.2c-1.5-1.8-2.8-3.7-4.3-5.7c-1.1-1.5-2.1-3.1-3.1-4.7s-1.9-3-2.7-4.6c-0.8-1.6-1.7-3.2-2.5-4.8
		c-0.8-1.6-1.7-3.5-2.4-5.4c-0.4-1.1-0.9-2.2-1.3-3.4c-0.3-0.8-0.6-1.6-0.8-2.4c-0.3-0.8-0.7-2-1-3c-0.3-1-0.7-2.3-1-3.5
		c-0.2-0.8-0.4-1.5-0.6-2.3c-0.3-1.4-0.6-2.9-0.9-4.4c-0.2-1.1-0.4-2.2-0.6-3.3s-0.3-2.3-0.5-3.5c-0.3-2.6-0.4-5.1-0.5-7.7
		c0-1.4-0.1-3,0-4.4c0.1-1.8,0-3.5,0.2-5.3s0.3-3.4,0.6-5.1c0.1-0.7,0.1-1.4,0.2-2.1c0.3-1.5,0.5-3.1,0.9-4.6
		c0.3-1.3,0.6-2.6,0.9-3.9c0.3-1.2,0.6-2.4,1-3.6s0.7-2.5,1.2-3.7s0.8-2.4,1.3-3.6c0.4-1.2,0.9-2.2,1.3-3.3s0.9-2,1.3-3
		c0.5-1,0.8-1.6,1.2-2.4c0.5-1.1,1.1-2.1,1.6-3.1c0.6-1,1.4-2.5,2.1-3.7c1-1.6,2-3.3,3.2-4.9s2.4-3.4,3.7-5c1.7-2.2,3.5-4.2,5.4-6.2
		c2.1-2.2,4.2-4.2,6.5-6.2c2.6-2.2,5.3-4.3,8.1-6.3c2.3-1.6,4.6-3,7-4.4c2.4-1.4,4.4-2.4,6.7-3.5c1.4-0.7,3-1.4,4.5-2
		c1.5-0.6,3-1.2,4.6-1.7c0.8-0.2,1.5-0.5,2.3-0.8c1.1-0.4,2.2-0.7,3.3-1l1.6-0.4c1.5-0.4,3.1-0.8,4.7-1.1c1.6-0.3,3.4-0.7,5.1-0.9
		c1.4-0.2,2.7-0.4,4.1-0.5c1.1-0.1,2.2-0.3,3.3-0.3s2.4-0.2,3.6-0.2c1.2,0,2.5-0.1,3.8,0c2.8,0,5.7,0.2,8.5,0.5
		c1.7,0.2,3.5,0.4,5.2,0.7c2.1,0.4,4.3,0.7,6.4,1.2c1.5,0.4,2.9,0.7,4.4,1.1c2,0.5,3.9,1.2,5.8,1.8c1.9,0.7,3.6,1.3,5.4,2.1
		c2.2,0.9,4.3,2,6.5,3c1.4,0.8,3,1.5,4.4,2.4c3.5,2,6.8,4.2,10,6.7c1.7,1.3,3.4,2.7,5,4.1c1.3,1.1,2.6,2.3,3.8,3.5
		c2.5,2.5,4.9,5.2,7.2,8c1.3,1.6,2.5,3.3,3.7,4.9s2.2,3.3,3.2,5s2.1,3.6,3,5.4c0.7,1.3,1.3,2.7,2,4c0.9,1.8,1.6,3.7,2.3,5.6
		c0.7,1.9,1.4,3.9,2,5.9c0.5,1.4,0.9,2.8,1.3,4.4c0.4,1.5,0.7,2.8,1,4.1c0.3,1.4,0.7,3.2,0.9,4.8c0.1,1,0.3,2,0.5,3
		c0.1,0.6,0.1,1.1,0.2,1.7c0.3,3,0.5,5.9,0.5,8.9c0,2.7,0,5.4-0.2,8.2c-0.1,1.6-0.3,3.3-0.5,4.9c-0.2,1.6-0.5,3.1-0.7,4.7
		c-0.2,1.1-0.4,2.2-0.6,3.3c-0.2,0.8-0.4,1.6-0.6,2.4c-0.2,0.8-0.3,1.3-0.5,2c-0.2,0.7-0.5,1.6-0.7,2.4c-0.2,0.8-0.3,1.2-0.5,1.8
		c-0.3,0.9-0.6,1.8-0.9,2.7c-0.5,1.5-1.1,3.1-1.7,4.6c-0.4,1-0.8,2-1.2,3c-0.6,1.3-1.1,2.6-1.8,3.9c-0.5,1-1,2-1.5,3
		c-0.8,1.4-1.6,2.8-2.4,4.3c-1.1,1.8-2.2,3.6-3.4,5.3c-0.7,1-1.3,1.9-2,2.8c-1.4,1.9-2.8,3.7-4.3,5.4c-2.7,3.2-5.6,6.2-8.7,9
		c-1.4,1.3-3,2.6-4.6,3.9s-3.5,2.7-5.3,3.9c-2.2,1.4-4.4,2.8-6.8,4.3c-1.4,0.8-3,1.6-4.5,2.4c-1.5,0.8-2.8,1.4-4.3,2
		s-2.7,1.2-4.1,1.6c-1.1,0.4-2.2,0.8-3.3,1.2c-1.1,0.4-2.1,0.7-3.1,1c-1.1,0.3-2.2,0.6-3.4,0.9c-1.4,0.4-2.7,0.7-4.1,0.9
		c-1,0.2-2,0.5-3,0.6c-1.1,0.2-2.3,0.4-3.4,0.5c-0.5,0.1-1,0.1-1.4,0.2C-58,492-61.8,492.2-65.5,492.1z M-65.5,489
		c1.6,0,3.3,0,4.9,0c2.4-0.1,4.9-0.3,7.3-0.6c1.5-0.2,3-0.4,4.4-0.6c1-0.2,2-0.3,2.9-0.5c1-0.2,1.9-0.4,2.8-0.6
		c1.6-0.4,3.2-0.8,4.8-1.3s2.8-0.8,4.1-1.3c1.8-0.6,3.6-1.3,5.3-2s3.6-1.5,5.4-2.4s3.9-2,5.8-3c2.4-1.4,4.8-2.9,7.1-4.5
		c2.5-1.7,4.9-3.6,7.2-5.6c1.5-1.3,2.9-2.6,4.3-3.9c0.8-0.7,1.5-1.4,2.2-2.2c1-1.1,2.1-2.2,3.1-3.4c1-1.2,2.2-2.6,3.2-3.9
		c1.4-1.8,2.7-3.6,4-5.6c0.8-1.3,1.6-2.5,2.4-3.8c0.8-1.3,1.3-2.3,1.9-3.4c0.6-1.2,1.4-2.7,2-4.1c0.6-1.4,1.2-2.5,1.6-3.8
		c0.5-1.3,0.9-2.2,1.3-3.3c0.3-0.9,0.6-1.8,0.9-2.7c0.3-0.9,0.6-1.7,0.8-2.6c0.3-1.1,0.6-2.2,0.9-3.4c0.3-1.1,0.7-2.4,0.9-3.7
		c0.5-2.3,0.9-4.6,1.2-6.9c0.3-1.9,0.5-3.9,0.6-5.9c0.2-2.8,0.3-5.7,0.2-8.5c-0.1-1.7-0.1-3.4-0.3-5c-0.2-2.2-0.5-4.5-0.8-6.7
		c-0.2-0.9-0.3-1.7-0.5-2.6c-0.4-2-0.9-4.1-1.4-6.1c-0.2-1-0.5-1.9-0.8-2.8c-0.6-2-1.3-4-2-6c-0.5-1.4-1.1-2.8-1.6-4.1
		c-0.8-1.8-1.6-3.6-2.5-5.4s-2-3.7-3-5.5c-1.3-2.3-2.7-4.4-4.3-6.6c-1.2-1.6-2.4-3.2-3.6-4.7c-1.7-2.1-3.5-4.2-5.4-6.2
		c-1.9-2-3.8-3.8-5.8-5.5c-2.3-2.1-4.8-4-7.3-5.8c-2-1.4-4.1-2.8-6.3-4.1c-2.2-1.3-4.2-2.4-6.4-3.5c-2.2-1.1-4.4-2-6.6-3
		c-2-0.8-4-1.5-6-2.2c-2-0.7-3.7-1.1-5.6-1.6c-0.6-0.2-1.1-0.3-1.7-0.4c-1.4-0.3-2.7-0.6-4.1-0.9c-1.6-0.3-3.3-0.6-5-0.8
		c-1.7-0.2-3.7-0.5-5.5-0.6c-1.8-0.1-3.5-0.2-5.3-0.3c-1.5,0-3,0-4.6,0c-2.6,0.1-5.1,0.3-7.7,0.6c-2.5,0.3-4.8,0.6-7.1,1.1
		c-0.7,0.1-1.4,0.3-2.2,0.5c-1.2,0.3-2.4,0.5-3.6,0.9c-1.5,0.4-3.1,0.8-4.5,1.3c-1.2,0.4-2.5,0.8-3.7,1.3c-1.2,0.4-2.1,0.9-3.2,1.3
		c-1.8,0.7-3.6,1.5-5.4,2.4c-2.2,1.1-4.4,2.2-6.5,3.5c-2.1,1.3-4.5,2.8-6.7,4.3c-1.4,1-2.8,2-4.1,3.1c-2.5,1.9-4.9,4-7.1,6.2
		c-2.3,2.3-4.5,4.7-6.6,7.3c-1.5,1.8-3,3.8-4.4,5.7c-1.4,1.9-2.6,3.8-3.8,5.8c-1.2,2-2.4,4.2-3.5,6.4c-1.1,2.2-2.2,4.7-3.2,7.1
		c-0.4,1-0.8,2-1.2,3.1c-0.6,1.7-1.2,3.4-1.7,5.2c-0.3,1-0.6,2.1-0.9,3.1c-0.4,1.4-0.7,2.8-1,4.3c-0.2,0.8-0.3,1.6-0.5,2.4
		c-0.3,2.2-0.7,4.3-0.9,6.5c-0.3,2.7-0.5,5.4-0.5,8.1c-0.1,3.9,0.1,7.7,0.6,11.6c0.1,1.3,0.3,2.5,0.5,3.8c0.2,1.3,0.4,2.3,0.6,3.4
		c0.3,1.4,0.6,2.7,0.9,4.1s0.8,3.1,1.3,4.6l0.4,1.4c0.3,0.9,0.6,1.8,0.9,2.7c0.3,0.9,0.6,1.6,0.9,2.4c0.4,1.1,0.8,2.2,1.3,3.2
		c0.5,1.1,1.1,2.4,1.6,3.5c1.2,2.7,2.6,5.3,4.2,7.9c1.6,2.6,3.2,5,5,7.4c2.1,2.8,4.3,5.4,6.7,7.9c1,1.1,2,2.1,3.1,3.1
		c1.9,1.9,4,3.6,6.1,5.3c1.2,0.9,2.4,1.8,3.6,2.8c1.5,1.1,3,2.1,4.6,3.1c1.6,1,3.3,2,5.2,3c1.3,0.7,2.5,1.3,3.8,2
		c1.3,0.6,2.4,1.1,3.6,1.7c1.2,0.6,2.6,1.1,3.9,1.6c1.6,0.6,3.3,1.2,4.9,1.7c1.4,0.4,2.7,0.9,4.1,1.2c2.3,0.6,4.6,1.2,7,1.6
		c1.6,0.3,3.2,0.6,4.8,0.8c2,0.3,3.9,0.5,5.9,0.6C-70,489-67.8,489.1-65.5,489L-65.5,489z"/>
	<path class="st0" d="M-124.1,310.4c1.2,0,2.1,1,2,2.1c0,1.2-1,2.1-2.1,2c-1.1,0-2.1-0.9-2.1-2c0,0,0,0,0,0
		C-126.3,311.3-125.3,310.4-124.1,310.4C-124.2,310.4-124.1,310.4-124.1,310.4z"/>
	<path class="st0" d="M-165.4,409.4c0,1.1-0.9,2-2,2.1c-1.1,0-2.1-1-2.1-2.1c0-1.1,0.9-2,2-2c0,0,0,0,0.1,0
		C-166.3,407.3-165.4,408.2-165.4,409.4z"/>
	<path class="st0" d="M9.6,470.2c0,1.2-1,2.1-2.1,2c-1.1,0-2-0.9-2-2c0,0,0,0,0,0c0.1-1.1,1.1-2,2.2-1.9
		C8.7,468.4,9.5,469.2,9.6,470.2z"/>
	<path class="st0" d="M-157.4,444.6c-1.2,0-2.1-1-2.1-2.1c0,0,0,0,0,0c0-1.1,0.9-2,2-2c1.1,0,2.1,0.9,2.1,2c0,0,0,0.1,0,0.1
		C-155.4,443.7-156.3,444.6-157.4,444.6z"/>
	<path class="st0" d="M-168.3,416.4c-0.1-1.1,0.8-2.1,1.9-2.2c0,0,0,0,0.1,0c1.2,0,2.1,1,2.1,2.1c0,0,0,0,0,0c-0.1,1.1-1,1.9-2.1,2
		C-167.4,418.3-168.3,417.5-168.3,416.4z"/>
	<path class="st0" d="M33.1,427.1c1.1,0,2,1,2,2.1c0,0,0,0,0,0c0,1.1-1,2-2.1,2c-1.1,0-2-0.9-2-2.1c0,0,0-0.1,0-0.1c0-1.1,0.9-2,2-2
		C33,427.1,33,427.1,33.1,427.1z"/>
	<path class="st0" d="M-137.1,472.6c-1.1,0-2.1-0.9-2.1-2.1c0-1.1,0.9-2,2-2c0,0,0.1,0,0.1,0c1.1,0,2,1,2,2.1c0,0,0,0,0,0
		c0,1.1-0.8,1.9-1.9,1.9C-137,472.7-137,472.7-137.1,472.6z"/>
	<path class="st0" d="M-114.8,489.3c-1.2,0-2.1-0.9-2.1-2.1c0,0,0,0,0,0c0-1.1,1-2,2.1-2c0,0,0,0,0,0c1.1,0,2,0.9,2,2c0,0,0,0,0,0.1
		C-112.7,488.3-113.6,489.2-114.8,489.3C-114.7,489.3-114.8,489.3-114.8,489.3z"/>
	<path class="st0" d="M-68.2,497.9c1.1,0.1,2,1,2.1,2.1c0,1.1-1,2-2.1,2c0,0,0,0-0.1,0c-1.1,0-1.9-0.8-2-1.9c0,0,0-0.1,0-0.1
		C-70.2,498.9-69.3,498-68.2,497.9z"/>
	<path class="st0" d="M-51.3,292.7c1.1,0,1.9,0.9,2,1.9c-0.1,1.1-1,2-2.1,2c-1.1,0-2-0.9-2-2c0-1.1,1-2,2.1-2
		C-51.4,292.7-51.4,292.7-51.3,292.7z"/>
	<path class="st0" d="M-84,295.9c0.1,1.1-0.8,2.1-1.9,2.2c-1.1,0.1-2.1-0.8-2.2-1.9c0-0.1,0-0.2,0-0.3c0.1-1.1,1.1-2,2.3-1.8
		C-84.9,294.1-84.1,294.9-84,295.9z"/>
	<path class="st0" d="M-31.1,297.5c1.1,0,2,0.9,2.1,2c0,1.1-0.9,2.1-2.1,2.1c-1.1,0-2.1-0.9-2.1-2.1c0,0,0,0,0,0
		C-33.2,298.3-32.3,297.5-31.1,297.5C-31.2,297.5-31.1,297.5-31.1,297.5z"/>
	<path class="st0" d="M-100.1,493.2c0,1.1-0.9,2-2.1,2c-1.1-0.1-2-1-2-2.1c-0.1-1.1,0.8-2.1,1.9-2.2c1.1-0.1,2.1,0.8,2.2,1.9
		C-100.1,492.9-100.1,493.1-100.1,493.2z"/>
	<path class="st0" d="M35.9,367.4c0,1.1-0.9,2.1-2.1,2.1c-1.1,0-2.1-0.9-2.1-2.1c0-1.1,0.8-2,1.9-2c0,0,0.1,0,0.1,0
		C35,365.4,35.9,366.3,35.9,367.4z"/>
	<path class="st0" d="M-133,321.1c0,1.1-1,2-2.1,1.9c-1,0-1.8-0.8-1.9-1.8c0-1.2,0.9-2.1,2.1-2.2C-133.9,319.1-133,320-133,321.1z"
		/>
	<path class="st0" d="M-144.6,333.3c-1.1,0-2-0.8-2-1.9c0,0,0,0,0,0c0-1.1,0.9-2.1,2-2.1c1.1-0.1,2.1,0.7,2.2,1.9
		c0.1,1.1-0.7,2.1-1.9,2.2C-144.4,333.3-144.5,333.3-144.6,333.3z"/>
	<path class="st0" d="M-166,402.4c0,1.1-0.9,2.1-2.1,2.1c-1.1,0-2.1-0.9-2.1-2.1c0-1.1,0.9-2.1,2.1-2.1c1.1,0,2,0.8,2.1,1.9
		C-166,402.4-166,402.4-166,402.4z"/>
	<path class="st0" d="M-1,479.3c0,1.1-0.9,2.1-2.1,2.1c-1.1,0-2.1-0.9-2.1-2.1c0-1.1,0.9-2.1,2.1-2.1c1.1-0.1,2,0.7,2.1,1.8
		C-1,479.2-1,479.2-1,479.3z"/>
	<path class="st0" d="M-79.1,296.7c-1.1,0.1-2.1-0.8-2.1-1.9c0,0,0-0.1,0-0.1c0-1.1,0.8-2,1.9-2.1c1.1-0.1,2.1,0.8,2.2,1.9
		c0,0,0,0,0,0.1c0.1,1.1-0.8,2-1.9,2.1C-79.1,296.7-79.1,296.7-79.1,296.7z"/>
	<path class="st0" d="M-167,383.7c-1.1,0.1-2-0.8-2-1.8c0-0.1,0-0.2,0-0.3c0-1.1,0.8-2,1.9-2.1c0,0,0,0,0.1,0
		c1.1-0.1,2.1,0.7,2.2,1.9c0.1,1.1-0.7,2.1-1.9,2.2C-166.8,383.7-166.9,383.7-167,383.7z"/>
	<path class="st0" d="M-12.7,486.9c0,1.1-0.9,2.1-2,2.1c-0.1,0-0.1,0-0.2,0c-1.1,0-1.9-0.9-1.9-2c0-1.1,0.9-2.1,2-2.1
		c0,0,0.1,0,0.1,0C-13.5,484.9-12.7,485.7-12.7,486.9C-12.7,486.8-12.7,486.8-12.7,486.9z"/>
	<path class="st0" d="M-144,465.6c0-1.1,0.9-2,2-2c1.1,0,2,0.9,2,2c0.1,1.1-0.8,2-1.8,2c0,0-0.1,0-0.1,0
		C-143,467.6-143.9,466.7-144,465.6z"/>
	<path class="st0" d="M4.5,474.9c0,1.1-0.8,2-2,2.1c0,0-0.1,0-0.1,0c-1.1,0-2-0.9-2-2c0-1.1,0.9-2,2-2
		C3.5,472.9,4.4,473.8,4.5,474.9C4.5,474.9,4.5,474.9,4.5,474.9z"/>
	<path class="st0" d="M-154.2,348.7c0,1.1-0.9,2-2,2s-2-0.9-2-2l0,0c0-1.2,1-2.1,2.1-2.2C-155,346.5-154.1,347.5-154.2,348.7
		C-154.2,348.6-154.2,348.6-154.2,348.7z"/>
	<path class="st0" d="M-114.4,305.2c0-1.1,0.9-2,2-2c0,0,0.1,0,0.1,0c1.1,0,2,0.8,2,1.9c0,0.1,0,0.1,0,0.2c0,1.1-0.9,2-2,2
		C-113.4,307.2-114.3,306.3-114.4,305.2z"/>
	<path class="st0" d="M-40.5,499.1c-1.1,0-2.1-0.8-2.1-2c0,0,0,0,0,0c0-1.1,0.9-2,2.1-2c1.1,0,2.1,0.9,2.1,2c0,0,0,0,0,0.1
		c0,1.1-0.9,1.9-1.9,1.9C-40.5,499.1-40.5,499.1-40.5,499.1z"/>
	<path class="st0" d="M-148.9,338.8c-1.1,0-2-0.9-2-2c0.1-1.1,1-2,2.1-2.1c1.1,0,2,0.9,2,2c0.1,1.1-0.8,2-1.8,2.1
		C-148.7,338.8-148.8,338.8-148.9,338.8z"/>
	<path class="st0" d="M-168.2,397.5c-1.1-0.1-2-1.1-1.9-2.2c0.1-1,0.9-1.8,1.9-1.9c1.1-0.1,2.1,0.7,2.2,1.9c0.1,1.1-0.7,2.1-1.9,2.2
		C-168,397.5-168.1,397.5-168.2,397.5z"/>
	<path class="st0" d="M-18.3,307c-1.1,0-2-0.9-2-2s0.9-2,2-2c1.1,0,2,1,2,2.1C-16.3,306.1-17.2,307-18.3,307
		C-18.3,307-18.3,307-18.3,307z"/>
	<path class="st0" d="M-163.9,361.4c0-1.1,0.9-2.1,2-2.1c1.2,0,2.1,0.9,2.1,2.1c0,1.1-0.9,2-2,2c0,0,0,0,0,0c-1.1,0.1-2-0.7-2.1-1.8
		C-163.9,361.6-163.9,361.5-163.9,361.4z"/>
	<path class="st0" d="M9.5,327.7c-1.1,0-2-0.9-2.1-2c0-1.1,1-2,2.1-2c0,0,0,0,0,0c1.1,0,2,1,2.1,2.1
		C11.6,326.8,10.7,327.7,9.5,327.7z"/>
	<path class="st0" d="M29,352.3c1.1,0,2,0.9,2,2c0,0,0,0,0,0c0,1.1-0.9,2-2,2c-1.1,0.1-2.1-0.7-2.2-1.8c-0.1-1.1,0.7-2.1,1.8-2.2
		C28.7,352.3,28.8,352.3,29,352.3z"/>
	<path class="st0" d="M-6.6,483.2c0,1.2-1,2.1-2.1,2.1c-1.1,0-2-0.8-2-1.9c0,0,0,0,0-0.1c0-1.1,0.8-2.1,1.9-2.1c0,0,0.1,0,0.1,0
		C-7.6,481.2-6.7,482.1-6.6,483.2z"/>
	<path class="st0" d="M18.4,334.3c1.2,0,2.1,0.9,2.1,2.1c0,1.1-0.9,2-2.1,2c-1.1,0-2-0.8-2-1.9c0,0,0-0.1,0-0.1
		c-0.1-1.1,0.8-2,1.8-2.1C18.3,334.3,18.3,334.3,18.4,334.3z"/>
	<path class="st0" d="M4.6,318.7c1.1,0.1,2,1,2,2.1c-0.1,1.1-1.1,1.9-2.3,1.8c-1-0.1-1.8-0.9-1.8-1.9c0-1.1,0.9-2,1.9-2
		C4.6,318.7,4.6,318.7,4.6,318.7z"/>
	<path class="st0" d="M-103.9,302.2c0,1.1-0.9,2-2,2.1c0,0,0,0,0,0c-1.1,0-2-0.8-2-1.9c0,0,0,0,0-0.1c0-1.1,0.9-2.1,2-2.1
		c0,0,0.1,0,0.1,0C-104.8,300.2-103.9,301.1-103.9,302.2C-103.9,302.2-103.9,302.2-103.9,302.2z"/>
	<path class="st0" d="M-160.3,438.2c-1.1,0-2.1-0.9-2.1-2.1c0,0,0,0,0,0c0-1.1,0.9-2,2-2c1.1,0,2.1,0.9,2.1,2c0,0,0,0,0,0.1
		C-158.3,437.3-159.2,438.2-160.3,438.2L-160.3,438.2z"/>
	<path class="st0" d="M-164.9,421c1.1,0,2.1,0.8,2.1,1.9c0,1.1-0.9,2.1-2.1,2.1c-1.1,0-2-0.9-2-2.1C-166.9,421.9-166,421-164.9,421
		C-164.9,421-164.9,421-164.9,421z"/>
	<path class="st0" d="M-108.6,492.4c-1.1,0-2.1-0.9-2.1-2c0.1-1.1,1-2,2.2-2c1.1,0.1,2,1,1.9,2.1c0,1.1-0.8,1.9-1.9,2
		C-108.5,492.4-108.5,492.4-108.6,492.4z"/>
	<path class="st0" d="M-160.8,429.7c0,1.1-0.8,2-1.9,2c0,0,0,0,0,0c-1.1,0-2-0.9-2.1-2c0-1.1,0.9-2,2-2
		C-161.7,427.7-160.8,428.6-160.8,429.7z"/>
	<path class="st0" d="M-167.9,390.5c-1.1,0-2-1-2-2.1c0.1-1.1,1-2,2.1-2c1.1,0,2,0.9,2,2c0,1.1-0.9,2.1-2,2.1
		C-167.8,390.5-167.8,390.5-167.9,390.5z"/>
	<path class="st0" d="M-58.4,296.1c-1.1,0-2-0.9-2-2c0,0,0-0.1,0-0.1c0.1-1.1,1-1.9,2-1.9c1.1,0,2,0.9,2.1,2
		C-56.3,295.2-57.3,296.1-58.4,296.1z"/>
	<path class="st0" d="M-14.2,308.3c0-1.1,0.9-2,2-2c0,0,0,0,0,0c1.1,0,2.1,0.9,2.1,2.1c-0.1,1.1-1,1.9-2.1,1.9
		C-13.3,310.3-14.2,309.4-14.2,308.3C-14.2,308.3-14.2,308.3-14.2,308.3z"/>
	<path class="st0" d="M-54.3,501.5c-1.1,0-1.9-0.8-2-1.9c0,0,0-0.1,0-0.1c0-1.1,0.8-2,1.9-2.1c0,0,0,0,0.1,0c1.1,0,2,0.8,2.1,1.9
		c0,0,0,0.1,0,0.1C-52.3,500.6-53.2,501.5-54.3,501.5z"/>
	<path class="st0" d="M27.9,348.1c0,1.1-0.9,2-2,2c-1.1,0-2-0.9-2-2c-0.1-1.1,0.8-2,1.9-2.1c0,0,0.1,0,0.1,0
		C27,346,27.9,346.9,27.9,348.1C27.9,348.1,27.9,348.1,27.9,348.1z"/>
	<path class="st0" d="M-0.8,318.3c-1.1-0.1-2-1-2-2.1c0.1-1.1,1.1-1.9,2.3-1.8c1,0.1,1.8,0.9,1.8,2C1.3,317.4,0.3,318.3-0.8,318.3
		C-0.8,318.3-0.8,318.3-0.8,318.3z"/>
	<path class="st0" d="M-8.3,312.1c0-1.1,0.8-2,1.9-2.1c0,0,0,0,0,0c1.1,0.1,2,1,2.1,2.1c0,1.1-1,2-2.1,2
		C-7.5,314.1-8.4,313.2-8.3,312.1C-8.3,312.1-8.3,312.1-8.3,312.1z"/>
	<path class="st0" d="M-152.7,344.6c-1,0.1-1.9-0.7-1.9-1.7c0-0.1,0-0.1,0-0.2c0-1.1,0.8-2.1,2-2.1c0.1,0,0.1,0,0.2,0
		c1.1,0.1,1.9,1,1.9,2C-150.7,343.7-151.6,344.7-152.7,344.6C-152.7,344.6-152.7,344.6-152.7,344.6z"/>
	<path class="st0" d="M-47.3,496.5c1.1,0.1,1.9,1,2,2c0,1.1-1,2-2.1,2c-1.1,0-2-0.8-2-1.9c0,0,0-0.1,0-0.1
		C-49.3,497.4-48.4,496.5-47.3,496.5z"/>
	<path class="st0" d="M-118.3,310.6c-1.1,0-2-0.8-2-1.9c0,0,0-0.1,0-0.1c0-1.1,0.9-2,2-2c1.1,0,2,0.9,2.1,2
		C-116.3,309.7-117.2,310.6-118.3,310.6L-118.3,310.6z"/>
	<path class="st0" d="M-72.3,296.1c-1.1,0-2-0.9-2-2c0-1.1,0.9-2,2-2c0,0,0,0,0,0c1.1,0,2.1,0.9,2.1,2c0,1.1-0.9,2-1.9,2
		C-72.2,296.1-72.2,296.1-72.3,296.1z"/>
	<path class="st0" d="M-144.4,460.3c0,1.1-0.8,2.1-1.9,2.1c0,0-0.1,0-0.1,0c-1.1-0.1-2-1-2-2.2c0-1.1,0.9-2,2-1.9c0,0,0,0,0,0
		C-145.3,458.3-144.4,459.2-144.4,460.3z"/>
	<path class="st0" d="M33.6,360.8c0,1.1-0.9,2-2,2c-1.1,0-2-0.9-2-2c0-1.1,0.9-2,2-2C32.7,358.8,33.6,359.7,33.6,360.8z"/>
	<path class="st0" d="M34.9,420.4c1.1,0,2,0.9,2.1,2c0,1.2-0.9,2.1-2,2.2c0,0,0,0,0,0c-1.1,0-2-0.9-2-2c0,0,0,0,0,0
		C32.9,421.3,33.8,420.4,34.9,420.4z"/>
	<path class="st0" d="M24.5,446.2c1.1,0,2,0.9,2,2c0,0,0,0,0,0c0.1,1.1-0.7,2.1-1.9,2.2c-1.1,0.1-2.1-0.7-2.2-1.9c0-0.1,0-0.2,0-0.3
		C22.5,447,23.4,446.1,24.5,446.2C24.5,446.2,24.5,446.2,24.5,446.2z"/>
	<path class="st0" d="M14.7,459.7c0-1.1,0.9-2,2-2c0,0,0,0,0,0c1.1,0,2,0.9,2,2c0,1.1-0.9,2.1-2,2.1c-1.1,0-2-0.9-2.1-2
		C14.7,459.8,14.7,459.8,14.7,459.7z"/>
	<path class="st0" d="M-59.2,500c0,1.1-0.9,2-2,2c-1.1,0-2-0.8-2.1-1.9c0,0,0,0,0,0c0-1.1,0.9-2.1,2-2.1c0,0,0,0,0,0
		C-60.1,497.9-59.2,498.8-59.2,500z"/>
	<path class="st0" d="M-75.2,501.5c-1.1,0-2-0.9-2-2c0,0,0,0,0,0c0-1.1,0.9-2.1,2.1-2.1s2.1,0.9,2.1,2.1
		C-73.1,500.7-74,501.6-75.2,501.5C-75.2,501.5-75.2,501.5-75.2,501.5z"/>
	<path class="st0" d="M-167.7,374.8c0-1.1,0.8-2.1,2-2.1c0,0,0,0,0,0c1.1,0,2,0.9,2,2c0,1.1-0.9,2.1-2,2.1
		C-166.9,376.8-167.8,375.9-167.7,374.8C-167.7,374.8-167.7,374.8-167.7,374.8z"/>
	<path class="st0" d="M-129.8,318.7c-1.1,0-2-0.9-2.1-1.9c0-1.2,0.9-2.1,2.1-2.2c0,0,0,0,0.1,0c1.1,0,2,0.9,2,2c0,0,0,0,0,0.1
		C-127.7,317.8-128.7,318.6-129.8,318.7z"/>
	<path class="st0" d="M-27.2,490.8c1.1,0,2,0.9,2.1,2c0,1.2-1,2.1-2.1,2.1c0,0,0,0,0,0c-1.1,0-2-0.9-2-2c0,0,0,0,0-0.1
		c0-1.1,0.9-2,2-2C-27.3,490.8-27.3,490.8-27.2,490.8z"/>
	<path class="st0" d="M-33.7,493.2c1.1,0,2,1,2,2.1c0,1.1-1,2-2.1,2c-1.1,0-2-0.9-2-2c0,0,0,0,0-0.1
		C-35.8,494.1-34.9,493.2-33.7,493.2C-33.7,493.2-33.7,493.2-33.7,493.2z"/>
	<path class="st0" d="M38.5,415.6c0,1.1-0.9,2-2,2.1c-1.1,0-2.1-0.9-2.1-2.1c0,0,0,0,0,0c0-1.1,0.9-2,2-2
		C37.5,413.6,38.5,414.5,38.5,415.6C38.5,415.6,38.5,415.6,38.5,415.6z"/>
	<path class="st0" d="M37.8,389.9c-1.1,0-2-0.9-2.1-2c-0.1-1.1,0.7-2.1,1.9-2.2c1.1-0.1,2.1,0.7,2.2,1.9c0,0.1,0,0.2,0,0.3
		C39.7,389,38.9,389.9,37.8,389.9z"/>
	<path class="st0" d="M-148.5,454.7c0,1.1-0.9,2-2,2s-2-0.9-2-2c0-1.1,0.8-2,1.9-2c0,0,0.1,0,0.1,0
		C-149.4,452.6-148.5,453.5-148.5,454.7C-148.5,454.7-148.5,454.7-148.5,454.7z"/>
	<path class="st0" d="M-88.9,499.3c-1.1,0.1-2.1-0.7-2.2-1.9c-0.1-1.1,0.7-2.1,1.9-2.2c0.1,0,0.2,0,0.3,0c1.1,0,2,0.8,2,1.9
		c0,0,0,0.1,0,0.1C-86.8,498.4-87.7,499.3-88.9,499.3C-88.8,499.3-88.8,499.3-88.9,499.3z"/>
	<path class="st0" d="M-97.5,299.7c0,1.1-0.8,2-1.9,2.1c0,0,0,0,0,0c-1.1,0-2-0.9-2-2c0-1.1,0.9-2,2-2
		C-98.4,297.6-97.5,298.5-97.5,299.7C-97.5,299.6-97.5,299.7-97.5,299.7z"/>
	<path class="st0" d="M40.2,394.8c0.1,1.1-0.7,2.1-1.9,2.2c-1.1,0.1-2.1-0.7-2.2-1.9c0-0.1,0-0.2,0-0.3c0.1-1.1,1.1-2,2.2-1.9
		C39.3,393,40.1,393.8,40.2,394.8z"/>
	<path class="st0" d="M-92.8,299.6c-1.1-0.1-2-1-2-2.1c0-1.1,1-2,2.1-2c1.1,0,2,0.9,2,1.9C-90.8,298.6-91.7,299.6-92.8,299.6
		C-92.8,299.6-92.8,299.6-92.8,299.6z"/>
	<path class="st0" d="M-18.9,490.2c0,1.1-1,2-2.1,2c-1.1,0-2-1-2-2.1c0-1.1,0.9-2,2-2c1.1,0,2,0.8,2,1.9
		C-18.9,490.1-18.9,490.1-18.9,490.2z"/>
	<path class="st0" d="M-35.7,297.5c0,1.1-0.9,2-2.1,2c0,0,0,0,0,0c-1.1,0-2-1-2-2.1c0-1.1,0.9-2,2-2c0,0,0,0,0,0
		C-36.7,295.4-35.7,296.3-35.7,297.5C-35.7,297.5-35.7,297.5-35.7,297.5z"/>
	<path class="st0" d="M22.4,340c1.1,0,2.1,0.9,2.1,2.1c0,1.1-0.9,2-2,2c-1.1,0.1-2.1-0.7-2.3-1.8c-0.1-1.1,0.7-2.1,1.8-2.3
		C22.1,340,22.2,340,22.4,340z"/>
	<path class="st0" d="M-84.1,498.6c0-1.1,0.9-2,2-2c0,0,0.1,0,0.1,0c1.1,0.1,2,1,1.9,2.1c0,1.1-0.9,2-2.1,2
		C-83.2,500.7-84.1,499.7-84.1,498.6z"/>
	<path class="st0" d="M-118.8,483.7c0,1.1-0.9,2-2,2c-1.2,0-2.1-0.9-2.1-2.1c0,0,0,0,0,0c0-1.1,1-2,2.1-2
		C-119.6,481.6-118.7,482.6-118.8,483.7L-118.8,483.7z"/>
	<path class="st0" d="M-159.3,352.9c1.1,0,2.1,0.9,2.1,2c0,0,0,0.1,0,0.1c0,1.1-0.9,2-2,2c0,0,0,0,0,0c-1.1,0-2-0.8-2-1.9
		c0,0,0-0.1,0-0.1C-161.3,353.9-160.4,352.9-159.3,352.9C-159.3,352.9-159.3,352.9-159.3,352.9z"/>
	<path class="st0" d="M-164,370c-1,0.1-1.9-0.7-2-1.7c0-0.1,0-0.1,0-0.2c0-1.1,0.9-2.1,2-2.1c0,0,0,0,0,0c1.1,0,2.1,0.9,2.1,2.1
		C-162,369.1-162.9,370-164,370C-164,370-164,370-164,370z"/>
	<path class="st0" d="M38,403.9c-1.2,0-2.1-1-2.1-2.1c0.1-1.1,0.9-1.9,2-1.9c1.1,0,2,0.8,2,1.9c0,0.1,0,0.1,0,0.2
		C40,402.9,39.2,403.8,38,403.9C38.1,403.9,38,403.9,38,403.9z"/>
	<path class="st0" d="M-93.6,495.4c0,1.1-0.9,2-2,2.1s-2-0.9-2.1-2c0,0,0,0,0,0c0-1.1,0.8-2,1.9-2c0,0,0.1,0,0.1,0
		C-94.5,493.4-93.6,494.3-93.6,495.4z"/>
	<path class="st0" d="M36.9,378.9c1.1,0,2,0.8,2,1.9c0,0,0,0.1,0,0.1c0,1.1-0.9,2-2,2c-1.1,0-2-0.9-2.1-2
		C34.9,379.9,35.8,379,36.9,378.9z"/>
	<path class="st0" d="M-44.5,293.8c1.1,0,2,0.8,2,1.9c0,1.1-0.9,2.1-2,2.1c-1.1,0-2.1-0.9-2.1-2c0-1.1,0.9-2,2-2
		C-44.6,293.8-44.6,293.8-44.5,293.8z"/>
	<path class="st0" d="M12.2,467.2c-1.1,0-2-1-2-2.1c0-1.1,1-2,2.1-2c1.1,0,2,1,2,2.1C14.3,466.3,13.4,467.2,12.2,467.2L12.2,467.2z"
		/>
	<path class="st0" d="M-132,473.3c1.1,0,2,0.9,2.1,2c0,1.1-0.9,2-2,2.1c-1.2,0-2.1-0.9-2.1-2.1C-134,474.2-133.1,473.3-132,473.3
		C-132,473.3-132,473.3-132,473.3z"/>
	<path class="st0" d="M-126.5,481.7c-1.1,0-2.1-0.9-2.1-2.1c0-1.1,1-2,2.1-2c1.1,0,2,0.9,2,1.9c0,0,0,0.1,0,0.1
		C-124.5,480.8-125.4,481.7-126.5,481.7z"/>
	<path class="st0" d="M22.8,454.1c0,1.1-0.9,2.1-2,2.1c0,0,0,0-0.1,0c-1.1-0.1-2-1-2-2.1c0-1.1,1-2,2.1-2
		C21.9,452.1,22.8,452.9,22.8,454.1C22.8,454.1,22.8,454.1,22.8,454.1z"/>
	<path class="st0" d="M-24.6,300c1.1,0,2,0.8,2.1,2c0,0,0,0,0,0c0,1.1-0.9,2-2.1,2c-1.1,0-2-0.9-2-2c0,0,0,0,0,0
		c0-1.1,0.8-1.9,1.8-2C-24.8,300-24.7,300-24.6,300z"/>
	<path class="st0" d="M12.2,330.8c-0.1-1.1,0.8-2,1.8-2c0,0,0.1,0,0.1,0c1.2,0,2.1,1,2.1,2.1c0,0,0,0,0,0c0,1.1-0.9,2-2,2
		c-1.1,0-2-0.8-2-1.9C12.2,330.9,12.2,330.8,12.2,330.8z"/>
	<path class="st0" d="M29.7,442.1c0,1.1-0.9,2-2,2.1c-1.1-0.1-1.9-1-2-2.1c0-1.1,0.9-2,2-2c1.1,0,2,0.8,2,1.9
		C29.7,441.9,29.7,442,29.7,442.1z"/>
	<path class="st0" d="M30.6,437.7c-1.1,0-2-0.9-2-2s0.9-2,2-2c1.1,0,2,0.9,2,2c0,0,0,0,0,0.1C32.6,436.8,31.7,437.7,30.6,437.7z"/>
	<path class="st0" d="M37.5,410.8c-1.1,0-2-0.9-2-2.1c0-1.1,0.9-2,2.1-2c1.1,0,2,0.9,2,2.1c0,0,0,0,0,0
		C39.5,409.9,38.6,410.8,37.5,410.8z"/>
	<path class="st0" d="M-154.2,450.8c-1.1-0.1-2-1.1-1.9-2.2c0.1-1,0.9-1.8,1.9-1.9c1.1,0,2.1,0.9,2.1,2c0,0,0,0,0,0
		C-152.2,449.8-153.1,450.7-154.2,450.8C-154.2,450.8-154.2,450.8-154.2,450.8z"/>
	<path class="st0" d="M35.6,376.1c-1.1,0-2-0.9-2-2c0,0,0-0.1,0-0.1c-0.1-1.1,0.8-2.1,1.9-2.1c1.1-0.1,2.1,0.8,2.1,1.9
		c0,0.1,0,0.2,0,0.3C37.6,375.3,36.7,376.1,35.6,376.1C35.7,376.1,35.6,376.1,35.6,376.1z"/>
	<path class="st0" d="M-139.8,324.2c1,0,1.9,0.8,1.9,1.9c0,0.2,0,0.5-0.1,0.7c-0.3,0.8-0.9,1.3-1.7,1.4c-0.7,0.1-1.4-0.2-1.7-0.8
		c-0.4-0.5-0.5-1.2-0.2-1.8c0.2-0.5,0.6-1,1.1-1.3C-140.3,324.2-140.1,324.2-139.8,324.2z"/>
	<path class="st0" d="M-65.2,292.3c0.1,0,0.2,0,0.4,0c0.5-0.1,1,0.1,1.2,0.5c0.3,0.4,0.4,0.9,0.2,1.4c-0.2,0.9-0.9,1.5-1.8,1.5
		c-0.6,0.1-1.3-0.1-1.7-0.6c-0.5-0.5-0.6-1.3-0.3-2c0.2-0.5,0.7-0.9,1.3-0.9H-65.2L-65.2,292.3z"/>
	<path class="st0" d="M-152.9,396.9c0-48.6,39.4-88.1,88.1-88c0.1,0,0.1,0,0.2,0c23.4,0.3,43.8,8.4,60.7,24.6
		c35.1,33.7,36.3,89.4,2.6,124.5s-89.4,36.3-124.5,2.6C-143.1,443.9-152.9,420.9-152.9,396.9z M-57,310.2
		c-55.4-0.2-94.6,38.7-94.7,86.6c-0.1,48,38.7,86.9,86.7,87c48,0.1,86.9-38.7,87-86.7c0.1-23.7-9.6-46.5-26.8-62.8
		C-21.6,318.4-41.7,310.4-57,310.2L-57,310.2z"/>
	<path class="st1" d="M-81.6,378.3c0-4.3,0-8.6,0-12.9c0-2.7,0-5.4,0.1-8.1c0-1.6,0.1-3.2,0.2-4.9c0-0.2,0-0.3,0.1-0.5
		c0.2-0.8,0.3-1,1.2-1c1.9,0,3.9,0,5.8,0.1c0.5-0.1,1,0.3,1,0.8c0.2,0.7,0.3,1.4,0.5,2.1c0.4,2,0.9,4,1.3,5.9c0.5,2.3,1,4.5,1.5,6.8
		c0.2,1.1,0.5,2.2,0.9,3.3c0.1,0.2,0.1,0.6,0.4,0.5c0.2-0.1,0.3-0.4,0.2-0.6c0-0.4,0-0.8,0-1.2c-0.2-5.5-0.2-11.1-0.2-16.6
		c0-0.2,0-0.3,0-0.5c0.1-0.4,0.5-0.6,0.9-0.6c1.8,0,3.5,0,5.3,0c0.6,0,1,0.4,1.1,0.9c0,0.1,0,0.1,0,0.2c0,2.6,0,5.2,0,7.8
		c0,2.2,0,4.3,0,6.5c0,3.2,0,6.3,0,9.5c-0.1,5.9,0,11.7-0.1,17.6c0,0.4,0,0.8-0.2,1.1c-0.1,0.3-0.4,0.6-0.8,0.6
		c-1.6,0.3-3.3,0.3-4.9,0h-0.2c-0.8,0-1.5-0.6-1.6-1.4c-0.3-1.5-0.7-3-1-4.5c-0.5-2.3-1-4.6-1.6-7c-0.4-1.7-0.8-3.4-1.2-5.1
		c-0.1-0.5-0.2-1-0.3-1.4c0-0.2-0.1-0.5-0.3-0.7c-0.1-0.1-0.2-0.2-0.4-0.1c-0.1,0-0.2,0.1-0.2,0.2c-0.1,0.3-0.1,0.6-0.1,1
		c0,5.5,0,11,0,16.5c0,0.3,0,0.6,0,1c0.1,0.7-0.4,1.3-1.1,1.4c-0.5,0.2-1.1,0.2-1.6,0.2h-3.1c-0.7,0.1-1.3-0.3-1.4-1
		c0-0.1,0-0.3,0-0.4C-81.7,388.7-81.6,383.5-81.6,378.3z"/>
	<path class="st1" d="M-39,392.7c-0.6,1.1-1.7,1.9-3,2.1c-1.6,0.3-3.2,0.4-4.8,0.2c-1.1-0.1-2.3-0.3-3.3-0.7
		c-2.1-0.8-3.6-2.5-4.2-4.6c-0.4-1.5-0.6-3.1-0.6-4.7c0-4.2,0-8.4,0-12.6c0-2.8,0-5.8,0-8.7c0-1.6,0.1-3.2,0.2-4.8
		c0.1-1.5,0.5-2.9,1-4.3c0.7-1.6,2-2.8,3.7-3.2c2.2-0.6,4.4-0.7,6.6-0.4c0.9,0.1,1.8,0.3,2.7,0.6c2.3,0.7,3.9,2.6,4.4,4.9
		c0.3,1.1,0.4,2.2,0.5,3.3c0.2,2.7,0.1,5.4,0.1,8.2c0,0.2,0,0.4,0,0.5c0,0.4-0.3,0.7-0.6,0.7c0,0-0.1,0-0.1,0c-0.4,0-0.8,0-1.2,0
		h-4.3c-0.5,0.1-1-0.2-1.1-0.7c0-0.1,0-0.2,0-0.4c0-1.7-0.1-3.5-0.2-5.2c0-1.1-0.2-2.2-0.4-3.3c-0.1-0.5-0.3-1-0.6-1.4
		c-0.4-0.6-1.2-0.7-1.8-0.3c-0.1,0-0.1,0.1-0.1,0.1c-0.4,0.4-0.7,1-0.8,1.6c-0.1,0.7-0.2,1.5-0.2,2.2c0,7.5,0,15,0,22.5
		c0,1.1,0.3,2.2,0.9,3.1c0.3,0.5,0.8,0.8,1.4,0.7c0.4-0.1,0.8-0.4,1-0.8c0.3-0.5,0.5-1.1,0.6-1.7c0.1-0.8,0.2-1.5,0.2-2.3
		c0-1.2,0-2.4,0-3.5c0-0.7,0-0.8-0.7-0.8h-0.8c-0.3,0.1-0.6-0.1-0.7-0.4c0-0.1,0-0.2,0-0.3c0-1.3,0-2.6,0-4c0-0.4,0-0.7,0-1.1
		c-0.1-0.4,0.2-0.8,0.6-0.9c0.1,0,0.2,0,0.2,0h7.8c0.5-0.1,0.9,0.3,0.9,0.7c0,0,0,0.1,0,0.1c0,0.2,0,0.4,0,0.6c0,6.5,0,12.9,0,19.3
		c0,0.4,0,0.8-0.1,1.2c0,0.4-0.3,0.6-0.6,0.7c0,0-0.1,0-0.1,0c-0.3,0-0.6,0-1,0c-0.5,0.1-0.9-0.2-1-0.7l-0.5-1.2
		C-38.8,392.9-38.9,392.8-39,392.7z"/>
	<path class="st1" d="M-54.7,433.2c0,2.6,0,5.3,0,7.9c0,0.1,0,0.2,0,0.3c0.1,0.6-0.3,1.2-1,1.3c0,0,0,0,0,0
		c-0.5,0.2-0.9,0.2-1.4,0.2c-1,0-2,0-3.1,0c-0.6,0.1-1.1-0.3-1.2-0.8c0-0.1,0-0.2,0-0.2c0-0.2,0-0.3,0-0.5c0-3.1,0-6.3,0-9.4
		c0-0.5-0.1-1,0-1.6c0.1-5.2,0-10.3,0.1-15.5c0-2.3,0-4.6,0.1-6.9c0-1.2,0-2.5,0.1-3.7c0-0.6,0.1-1.2,0.2-1.7c0-0.3,0.3-0.5,0.6-0.5
		c0,0,0,0,0.1,0c1.8,0,3.6,0,5.4,0.1h0.1c1-0.1,1.1,0.5,1.3,1.2c0.6,3.1,1.3,6.2,2,9.3c0.4,1.7,0.8,3.4,1.2,5.1
		c0.2,0.8,0.5,1.5,0.7,2.3c0,0.1,0.1,0.2,0.2,0.2c0.1,0,0.2-0.1,0.3-0.2c0.1-0.3,0.1-0.6,0.1-0.9c-0.1-1.2,0-2.4-0.1-3.6
		c-0.2-4-0.1-7.9-0.1-11.9c0-1.3,0.2-1.5,1.5-1.5h3.9c0.7-0.1,1.3,0.3,1.4,1c0,0.2,0,0.4,0,0.6c-0.2,4.2,0,8.3-0.1,12.5
		c-0.1,5.7,0,11.4-0.1,17.1c0,2.5,0,5.1,0,7.6c0,0.4,0,0.8-0.2,1.3c-0.1,0.5-0.5,0.8-1,0.9c-1.5,0.2-3.1,0.2-4.6,0
		c-0.7,0-1.3-0.5-1.4-1.2c-0.2-0.7-0.3-1.4-0.5-2c-0.3-1.4-0.7-3-1-4.4c-0.5-2.3-1.1-4.6-1.6-7c-0.3-1.1-0.5-2.3-0.8-3.4
		c0-0.3-0.2-0.5-0.3-0.8c-0.2-0.2-0.4-0.2-0.5,0.1c-0.1,0.3-0.2,0.6-0.1,0.9C-54.7,427.8-54.7,430.5-54.7,433.2L-54.7,433.2
		L-54.7,433.2z"/>
	<path class="st1" d="M-12.4,395.3c-1,0-2,0-2.9,0c-0.4,0-0.8-0.2-0.9-0.6c-0.4-1.1-0.7-2.1-0.9-3.2c-0.3-1.3-0.5-2.6-0.7-4
		c-0.1-0.6-0.1-0.7-0.8-0.7h-1.7c-0.3-0.1-0.6,0.1-0.7,0.4c0,0.1,0,0.1,0,0.2c-0.1,0.8-0.2,1.7-0.4,2.5c-0.2,1.2-0.4,2.4-0.6,3.7
		c0,0.4-0.1,0.7-0.2,1.1c0,0.4-0.3,0.6-0.6,0.6c0,0-0.1,0-0.1,0h-6.6c-0.3,0-0.5-0.2-0.6-0.5c0-0.1,0-0.1,0-0.2
		c0.2-1.4,0.5-3,0.7-4.4s0.5-2.8,0.7-4.3c0.3-1.7,0.6-3.3,0.9-5c0.3-1.6,0.5-3.3,0.8-5c0.2-1.3,0.4-2.5,0.6-3.8
		c0.3-1.6,0.5-3.2,0.8-4.8c0.2-1.2,0.4-2.3,0.6-3.5c0.3-1.5,0.5-3,0.8-4.5c0.3-1.5,0.6-2.8,0.9-4.3c0.2-1.1,0.5-2.2,0.8-3.3
		c0-0.2,0.1-0.3,0.1-0.5c0.1-0.3,0.3-0.5,0.6-0.5h1.1h3.8c0.4-0.1,0.8,0.1,1,0.5c0,0.1,0,0.2,0,0.2c0.4,1.4,0.6,2.8,0.9,4.3
		c0.3,1.6,0.6,3.1,0.9,4.7c0.3,1.6,0.5,3.3,0.8,4.9c0.2,1.3,0.4,2.6,0.7,4c0.3,1.7,0.5,3.4,0.8,5.2c0.2,1.4,0.4,2.8,0.6,4.2
		c0.2,1.4,0.4,2.9,0.7,4.4l0.6,3.7l0.8,4.9c0.2,0.9,0.3,1.9,0.5,2.8c0.1,0.5,0,0.6-0.5,0.6L-12.4,395.3L-12.4,395.3z M-19.4,374
		c-0.2,0.2-0.3,0.4-0.3,0.6c-0.3,1.6-0.5,3.1-0.7,4.7c-0.1,1-0.1,1,0.9,1s1.2-0.1,1-1.1c-0.2-1.2-0.3-2.5-0.5-3.7
		C-19,375-19.1,374.4-19.4,374L-19.4,374z"/>
	<path class="st1" d="M-102.1,362.2c0,1.2,0,2.2,0,3.2c0.1,0.5-0.2,1-0.7,1.1c-0.1,0-0.2,0-0.3,0c-1.8,0.1-3.7,0-5.5,0
		c-0.3,0-0.6-0.2-0.7-0.5c0-0.2,0-0.4,0-0.7c0-1.4,0.1-2.9,0.1-4.4c0-0.7-0.2-1.5-0.6-2.1c-0.4-0.7-1.2-1-1.9-0.6
		c-0.2,0.1-0.3,0.2-0.4,0.3c-0.4,0.4-0.6,0.9-0.7,1.5c-0.1,0.5-0.1,1-0.1,1.5c0,0.7,0,1.4,0,2.2c0,0.9,0.2,1.8,0.7,2.5
		c0.6,1,1.4,2,2.2,2.8c1.7,1.8,3.4,3.5,5,5.3c1.4,1.5,2.4,3.2,3,5.2c0.1,0.5,0.2,1,0.2,1.5c0,1.4,0,2.8,0,4.3c0,1.8-0.4,3.5-1.1,5.1
		c-1.1,2.3-3.2,4-5.7,4.5c-2.1,0.5-4.2,0.3-6.2-0.6c-2-1-3.6-2.6-4.5-4.7c-0.7-1.5-1.1-3.1-1.2-4.7c0-1.3,0-2.7,0-4
		c0-0.2,0-0.4,0.1-0.6c0.1-0.3,0.4-0.5,0.7-0.5h0.2c1.8,0,3.6-0.2,5.3-0.2c0.8,0,0.8,0,1,0.8c0,0.3,0,0.5,0,0.8c0,1.2,0,2.3,0,3.5
		c0,0.6,0.2,1.2,0.4,1.7c0.2,0.6,0.8,1,1.4,1.1c0.6,0.1,1.3-0.2,1.6-0.7c0.3-0.5,0.4-1.1,0.4-1.7c0-0.9,0-1.8,0.1-2.8
		c0.1-0.7-0.1-1.4-0.5-1.9c-0.6-0.9-1.4-1.8-2.2-2.6c-1.6-1.7-3.3-3.3-5-5c-1.1-1.2-2.1-2.5-2.7-4c-0.4-0.9-0.6-1.9-0.6-2.8
		c0-1.4,0-3,0-4.4c0-1.7,0.3-3.5,0.8-5.1c0.8-2.2,2.4-4.1,4.5-5.1c2.1-0.9,4.4-1.2,6.6-0.8c1.8,0.4,3.5,1.5,4.5,3.1
		c0.9,1.3,1.5,2.9,1.6,4.5C-102.1,359.6-102.1,360.9-102.1,362.2z"/>
	<path class="st1" d="M-96.4,434.6c0,2.2,0,4.5,0,6.7c0,1.2-0.1,1.3-1.3,1.4c-1.4,0.1-2.8,0.1-4.3,0c-0.4,0-0.7-0.2-0.7-0.6
		c0,0,0-0.1,0-0.1c-0.1-0.3-0.1-0.7-0.1-1c0-2.7,0-5.4,0-8.1c0.1-9.9,0-19.7,0.1-29.6c0-0.3,0-0.6,0-0.8c0-0.5,0.4-0.8,0.8-0.9h7.8
		c1.2,0,2.4,0.2,3.5,0.5c1.1,0.3,2,0.9,2.8,1.7c0.8,0.8,1.2,1.8,1.2,2.9c0,2.1,0,4.1,0,6.2c0,1.4,0,2.8-0.1,4.1
		c0,2.4-1.5,4.5-3.6,5.4c-0.2,0-0.3,0.2-0.4,0.3c0,0.2,0.2,0.3,0.3,0.3c0.4,0.2,0.8,0.4,1.2,0.7c0.9,0.6,1.6,1.4,2,2.5
		c0.5,1.3,0.8,2.7,0.9,4.1c0.3,2.2,0.2,4.4,0.2,6.7c0.1,1.5,0.2,3,0.5,4.5c0,0.1,0,0.3,0,0.4c0,0.3-0.1,0.6-0.4,0.7
		c-0.2,0.1-0.5,0.1-0.7,0.1h-4.3c-0.3,0-0.6,0-0.9-0.1c-0.4,0.1-0.8-0.2-0.8-0.6c0,0,0-0.1,0-0.1c-0.1-0.8-0.2-1.6-0.2-2.4
		c-0.1-2.2-0.2-4.4-0.1-6.7c0-1.3-0.1-2.6-0.4-3.9c-0.1-0.7-0.4-1.3-0.7-1.9c-0.4-0.6-1.1-1-1.8-1c-0.3,0-0.6,0.2-0.7,0.5
		c0,0,0,0,0,0c-0.1,0.3-0.1,0.7-0.1,1C-96.4,430.1-96.4,432.4-96.4,434.6L-96.4,434.6L-96.4,434.6z M-96,413.4L-96,413.4
		c0,1.4,0,2.9,0,4.3c0,0.3,0,0.6,0.1,0.8c0.1,0.3,0.3,0.6,0.7,0.6c0.9,0.2,1.9-0.4,2.1-1.4c0.3-1.1,0.4-2.2,0.5-3.3
		c0-0.6,0-1.1,0.1-1.7c0.1-1.1,0.1-2.3-0.2-3.4c-0.1-0.9-0.8-1.5-1.6-1.6c-0.4,0-0.7,0-1.1,0.1c-0.2,0-0.4,0.2-0.5,0.4
		c0,0.2,0,0.4,0,0.6C-96,410.5-96,411.9-96,413.4L-96,413.4z"/>
	<path class="st1" d="M-66.7,443c-0.8,0-1.6,0-2.5,0c-0.4,0-0.7-0.2-0.8-0.5c-0.3-0.9-0.6-1.9-0.8-2.8c-0.2-1.1-0.4-2.2-0.6-3.4
		c0-0.2-0.1-0.4-0.1-0.6c0-0.3-0.3-0.4-0.5-0.4H-74c-0.3,0-0.6,0.2-0.6,0.4c0,0,0,0,0,0.1c-0.2,1.2-0.4,2.4-0.6,3.6
		s-0.4,2.1-0.6,3.1c0,0.4-0.4,0.6-0.7,0.6c0,0,0,0,0,0h-5.7c-0.1,0-0.3,0-0.4,0c-0.3,0-0.4-0.3-0.4-0.5c0-0.2,0-0.3,0-0.5
		c0.2-1,0.4-2,0.5-3c0.2-1.3,0.4-2.6,0.6-3.9c0.3-1.7,0.5-3.4,0.8-5c0.3-1.7,0.5-3.4,0.8-5.1c0.2-1.2,0.4-2.5,0.6-3.7l0.7-3.8
		c0.3-1.5,0.5-3,0.8-4.5c0.3-1.5,0.6-3.2,0.9-4.8c0.3-1.6,0.7-3.4,1.1-5.1c0-0.5,0.4-0.9,0.9-0.9c0.1,0,0.2,0,0.3,0c1.3,0,2.6,0,4,0
		c0.7,0,0.8,0.1,1,0.8c0.5,2,0.8,4,1.2,5.9c0.2,1.2,0.5,2.4,0.7,3.7c0.3,1.6,0.5,3.3,0.8,4.9c0.2,1.3,0.5,2.5,0.6,3.8
		c0.2,1.3,0.4,2.3,0.6,3.5c0.2,1.2,0.3,2.2,0.5,3.3l0.7,4.3c0.3,1.7,0.6,3.5,0.8,5.2c0.2,1.7,0.5,3.4,0.7,5c0,0.5,0,0.6-0.5,0.6
		L-66.7,443L-66.7,443z M-74.1,427.9c0,0.2,0,0.5,0,0.7c-0.1,0.2,0,0.4,0.2,0.5c0.1,0,0.1,0,0.2,0c0.4,0,0.7,0,1.1,0
		c0.5,0,0.6-0.2,0.5-0.7c-0.2-1.5-0.4-3.1-0.6-4.6c0-0.3-0.1-0.6-0.3-0.7c-0.3,0-0.4,0.4-0.5,0.7C-73.9,425.2-74,426.5-74.1,427.9z"
		/>
	<path class="st1" d="M-40.7,421.4c0-4.1,0-7.4,0-10.7c0-2.5,0.8-5,2.3-7c1.3-1.8,3.3-2.8,5.5-2.8c1.5-0.1,3.1,0.3,4.5,1
		c1.1,0.6,1.9,1.4,2.6,2.5c1,1.7,1.5,3.6,1.6,5.5c0.1,1.4,0.1,2.7,0,4.1c0,0.2,0,0.4-0.1,0.7c-0.1,0.3-0.4,0.6-0.8,0.6
		c-1.3,0.1-2.5,0.1-3.8,0h-0.9c-0.4,0.1-0.9-0.2-1-0.6c0-0.1,0-0.2,0-0.4c0-1,0-2,0-3c0-0.8-0.2-1.6-0.6-2.3c-0.2-0.4-0.6-0.6-1-0.7
		c-0.5-0.1-1,0.2-1.2,0.6c-0.4,0.7-0.6,1.4-0.7,2.1c-0.3,1.8-0.4,3.6-0.4,5.4c0,5,0,9.9,0,14.9c0,0.9,0.1,1.8,0.4,2.7
		c0.2,0.6,0.5,1.1,0.8,1.5c0.5,0.5,1.2,0.5,1.7,0c0,0,0,0,0,0c0.3-0.3,0.5-0.6,0.7-1c0.2-0.6,0.3-1.3,0.4-1.9
		c0.1-1.4,0.1-2.8,0.1-4.3c0-0.2,0-0.3,0-0.5c0-0.3,0.3-0.5,0.6-0.5c0,0,0,0,0,0c1.2-0.1,2.5,0,3.7,0c0.5,0,1,0,1.6,0
		c0.3,0,0.6,0.3,0.6,0.6c0,0.2,0,0.4,0,0.6c0,1.1,0,2.3,0,3.4c0,1.4-0.1,2.9-0.5,4.3c-0.3,1-0.7,2-1.3,3c-0.4,0.7-0.9,1.4-1.5,2
		c-1.1,1.1-2.6,1.8-4.1,1.9c-1.5,0.2-3.1,0-4.6-0.6c-1.3-0.6-2.4-1.6-3.1-2.8c-0.9-1.7-1.4-3.6-1.5-5.5
		C-40.9,429.6-40.6,425.1-40.7,421.4z"/>
	<path class="st1" d="M-22.1,422.3c0-6.4,0-12.8,0-19.2c0-0.1,0-0.2,0-0.3c-0.1-0.3,0.1-0.6,0.4-0.7c0.1,0,0.1,0,0.2,0
		c0.2,0,0.4,0,0.7,0c2.7,0,5.3,0,8,0l3.6,0.1c0.4-0.1,0.8,0.1,0.9,0.5c0,0.1,0,0.3,0,0.4c0,1.6,0,3.1,0,4.7c0,1.2,0,1.2-1.3,1.2
		h-4.7c-0.2,0-0.4,0-0.5,0c-0.4,0-0.6,0.3-0.6,0.7c-0.1,2.5-0.1,4.9-0.1,7.4c-0.1,0.5,0.2,0.9,0.7,1c0.1,0,0.1,0,0.2,0
		c0.3,0,0.6,0,0.8,0h3.5c0.6,0,0.6,0,0.7,0.6c0.1,0.7,0.1,1.5,0,2.2c-0.1,1.2-0.2,2.5-0.2,3.7c0,0.2,0,0.4,0,0.7
		c0,0.7-0.2,0.8-0.9,0.8h-4c-0.4-0.1-0.8,0.1-0.9,0.5c0,0.1,0,0.2,0,0.3c-0.2,2.2-0.1,4.4-0.1,6.7c0,0.3,0,0.6,0.1,0.9
		c0,0.5,0.4,1,0.9,1c0,0,0.1,0,0.1,0h0.4c1.6-0.2,3.2,0,4.9-0.1h0.1c0.4-0.1,0.8,0.2,0.8,0.6c0,0.1,0,0.2,0,0.3c0,1.6,0,3.2,0,4.9
		c0,0.3,0,0.6,0,0.9c0,0.3-0.2,0.6-0.4,0.6c-0.5,0.2-1.1,0.3-1.7,0.3c-3,0.1-6,0.1-9,0c-0.6,0-1.2-0.1-1.8-0.1
		c-0.4,0-0.7-0.2-0.8-0.6c0-0.3,0-0.5,0-0.8C-22.1,435-22.1,428.7-22.1,422.3L-22.1,422.3L-22.1,422.3z"/>
	<path class="st1" d="M-119.3,422.1c0-6.3,0-12.6,0-18.9c0-0.9,0.1-1.3,1.2-1.3c4.4,0,8.8,0,13.2,0h0.4c0.3,0,0.6,0.2,0.6,0.5
		c0,0.1,0,0.1,0,0.2c0,1,0.1,2.1,0,3.1c0,0.5-0.1,1,0,1.5c0,0.7-0.4,1.2-1.1,1.3c-0.1,0-0.1,0-0.2,0h-5.8c-0.6,0-0.7,0.1-0.7,0.8
		c0,2.8,0,5.7,0,8.5c0,0.7,0.2,0.9,1,0.9c1.4,0,2.8,0,4.3-0.1c0.2,0,0.4,0,0.5,0c0.3,0,0.6,0.2,0.6,0.6c0,0,0,0,0,0
		c0,0.2,0,0.4,0,0.6c0,1.7,0,3.5,0,5.2c0,0.2,0,0.5-0.1,0.7c0,0.3-0.2,0.5-0.5,0.6c-0.1,0-0.1,0-0.2,0h-4.8c-0.7,0-0.8,0.2-0.8,0.8
		c-0.1,2.2-0.1,4.5,0,6.7c0.1,2.5,0,5,0.1,7.4c0,0.8-0.1,0.9-0.9,1c-2,0.1-4,0.1-5.9,0c-0.7,0-0.9-0.2-0.9-0.9
		C-119.3,434.9-119.3,428.5-119.3,422.1L-119.3,422.1L-119.3,422.1z"/>
	<path class="st1" d="M-87.8,373.2c0,6.7,0,13.5,0,20.2c0,1.6-0.5,1.9-1.8,2c-0.9,0.1-1.8,0.1-2.6,0l-1.8-0.1
		c-0.7,0-1.4-0.5-1.4-1.2c0,0,0,0,0,0c0-0.3,0-0.5,0-0.8c0-1.5,0-3,0-4.6c0-11.8,0-23.5,0-35.3c0-0.5,0-0.9,0-1.4
		c0-0.5,0.4-0.9,0.9-1c0.1,0,0.2,0,0.3,0c1.7,0,3.5,0.1,5.2,0.1c0.6,0,1.2,0.4,1.2,1c0,0,0,0.1,0,0.1c0,0.3,0,0.6,0,0.9
		C-87.8,359.9-87.8,366.5-87.8,373.2L-87.8,373.2L-87.8,373.2z"/>
</g>
</svg>
