<svg id="Calque_1" data-name="Calque 1" xmlns="http://www.w3.org/2000/svg" viewBox="0 0 240 240"><defs><style>.cls-1{fill:#174d91;}</style></defs><title>pictos_JRS</title><path class="cls-1" d="M93.78,142.1v-0.35a1.23,1.23,0,0,1,1.13-1.39l1.61-.22v-26.4L95,113.22a1.51,1.51,0,0,1-1.13-1.65V111h8.28v29.19l1,0.17a1.21,1.21,0,0,1,1.13,1.44v0.35H93.78V142.1m9.67-10.32,4.84-4.88a4.46,4.46,0,0,0,1.31-1.92q0.13-.61-1.18-0.74l-0.61,0a1.39,1.39,0,0,1-1.35-1.66v-0.35h9.93v0.35a1.44,1.44,0,0,1-1.35,1.61l-1.83.22q-0.7.61-2.44,2.35a26.81,26.81,0,0,0-2.31,2.44l7.06,10.93,1,0.17a1.26,1.26,0,0,1,1.22,1.39V142h-7.93l-6.36-10.28v0Z"/><path class="cls-1" d="M119.95,142.1l0.09-.35a1.31,1.31,0,0,1,1.26-1.39l1.57-.17V124.72l-1.65-.35a1.41,1.41,0,0,1-1.18-1.66v-0.35h8.36v17.86l1.83,0.17a1.2,1.2,0,0,1,1.09,1.48v0.35H119.9v0l0-.09m2.53-27.36a3,3,0,1,1,3,3A3,3,0,0,1,122.47,114.74Z"/><path class="cls-1" d="M134,142.1v-0.35a1.21,1.21,0,0,1,1.18-1.44l1.66-.17V124.68l-1.57-.35a1.46,1.46,0,0,1-1.22-1.66v-0.35h7.84a40.23,40.23,0,0,1,.52,6.45,10.81,10.81,0,0,1,2.44-5,5.84,5.84,0,0,1,4.27-2h0.18v1.66q0,2.79-.83,3.66a4,4,0,0,1-3,.78,2.65,2.65,0,0,0-2.44.78q-0.65.87-.61,3.83V140l3,0.26a1.17,1.17,0,0,1,1.13,1.48v0.35H134v0l0,0.09"/><path class="cls-1" d="M154.53,124.46a11.65,11.65,0,0,1,7.75-2.74,10.69,10.69,0,0,1,7.4,2.57q2.88,2.61,3,7.62a10.49,10.49,0,0,1-3.14,7.88,11.84,11.84,0,0,1-15.16.17q-3-2.66-3-7.71a10.06,10.06,0,0,1,3.22-7.8m7.58,16.77a3.32,3.32,0,0,0,3.31-1.92q1-2,1-7.23t-1-7.14a3.35,3.35,0,0,0-3.31-1.83,3.38,3.38,0,0,0-3.35,1.83q-1,1.92-1,7.14t1,7.23a3.39,3.39,0,0,0,3.44,1.92v0Z"/><path class="cls-1" d="M174.44,142.1v-0.35a1.27,1.27,0,0,1,1.26-1.39l1.57-.17V124.72l-1.57-.35a1.46,1.46,0,0,1-1.22-1.66v-0.35h7.84a45,45,0,0,1,.48,4.88,8.41,8.41,0,0,1,2.53-3.79,7,7,0,0,1,4.49-1.7q6.1,0,6.19,6.62v11.76l1.7,0.17a1.27,1.27,0,0,1,1.26,1.39v0.35H188v-0.35a1.32,1.32,0,0,1,1.26-1.44l1.22-.17V129.21q-0.09-4.44-3-4.23a4.05,4.05,0,0,0-3,1.57,7.53,7.53,0,0,0-1.44,4.79v8.8l1.48,0.17a1.19,1.19,0,0,1,1.22,1.39v0.35H174.52v0l-0.09.09"/><path class="cls-1" d="M65.44,133.6c-0.86-1.2-2.52-2-5.07-2.45a36.74,36.74,0,0,0-6.22-.45c-1.59,0-3,.07-3.92.12l-1.21.08-0.34,0-0.27,0a3.55,3.55,0,0,0-.71.13l0,0a4.19,4.19,0,0,0-2.57,2.68l-0.19.57,0,0.07a7.7,7.7,0,0,0-.17.81,8.16,8.16,0,0,0-.1,1.3v16.71L41,155.61v5h20.3v-5l-3.66-2.34v-9.31c0.85,1.25,1.79,2.61,2.76,4,2.68,3.9,5.73,8.32,7.94,11.83l0.5,0.79,13.89,0v-5.05l-4-2.44c-1.46-2.25-11-16.21-13.35-19.54m-17.45,3A4.77,4.77,0,0,1,48,135.8c0-.15.05-0.29,0.08-0.41l0.13-.41a1.46,1.46,0,0,1,.38-0.61,10.69,10.69,0,0,1,3.56,2.24c0.51,0.51,1,1.11,1.59,1.76l0.49,0.66v16.06l3.32,2.13H44.73L48,155.1V136.56Zm7.07-1.92-0.59-.54h0c7.11,0,8.19,1.42,8.24,1.48,2.51,3.49,13.39,19.62,13.46,19.72l0.21,0.32,2.61,1.6-8.23,0c-2-3.15-9.06-13.62-13.13-19.32-0.49-.69-0.93-1.28-1.3-1.77A13.34,13.34,0,0,0,55.05,134.64Z"/><path class="cls-1" d="M72.81,97.25l-10.59,0v5.05L65.07,104l-0.12.18c-1,1.56-2.76,4.08-4.61,6.75l-2.67,3.87V79.37H41v5l3.57,2.34v35.65a8.16,8.16,0,0,0,.1,1.3,7.72,7.72,0,0,0,.18.82l0.18,0.57,0,0.07a4.19,4.19,0,0,0,2.56,2.67l0.06,0a3.12,3.12,0,0,0,.65.12l0.26,0,0.83,0c0.94,0,1.9.06,2.84,0.06a46.13,46.13,0,0,0,7.37-.51c3.19-.53,5.24-1.47,6.26-2.88,2.42-3.35,12-17.61,13.48-20l4-2.44V97.22l-10.58,0m-24.67,26.3c0-.14-0.07-0.28-0.09-0.43a4.78,4.78,0,0,1-.06-0.76V84.9l-3.26-2.14h9.56v36.91A19.73,19.73,0,0,1,50,124a5.94,5.94,0,0,1-1.39.5,1.71,1.71,0,0,1-.31-0.52Zm7,0.43,0.48-.51a21.93,21.93,0,0,0,1.48-1.87l0.53-.74C61,116.12,67,107.26,67.8,106.05l2-3.08L66,100.62l6.81,0,6.8,0L77,102.23l-0.21.32c-0.09.13-11.08,16.66-13.6,20.14-0.57.79-3.19,1.74-8.69,1.94Z"/></svg>