<svg id="Calque_1" data-name="Calque 1" xmlns="http://www.w3.org/2000/svg" viewBox="0 0 240 240"><defs><style>.cls-1{fill:#00a89e;fill-rule:evenodd;}.cls-2,.cls-3{fill:none;stroke:#00a89e;stroke-miterlimit:10;}.cls-2{stroke-width:1.65px;}.cls-3{stroke-width:0.8px;}</style></defs><title>pictos_JRS</title><path class="cls-1" d="M123.1,135.71L119.69,95,108,122.87l15.14,12.84M92.83,147.94c2.44-7.79,29.72-74.66,30.25-58.73s5.08,50.7,2.73,52.27c-2,1.35-14.13-12.11-20.26-15-1.07-.14-6.42,17-11.39,26.23C93.38,154.15,91.44,152.34,92.83,147.94Z"/><path class="cls-1" d="M133.16,112c4.2,1.24.74,4-1.43,3.9-2.39-.08-23.87,6.87-27.62,7.85s-2.76-3.53-1.42-4,26.27-9,30.47-7.72"/><path class="cls-2" d="M64.42,187.47c30.66-28.62,86.78-48.59,131.2-47.62"/><path class="cls-1" d="M156.27,84.84c0.34,0.72.83,6.07-2.71,5.19-10.39-2.59-20.77,10.82-15.63,15.21,3.19,2.73,28.12,2.6,22.58,15.56S134,141,130.47,142.15s-7-2.81-6.21-3.93,9.31-1.06,20.53-9.2,16.56-12.19,6.31-15.07c-14.64-4.11-23.76-4.64-19.5-16.21,3.71-10.08,22.84-16.86,24.68-12.9"/><path class="cls-1" d="M160.34,77.82c-1.18-2.14,6.81-2.43,6.81-2.43s-2.4,73.31.16,75.28-7.94,4.72-7.69,2.57c0.34-2.86,3.19-70.94.71-75.42"/><path class="cls-1" d="M156,92.22c-1.39-4.73,35.37-24.46,41.11-.81,5.93,24.43-33.44,35.89-37.74,33.46-0.36-.2-0.76-5.65,1-5.95,4.16-.73,14.86.52,21.83-5,7.83-6.16,11.9-16.16,7.88-24s-11.08-7.46-17-6.23c-9.37,2-15.66,13.21-17,8.48"/><path class="cls-1" d="M89.5,112.77c4.08-3.71,12.35-13.4,8.42-17.77C87.51,83.43,36.86,125.59,48,147.74s53.77-9.85,56.34-11.07,3.75-2,3.12,1.94-46.08,33.42-60.71,15c-22.09-27.81,43.31-78.05,53.92-60.21,5.07,8.53-4.91,19.79-9.15,22.48-2.43,1.54-4.76-.64-2-3.12"/><line class="cls-3" x1="53.92" y1="52.58" x2="181.4" y2="52.58"/><line class="cls-3" x1="53.92" y1="178.85" x2="181.4" y2="178.85"/><line class="cls-3" x1="54.64" y1="52.53" x2="54.64" y2="106.28"/><line class="cls-3" x1="180.69" y1="53.11" x2="180.69" y2="73.56"/><line class="cls-3" x1="180.69" y1="146.15" x2="180.69" y2="178.87"/><line class="cls-3" x1="54.62" y1="163.33" x2="54.62" y2="178.25"/></svg>