<svg id="Calque_1" data-name="Calque 1" xmlns="http://www.w3.org/2000/svg" viewBox="0 0 240 240"><defs><style>.cls-1{fill:#171717;}.cls-2{fill:#ef7834;}</style></defs><title>pictos_JRS</title><path class="cls-1" d="M90.94,123.48a1,1,0,0,1-.33-0.53,2.51,2.51,0,0,0-.67-1.47,0.23,0.23,0,0,1-.06-0.28c0.15-.72-0.42-1.12-0.73-1.64a2.31,2.31,0,0,0,0,1,1.76,1.76,0,0,1,0,.55,3.48,3.48,0,0,1-.32,1.28,0.16,0.16,0,0,0,.08.24,0.21,0.21,0,0,0,.2-0.12A1,1,0,0,1,89.7,122a10.22,10.22,0,0,0-1.78,3.85,0.65,0.65,0,0,1-.56-0.34,0.12,0.12,0,0,0-.17-0.08c-0.21.07-.25,0-0.2-0.19a0.34,0.34,0,0,0-.17-0.35,1.9,1.9,0,0,0-1.21-.61,0.44,0.44,0,0,1-.48-0.37,0.46,0.46,0,0,0-.31-0.35c-0.55-.26-1.1-0.5-1.64-0.77a0.27,0.27,0,0,0-.4.11,0.26,0.26,0,0,0,0,.42,7.54,7.54,0,0,0,1.63,1.08,1.1,1.1,0,0,1,.49.54,0.55,0.55,0,0,0,.55.4,0.67,0.67,0,0,1,.52.37c0.2,0.27.37,0.33,0.6,0,0.09-.11.27-0.37,0.31,0.06,0,0.16.2,0.1,0.31,0.11s0.29,0,.29.21,0.16,0.17.28,0.09a3.12,3.12,0,0,0,1.1-1.37,0.81,0.81,0,0,0,.15-0.38c0-.09,0-0.22.12-0.22a0.2,0.2,0,0,1,.17.25c0,0.5,0,1,0,1.49a7.81,7.81,0,0,1-.45,2.26c0,0.11-.12.28,0,0.34s0.23-.1.31-0.2a10.05,10.05,0,0,0,1.53-2.55c0.14,0.23.12,0.32-.12,0.78a18.11,18.11,0,0,1-1.38,2.09,1.07,1.07,0,0,0-.25,1A3.28,3.28,0,0,1,89,130.8a0.49,0.49,0,0,1-.21.45c0-.55,0-1.05,0-1.55,0-.11.1-0.27-0.06-0.33a0.29,0.29,0,0,0-.32.2,8,8,0,0,0-.63,1.3,2,2,0,0,0,.14,2.05c0.09,0.14,0,.22-0.1.32a11.74,11.74,0,0,1-1.29,1.5,1.12,1.12,0,0,0-.37.58,0.2,0.2,0,0,0,.25-0.1,13.85,13.85,0,0,0,1.64-1.91,0.32,0.32,0,0,0,.12-0.3,0.39,0.39,0,0,1,.17-0.53c0.31-.2.05-0.72,0.53-0.84a1.61,1.61,0,0,0,.6-0.83A7.64,7.64,0,0,0,91,127.44c0.08-.29.11-0.6,0.17-0.89,0-.1,0-0.24.15-0.23a0.22,0.22,0,0,1,.22.28,10.71,10.71,0,0,1-.28,1.16,19.8,19.8,0,0,1-1.63,3.63,18.47,18.47,0,0,1-5.39,6,21.1,21.1,0,0,1-4.22,2.25,15.33,15.33,0,0,1-2.4.77,18.41,18.41,0,0,1-5.83.43,15.71,15.71,0,0,1-3.42-.6,23.53,23.53,0,0,1-3.61-1.52,18.38,18.38,0,0,1-7.13-6.52c-0.44-.69-0.79-1.44-1.16-2.18a25.76,25.76,0,0,1-1.17-3.31,0.34,0.34,0,0,1,0-.2,7.14,7.14,0,0,0,.26-2.07,4.36,4.36,0,0,1,.12,1.72,1.71,1.71,0,0,0,.05.78,5.58,5.58,0,0,0,.69,1.79,5.33,5.33,0,0,0,1.52,1.51,0.31,0.31,0,0,1,.1.06,6.3,6.3,0,0,0,3.25,1.94,11.74,11.74,0,0,0,1.88.57,18,18,0,0,0,2.48.36,0.32,0.32,0,0,0,.4-0.4,2.6,2.6,0,0,0-.52-1.45,0.71,0.71,0,0,1,0-.78,1,1,0,0,0,.14-1.11c-0.06-.1-0.15-0.43.21-0.22a0.13,0.13,0,0,0,.2-0.08A2.31,2.31,0,0,1,67,128.2a0.34,0.34,0,0,0,.2-0.29c-0.06-.17-0.23-0.08-0.36-0.09s-0.47,0-.7,0-0.47.06-.44,0.4a2.09,2.09,0,0,1,0,.4,0.27,0.27,0,0,1-.15-0.29c0-.48-0.25-0.55-0.62-0.5a21.11,21.11,0,0,1-2.53-.23c-0.31,0-.62-0.19-1-0.19a0.23,0.23,0,0,0-.27.26,13.21,13.21,0,0,0,.29,2.65,2.39,2.39,0,0,0,.33,1.44c0.06,0.07.07,0.25-.06,0.28s-0.15-.14-0.18-0.25a7.83,7.83,0,0,0-.35-1.63,0.67,0.67,0,0,1,0-.28,5.17,5.17,0,0,0-.17-1.55,1.87,1.87,0,0,1,0-.7,0.33,0.33,0,0,0-.34-0.41,10.32,10.32,0,0,1-1.31-.49,0.44,0.44,0,0,1-.12-0.14,3.41,3.41,0,0,1,1,.24,2.32,2.32,0,0,1,.27.09c0.45,0.11.48,0.05,0.48-.39a24,24,0,0,1,.14-4.36,3.8,3.8,0,0,0,.05-0.53c0-.45-0.07-0.53-0.54-0.54l-0.14,0c-0.43-.5-1.1-0.37-1.58-0.7-0.28-.19-0.58.07-0.63,0.53-0.07.8-.24,1.59-0.38,2.38-0.11.56,0,1.16-.11,1.73a0.51,0.51,0,0,0,.19.71c0.06,0,.13.13,0,0.2a0.23,0.23,0,0,1-.3,0,10.39,10.39,0,0,0-1.47-1.31,2.4,2.4,0,0,1,.93.49,0.47,0.47,0,0,0,.44.17c0.19-.09.07-0.29,0.07-0.45a11.26,11.26,0,0,1,.13-1.85,10.75,10.75,0,0,0,.26-1.65,5.2,5.2,0,0,1,.26-0.81,0.53,0.53,0,0,0-.25-0.62,2.86,2.86,0,0,1-1.09-1,0.24,0.24,0,0,0-.24-0.13c-0.14,0-.08.15-0.12,0.23a3.21,3.21,0,0,1-.33.86,0.51,0.51,0,0,0-.05.4,0.43,0.43,0,0,1-.15.45,0.42,0.42,0,0,1,0-.5,7.8,7.8,0,0,0,.47-1.45c0.09-.23.12-0.47-0.23-0.52-0.17,0-.12-0.15-0.08-0.26a0.21,0.21,0,0,0-.08-0.29c-0.15-.08-0.2.07-0.29,0.15a2.71,2.71,0,0,0-.63,1.43,7.2,7.2,0,0,0-.2,2,1.33,1.33,0,0,0,.14.8,0.21,0.21,0,0,1,0,.3,0.21,0.21,0,0,1-.31,0c-0.16-.12-0.21.1-0.24,0.2-0.14.52-.26,1-0.39,1.56q-0.45,1.76-.92,3.51-0.37,1.39-.74,2.78c-0.46,1.68-.93,3.36-1.38,5-0.31,1.14-.65,2.28-0.89,3.43a1.22,1.22,0,0,1-1,1.06c-0.82.21-1.62,0.49-2.43,0.76a2.81,2.81,0,0,1-.78.09,9.93,9.93,0,0,1-5.19-1.21,3.39,3.39,0,0,1-.87-0.69,0.43,0.43,0,0,1-.12-0.45c0.38-1.32.77-2.63,1.15-3.95,0.32-1.12.6-2.24,0.92-3.36,0.37-1.32.75-2.64,1.12-4,0.25-.9.5-1.8,0.75-2.69,0.31-1.1.62-2.19,0.92-3.29s0.61-2.3.93-3.45c0.23-.84.49-1.68,0.73-2.53s0.47-1.69.7-2.54c0.32-1.15.65-2.3,1-3.45s0.61-2.25.92-3.37c0.24-.87.51-1.74,0.75-2.61s0.53-1.87.76-2.82A0.74,0.74,0,0,1,51,99.89c0.79-.18,1.54-0.5,2.32-0.74a0.4,0.4,0,0,1,.39,0,6.61,6.61,0,0,0,1.94.66l2.61,0.76a15.44,15.44,0,0,1,1.53.48,0.72,0.72,0,0,0,.52-0.07c0.25-.09.35,0,0.28,0.25l-0.8,2.94c-0.24.89-.48,1.77-0.74,2.66-0.34,1.21-.6,2.45-1,3.64l0,0.16c0,0.09-.08.21,0,0.26s0.16-.07.2-0.15a12,12,0,0,1,2.38-2.78,13.56,13.56,0,0,1,3.49-2.53c0.21-.1.43-0.22,0.64-0.34a1.39,1.39,0,0,1,1.9.07,0.25,0.25,0,0,1-.34,0,1.15,1.15,0,0,0-1.07,0c-0.06,0-.16,0-0.14.11a0.16,0.16,0,0,0,.18.13,5.44,5.44,0,0,1,1.4.09c0.07,0,.15,0,0.14-0.1,0-.26.12-0.19,0.25-0.1s0.25,0.14.33,0-0.08-.19-0.13-0.27a0.9,0.9,0,0,0-.51-0.45c-0.1,0-.27.07-0.27-0.14a0.25,0.25,0,0,1,.2-0.27,0.3,0.3,0,0,1,.41.16,3,3,0,0,0,.38.68c0.05,0.08,0,.26.19,0.21a0.22,0.22,0,0,0,.11-0.28,0.19,0.19,0,0,1,0-.19c0.23,0.37.24,0.36,0.49,0s0.36-.45.53-0.68c0.06-.08.12-0.17,0-0.26a0.18,0.18,0,0,0-.23,0,0.75,0.75,0,0,0-.48.42c0,0.07-.09.19-0.16,0.13A1.84,1.84,0,0,1,67.6,104c-0.06-.09.05-0.14,0.13-0.16a9.25,9.25,0,0,1,1.47-.37,4.11,4.11,0,0,0,1-.28,0.73,0.73,0,0,1,.55,0,0.25,0.25,0,0,0,0,.06,0.56,0.56,0,0,0-.26.18,0.1,0.1,0,0,0,.09.12c0.13,0,.3,0,0.36-0.13A0.58,0.58,0,0,1,71.5,103a16.68,16.68,0,0,1,4.16,0,22.35,22.35,0,0,1,3,.62,18.66,18.66,0,0,1,4.61,2.17,17.51,17.51,0,0,1,7.88,10.74,31.34,31.34,0,0,1,.71,3.22,17.17,17.17,0,0,1,.17,3.58,17.83,17.83,0,0,1-.27,2.58c0,0.07,0,.14,0,0.2a0.17,0.17,0,0,1-.15.17c-0.14,0-.11-0.14-0.1-0.22a13.82,13.82,0,0,0,.26-1.62,1.29,1.29,0,0,0-.08-0.6,0.55,0.55,0,0,1-.05-0.36,10.44,10.44,0,0,0-.44-5.21c0-.11,0-0.29-0.2-0.27s-0.08.19-.09,0.3a4.89,4.89,0,0,1-.36,1.55c0,0.08-.06.12-0.14,0.08s0-.09,0-0.14a6,6,0,0,0,.45-2,1,1,0,0,0-.21-0.7,6,6,0,0,1-.8-1.11,0.17,0.17,0,0,0-.17.19,0.28,0.28,0,0,1-.45.23c-0.15-.07-0.35-0.1-0.33.13a2,2,0,0,1-.33,1,0.43,0.43,0,0,0,.06.45,22.68,22.68,0,0,1,1.23,2.2c0.18,0.4.31,0.14,0.43,0.14a1.69,1.69,0,0,0,.14,1.23A4.08,4.08,0,0,1,90.94,123.48ZM79.5,116.23a0.77,0.77,0,0,0-.13-0.63,0.15,0.15,0,0,1,0-.22c0.06-.06.12-0.14,0-0.2a0.17,0.17,0,0,0-.24.08c-0.14.22-.26,0.45-0.41,0.66s-0.15.2,0,.32a0.29,0.29,0,0,0,.37.07c0.11-.06.21-0.21,0.37-0.08a1.53,1.53,0,0,1-.9.74,0.45,0.45,0,0,0-.35.76c0.09,0.15.17,0.31,0.27,0.46a0.59,0.59,0,0,0,.32.43,0.64,0.64,0,0,0,.4-0.43c0.08-.11.14-0.23,0.22-0.35a0.45,0.45,0,0,1,.38-0.2,4.4,4.4,0,0,0,1.38-.59,0.46,0.46,0,0,0-.29-0.83ZM75,121.4c-0.29-.08-0.19.24-0.4,0.36,0-.77-0.6-0.59-1-0.76-0.13-.05-0.28,0-0.4-0.1a1.08,1.08,0,0,1-.54-0.36c-0.33-.51-0.45-0.5-0.83,0l-0.14.2c-0.17.24-.32,0.49-0.69,0.29-0.19-.1-0.61.24-0.52,0.38,0.36,0.49-.06.68-0.33,0.92a0.68,0.68,0,0,0-.27.87,0.6,0.6,0,0,1-.25.88,1.4,1.4,0,0,0-.19.21,2.38,2.38,0,0,1-1,.56,0.51,0.51,0,0,1-.52-0.25,0.71,0.71,0,0,0-.35-0.1,0.7,0.7,0,0,1-.63-1,1.44,1.44,0,0,0-.09-1.31c-0.2-.35-0.05-0.39.24-0.42,0.55,0,1.09-.12,1.64-0.16,0.28,0,.28-0.22.32-0.4s0-.22-0.11-0.22a1.91,1.91,0,0,0-.8.08,2,2,0,0,1-1,.15,1.66,1.66,0,0,0-.49,0,6.39,6.39,0,0,1-2,.2,14.45,14.45,0,0,1-3-.24c-0.13,0-.28,0-0.28.15,0,0.43-.23.82-0.22,1.26,0,1.39-.17,2.78-0.06,4.17a0.4,0.4,0,0,0,.34.41c0.59,0.19,1.21.2,1.81,0.35a7,7,0,0,0,2,0c0.15,0,.33-0.07.19-0.29a2.49,2.49,0,0,1-.15-1.4,0.28,0.28,0,0,1,.17.24,4.32,4.32,0,0,1,0,1,0.44,0.44,0,0,0,.53.51c0.34,0,.69,0,1,0s0.31-.12.25-0.34a1,1,0,0,1,.44-1.15,0.75,0.75,0,0,0,.42-0.77c0-.21.09-0.26,0.29-0.16a1.55,1.55,0,0,0,1.31-.17,0.44,0.44,0,0,0,.24-0.68A0.24,0.24,0,0,1,70,124a0.1,0.1,0,0,1,.14.1c0,0.5.27,0.27,0.5,0.18s0.41-.15.62-0.23a7.61,7.61,0,0,0,1.93-.79c0.64-.43.39,0.46,0.71,0.57a0.2,0.2,0,0,1,.09.34l0,0c-0.31.29-.07,0.39,0.17,0.47s0.22,0,.32.07a1,1,0,0,0,1-.31c0.22-.16,0-0.42-0.11-0.61a0.14,0.14,0,0,1,0-.08c0-.08-0.05-0.22.09-0.23s0.12,0.1.14,0.17a4.44,4.44,0,0,0,.4,1,0.47,0.47,0,0,0,.58.26,1.67,1.67,0,0,1,.77-0.07,0.35,0.35,0,0,0,.42-0.17,0.33,0.33,0,0,0,0-.42,0.55,0.55,0,0,1,.13-0.8,0.48,0.48,0,0,1,.7-0.07,0.3,0.3,0,0,0,.23.05,16.43,16.43,0,0,1,1.76-.54,0.29,0.29,0,0,0,.16-0.49c-0.36-.44-0.51-1-0.84-1.44-0.15-.2-0.31-0.61-0.67-0.19a0.11,0.11,0,0,1-.18,0c-0.15-.27-0.71-0.14-0.61-0.64L78.37,120c-0.34.15-.37-0.18-0.5-0.33s-0.15-.24-0.29-0.19a0.51,0.51,0,0,0-.38.33c0,0.29,0,.36-0.3.33-0.05,0-.12,0-0.12.06a0.21,0.21,0,0,0,.06.14c0.33,0,.38.41,0.7,0.39a0.13,0.13,0,0,1,.16.14c0,0.12-.12.09-0.19,0.09s-0.21-.08-0.24.06a0.26,0.26,0,0,0,.15.22,1.8,1.8,0,0,1,.17.18,0.17,0.17,0,0,1,0,.22,0.19,0.19,0,0,1-.23,0,0.83,0.83,0,0,1-.28-0.17c-0.54-.55-1.25-0.87-1.76-1.47a0.75,0.75,0,0,0-1.35.22,1.71,1.71,0,0,0-.61-1c-0.08-.07-0.12-0.13-0.21-0.07s-0.13.15,0,.22,0.19,0.16,0,.26-0.11.3,0.06,0.33a0.7,0.7,0,0,1,.56.35,0.2,0.2,0,0,0,.25.09,0.18,0.18,0,0,1,.27.08,0.38,0.38,0,0,0,.43.17l0.62,0c0.1,0,.21,0,0.2.15s-0.1.11-.19,0.1c-0.25,0-.37,0-0.31.32Zm-13.23-3.31a1,1,0,0,0,.11-0.56,4.32,4.32,0,0,1,.34-1.63,3.54,3.54,0,0,0,.16-0.82c0-.2-0.34,0-0.49-0.15a0.7,0.7,0,0,0-.14-0.09,8.93,8.93,0,0,1-1-.28,0.19,0.19,0,0,0-.25.09c-0.25.42-.4,0.88-0.65,1.3a5.22,5.22,0,0,0-.33.87c-0.14.41-.39,0.81-0.48,1.21-0.13.57-.38,1.1-0.46,1.68,0,0.23,0,.31.17,0.39a5.18,5.18,0,0,0,1.83.66c0.62,0,.62.08,0.7-0.55a2.33,2.33,0,0,1,0-.37,6.14,6.14,0,0,1,.43-1.71c0.12,0.65-.29,1.24-0.21,1.89a0.73,0.73,0,0,1-.11.47c-0.27.37,0,.42,0.26,0.5a10.53,10.53,0,0,0,2.91.16,0.23,0.23,0,0,0,.26-0.29c0-.58,0-1.16,0-1.73a0.43,0.43,0,0,1,.19-0.45c0,0.76,0,1.44,0,2.13,0,0.2,0,.33.25,0.33a4.52,4.52,0,0,0,1.19,0c0.74-.2,1.52-0.15,2.25-0.37,0.2-.06.3-0.17,0.15-0.3s-0.3-.77-0.84-0.72a0.24,0.24,0,0,1-.26-0.26c0-.18.19-0.17,0.33-0.16s0.33,0.09.37-.07a1,1,0,0,1,.35-0.43,0.94,0.94,0,0,0,.56-0.73,0.71,0.71,0,0,1,.25-0.26,0.59,0.59,0,0,0,.21-0.24,1,1,0,0,1,.78-1,0.29,0.29,0,0,0,.08-0.51,1,1,0,0,1-.13-1.22c0.08-.14.16-0.08,0.23,0a0.5,0.5,0,0,1,0,.64c-0.16.29,0.06,0.45,0.25,0.61s0.36,0,.47-0.13a0.25,0.25,0,0,1,.38-0.1c0.2,0.1.25,0,.21-0.2s-0.14-.21,0-0.36c0.2,0.31.39,0.34,0.57,0a0.38,0.38,0,0,1,.32-0.14,0.42,0.42,0,0,0,.32-0.68,2,2,0,0,1-.21-0.49c0-.19,0-0.34.27-0.26s0.23,0.17.31,0a0.27,0.27,0,0,0-.19-0.36,0.32,0.32,0,0,1-.27-0.23c0-.43-0.27-0.23-0.45-0.17a0.46,0.46,0,0,1-.44.1c0-.14.31-0.21,0.05-0.4a0.75,0.75,0,0,1-.25-1,1.31,1.31,0,0,0,.08-0.36,0.3,0.3,0,0,0-.09-0.37,0.32,0.32,0,0,0-.37.1c-0.11.1-.28,0.24-0.17,0.37a0.59,0.59,0,0,1-.07.78,0.56,0.56,0,0,0,0,.66,0.58,0.58,0,0,0,.68.25,0.11,0.11,0,0,1,.15,0,0.39,0.39,0,0,1-.15.23,0.85,0.85,0,0,0-.26.64,5.73,5.73,0,0,1,.11.94c0.11,0.5-.19.44-0.45,0.49s-0.41.06-.22-0.25c0-.06.05-0.17,0-0.18a1.43,1.43,0,0,1-.58-0.65c-0.1-.08-0.15-0.27-0.32-0.22a0.4,0.4,0,0,0-.23.32c0,0.17,0,.4-0.3.33s-0.58.07-.59-0.35c0-.11,0-0.17-0.14-0.12a1.34,1.34,0,0,0-.9.48c0,0.07-.09.12-0.15,0.08a0.3,0.3,0,0,1-.15-0.18,1.67,1.67,0,0,1,.19-0.76c0.14,0.36.25,0.7,0.65,0.28a0.31,0.31,0,0,1,.23-0.05c0.14,0,.16,0,0.2-0.16a2.69,2.69,0,0,1,.15-0.84c0.28-.31.33-0.72,0.59-1a1,1,0,0,0,.1-1.08c-0.22-.47-0.41-1-0.65-1.41a25.15,25.15,0,0,1-1.18-2.47,0.55,0.55,0,0,1-.17-0.56,0.18,0.18,0,0,1,.2.12,1.45,1.45,0,0,0,.76,1,0.24,0.24,0,0,1,.11.28,2,2,0,0,0,0,.49c0,0.24.13,0.35,0.38,0.15a1.15,1.15,0,0,1,.51-0.26c0.44-.07.29-0.25,0.11-0.44a5.63,5.63,0,0,1-.69-0.7,0.87,0.87,0,0,1,.65.36c0.55,0.47.54,0.47,1.17,0.11l0,0c0.23-.12.21-0.23,0-0.34a3.91,3.91,0,0,0-1.3-.56,0.18,0.18,0,0,1-.16-0.22c0-.13.15,0,0.24,0a8.8,8.8,0,0,1,1.48.65,0.3,0.3,0,0,0,.44,0c0.12-.15.42-0.19,0.36-0.43a0.53,0.53,0,0,0-.45-0.24,3.18,3.18,0,0,0-1.16-.24,0.67,0.67,0,0,1-.34-0.14,0.42,0.42,0,0,0-.35-0.07,1.11,1.11,0,0,1-.88-0.13,0.42,0.42,0,0,0-.58.2c-0.1.12,0.1,0.27,0.24,0.38a1.57,1.57,0,0,1,.63.72,4.68,4.68,0,0,1-.84-0.62c-0.17-.1-0.32-0.55-0.63-0.14-0.06.07-.16,0-0.21-0.07a0.25,0.25,0,0,0-.32,0,3.72,3.72,0,0,1-1.11.5,2.3,2.3,0,0,1-1.14-.16,0.22,0.22,0,0,1-.12-0.24c0-.14.15-0.08,0.23-0.08s0.24,0,.26-0.07a0.84,0.84,0,0,1,.49-0.5c0.11-.08.09-0.19,0-0.19a2.54,2.54,0,0,0-1.85.26c0.09,0.07.24,0.1,0.21,0.23a0.23,0.23,0,0,1-.26.14,1.36,1.36,0,0,0-.29,0c-0.34.08-.37,0.21-0.15,0.49a0.78,0.78,0,0,0-.25.12c-0.09.1-.5,0.21,0,0.35a0.1,0.1,0,0,1,0,.18,0.56,0.56,0,0,1-.49.3,0.22,0.22,0,0,0-.26.29,2.12,2.12,0,0,1,.08.6,0.29,0.29,0,0,0,.24.25,0.19,0.19,0,0,0,.23-0.13,0.32,0.32,0,0,0-.14-0.32,0.29,0.29,0,0,0-.1-0.07c-0.08,0-.2-0.07-0.12-0.19a0.45,0.45,0,0,1,.33-0.28c0.13,0,.14.11,0.11,0.22a0.11,0.11,0,0,0,.13.15c0.13,0,.08-0.11,0-0.19-0.15-.32.29-0.59,0.07-0.91l0.6-.26c0.15-.07.3-0.14,0.45-0.2s0.38-.09.38,0.09a1.58,1.58,0,0,0,.26.54c0.1,0.29.17,0.21,0.31,0a1.36,1.36,0,0,1,.83-0.06c0.1,0.1,0,.17,0,0.23a0.14,0.14,0,0,0,0,.22,0.17,0.17,0,0,0,.26,0l0.26-.15a6.7,6.7,0,0,1-.36,1.14,0.82,0.82,0,0,0,0,.62c0,0.1.11,0.2,0.2,0.1a0.64,0.64,0,0,1,.65-0.16,0.22,0.22,0,0,0,.26-0.25,3.62,3.62,0,0,0,0-.53,4.77,4.77,0,0,1,.08-1.85,16.75,16.75,0,0,1,.06,1.77,0.64,0.64,0,0,0,.59.77c-0.63.05-.49,0.4-0.43,0.75a4,4,0,0,1,0,1.29,1.38,1.38,0,0,1-.2-1c0-.67,0-0.67-0.64-0.72a0.55,0.55,0,0,1-.2,0,0.43,0.43,0,0,0-.6.27,3.51,3.51,0,0,0-.19.78c0,0.5-.26,1-0.27,1.47l-0.12.07a0.89,0.89,0,0,1,.05-0.73,0.58,0.58,0,0,0,.11-0.39,0.72,0.72,0,0,1,.26-0.74c0.17-.13,0-0.24-0.05-0.35a0.21,0.21,0,0,0-.27-0.18c-0.12,0-.25,0-0.23.22s-0.11.21-.26,0.15a0.27,0.27,0,0,0-.4.06c-0.1.16,0,.25,0.15,0.33s0.27,0.25.12,0.45-0.26.12-.38,0a0.16,0.16,0,0,0-.26,0,0.23,0.23,0,0,0-.09.22c0,0.11.13,0.07,0.21,0.06s0.2-.09.23,0.06-0.1.11-.16,0.16c-0.31.3-.86,0.23-1,0.85a20.06,20.06,0,0,1-.75,1.95,6.13,6.13,0,0,1-.27.92,6,6,0,0,0-.52,1.55C62,117.2,61.82,117.63,61.75,118.09ZM45.53,140.5l0.5,0a0.52,0.52,0,0,0,.58-0.54,6.25,6.25,0,0,1,.28-1c0.23-.8.5-1.6,0.69-2.41s0.5-1.8.72-2.7c0.35-1.41.8-2.79,1.19-4.18,0.3-1.08.54-2.18,0.88-3.25,0.44-1.35.74-2.73,1.16-4.09,0.52-1.69.95-3.41,1.44-5.11s1-3.57,1.48-5.35c0.37-1.34.72-2.68,1.09-4,0.51-1.82,1-3.64,1.56-5.46,0-.13.08-0.29-0.1-0.36a17.06,17.06,0,0,0-1.72-.66,16.88,16.88,0,0,0-4.08-.74,0.26,0.26,0,0,0-.3.21L50.29,103c-0.23.85-.46,1.69-0.7,2.54s-0.5,1.68-.74,2.53c-0.32,1.12-.62,2.25-0.92,3.37s-0.65,2.35-1,3.52c-0.22.82-.48,1.63-0.68,2.46s-0.51,1.79-.77,2.69c-0.39,1.37-.77,2.75-1.16,4.13-0.24.83-.5,1.65-0.72,2.48s-0.39,1.66-.64,2.48c-0.5,1.64-.93,3.29-1.42,4.93-0.43,1.44-.75,2.91-1.22,4.33a0.42,0.42,0,0,0,.17.54c0.17,0.11.32,0.26,0.5,0.36A9.9,9.9,0,0,0,45.53,140.5Zm1.63-.43c-0.06.24,0.07,0.23,0.25,0.18l2-.65a0.35,0.35,0,0,0,.24-0.3c0.4-1.44.82-2.88,1.21-4.33,0.45-1.67.85-3.36,1.34-5,0.36-1.25.62-2.53,1-3.79s0.67-2.46,1-3.7a6.52,6.52,0,0,0,.39-1.33,21.55,21.55,0,0,1,.67-4.26,8.55,8.55,0,0,1,1-2.52,9.28,9.28,0,0,0,1-2c0.16-.52.29-1.05,0.42-1.58,0.23-.93.52-1.85,0.77-2.77q0.48-1.7.94-3.41c0.27-1,.53-2,0.79-2.95,0.06-.24,0-0.34-0.26-0.25s-0.88.2-1.31,0.34a1,1,0,0,0-.92.61c-0.28,1.11-.62,2.21-0.92,3.32-0.25.9-.48,1.8-0.73,2.69-0.37,1.31-.75,2.61-1.11,3.92s-0.63,2.33-1,3.49-0.62,2.13-.92,3.2c-0.24.87-.45,1.75-0.7,2.62s-0.51,1.7-.75,2.56-0.44,1.79-.71,2.66-0.51,1.85-.79,2.77-0.49,1.71-.73,2.57c-0.31,1.14-.62,2.28-0.94,3.41-0.24.86-.5,1.71-0.74,2.57C47.49,138.78,47.33,139.42,47.15,140.07Zm26.23-2.77a0.13,0.13,0,0,1,.11-0.15c0.23-.07.45-0.08,0.23-0.44a1.19,1.19,0,0,1-.24-0.59c0-.25-0.13-0.3-0.31-0.22a7.31,7.31,0,0,1-1.9.35,1.88,1.88,0,0,1-1.44,0c-0.72-.43-1.62-0.56-2.14-1.32a0.24,0.24,0,0,0-.16-0.11c-0.42.17-.46-0.25-0.67-0.41a1.09,1.09,0,0,1-.67-0.88,0.16,0.16,0,0,0-.12-0.1c-0.55,0-1.08-.25-1.61-0.27a11.68,11.68,0,0,0-1.77-.24,0.4,0.4,0,0,1-.16-0.05,0.52,0.52,0,0,0-.61,0c-0.21.22,0.15,0.25,0.19,0.42A9.19,9.19,0,0,0,63,135.5a1.56,1.56,0,0,0,.84,1.1c0.12,0,.13.17,0,0.27s-0.22.07-.31,0a2.37,2.37,0,0,0-.94-0.53c-0.49-.22-1-0.49-1.44-0.73l0-.1a13.13,13.13,0,0,1,1.59.68c0.08,0,.14.1,0.22,0s0-.12,0-0.18l-0.36-.77a10.34,10.34,0,0,1-.79-2,0.73,0.73,0,0,0-.47-0.64,10.24,10.24,0,0,1-2.69-1.35c-0.08-.06-0.15-0.14-0.25,0a0.23,0.23,0,0,0,0,.27A13.09,13.09,0,0,1,59,133a4,4,0,0,0,1.38,2,0.37,0.37,0,0,1,.22.23,0.94,0.94,0,0,0,.53.68,8.2,8.2,0,0,1,1.93,1.47c0.35,0.45.92,0.58,1.29,1a0.23,0.23,0,0,0,.3,0c0.08-.09,0-0.16-0.1-0.23a2.64,2.64,0,0,1-.68-0.92,6.26,6.26,0,0,0,4.84,2.47,1.85,1.85,0,0,0-.46.29,12.86,12.86,0,0,0,2.18.4,0.76,0.76,0,0,0-.62-0.34c-0.27,0-.28,0-0.18-0.3a0.2,0.2,0,0,0-.09-0.21,8.26,8.26,0,0,1-1.15-1.6,0.59,0.59,0,0,0-.69-0.37,8.94,8.94,0,0,1-2-.25c-0.26,0-.56-0.14-0.86-0.17a0.22,0.22,0,0,1-.23-0.22,0.92,0.92,0,0,1,.67.09,0.88,0.88,0,0,0,.47.15,14.72,14.72,0,0,0,2,.18c0.18,0,.28,0,0.18-0.23s-0.11-.16,0-0.2a0.15,0.15,0,0,1,.19.11c0.13,0.3.34,0.56,0.49,0.86a6.37,6.37,0,0,0,1.29,1.75c0.2,0.2.58,0.19,0.66,0.35a1.31,1.31,0,0,0,1.3.61,19.83,19.83,0,0,0,3.59,0,0.2,0.2,0,0,0,.23-0.13,0.22,0.22,0,0,0-.09-0.21,0.9,0.9,0,0,0-.87-0.39c0.3-.3.29-0.29,0.11-0.61a1.44,1.44,0,0,1-.36-0.92,9.91,9.91,0,0,1,.68,1.07,0.46,0.46,0,0,0,.49.29,2.48,2.48,0,0,1,1-.28c0.63-.22,1.3-0.31,1.91-0.57a3.08,3.08,0,0,0,1.27-.64c0.08-.09.24-0.23,0.12-0.3a3,3,0,0,0-.82-0.73c-0.7-.17-1.38-0.45-2.13-0.71,0.17-.08.28-0.13,0.38-0.19a0.47,0.47,0,0,0,.27-0.58,0.45,0.45,0,0,0-.53-0.4,2.19,2.19,0,0,0-1.12.34c-0.13.1-.25,0.09-0.31,0a0.61,0.61,0,0,0-.82-0.27,4.7,4.7,0,0,0-1.11.42,0.16,0.16,0,0,0-.08.26,2.08,2.08,0,0,1,.26.8,0.31,0.31,0,0,0,.37.35,4.7,4.7,0,0,1,1.25-.31,6.34,6.34,0,0,0,1-.31,0.15,0.15,0,0,1,.23.09,0.88,0.88,0,0,1-.64.18,3,3,0,0,1-1.38.38,0.82,0.82,0,0,0-.69.28c-0.07.1-.09,0.14-0.19,0A1.1,1.1,0,0,0,73.38,137.29Zm-1.46-33.16c0.12-.19,0-0.42.14-0.59s0.12-.12,0-0.17a1.09,1.09,0,0,0-.61,0,0.15,0.15,0,0,0-.11.1,0.19,0.19,0,0,0,.09.12c0.09,0.07.32,0.07,0.18,0.27a0.27,0.27,0,0,1-.4,0,0.85,0.85,0,0,0-.68-0.12c-0.2,0-.51.49-0.63-0.09l-0.15,0a2.11,2.11,0,0,0-1.19.93,0.12,0.12,0,0,0,0,.18,0.16,0.16,0,0,0,.15,0,0.8,0.8,0,0,1,1.12.09,0.28,0.28,0,0,0,.37,0c0.23-.21.39-0.19,0.59,0.08-0.13.13-.48-0.1-0.46,0.19s-0.13.23-.27,0.26a0.86,0.86,0,0,0-.51.27c0.52,0,.89.38,1.36,0.37a5.12,5.12,0,0,1,1.24.19c0.18,0,.3-0.21.45,0s0.17,0.2.28,0,0.22-.14.16-0.3a0.28,0.28,0,0,0-.3-0.16,7.35,7.35,0,0,1-1.31-.17,8.5,8.5,0,0,0,1.87-.2,0.09,0.09,0,0,1,.15.06c0,0.11.16,0.21,0,.34a0.77,0.77,0,0,1-.25.21,0.31,0.31,0,0,0-.19.37c0,0.19.16,0.15,0.27,0.17a0.13,0.13,0,0,1,.15.11,0.12,0.12,0,0,1-.13.13c-0.1,0-.25-0.05-0.24.13a0.32,0.32,0,0,0,.32.27,0.67,0.67,0,0,1,.5.16c-0.39.23-.6,0.18-1-0.26-0.09-.1-0.14-0.33-0.33-0.22a0.81,0.81,0,0,0-.39.4c0,0.18.18,0.25,0.34,0.34,0.56,0.33,1.11.69,1.67,1,0.06,0,.1.15,0.2,0.09a0.17,0.17,0,0,0,0-.22,0.75,0.75,0,0,1,.35-0.89c0.19-.12.16-0.3,0-0.32A2.32,2.32,0,0,0,73.9,107a0.15,0.15,0,0,1-.14-0.14,0.31,0.31,0,0,1,.34,0,0.74,0.74,0,0,0,.79.08,0.27,0.27,0,0,0,.29-0.24c0-.15-0.19-0.13-0.31-0.15l-0.36-.09a0.5,0.5,0,0,1-.49-0.43,0.68,0.68,0,0,1,.49-0.43,0.31,0.31,0,0,1,.12,0c0.1,0,.26,0,0.24-0.14s-0.16-.1-0.25-0.08a0.73,0.73,0,0,1-.93-0.16,0.14,0.14,0,0,0-.19,0,0.26,0.26,0,0,1-.38-0.09,0.92,0.92,0,0,0-1-.51,0.12,0.12,0,0,1-.16-0.09,0.16,0.16,0,0,1,.16-0.15c0.13,0,.32,0,0.34-0.22A4,4,0,0,0,71.92,104.13ZM56.73,118.32a0.63,0.63,0,0,0,.09.44,4.69,4.69,0,0,0,1.34,1c0.07,0,.21.06,0.19-0.05a2.65,2.65,0,0,1,.23-0.73,7.23,7.23,0,0,1,.5-1.56,18.4,18.4,0,0,1,.9-2.06,4,4,0,0,1,.2-0.49,0.39,0.39,0,0,0-.16-0.66,1.8,1.8,0,0,1-.65-0.42,0.18,0.18,0,0,0-.31,0c-0.21.43-.54,0.79-0.75,1.21a1.29,1.29,0,0,0-.18,1,0.42,0.42,0,0,1-.47.6,0.3,0.3,0,0,0-.26.16c-0.07.07,0,.27-0.18,0.22s-0.08-.21-0.07-0.32a0.45,0.45,0,0,0-.14-0.48,0.55,0.55,0,0,0-.58.08,0.22,0.22,0,0,0-.13.27c0.08,0.15.18,0.07,0.27,0a0.16,0.16,0,0,1,.25,0c0.09,0.13,0,.17-0.1.25a1.6,1.6,0,0,0-.31,1,0.2,0.2,0,0,0,.17.21c0.11,0,.13-0.07.15-0.16a2,2,0,0,1,.28-0.45,0.49,0.49,0,0,1,.47-0.26c0.19,0,.06.23,0.1,0.35a0.57,0.57,0,0,0,.07.15c0.09,0.12.16,0.24,0,.34a0.26,0.26,0,0,1-.4-0.05c-0.17-.29-0.27-0.07-0.39,0A0.5,0.5,0,0,0,56.73,118.32Zm27.39-1.94c0.41,0,.88-0.44.7-0.7a1.19,1.19,0,0,0-.71-0.64c-0.24,0-.43-0.13-0.26-0.44a0.24,0.24,0,0,0-.16-0.33c-0.14-.07-0.23,0-0.26.12s-0.1.12-.15,0.06a0.69,0.69,0,0,0-.53-0.17,0.66,0.66,0,0,1-.55-0.84,0.24,0.24,0,0,0-.08-0.29,0.36,0.36,0,0,0-.43,0,0.51,0.51,0,0,0-.27.52,1.47,1.47,0,0,0,.54,1.2,3.09,3.09,0,0,0,1.17.49,0.31,0.31,0,0,1,.33.35A0.58,0.58,0,0,0,84.13,116.38ZM74.19,110a0.19,0.19,0,0,0,.25-0.07,0.1,0.1,0,0,0-.06-0.14c-0.3-.14-0.2-0.34-0.1-0.55s0.14-.23,0-0.26a4.05,4.05,0,0,1-.92-0.58c-0.65-.28-1.15-1.11-2.05-0.4-0.38.3-.46,0.2-0.11,0.56a1.54,1.54,0,0,1,.17.18,1,1,0,0,0,1.4.47,1.1,1.1,0,0,1,.44-0.08,0.62,0.62,0,0,1,.71.17c0.12,0.29-.18.41-0.4,0.53s-0.23.16-.11,0.28a1,1,0,0,0,.77.34,0.14,0.14,0,0,0,.17-0.14,0.13,0.13,0,0,0-.14-0.12c-0.1,0-.26,0-0.23-0.14S74.1,110,74.19,110Zm6.14,10.16c-0.43,0-.49.12-0.29,0.58a15.07,15.07,0,0,1,.79,1.51,0.16,0.16,0,0,0,.3,0,0.84,0.84,0,0,1,.5-0.32c0.5-.22.56-0.36,0.4-0.89,0-.08,0-0.17,0-0.24a2,2,0,0,0-.51-1.18c-0.09-.07-0.06-0.31-0.22-0.23a0.5,0.5,0,0,0-.38.39C80.87,120.15,80.65,120.15,80.32,120.14Zm-4.23,19.5c-0.15,0-.35-0.14-0.43.1a0.36,0.36,0,0,0,.12.37,1.4,1.4,0,0,0,1.19.26A5.6,5.6,0,0,1,78.2,140c0.66-.26,1.36-0.43,2-0.67a0.34,0.34,0,0,0,.22-0.27,0.15,0.15,0,0,0-.11-0.09,2.41,2.41,0,0,1-1.11-.18,1.09,1.09,0,0,0-.6.22c-0.42.09-.82,0.24-1.24,0.34S76.52,139.55,76.09,139.64ZM63.64,111.81a5.92,5.92,0,0,1-1.16.73A3.16,3.16,0,0,0,61,114.15c-0.13.19-.13,0.41,0.23,0.36a0.68,0.68,0,0,1,.42.12,0.73,0.73,0,0,0,1.17-.41A16.9,16.9,0,0,1,63.64,111.81Zm-0.7-2.44a0.14,0.14,0,0,0-.18.05,29.26,29.26,0,0,0-3.28,3.82,0.28,0.28,0,0,0,.08.45c0.23,0.17.47,0.33,0.72,0.48,0.09,0.05.16,0.11,0.25,0a0.18,0.18,0,0,0,0-.26,0.3,0.3,0,0,1-.06-0.3,8.76,8.76,0,0,0,.37-1.13,1.51,1.51,0,0,0,.3-0.42,0.51,0.51,0,0,1,.27-0.59,3,3,0,0,0,.94-0.88,3.73,3.73,0,0,1,.63-1.17Zm-3.83-8.19a0.15,0.15,0,0,0-.05-0.06c-0.93-.17-1.82-0.51-2.74-0.74a3.81,3.81,0,0,1-.68-0.21,1.89,1.89,0,0,0-1.13.22,0.5,0.5,0,0,0-.06.14,0.43,0.43,0,0,0,.21.11,6.46,6.46,0,0,1,1.05.38,12,12,0,0,0,1.64.51,5,5,0,0,0,1.72-.28A0.15,0.15,0,0,0,59.11,101.18ZM88.5,119a0.26,0.26,0,0,0,.28-0.19,1,1,0,0,0-.37-0.68c-0.11-.16-0.19,0-0.28.09s-0.22,0-.31-0.07-0.2-.09-0.22.09a0.73,0.73,0,0,1-1.22.56c-0.33-.26-0.43,0-0.58.2s-0.15.35,0.11,0.48a5.14,5.14,0,0,1,1.14.55c0.38,0.33.68,0.1,0.75-.43a6.47,6.47,0,0,0,0-.66c0-.25.1-0.29,0.3-0.16A0.73,0.73,0,0,0,88.5,119Zm-31.64-5a0.38,0.38,0,0,0,.32-0.35,0.53,0.53,0,0,1,.19-0.35,2.33,2.33,0,0,0,1.1-1.73c0.11,0,.13.31,0.25,0.14a8.64,8.64,0,0,0,.71-0.56,2.89,2.89,0,0,1,.92-0.91,6.56,6.56,0,0,0,.69-0.65,0.15,0.15,0,0,0,.05-0.21,0.16,0.16,0,0,0-.23,0c-0.36.42-1.07,0.44-1.25,1.08a0.54,0.54,0,0,1-.21.19s-0.1.08-.14,0c-0.27-.43-0.33,0-0.42.12a2.05,2.05,0,0,1-.37.58,1.77,1.77,0,0,0-1,1.31,1.37,1.37,0,0,1-.2.36A2,2,0,0,0,56.86,114Zm14.48-4.91a1.88,1.88,0,0,0-.48-0.59,0.42,0.42,0,0,0-.71,0,0.8,0.8,0,0,1-.55.32c-0.17,0-.2.17-0.13,0.31l0.69,1.47c0,0.09,0,.27.18,0.21a0.26,0.26,0,0,0,.14-0.35,0.34,0.34,0,0,1,.25-0.5C71.14,109.82,71,109.32,71.35,109.12ZM59,133.3a0.42,0.42,0,0,0,0-.17,5.55,5.55,0,0,1-.7-1.54,1.91,1.91,0,0,0-.45-1.06,4.79,4.79,0,0,1-1.06-1.13c-0.06-.09-0.14-0.21-0.26-0.12s0,0.18,0,.26a23.94,23.94,0,0,0,1.13,2.22c0.34,0.52.69,1,1,1.53a0.19,0.19,0,0,0,.23.13A0.28,0.28,0,0,0,59,133.3Zm-7.32-33.16a6.14,6.14,0,0,1,1.22.07,1.51,1.51,0,0,0,.86.22,5,5,0,0,0,1.18-.42A3.48,3.48,0,0,0,51.69,100.13ZM62.86,109a0.45,0.45,0,0,0-.18-0.26,0.19,0.19,0,0,0-.29,0c-0.29.36-.93,0.43-0.9,1.06a0.19,0.19,0,0,1-.11.1,1.67,1.67,0,0,0-.69.91,0.15,0.15,0,0,0,.05.22c0.08,0.06.12,0,.16-0.06a1.06,1.06,0,0,0,.21-0.19,17.71,17.71,0,0,1,1.6-1.6A0.31,0.31,0,0,0,62.86,109Zm-3.46,2.47a1.58,1.58,0,0,0-.58,1.18,0.51,0.51,0,0,0,.33.47c0.18,0.1.2-.16,0.29-0.27,0.21-.27.42-0.55,0.63-0.81a1,1,0,0,0,.23-1.21c0-.07,0-0.23-0.12-0.2s-0.12.14-.11,0.27a1.67,1.67,0,0,1-.55,1.34,0.15,0.15,0,0,1-.18.05c-0.1-.05-0.06-0.14,0-0.22A0.77,0.77,0,0,0,59.4,111.52Zm18.36,5.94a0.12,0.12,0,0,0-.13.1,1.35,1.35,0,0,0,.46,1.26c0.23,0.11.33,0.2,0.07,0.39-0.1.07-.15,0.18,0,0.28a0.18,0.18,0,0,0,.26,0,0.55,0.55,0,0,0,.24-0.65c-0.21-.41-0.45-0.81-0.69-1.2A0.24,0.24,0,0,0,77.75,117.46Zm6-4.9a1,1,0,0,0-.66-0.73,0.18,0.18,0,0,0-.21.23,1.08,1.08,0,0,0,.64.82A0.31,0.31,0,0,0,83.75,112.56Zm-22.81-4.1a3.92,3.92,0,0,0,1.9-1.06A2.86,2.86,0,0,0,60.94,108.46Zm25.22,23.41c0-.21-0.12-0.18-0.22-0.12a1.18,1.18,0,0,0-.48.69,0.22,0.22,0,0,0,0,.26,0.25,0.25,0,0,0,.3,0A1.31,1.31,0,0,0,86.16,131.87Zm-7.71-15.44a0.62,0.62,0,0,1-.55,0,0.17,0.17,0,0,0-.25.17,0.45,0.45,0,0,0,.2.46,0.33,0.33,0,0,0,.39-0.16A0.74,0.74,0,0,0,78.45,116.43ZM66,109.54a0.19,0.19,0,0,0,.21-0.16,7.09,7.09,0,0,0,.23-0.87c0-.1.16-0.24,0-0.3s-0.24.11-.29,0.22a7.66,7.66,0,0,1-.27.8A0.19,0.19,0,0,0,66,109.54Zm-3.49-1.24a0.21,0.21,0,0,0-.14-0.22,0.24,0.24,0,0,0-.25.17c-0.12.21-.13,0.61-0.54,0.3a0.09,0.09,0,0,0-.13.06,0.09,0.09,0,0,0,0,.13,0.55,0.55,0,0,0,.44.14A1.06,1.06,0,0,0,62.53,108.3Zm22.3,25.32c-0.11,0-.15.06-0.13,0.13a1,1,0,0,0,.48.64c0.1,0.05.26,0,.21-0.15A2.71,2.71,0,0,0,84.82,133.62ZM72.59,103.85l0.5-.11a0.17,0.17,0,0,0,.17-0.19,0.19,0.19,0,0,0-.26-0.13c-0.15,0-.29.08-0.43,0.12s-0.29,0-.26.16A0.27,0.27,0,0,0,72.59,103.85Zm-7.75,3.55a0.12,0.12,0,0,0-.1-0.12,1.41,1.41,0,0,0-.72.39,0.14,0.14,0,0,0,0,.18,0.2,0.2,0,0,0,.26-0.06,0.59,0.59,0,0,1,.43-0.32A0.2,0.2,0,0,0,64.84,107.41Zm9.68,4.41a0.37,0.37,0,0,0-.37-0.31,0.19,0.19,0,0,0-.26.18,0.47,0.47,0,0,0,.4.31C74.41,112,74.5,112,74.52,111.82Zm-16.06,2.56a1.84,1.84,0,0,0,.54-1,0.15,0.15,0,0,0-.08-0.08,0.12,0.12,0,0,0-.15.1l-0.37.76C58.35,114.28,58.35,114.35,58.46,114.38Zm14.76-2.26a1.38,1.38,0,0,0-.35-0.5,0.08,0.08,0,0,0-.09.1,0.58,0.58,0,0,0,.34.51C73.17,112.23,73.22,112.21,73.22,112.11Zm2.85-5.77c0.16,0.2,0,.46.28,0.5a0.15,0.15,0,0,0,.18-0.13C76.56,106.44,76.32,106.45,76.08,106.35Zm-13.26.81a3,3,0,0,1,.29-0.42,0.1,0.1,0,0,0-.14-0.1,0.49,0.49,0,0,0-.39.41C62.58,107.15,62.65,107.19,62.81,107.16Zm12.72-.8a0.92,0.92,0,0,0-.55-0.27A0.51,0.51,0,0,0,75.53,106.36ZM82.38,123a0.41,0.41,0,0,0-.35-0.4,0.16,0.16,0,0,0-.11.09A0.48,0.48,0,0,0,82.38,123ZM60.46,109.27a0.92,0.92,0,0,0,.7-0.16,0.3,0.3,0,0,0,0-.14,0.13,0.13,0,0,0-.17-0.06A2.06,2.06,0,0,0,60.46,109.27Zm3.14-3.37a2,2,0,0,0-.4.31c0,0.09.08,0.1,0.14,0.08a0.52,0.52,0,0,0,.42-0.33C63.78,105.89,63.7,105.89,63.61,105.89Zm9.88-1.83a0.2,0.2,0,0,0-.26-0.11c-0.1,0-.22,0-0.2.16s0.17,0.11.27,0.11A0.15,0.15,0,0,0,73.49,104.07Zm13.07,30.19a0.12,0.12,0,0,0-.16-0.12,0.14,0.14,0,0,0-.12.14,0.15,0.15,0,0,0,.14.16A0.15,0.15,0,0,0,86.55,134.26Zm-28.26-21c0.22,0,.39.13,0.47-0.09s0.06-.22-0.05-0.24S58.48,113.15,58.29,113.26Z"/><path class="cls-1" d="M99.14,109.86c0-1.51,0-3,0-4.54a0.31,0.31,0,0,1,.35-0.38c1.31,0,2.62,0,3.92.05a2.56,2.56,0,0,1,1.67,4.49c-0.23.19-.18,0.28,0,0.43a2.73,2.73,0,0,1,1,1.29,2.59,2.59,0,0,1-1.59,3.37,3.49,3.49,0,0,1-1.13.2c-1.27,0-2.53,0-3.8,0-0.36,0-.49-0.08-0.48-0.49,0-1.47,0-2.95,0-4.42h0Zm1.92,2.06c0,0.3,0,.61,0,0.93s0.05,0.32.28,0.31c0.62,0,1.23,0,1.85,0a1.22,1.22,0,0,0,1.11-1.13,1.24,1.24,0,0,0-.8-1.22,2.64,2.64,0,0,0-1.14-.11,1.9,1.9,0,0,0-1.19.07A2.09,2.09,0,0,0,101.05,111.92Zm0-4.21c0,0.44,0,.78,0,1.12a0.23,0.23,0,0,0,.25.29c0.48,0,1,0,1.44,0A1.27,1.27,0,0,0,104,108a1.24,1.24,0,0,0-1-1.41,2.1,2.1,0,0,0-.73-0.07,2,2,0,0,0-1.16.07A1.81,1.81,0,0,0,101.07,107.7Z"/><path class="cls-1" d="M102.09,118a5.55,5.55,0,0,1,3,.81c0.32,0.18.5,0.36,0.19,0.73a4.79,4.79,0,0,0-.5.9c-0.11.22-.21,0.31-0.42,0.09a3.77,3.77,0,0,0-2-1,1.63,1.63,0,0,0-1.64.68,1.26,1.26,0,0,0,.93,1.77,19.59,19.59,0,0,1,2.51.91,2.85,2.85,0,0,1,1.29,1.05,2.72,2.72,0,0,1-.59,3.23,3.92,3.92,0,0,1-2.36.84,6.2,6.2,0,0,1-3.46-.89,0.42,0.42,0,0,1-.21-0.61,6.29,6.29,0,0,0,.41-1.16c0.06-.3.22-0.17,0.34-0.06a6,6,0,0,0,1,.68,3.23,3.23,0,0,0,2.27.36,1.21,1.21,0,0,0,.91-1,1.13,1.13,0,0,0-.59-1.09,15.62,15.62,0,0,0-2.24-.82,3.09,3.09,0,0,1-2-1.57,2.7,2.7,0,0,1,1.54-3.65A4.18,4.18,0,0,1,102.09,118Z"/><path class="cls-1" d="M173,112.38c0,1.43,0,2.86,0,4.3a0.41,0.41,0,0,1-.32.49l-1.32.32c-0.22.05-.3,0-0.29-0.26,0.06-1,0-2,0-2.93a0.24,0.24,0,0,0,0-.26c-0.12-.07-0.17.06-0.23,0.12a2.48,2.48,0,0,1-4.11-1.3,8.3,8.3,0,0,1,0-3.43,2.46,2.46,0,0,1,2.15-1.72,2.49,2.49,0,0,1,1.93.65,0.23,0.23,0,0,0,.2.12,0.19,0.19,0,0,0,.09-0.25c-0.12-.48.13-0.56,0.54-0.52a4.8,4.8,0,0,0,.91,0c0.34,0,.45.07,0.45,0.43,0,1.42,0,2.84,0,4.25h0Zm-1.88-1.14a3.26,3.26,0,0,0-.16-1.44,1.37,1.37,0,0,0-1.23-.76,1.19,1.19,0,0,0-1.06.75,4.7,4.7,0,0,0,0,2.74,1.07,1.07,0,0,0,1,.81,1.2,1.2,0,0,0,1.23-.57A2.62,2.62,0,0,0,171.14,111.24Z"/><path class="cls-1" d="M114.08,110c0-1.49,0-3,0-4.46,0-.18,0-0.27.21-0.28a8.94,8.94,0,0,0,1.33-.26c0.34-.06.37,0.06,0.37,0.33,0,1,0,1.93,0,2.89,0,0.1-.06.24,0.08,0.29a0.25,0.25,0,0,0,.23-0.15,2.48,2.48,0,0,1,3.84.67,2.57,2.57,0,0,1,.31,1.31c0,0.78.07,1.57,0,2.35a2.31,2.31,0,0,1-1.72,2,2.4,2.4,0,0,1-2.39-.51,0.27,0.27,0,0,0-.22-0.16,0.21,0.21,0,0,0-.1.28c0.07,0.43-.15.52-0.52,0.49s-0.66,0-1,0a0.31,0.31,0,0,1-.38-0.38c0-.74,0-1.49,0-2.23s0-1.46,0-2.19h0Zm1.91,1.32c0,0.3,0,.61,0,0.91a1.37,1.37,0,0,0,1.18,1.23,1.27,1.27,0,0,0,1.31-1.06,9.65,9.65,0,0,0,0-2,1.09,1.09,0,0,0-.18-0.66,1.33,1.33,0,0,0-1.45-.53,1.36,1.36,0,0,0-.89,1.3Q116,110.88,116,111.27Z"/><path class="cls-1" d="M149,109.92c0-1.47,0-2.95,0-4.42a0.39,0.39,0,0,1,.42-0.48,4.67,4.67,0,0,0,1.22-.16c0.23-.07.28,0.05,0.28,0.26,0,1.09,0,2.18,0,3.26,0,0.1-.07.24,0,0.3s0.21-.09.28-0.17a2.45,2.45,0,0,1,3.86.3,2,2,0,0,1,.38,1.16c0,1.47,0,2.95,0,4.42,0,0.26-.06.38-0.34,0.36s-0.83,0-1.24,0a0.27,0.27,0,0,1-.33-0.33c0-1.2,0-2.4,0-3.6a1.36,1.36,0,0,0-.61-1.28,1.22,1.22,0,0,0-1.25-.08,1.33,1.33,0,0,0-.8,1.21c0,1.24,0,2.48,0,3.72a0.29,0.29,0,0,1-.36.36c-0.41,0-.83,0-1.24,0a0.28,0.28,0,0,1-.34-0.34c0-.76,0-1.52,0-2.27s0-1.49,0-2.23h0Z"/><path class="cls-1" d="M134.27,123c0-1.5,0-3,0-4.5,0-.28.07-0.38,0.37-0.38,1.78,0,3.55,0,5.33,0,0.18,0,.29,0,0.29.25,0,0.4,0,.8,0,1.2s-0.16.27-.36,0.27c-1.1,0-2.2,0-3.31,0-0.31,0-.41.08-0.4,0.4,0,0.54,0,1.07,0,1.61a0.31,0.31,0,0,0,.39.38c0.94,0,1.87,0,2.81,0,0.32,0,.46.07,0.42,0.42a7.12,7.12,0,0,0,0,.87,0.28,0.28,0,0,1-.34.34c-1,0-1.93,0-2.89,0a0.31,0.31,0,0,0-.39.37c0,1.12,0,2.23,0,3.35,0,0.46,0,.5-0.51.5s-0.69,0-1,0-0.4-.12-0.4-0.42c0-1.53,0-3.06,0-4.59h0Z"/><path class="cls-1" d="M154.74,124.54c0-1,0-2,0-3a0.37,0.37,0,0,1,.38-0.45c0.39-.06.79-0.08,1.18-0.17s0.36,0.06.36,0.32a0.67,0.67,0,0,0,0,.61c0.22,0.11.31-.23,0.47-0.37a2.37,2.37,0,0,1,2.4-.44,2.3,2.3,0,0,1,1.63,2.3c0,1.41,0,2.81,0,4.22,0,0.3,0,.46-0.41.42a7.31,7.31,0,0,0-1.2,0,0.25,0.25,0,0,1-.31-0.31c0-1.24,0-2.48,0-3.72a1.34,1.34,0,1,0-2.67,0c0,1.23,0,2.45,0,3.68,0,0.31-.08.41-0.4,0.38a5.8,5.8,0,0,0-1.11,0c-0.31,0-.38-0.08-0.38-0.36,0-1,0-2,0-3.06h0Z"/><path class="cls-1" d="M182.2,111.25c0,1.07,0,2.15,0,3.22a0.24,0.24,0,0,1-.28.3h-1.16a0.34,0.34,0,0,1-.41-0.42,1,1,0,0,0,0-.29c0-.1,0-0.24-0.12-0.27s-0.15.1-.2,0.17a2.4,2.4,0,0,1-2.43.76,2.26,2.26,0,0,1-1.73-1.9c-0.15-1.47,0-2.94-.05-4.42,0-.69,0-0.7.71-0.69a1.48,1.48,0,0,1,1.1.09,2.06,2.06,0,0,1,.07,1.08c0,1,0,1.9,0,2.85a1.3,1.3,0,0,0,1.66,1.36,1.27,1.27,0,0,0,.93-1.07c0-1.31,0-2.62,0-3.92,0-.32.08-0.41,0.39-0.4a10.38,10.38,0,0,0,1.12,0c0.3,0,.44.05,0.43,0.41,0,1,0,2.09,0,3.14h0Z"/><path class="cls-1" d="M115.39,124.56c0-1,0-2.09,0-3.14a0.27,0.27,0,0,1,.29-0.34c0.4,0,.79-0.11,1.18-0.16s0.48,0,.46.39c0,0.18-.16.44,0,0.53s0.29-.2.42-0.32a2.36,2.36,0,0,1,2.47-.48,2.14,2.14,0,0,1,1.57,2.09c0,1.5,0,3,0,4.5,0,0.28-.1.35-0.37,0.33a6.66,6.66,0,0,0-1.15,0c-0.3,0-.38-0.07-0.38-0.36,0-1.23,0-2.45,0-3.68a1.35,1.35,0,0,0-1.28-1.43,1.41,1.41,0,0,0-1.35,1.44q0,1.8,0,3.59c0,0.34-.09.47-0.45,0.43a6.33,6.33,0,0,0-1.11,0c-0.28,0-.36-0.07-0.36-0.34,0-1,0-2,0-3.06h0Z"/><path class="cls-1" d="M164,112.42c0,0.48,0,1,0,1.46a0.37,0.37,0,0,1-.27.28,5,5,0,0,1-2.94.6,3,3,0,0,1-2.76-3,4.92,4.92,0,0,1,.4-2.58,2.82,2.82,0,0,1,2.27-1.51,3.18,3.18,0,0,1,3,1,2.59,2.59,0,0,1,.56,2.2,1.45,1.45,0,0,1-1.49,1c-0.84,0-1.68,0-2.52,0-0.36,0-.39.15-0.32,0.43a1.46,1.46,0,0,0,1.31,1,3.37,3.37,0,0,0,2.46-.73A0.39,0.39,0,0,1,164,112.42Zm-2.93-1.82h1a0.29,0.29,0,0,0,.32-0.3,0.93,0.93,0,0,0-.19-0.73,1.25,1.25,0,0,0-1.45-.38,1.38,1.38,0,0,0-.84,1.17c0,0.22.09,0.26,0.27,0.25h0.91Z"/><path class="cls-1" d="M188.19,111.84c-0.4,0-.8,0-1.2,0s-0.35.15-.29,0.39A1.55,1.55,0,0,0,188,113.3a3.35,3.35,0,0,0,2.56-.8c0.18-.16.25,0,0.25,0.12,0,0.41,0,.83,0,1.24a0.33,0.33,0,0,1-.24.3,4.84,4.84,0,0,1-4,.38,2.5,2.5,0,0,1-1.54-1.58,4.44,4.44,0,0,1,.43-4.14,2.86,2.86,0,0,1,2.42-1.17,2.92,2.92,0,0,1,3,1.73,1.61,1.61,0,0,1-.5,2.16,2.54,2.54,0,0,1-1.15.29C188.94,111.85,188.56,111.84,188.19,111.84Zm-0.3-1.24h0.86a0.48,0.48,0,0,0,.48-0.69,1.27,1.27,0,0,0-1.39-.82,1.47,1.47,0,0,0-1.15,1.28,0.21,0.21,0,0,0,.26.23h0.95Z"/><path class="cls-1" d="M176.4,125c-0.44,0-.88,0-1.32,0s-0.43.13-.3,0.47a1.49,1.49,0,0,0,1.59,1,3.22,3.22,0,0,0,2.19-.81,0.17,0.17,0,0,1,.18-0.08,0.19,0.19,0,0,1,.09.21c0,0.37,0,.74,0,1.11a0.4,0.4,0,0,1-.24.4,4.49,4.49,0,0,1-4.08.31,2.88,2.88,0,0,1-1.65-2.62,5.27,5.27,0,0,1,.29-2.44,2.7,2.7,0,0,1,1.74-1.58,3.49,3.49,0,0,1,3.08.37,2.55,2.55,0,0,1,1,2.79,1.2,1.2,0,0,1-1,.78A8.28,8.28,0,0,1,176.4,125Zm-0.56-1.15h0.91a0.49,0.49,0,0,0,.47-0.68,1.21,1.21,0,0,0-1.39-.87,1.45,1.45,0,0,0-1.1,1.29,0.25,0.25,0,0,0,.29.27h0.82Z"/><path class="cls-1" d="M113.42,125.46c0,0.79,0,1.44,0,2.09a0.34,0.34,0,0,1-.44.42,9.21,9.21,0,0,0-1,0,0.28,0.28,0,0,1-.35-0.33,0.23,0.23,0,0,0-.08-0.26c-0.13-.06-0.19.07-0.27,0.13a2.62,2.62,0,0,1-3.84-.78,2.29,2.29,0,0,1,1.36-3.13,2.51,2.51,0,0,1,2.57.48c0.13,0.11.22,0.09,0.27-.08a1.52,1.52,0,0,0-.72-1.7,2.34,2.34,0,0,0-1.66,0,3.51,3.51,0,0,0-.84.44c-0.25.18-.38,0.1-0.46-0.14a7.65,7.65,0,0,0-.25-0.74,0.32,0.32,0,0,1,.21-0.43,5.12,5.12,0,0,1,3.36-.5,2.83,2.83,0,0,1,2.08,2.36C113.47,124.06,113.39,124.84,113.42,125.46Zm-3.13-.73a2.69,2.69,0,0,0-.34,0,1.19,1.19,0,0,0-1,.79,0.88,0.88,0,0,0,.42.92,1.94,1.94,0,0,0,1.89,0,0.87,0.87,0,0,0-.21-1.55A1.5,1.5,0,0,0,110.3,124.73Z"/><path class="cls-1" d="M189.29,125h-1.2c-0.36,0-.44.13-0.33,0.5a1.57,1.57,0,0,0,1.47,1,3.27,3.27,0,0,0,2.36-.81,0.18,0.18,0,0,1,.21-0.09,0.22,0.22,0,0,1,.07.22c0,0.37,0,.74,0,1.12a0.37,0.37,0,0,1-.16.36c-1.1.68-3.32,1.09-4.58,0.14a3.12,3.12,0,0,1-1.28-2.55,6,6,0,0,1,.15-1.76,3.15,3.15,0,0,1,3.66-2.27,2.75,2.75,0,0,1,2.34,1.77c0.42,1.15.11,2.18-1.32,2.34a12.79,12.79,0,0,1-1.4,0v0Zm-0.45-1.17h0.86a0.56,0.56,0,0,0,.55-0.76,1.2,1.2,0,0,0-1.26-.83,1.41,1.41,0,0,0-1.23,1c-0.09.44,0,.53,0.42,0.53h0.66Z"/><path class="cls-1" d="M139.68,111.22a3.24,3.24,0,0,1-1.23,2.92,3.49,3.49,0,0,1-2.62.64,2.88,2.88,0,0,1-2.72-2.11c-0.48-1.66-.29-3.44,1.17-4.42a3.47,3.47,0,0,1,5.33,1.94A5.14,5.14,0,0,1,139.68,111.22Zm-1.92,0c0-.25,0-0.49,0-0.74a1.48,1.48,0,0,0-1.17-1.36,1.44,1.44,0,0,0-1.66,1,4.25,4.25,0,0,0,0,2.24,1.44,1.44,0,0,0,1.27,1,1.42,1.42,0,0,0,1.46-.78A3,3,0,0,0,137.75,111.25Z"/><path class="cls-1" d="M146.26,124.42a3.28,3.28,0,0,1,2.08-3.37,3.39,3.39,0,0,1,4.49,1.88,3.79,3.79,0,0,1-1,4.34,3.46,3.46,0,0,1-5.55-2A5.93,5.93,0,0,1,146.26,124.42Zm4.93,0a2.39,2.39,0,0,0-.14-1.1,1.55,1.55,0,0,0-1.39-1,1.48,1.48,0,0,0-1.34.92,4,4,0,0,0-.12,2.11,1.4,1.4,0,0,0,1.5,1.25,1.47,1.47,0,0,0,1.41-1.16A3.17,3.17,0,0,0,151.19,124.4Z"/><path class="cls-1" d="M196.6,128a6.18,6.18,0,0,1-2.62-.58,0.35,0.35,0,0,1-.25-0.48,6.52,6.52,0,0,0,.14-1c0-.31.12-0.36,0.38-0.19a4.91,4.91,0,0,0,2,.75,2.91,2.91,0,0,0,.54,0,0.62,0.62,0,0,0,.63-0.55,0.58,0.58,0,0,0-.47-0.64c-0.52-.18-1-0.33-1.58-0.47a2.08,2.08,0,0,1-1.59-1.3,1.93,1.93,0,0,1,1.37-2.64,5.28,5.28,0,0,1,3.6.41,0.36,0.36,0,0,1,.25.47,5.66,5.66,0,0,0-.12,1.07c0,0.27-.1.31-0.32,0.15a4.33,4.33,0,0,0-1.78-.72,1.57,1.57,0,0,0-.89.06,0.54,0.54,0,0,0-.09,1,6.85,6.85,0,0,0,1.43.5A2.77,2.77,0,0,1,199,125a2,2,0,0,1-1.15,2.88A3.19,3.19,0,0,1,196.6,128Z"/><path class="cls-1" d="M126.48,128a5.9,5.9,0,0,1-2.59-.57,0.36,0.36,0,0,1-.25-0.48,5.5,5.5,0,0,0,.08-1c0-.38.17-0.34,0.41-0.19a4.92,4.92,0,0,0,2.19.77h0.37a0.69,0.69,0,0,0,.64-0.56,0.58,0.58,0,0,0-.43-0.63,7.25,7.25,0,0,0-1.46-.42,2.13,2.13,0,0,1-1.79-2.74,2,2,0,0,1,1.49-1.28,5.45,5.45,0,0,1,3.53.43,0.31,0.31,0,0,1,.24.37c0,0.36-.09.71-0.1,1.07s-0.19.34-.44,0.18a4.53,4.53,0,0,0-1.85-.67,1.53,1.53,0,0,0-.69.07,0.55,0.55,0,0,0-.42.46,0.57,0.57,0,0,0,.33.57,7.51,7.51,0,0,0,1.32.45,9.52,9.52,0,0,1,1.15.45,1.93,1.93,0,0,1,0,3.27A3.07,3.07,0,0,1,126.48,128Z"/><path class="cls-1" d="M196.27,107.66a5.34,5.34,0,0,1,2.37.51,0.39,0.39,0,0,1,.29.32,4.63,4.63,0,0,1-.18,1.39c-0.06.21-.2,0.08-0.31,0a3.48,3.48,0,0,0-2.4-.69,0.61,0.61,0,0,0-.61.46,0.54,0.54,0,0,0,.37.62,9.47,9.47,0,0,0,1.59.53,2.42,2.42,0,0,1,1.57,1.16,2,2,0,0,1-.87,2.57,4.49,4.49,0,0,1-2.42.27,4.74,4.74,0,0,1-1.7-.46,0.44,0.44,0,0,1-.31-0.54,4,4,0,0,0,0-1.07,0.2,0.2,0,0,1,0-.23,0.23,0.23,0,0,1,.26.06,5.44,5.44,0,0,0,2.3.84,0.91,0.91,0,0,0,.9-0.28c0.3-.42,0-0.86-0.6-1s-1.11-.3-1.66-0.48a1.83,1.83,0,0,1-1.37-1.73,1.86,1.86,0,0,1,.87-1.84A3.37,3.37,0,0,1,196.27,107.66Z"/><path class="cls-2" d="M138.72,134.27l-0.32,1.55q-0.16.74-.32,1.49a0.32,0.32,0,0,1-.09.18,2.06,2.06,0,0,1-1.23.1,0.39,0.39,0,0,1-.36-0.39c-0.17-.64-0.32-1.28-0.49-1.91-0.26-1-.53-1.92-0.79-2.89-0.06-.23-0.23-0.57,0-0.69a1.12,1.12,0,0,1,.92,0,0.6,0.6,0,0,1,.29.48q0.44,1.72.87,3.44s0,0.1.07,0.21a1.6,1.6,0,0,0,.25-0.77c0.14-.83.45-1.62,0.53-2.46a0.55,0.55,0,0,1,.63-0.55c0.72,0,.72,0,0.89.68l0.71,2.92a2.28,2.28,0,0,0,.11.26c0.11-.42.2-0.75,0.28-1.09q0.35-1.46.68-2.93a0.29,0.29,0,0,1,.32-0.26c0.14,0,.28,0,0.41,0,0.48,0,.54.09,0.41,0.54-0.19.67-.35,1.35-0.52,2-0.23,1-.46,1.92-0.68,2.88a0.59,0.59,0,0,1-.66.53,3,3,0,0,0-.66,0c-0.24,0-.3-0.15-0.36-0.32-0.25-.81-0.43-1.64-0.62-2.47A0.76,0.76,0,0,0,138.72,134.27Z"/><path class="cls-1" d="M163.47,124.13c0-.54,0-1.07,0-1.61,0-.25-0.06-0.33-0.33-0.32-0.77,0-.77,0-0.77-0.73,0-.6,0-0.63.61-0.58,0.43,0,.52-0.13.49-0.51s0-.85,0-1.28a0.33,0.33,0,0,1,.32-0.39,6.9,6.9,0,0,0,1.35-.17c0.22-.07.23,0.12,0.23,0.28,0,0.54,0,1.08,0,1.61,0,0.38.11,0.48,0.46,0.46s0.91,0,1.36,0a0.27,0.27,0,0,1,.34.3s0,0.06,0,.06c0,1,0,1-.94,1a1.69,1.69,0,0,0-1.14.09,2.07,2.07,0,0,0-.07,1.11c0,0.66,0,1.32,0,2,0,1,.65,1.2,1.54.85,0.38-.15.4-0.17,0.41,0.25,0,0.14,0,.28,0,0.41,0.06,0.65.06,0.65-.54,0.85a3,3,0,0,1-1.95.06c-1-.32-1.3-1-1.4-2.2,0-.49,0-1,0-1.49h0Z"/><path class="cls-1" d="M142.53,111c0-.55,0-1.1,0-1.65a0.28,0.28,0,0,0-.35-0.35c-0.77,0-.77,0-0.77-0.76,0-.53,0-0.53.53-0.53s0.59,0.1.58-.6c0-.4,0-0.8,0-1.2a0.24,0.24,0,0,1,.23-0.31c0.45-.05.9-0.12,1.34-0.21,0.26-.05.32,0.06,0.32,0.28,0,0.55,0,1.1,0,1.65a0.31,0.31,0,0,0,.37.39c0.5,0,1,0,1.49,0,0.25,0,.37.07,0.32,0.34a1.54,1.54,0,0,0,0,.29c0,0.73.12,0.7-.71,0.69-0.38,0-.77,0-1.15,0a0.24,0.24,0,0,0-.29.29c0,1,0,2,0,3a0.9,0.9,0,0,0,1.42.84c0.47-.21.47-0.21,0.5,0.29v0a1.09,1.09,0,0,1,0,.86,1.84,1.84,0,0,1-1.18.43,3.72,3.72,0,0,1-1.19-.07,2,2,0,0,1-1.45-2.07c-0.05-.53,0-1.07,0-1.61h0Z"/><path class="cls-1" d="M125.33,109.81c0,1.53,0,3.06,0,4.59,0,0.27-.06.37-0.34,0.36s-0.83,0-1.24,0a0.27,0.27,0,0,1-.33-0.33q0-4.44,0-8.89a0.41,0.41,0,0,1,.43-0.5,6.08,6.08,0,0,0,1.22-.16c0.29-.09.25,0.18,0.25,0.34,0,1,0,2,0,3.06,0,0.51,0,1,0,1.53h0Z"/><path class="cls-2" d="M170.31,134.62c0-.85,0-1.71,0-2.56,0-.31,0-0.48.42-0.43,0.77,0.1,1.56,0,2.34.06a1.55,1.55,0,0,1,1.34,1.07,1.48,1.48,0,0,1-.4,1.56c-0.16.16-.17,0.21,0,0.36a1.63,1.63,0,0,1,.14,2.5,1.28,1.28,0,0,1-.82.35c-0.93.13-1.87,0-2.8,0.09-0.28,0-.22-0.23-0.22-0.39C170.3,136.36,170.31,135.49,170.31,134.62Zm1.16,1.17c0,0.19,0,.38,0,0.57a0.23,0.23,0,0,0,.21.26,2.4,2.4,0,0,0,1.4-.16,0.7,0.7,0,0,0,0-1.24,1.47,1.47,0,0,0-.91-0.15C171.49,135.14,171.49,135.13,171.47,135.79Zm0-2.22,0,0.29a0.21,0.21,0,0,0,.18.28,3.07,3.07,0,0,0,1,0,0.76,0.76,0,0,0,.61-0.55,0.75,0.75,0,0,0-.51-0.94C171.84,132.33,171.44,132.58,171.47,133.57Z"/><path class="cls-1" d="M180.84,124.59c0-1,0-2,0-3.06a0.41,0.41,0,0,1,.43-0.5c0.41,0,.82-0.09,1.22-0.16a0.19,0.19,0,0,1,.25.23c0,0.21,0,.41,0,0.62s-0.08.25,0.07,0.28,0.13-.11.17-0.2a1.76,1.76,0,0,1,1.8-.9c0.27,0,.42.12,0.34,0.45a4.5,4.5,0,0,0-.09,1c0,0.28-.09.35-0.37,0.3a1.53,1.53,0,0,0-1.79.84,1.27,1.27,0,0,0-.13.64c0,1.16,0,2.31,0,3.47,0,0.29-.06.42-0.39,0.39a7.76,7.76,0,0,0-1.19,0c-0.26,0-.33-0.08-0.33-0.33,0-1,0-2,0-3.05h0Z"/><path class="cls-1" d="M141.45,124.51c0-1,0-2,0-3a0.43,0.43,0,0,1,.46-0.52,8.64,8.64,0,0,0,1.23-.14c0.19-.06.23,0.1,0.23,0.25s0,0.41,0,.62,0,0.18.07,0.21,0.13-.07.16-0.14a1.76,1.76,0,0,1,1.75-.93c0.31,0,.49.11,0.42,0.48a4.79,4.79,0,0,0-.07.9c0,0.3-.11.4-0.43,0.36a1.52,1.52,0,0,0-1.77.87,1.09,1.09,0,0,0-.1.52c0,1.18,0,2.37,0,3.55,0,0.31-.08.42-0.4,0.39a7.24,7.24,0,0,0-1.15,0c-0.29,0-.35-0.11-0.35-0.36,0-1,0-2.07,0-3.1h0Z"/><path class="cls-2" d="M187.76,134.61c0,0.85,0,1.71,0,2.56,0,0.33,0,.53-0.47.43s-0.61.07-.75-0.33c0-.08-0.17,0-0.26,0a1.46,1.46,0,0,1-2.36-1.22c0-.48,0-1,0-1.45a1.44,1.44,0,0,1,1.51-1.31,1.29,1.29,0,0,1,.91.3,0.2,0.2,0,0,0,.3,0,0.24,0.24,0,0,0,0-.27,6.72,6.72,0,0,1,0-1.44,0.24,0.24,0,0,1,.23-0.24c0.88-.19.88-0.19,0.88,0.71q0,1.1,0,2.19h0Zm-2.72.93c0,0.09,0,.26,0,0.42a0.78,0.78,0,0,0,.69.79,0.81,0.81,0,0,0,.89-0.73,11.14,11.14,0,0,0,0-1.16,0.72,0.72,0,0,0-.57-0.63,0.67,0.67,0,0,0-.75.16A1.47,1.47,0,0,0,185,135.54Z"/><path class="cls-2" d="M149.36,134.63c0-.81,0-1.62,0-2.44,0-.17-0.06-0.43.15-0.47a1.74,1.74,0,0,1,.93-0.07,0.28,0.28,0,0,1,.1.3,12.63,12.63,0,0,1,0,1.49,0.3,0.3,0,0,0,.09.34c0.13,0.07.19-.07,0.27-0.13a1.5,1.5,0,0,1,2.24.46,1.17,1.17,0,0,1,.18.58q0,1.28,0,2.56a0.3,0.3,0,0,1-.38.37c-0.78-.05-0.76,0-0.78-0.8a16.21,16.21,0,0,0,0-1.82,0.8,0.8,0,0,0-.73-0.69,0.83,0.83,0,0,0-.8.68,19.64,19.64,0,0,0,0,2.06,0.45,0.45,0,0,1-.15.52,1.58,1.58,0,0,1-.93,0c-0.13,0-.1-0.24-0.1-0.37,0-.43,0-0.85,0-1.28s0-.85,0-1.28h0Z"/><path class="cls-2" d="M105.8,134.69c0-.83,0-1.65,0-2.48a0.42,0.42,0,0,1,.47-0.52c0.65,0,.65,0,0.64.64,0,0.36,0,.71,0,1.07a0.23,0.23,0,0,0,.08.26,0.26,0.26,0,0,0,.27-0.05,1.52,1.52,0,0,1,2,.14,1.3,1.3,0,0,1,.42,1c0,0.5,0,1,0,1.49a1.51,1.51,0,0,1-1.59,1.33,1.14,1.14,0,0,1-.83-0.29c-0.09-.1-0.2-0.11-0.3,0a1.17,1.17,0,0,1-1,.28,0.55,0.55,0,0,1-.15-0.53c0-.4,0-0.8,0-1.2s0-.8,0-1.2h0Zm2.7,0.85a3.72,3.72,0,0,0,0-.84,0.83,0.83,0,0,0-.9-0.49,0.85,0.85,0,0,0-.69.8q0,0.45,0,.91a1,1,0,0,0,.58.85,0.93,0.93,0,0,0,.86-0.35A1.38,1.38,0,0,0,108.51,135.54Z"/><path class="cls-1" d="M130.25,111.23c0,1.07,0,2.15,0,3.22a0.25,0.25,0,0,1-.28.31h-1.36c-0.21,0-.27-0.09-0.27-0.31q0-3.14,0-6.27a0.28,0.28,0,0,1,.3-0.34c0.42,0,.85-0.1,1.27-0.17,0.27,0,.34.06,0.33,0.31,0,1.09,0,2.17,0,3.26h0Z"/><path class="cls-1" d="M111,111.21c0,1.06,0,2.12,0,3.18,0,0.28-.05.4-0.36,0.38s-0.83,0-1.24,0a0.27,0.27,0,0,1-.31-0.33q0-3.12,0-6.24a0.31,0.31,0,0,1,.33-0.37c0.45,0,.89-0.13,1.34-0.2,0.29,0,.23.17,0.23,0.32,0,1.09,0,2.18,0,3.26h0Z"/><path class="cls-1" d="M171,124.3q0,1.57,0,3.14c0,0.51,0,.53-0.52.52-0.34,0-.69,0-1,0a0.29,0.29,0,0,1-.37-0.35q0-3.16,0-6.32a0.26,0.26,0,0,1,.3-0.33,5.19,5.19,0,0,0,1.34-.19c0.22-.06.29,0,0.29,0.26,0,1.09,0,2.17,0,3.26h0Z"/><path class="cls-2" d="M163.43,135.48c0,0.58,0,1.16,0,1.73,0,0.29-.09.41-0.38,0.39a2.27,2.27,0,0,0-.37,0,0.33,0.33,0,0,1-.43-0.35c0-.25-0.1-0.24-0.27-0.1a1.4,1.4,0,0,1-2.16-.09,1,1,0,0,1-.29-0.71,24.46,24.46,0,0,0,0-2.76,0.18,0.18,0,0,1,0-.12,1.23,1.23,0,0,1,.89-0.13c0.2,0,.27.12,0.27,0.33a20.78,20.78,0,0,0,0,2.27,0.79,0.79,0,0,0,.74.69,0.74,0.74,0,0,0,.8-0.79c0-.66,0-1.32,0-2,0-.49.05-0.54,0.53-0.52H163a0.33,0.33,0,0,1,.41.41c0,0.58,0,1.16,0,1.73h0Z"/><path class="cls-2" d="M117.5,136c0,0.38,0,.77,0,1.15,0,0.17,0,.46-0.15.46a0.89,0.89,0,0,1-.89-0.09c-0.16-.2-0.21-0.16-0.41,0a1.8,1.8,0,0,1-1.7,0,1.47,1.47,0,0,1-.64-1.26,1.45,1.45,0,0,1,1-1.2,1.55,1.55,0,0,1,1.44.21c0.18,0.13.23,0.07,0.26-.11a0.8,0.8,0,0,0-1-.94,1.94,1.94,0,0,0-.73.26c-0.16.11-.37,0.22-0.46-0.08s-0.31-.51.08-0.67a2.66,2.66,0,0,1,2.38-.1,1.79,1.79,0,0,1,.85,1.44c0,0.33,0,.66,0,1h0Zm-1.85.87a0.63,0.63,0,0,0,.77-0.55,0.61,0.61,0,0,0-.58-0.62,0.8,0.8,0,0,0-1,.47,0.27,0.27,0,0,0,0,.05C114.82,136.62,115,136.77,115.65,136.82Z"/><path class="cls-2" d="M126.42,135.8H125.8a0.31,0.31,0,0,0-.32.13,0.35,0.35,0,0,0,.08.38,1.23,1.23,0,0,0,1.5.31,1.57,1.57,0,0,0,.59-0.28c0.19-.15.3-0.08,0.32,0.16a0.69,0.69,0,0,1-.63.92,3,3,0,0,1-2,0,1.49,1.49,0,0,1-.91-1,2.65,2.65,0,0,1,.52-2.79,2.17,2.17,0,0,1,2.07-.3,1.47,1.47,0,0,1,1.07,1.28,0.83,0.83,0,0,1-.73,1.08c-0.31,0-.63,0-0.95.07v0Zm-0.13-.72,0.29,0a0.4,0.4,0,0,0,.39-0.18,0.46,0.46,0,0,0-.16-0.48,0.76,0.76,0,0,0-1.18,0,0.49,0.49,0,0,0-.17.51c0.11,0.23.32,0.16,0.51,0.13A2.55,2.55,0,0,1,126.29,135.08Z"/><path class="cls-2" d="M188.88,135.27a1.82,1.82,0,0,1,.73-1.62,1.67,1.67,0,0,1,1-.36,1.77,1.77,0,0,1,2.05,1.31,0.87,0.87,0,0,1-.76,1.17,11.11,11.11,0,0,1-1.57.07c-0.12,0-.26,0-0.31.12a0.35,0.35,0,0,0,.1.37,1.36,1.36,0,0,0,1.48.3,2.17,2.17,0,0,1,.42-0.18c0.16,0,.24-0.35.45-0.14a1,1,0,0,1-.15,1,2.94,2.94,0,0,1-2.5.1C189.05,137,188.87,136.56,188.88,135.27Zm1.79-.21H191c0.2,0,.45,0,0.5-0.25a0.5,0.5,0,0,0-.3-0.54,1.49,1.49,0,0,0-.5-0.16,0.89,0.89,0,0,0-.74.67c0,0.49.41,0.19,0.63,0.27h0Z"/><path class="cls-2" d="M154.34,135.44a2,2,0,0,1,2-2.15,2,2,0,0,1,2.11,2.19A2.08,2.08,0,1,1,154.34,135.44Zm1.12,0c0,0.21,0,.39.05,0.56a0.77,0.77,0,0,0,.53.71,0.89,0.89,0,0,0,1-.27,1.91,1.91,0,0,0,.18-1.54,0.84,0.84,0,0,0-.81-0.68,0.81,0.81,0,0,0-.92.64A5,5,0,0,0,155.47,135.41Z"/><path class="cls-2" d="M175.65,135.52a1.93,1.93,0,0,1,1.84-2.21,2,2,0,0,1,2.27,2.09,2,2,0,0,1-2.19,2.23A1.92,1.92,0,0,1,175.65,135.52Zm2.94,0h0c0-.18,0-0.36,0-0.54a0.92,0.92,0,0,0-1.51-.52,1.67,1.67,0,0,0-.3,1.43,0.86,0.86,0,0,0,.91.89,0.83,0.83,0,0,0,.9-0.89C178.59,135.72,178.59,135.6,178.59,135.47Z"/><path class="cls-2" d="M98.61,134.61c0-.84,0-1.68,0-2.52,0-.33.07-0.48,0.44-0.46,0.78,0,.81-0.2.79,0.79,0,1.28,0,2.56,0,3.84a0.31,0.31,0,0,0,.38.36c0.61,0,1.21,0,1.82,0,0.33,0,.49,0,0.37.41a1.14,1.14,0,0,0,0,.33,0.26,0.26,0,0,1-.31.29c-1,0-2,0-3,0a0.35,0.35,0,0,1-.43-0.43c0-.85,0-1.71,0-2.56h0Z"/><path class="cls-2" d="M198.62,137.67l-1.28-.23a0.43,0.43,0,0,1-.39-0.59,1.64,1.64,0,0,0,0-.33c0-.26.1-0.32,0.33-0.18a2.5,2.5,0,0,0,1.24.41c0.27,0,.52,0,0.6-0.29s-0.21-.43-0.44-0.48a7.32,7.32,0,0,1-1.06-.34,1.18,1.18,0,0,1-.37-2,1.7,1.7,0,0,1,1.32-.34,4.42,4.42,0,0,1,1.17.22,0.45,0.45,0,0,1,.38.59c-0.1.58-.07,0.59-0.58,0.34a2,2,0,0,0-1.11-.23,0.33,0.33,0,0,0-.39.22,0.35,0.35,0,0,0,.24.42l1.12,0.4a1.16,1.16,0,0,1,.75,1.61A1.55,1.55,0,0,1,198.62,137.67Z"/><path class="cls-2" d="M130.8,137.65a4.14,4.14,0,0,1-1.41-.28,0.77,0.77,0,0,1-.26-1,0.32,0.32,0,0,1,.45,0,2.18,2.18,0,0,0,1,.36c0.28,0,.61.06,0.67-0.29a0.5,0.5,0,0,0-.53-0.52,3,3,0,0,1-1.27-.46,1.07,1.07,0,0,1-.47-1.08,1.08,1.08,0,0,1,.72-1,3.49,3.49,0,0,1,2.3.14,0.93,0.93,0,0,1,.1,1,0.29,0.29,0,0,1-.34,0,2,2,0,0,0-1.26-.3,0.31,0.31,0,0,0-.36.19,0.38,0.38,0,0,0,.18.42,4,4,0,0,0,1.15.4,1.25,1.25,0,0,1,.91,1.09,1.17,1.17,0,0,1-.86,1.21A2,2,0,0,1,130.8,137.65Z"/><path class="cls-2" d="M146,135.45c0-.32,0-0.63,0-1s-0.07-.44-0.38-0.39-0.31-.16-0.31-0.36,0-.47.29-0.45,0.41-.21.39-0.49c0-.07,0-0.14,0-0.21a0.66,0.66,0,0,1,1-.67,0.31,0.31,0,0,1,.17.34c0,1,0,1,1,1a0.33,0.33,0,0,1,.37.42c0,0.25-.06.46-0.4,0.44-0.95-.06-0.95-0.05-1,0.88q0,0.45,0,.91a0.61,0.61,0,0,0,.92.67c0.08,0,.16-0.09.22,0a1,1,0,0,1,0,.69,0.33,0.33,0,0,1-.38.25l-0.58.06a1.18,1.18,0,0,1-1.33-1.15c0-.33,0-0.66,0-1h0Z"/><path class="cls-2" d="M164.78,135.34c0-.18,0-0.36,0-0.54,0-.37,0-0.71-0.53-0.71-0.3,0-.18-0.34-0.18-0.54a0.21,0.21,0,0,1,.28-0.24c0.33,0.09.43-.08,0.42-0.37,0,0,0-.08,0-0.12,0-.79,0-0.77.77-0.9,0.33-.06.38,0.09,0.4,0.34a1.76,1.76,0,0,0,0,1,1.29,1.29,0,0,0,.94.08,0.32,0.32,0,0,1,.31.43c0,0.22,0,.4-0.34.4-1,0-1,0-1,1,0,0.33,0,.66,0,1a0.54,0.54,0,0,0,.73.58c0.15,0,.33-0.24.45,0a0.66,0.66,0,0,1-.29.78,2.22,2.22,0,0,1-1.42,0,1,1,0,0,1-.55-0.73A5.6,5.6,0,0,1,164.78,135.34Z"/><path class="cls-2" d="M110.8,135.52c0-.56,0-1.13,0-1.69,0-.18,0-0.46.27-0.41s0.68-.39.87,0.17c0.09,0.27.25,0.15,0.39,0.05a1.22,1.22,0,0,1,.78-0.33,0.31,0.31,0,0,1,.34.39c0,0.18-.06.35-0.09,0.53a0.18,0.18,0,0,1-.26.17,0.9,0.9,0,0,0-1.12,1c0,0.6,0,1.21,0,1.82,0,0.34-.07.51-0.44,0.43h-0.08c-0.67,0-.67,0-0.67-0.71,0-.45,0-0.91,0-1.36h0Z"/><path class="cls-2" d="M180.78,135.42c0-.59,0-1.18,0-1.77a0.19,0.19,0,0,1,.12-0.24,5.33,5.33,0,0,1,.86-0.08c0.18,0,.16.19,0.17,0.32a0.17,0.17,0,0,0,.08.17,0.16,0.16,0,0,0,.2-0.11,1.14,1.14,0,0,1,.88-0.44,0.21,0.21,0,0,1,.19,0,1,1,0,0,1,.06.86c0,0.2-.19.19-0.35,0.19a0.89,0.89,0,0,0-1.06,1.07c0,0.58,0,1.16,0,1.73,0,0.28,0,.47-0.38.39a1,1,0,0,0-.25,0c-0.48,0-.55-0.07-0.53-0.54S180.78,136,180.78,135.42Z"/><path class="cls-2" d="M193.71,135.54c0-.56,0-1.13,0-1.69,0-.31.07-0.51,0.45-0.46s0.64-.24.72,0.31c0,0.16.2,0,.3,0a1.56,1.56,0,0,1,.85-0.36c0.21,0,.31.07,0.3,0.29s0,0.38,0,.57a0.23,0.23,0,0,1-.3.25,0.91,0.91,0,0,0-1.12,1.09c0,0.54,0,1.07,0,1.61,0,0.36-.08.52-0.48,0.5-0.7,0-.7,0-0.69-0.71,0-.45,0-0.91,0-1.36h0Z"/><path class="cls-2" d="M118.66,135.5c0-.59,0-1.18,0-1.78,0-.26.07-0.39,0.36-0.35a2.39,2.39,0,0,0,.45,0c0.15,0,.28,0,0.29.2,0,0.36.19,0.27,0.36,0.1a1,1,0,0,1,.73-0.33,0.34,0.34,0,0,1,.4.4c0,0.12,0,.25,0,0.37s0,0.37-.36.27a0.85,0.85,0,0,0-1,.66,9.76,9.76,0,0,0-.06,2c0,0.57,0,.58-0.55.54s-0.58,0-.58-0.65,0-1,0-1.45h0Z"/><path class="cls-2" d="M104.47,135.44c0,0.61,0,1.21,0,1.82a0.3,0.3,0,0,1-.37.36c-0.8,0-.78,0-0.77-0.81,0-1,0-2,0-3,0-.32.06-0.52,0.44-0.45h0.08a0.73,0.73,0,0,1,.54,0,1,1,0,0,1,.07.64c0,0.5,0,1,0,1.49h0Z"/><path class="cls-2" d="M143.35,135.45c0-.56,0-1.13,0-1.69,0-.28,0-0.47.39-0.4a0.51,0.51,0,0,0,.16,0c0.61-.09.6-0.07,0.6,0.53q0,1.59,0,3.18c0,0.52,0,.58-0.53.55s-0.63,0-.63-0.71c0-.48,0-1,0-1.45h0Z"/><path class="cls-2" d="M122,135.44c0-.58,0-1.15,0-1.73a0.28,0.28,0,0,1,.33-0.35h0.25c0.62-.09.61-0.09,0.6,0.57,0,1.09,0,2.17,0,3.26,0,0.36-.09.48-0.47,0.45-0.72-.07-0.72,0-0.71-0.77,0-.47,0-0.93,0-1.4h0Z"/><path class="cls-1" d="M129.29,104.57a1,1,0,0,1,1.08,1.05,1.05,1.05,0,0,1-1.07,1.07,1.1,1.1,0,0,1-1.11-1A1.06,1.06,0,0,1,129.29,104.57Z"/><path class="cls-1" d="M110.08,104.56a1.07,1.07,0,1,1-1.12,1A1.15,1.15,0,0,1,110.08,104.56Z"/><path class="cls-1" d="M171.15,118.79a1,1,0,0,1-1.1,1,1,1,0,0,1-1.07-1.1,1,1,0,0,1,1.05-1A1.09,1.09,0,0,1,171.15,118.79Z"/><path class="cls-1" d="M175.85,120.29a0.89,0.89,0,0,1-1-.49c-0.3-.41-0.63-0.8-0.95-1.19-0.06-.07-0.16-0.14-0.09-0.25a0.23,0.23,0,0,1,.26,0,4.43,4.43,0,0,0,1.15,0,0.48,0.48,0,0,1,.52.29c0.21,0.4.46,0.78,0.69,1.17a0.45,0.45,0,0,1,.14.41c-0.08.17-.27,0.08-0.41,0.08h-0.31Z"/><path class="cls-1" d="M159.88,105.18a1.11,1.11,0,0,1,1.41.86c0.13,0.27.31,0.52,0.46,0.78s0.07,0.31-.18.3h0a1.53,1.53,0,0,1-1.76-.85,5,5,0,0,0-.66-0.79,0.22,0.22,0,0,1-.07-0.22c0-.1.14-0.06,0.22-0.06h0.62Z"/><path class="cls-2" d="M122,132.05a0.73,0.73,0,0,1,.63-0.68,0.78,0.78,0,0,1,.69.71,0.6,0.6,0,0,1-.68.61A0.56,0.56,0,0,1,122,132.05Z"/><path class="cls-2" d="M143.91,132.7a0.62,0.62,0,0,1-.62-0.75,0.68,0.68,0,0,1,.7-0.55,0.72,0.72,0,0,1,.61.68A0.67,0.67,0,0,1,143.91,132.7Z"/><path class="cls-2" d="M103.94,132.66a0.52,0.52,0,0,1-.64-0.56,0.57,0.57,0,0,1,.63-0.67,0.67,0.67,0,0,1,.69.63A0.59,0.59,0,0,1,103.94,132.66Z"/><path class="cls-1" d="M55.17,126a7.57,7.57,0,0,1-.43-3.42,0.1,0.1,0,0,1,.11.1c-0.05.78,0.23,1.53,0.23,2.31a1.11,1.11,0,0,0,.13.47A0.48,0.48,0,0,1,55.17,126Z"/><path class="cls-1" d="M91.21,125.82a0.74,0.74,0,0,1-.15-0.09,1.73,1.73,0,0,1,.29-1.49c0.19-.08.18,0.08,0.16,0.17a5.71,5.71,0,0,0-.18.67A1.77,1.77,0,0,1,91.21,125.82Z"/><path class="cls-1" d="M55.24,123.22c0-.14,0-0.29.2-0.29s0.13,0.14.13,0.24a1.93,1.93,0,0,0,.16.63c0,0.1.17,0.23,0,.31a0.25,0.25,0,0,1-.35-0.19C55.37,123.67,55.24,123.46,55.24,123.22Z"/><path class="cls-1" d="M57.63,127a2.81,2.81,0,0,1,0,1.47A2.51,2.51,0,0,1,57.63,127Z"/><path class="cls-1" d="M57.93,129.92a0.9,0.9,0,0,1-.12-0.94A1.14,1.14,0,0,1,57.93,129.92Z"/><path class="cls-1" d="M91,124.3a0.85,0.85,0,0,1-.07-0.78A0.6,0.6,0,0,1,91,124.3Z"/><path class="cls-1" d="M55.83,121a0.89,0.89,0,0,1,0,.72A0.53,0.53,0,0,1,55.83,121Z"/><path class="cls-1" d="M45.88,136.83a0.83,0.83,0,0,1,0,.5,0.11,0.11,0,0,1-.17.11,0.09,0.09,0,0,1,0-.16C45.85,137.17,45.72,137,45.88,136.83Z"/><path class="cls-1" d="M68,118.14a0.26,0.26,0,0,0-.29-0.06c-0.17,0-.3,0-0.2-0.25s-0.12-.52.3-0.52c0,0,0-.12,0-0.19a7,7,0,0,0-.49-0.85,0.86,0.86,0,0,1,0-1,0.2,0.2,0,0,1,.23-0.14c0.15,0,.08.14,0.05,0.23s0,0.23.18,0.17,0.23-.06.29,0.07a0.2,0.2,0,0,1-.15.26c-0.28.15-.19,0.26,0,0.39a1,1,0,0,0,.57.29c0.15,0,.16.12,0.19,0.22s0,0.51.37,0.53c0.12,0,.08.19,0,0.29a2.16,2.16,0,0,0-.19.92c-0.3-.47-0.56-0.18-0.83,0a0.43,0.43,0,0,1-.44.15,0.14,0.14,0,0,1-.09-0.17,0.44,0.44,0,0,1,.39-0.26A0.43,0.43,0,0,0,68,118.14Z"/><path class="cls-1" d="M65.06,117.22a6.08,6.08,0,0,1,0-1.8A0.35,0.35,0,0,0,65,115c-0.11-.12-0.21,0-0.33,0A2.39,2.39,0,0,1,63.1,115c0.52,0,1,0,1.56,0a0.44,0.44,0,0,0,.54-0.5,1.14,1.14,0,0,1,.15-0.71,1.9,1.9,0,0,1,.1.73c0,0.22,0,.3.32,0.27a7.27,7.27,0,0,0,1.85-.27,0.21,0.21,0,0,1,.23.08,0.56,0.56,0,0,1-.73.24,0.27,0.27,0,0,0-.07,0,8.5,8.5,0,0,1-1.53.19,0.48,0.48,0,0,0-.28.51c0,0.44,0,.88,0,1.32A0.45,0.45,0,0,1,65.06,117.22Z"/><path class="cls-1" d="M65.52,112.33a1,1,0,0,1,0,1.06,1.18,1.18,0,0,1-1.23,0,0.18,0.18,0,0,1,0-.25l0,0c0.29-.1-0.08-0.4.15-0.52a1.26,1.26,0,0,1,.47.22A0.59,0.59,0,0,0,65.52,112.33Z"/><path class="cls-1" d="M66.62,118c-0.11,0-.28,0-0.27-0.16s0.2-.42-0.16-0.53c-0.05,0,0-.16.11-0.16a0.61,0.61,0,0,0,.47-0.35,0.22,0.22,0,0,1,.27-0.14,0.22,0.22,0,0,1,.1.25,5.4,5.4,0,0,0-.05.78C67.07,118,66.85,118,66.62,118Z"/><path class="cls-1" d="M67.95,112.1a1.61,1.61,0,0,1,.17,1.08c0,0.07,0,.16-0.1.14a0.16,0.16,0,0,1-.15-0.16C67.89,112.81,67.92,112.46,67.95,112.1Z"/><path class="cls-1" d="M68.68,108.92c0.08,0,.19,0,0.19.11s-0.11.14-.21,0.14-0.19,0-.19-0.1A0.18,0.18,0,0,1,68.68,108.92Z"/><path class="cls-1" d="M67.07,107.07c0.06,0.26.08,0.44-.17,0.55A0.43,0.43,0,0,1,67.07,107.07Z"/><path class="cls-1" d="M68.36,115.39h0.09a0.66,0.66,0,0,1,.05.68,0.07,0.07,0,0,1-.13,0A0.94,0.94,0,0,1,68.36,115.39Z"/><path class="cls-1" d="M64.91,106.42c-0.05,0-.1-0.06-0.06-0.11a0.12,0.12,0,0,1,.17,0Z"/><path class="cls-1" d="M65,106.32s0.08,0.07,0,.12a0.1,0.1,0,0,1-.14,0Z"/><path class="cls-1" d="M67.72,136.37a0.48,0.48,0,0,1-.19-0.32,0.6,0.6,0,0,0-.21-0.58,0.23,0.23,0,0,1,0-.27,0.11,0.11,0,0,1,.1,0,0.22,0.22,0,0,1,.12.24A1.62,1.62,0,0,1,67.72,136.37Z"/><path class="cls-1" d="M74.43,139.86a2.1,2.1,0,0,1-1.51.14A2.25,2.25,0,0,1,74.43,139.86Z"/><path class="cls-1" d="M74.94,121.94c0.07,0.07.43-.07,0.2,0.27a0.25,0.25,0,0,0,0,.15c0,0.16.22,0.43,0,.44a1.74,1.74,0,0,1-.94-0.18,0.12,0.12,0,0,1,.06-0.21c0.29,0,.55,0,0.56-0.42C74.79,121.94,74.85,121.92,74.94,121.94Z"/><path class="cls-1" d="M72.6,122.15c0-.08,0-0.15,0-0.21s0-.22.1-0.24,0.17,0.1.2,0.21,0,0.11,0,.16,0.13,0.49-.14.52S72.67,122.3,72.6,122.15Z"/><path class="cls-1" d="M65.09,123.71a4.25,4.25,0,0,1,.07,1.75A3.54,3.54,0,0,1,65.09,123.71Z"/><path class="cls-1" d="M75.09,121.29a0.46,0.46,0,0,1,.26.67,0.18,0.18,0,0,1-.12.08,0.08,0.08,0,0,1-.09-0.11A1.14,1.14,0,0,0,75,121.4Z"/><path class="cls-1" d="M71.16,105.12a3.77,3.77,0,0,1,1.73,0A4,4,0,0,1,71.16,105.12Z"/><path class="cls-1" d="M70.7,104.07a0.84,0.84,0,0,1,.62.11s0,0.05,0,.1-0.11.12-.15,0.06A4.39,4.39,0,0,0,70.7,104.07Z"/><path class="cls-1" d="M70.84,104.53a1.35,1.35,0,0,1-.73-0.23C70.38,104.19,70.38,104.19,70.84,104.53Z"/><path class="cls-1" d="M81.22,120.35a0.57,0.57,0,0,1-.36.39,0.12,0.12,0,0,1-.12-0.16,0.6,0.6,0,0,1,.36-0.41C81.19,120.15,81.24,120.24,81.22,120.35Z"/></svg>