<?xml version="1.0" encoding="utf-8"?>
<!-- Generator: Adobe Illustrator 17.0.0, SVG Export Plug-In . SVG Version: 6.00 Build 0)  -->
<!DOCTYPE svg PUBLIC "-//W3C//DTD SVG 1.1//EN" "http://www.w3.org/Graphics/SVG/1.1/DTD/svg11.dtd">
<svg version="1.1" id="Calque_1" xmlns="http://www.w3.org/2000/svg" xmlns:xlink="http://www.w3.org/1999/xlink" x="0px" y="0px"
	 width="612px" height="792px" viewBox="0 0 612 792" enable-background="new 0 0 612 792" xml:space="preserve">
<title>pictos_JRS</title>
<g>
	<path fill="#FFFFFF" d="M362.1,333.485v29.58h6.885v8.415h-22.44v-8.415h6.12v-38.25h-6.12V316.4h14.28l27.285,34.68v-26.265
		h-6.885V316.4h22.185v8.415h-6.12v46.92h-5.1L362.1,333.485z"/>
	<path fill="#FFFFFF" d="M408.765,362.81h6.12v-38.25h-6.12v-8.415h20.655c19.89,0,31.62,10.455,31.62,27.03
		c0,16.83-11.22,28.05-32.64,28.05h-19.89L408.765,362.81L408.765,362.81z M429.675,362.81c14.28,0,21.42-7.65,21.42-19.635
		c0-11.985-8.415-18.615-22.185-18.615h-4.845v38.25H429.675z"/>
	<path fill="#FFFFFF" d="M468.18,362.81h6.12v-38.25h-6.12v-8.415h21.42c12.75,0,21.93,5.355,21.93,16.83
		c0,7.395-4.335,12.75-10.455,14.79l8.415,14.79h6.12v8.415h-12.75l-10.965-21.165c-1.02,0-2.295,0-3.315,0
		c-1.785,0-3.315,0-4.335,0V362.3h6.885v8.415h-22.44v-7.905L468.18,362.81L468.18,362.81z M501.33,333.485
		c0-5.865-4.845-8.415-12.495-8.415h-5.1v17.85c1.02,0,2.295,0,5.355,0C496.74,342.665,501.33,339.35,501.33,333.485z"/>
	<path fill="#FFFFFF" d="M520.2,362.81h6.12v-38.25h-6.12v-8.415h41.31V331.7h-9.18v-7.395h-16.32v14.79h16.83V347h-16.83v15.555
		h16.32v-7.395h9.18v15.555H520.2V362.81z"/>
	<path fill="#FFFFFF" d="M149.685,186.86C64.515,186.86,0.51,250.1,0.51,333.74c0,87.975,60.435,146.88,150.195,146.88
		c40.035,0,77.775-14.535,105.825-40.29l-17.085-17.85c-25.5,23.205-55.59,35.19-88.485,35.19
		c-70.635,0-121.38-52.275-121.38-124.44c0-70.125,51.255-123.42,119.34-123.42c36.465,0,54.825,10.455,62.985,16.83l8.415,6.63
		l-4.845,9.435c-0.765,1.53-1.785,5.355-1.785,10.2c0,12.75,8.415,20.4,22.44,20.4c12.495,0,20.655-10.2,20.655-24.99
		C256.275,218.48,213.435,186.86,149.685,186.86z"/>
	<path fill="#FFFFFF" d="M62.475,343.94c0-16.065,11.73-28.815,28.305-28.815c16.83,0,28.05,12.495,28.05,28.815
		c0,16.065-11.73,28.815-28.305,28.815C73.95,372.5,62.475,360.005,62.475,343.94z M109.395,343.94
		c0-11.73-7.65-19.635-18.615-19.635c-10.455,0-18.615,8.415-18.615,19.635c0,11.73,7.65,19.635,18.615,19.635
		S109.395,355.16,109.395,343.94z"/>
	<path fill="#FFFFFF" d="M124.95,362.81h6.63l1.785-38.25h-6.885v-8.415h14.79l17.085,30.6l17.085-30.6h14.79v8.415h-6.885
		l1.785,38.25h6.63v8.415h-22.44v-8.415h6.63l-1.02-28.305l-15.555,27.54h-1.02l-15.555-27.54l-1.02,28.305h6.63v8.415h-22.44
		L124.95,362.81L124.95,362.81z"/>
	<path fill="#FFFFFF" d="M197.37,362.81h6.12v-38.25h-6.12v-8.415h22.185c11.73,0,20.655,6.885,20.655,18.105
		c0,12.75-9.18,18.87-21.93,18.87c-2.55,0-4.335,0-5.355,0v9.945h6.885v8.415h-22.44C197.37,371.48,197.37,362.81,197.37,362.81z
		 M230.775,334.25c0-5.865-4.845-9.435-11.73-9.435h-5.865v19.89c1.02,0,2.295,0,6.12,0
		C226.44,344.705,230.775,340.625,230.775,334.25z"/>
	<path fill="#FFFFFF" d="M246.075,362.81h6.12v-38.25h-6.12v-8.415h21.42c12.75,0,21.93,5.355,21.93,16.83
		c0,7.395-4.335,12.75-10.455,14.79l8.415,14.79h6.12v8.415h-12.75l-10.965-21.165c-1.02,0-2.295,0-3.315,0
		c-1.785,0-3.315,0-4.335,0V362.3h6.885v8.415h-22.44v-7.905L246.075,362.81L246.075,362.81z M279.48,333.485
		c0-5.865-4.845-8.415-12.495-8.415h-5.1v17.85c1.02,0,2.295,0,5.355,0C274.38,342.665,279.48,339.35,279.48,333.485z"/>
	<path fill="#FFFFFF" d="M298.095,362.81h6.12v-38.25h-6.12v-8.415h41.055V331.7h-9.18v-7.395h-16.32v14.79h16.83V347h-16.83v15.555
		h16.32v-7.395h9.18v15.555h-41.055V362.81z"/>
	<path fill="#FFFFFF" stroke="#FFFFFF" stroke-width="0.75" stroke-linejoin="round" stroke-miterlimit="10" d="M311.865,476.795
		h4.08l9.435-40.8h-6.12v-0.255h6.63l-2.295,9.435c2.295-5.355,6.885-9.945,12.75-9.945c6.12,0,9.945,4.335,9.945,11.22
		c0,8.415-5.355,17.085-14.28,17.085c-6.12,0-10.2-4.845-10.2-11.22v-0.765l-5.865,24.735h6.12v0.255L311.865,476.795
		L311.865,476.795z M346.035,446.705c0-6.885-3.57-11.22-9.435-11.22c-8.415,0-14.28,9.435-14.28,17.085
		c0,6.63,4.08,10.965,9.945,10.965C340.68,463.79,346.035,454.865,346.035,446.705z"/>
	<path fill="#FFFFFF" stroke="#FFFFFF" stroke-width="0.75" stroke-linejoin="round" stroke-miterlimit="10" d="M356.745,451.55
		c0-8.415,5.865-16.32,14.535-16.32c6.63,0,11.73,4.335,11.73,12.495c0,8.415-6.12,16.32-14.535,16.32
		C361.845,463.79,356.745,459.2,356.745,451.55z M382.5,447.215c0-7.65-4.845-11.985-11.22-11.985
		c-8.415,0-14.28,7.905-14.28,16.065c0,7.65,4.845,11.985,11.22,11.985C376.635,463.79,382.5,455.63,382.5,447.215z"/>
	<path fill="#FFFFFF" stroke="#FFFFFF" stroke-width="0.75" stroke-linejoin="round" stroke-miterlimit="10" d="M397.8,435.23
		l-3.57,14.79c-0.765,3.315-1.02,5.865-1.02,7.395c0,3.57,2.295,6.12,5.865,6.12c6.12,0,12.495-7.395,14.535-16.32l2.805-11.73
		h0.255l-5.1,21.165c-0.255,1.02-0.255,2.295-0.255,3.315c0,2.295,1.02,3.57,3.315,3.57c2.295,0,3.57-1.785,5.1-5.355h0.255
		c-1.53,4.08-2.805,5.865-5.355,5.865c-2.295,0-3.57-1.785-3.57-4.08c0-1.02,0-1.785,0.255-3.315l1.53-5.1
		c-2.805,7.395-8.415,12.495-13.515,12.495c-4.08,0-6.12-2.55-6.12-6.12c0-1.53,0.255-3.57,1.02-7.395l3.57-14.535h-6.12v-0.255
		L397.8,435.23L397.8,435.23z"/>
	<path fill="#FFFFFF" stroke="#FFFFFF" stroke-width="0.75" stroke-linejoin="round" stroke-miterlimit="10" d="M436.05,435.995
		h-5.865v-0.255h6.63l-2.805,11.22c2.55-7.395,5.865-11.73,9.435-11.73c1.53,0,2.295,0.765,2.295,1.53
		c0,0.255-0.255,0.765-0.765,0.765c-0.765,0-0.765-0.255-0.765-0.765c0-0.255,0.255-0.765,0.255-0.765
		c-0.255-0.255-0.765-0.255-1.02-0.255c-4.08,0-7.905,6.12-10.965,16.83l-2.805,11.22h-0.765L436.05,435.995z"/>
	<g>
		<path fill="#FFFFFF" d="M137.955,551c0-15.555,10.455-29.58,23.715-29.58c6.12,0,10.965,5.1,12.75,10.2l3.315-9.435h10.455
			l-7.65,30.855c-0.255,1.785-0.765,3.57-0.765,4.845c0,1.785,0.765,2.805,2.295,2.805s3.57-1.02,5.865-7.395l4.845,1.785
			c-3.315,10.455-8.67,13.515-13.77,13.515c-5.865,0-9.435-4.08-9.435-10.2c-3.57,5.355-9.18,10.2-16.32,10.2
			C144.075,568.34,137.955,561.455,137.955,551z M172.125,541.055c0-5.865-2.805-9.435-8.67-9.435c-7.65,0-13.77,8.415-13.77,17.85
			c0,5.355,2.55,9.435,7.905,9.435C165.75,558.905,172.125,551,172.125,541.055z"/>
		<path fill="#FFFFFF" d="M189.21,578.54h6.63l10.965-46.92h-8.415l2.55-9.435h18.105l-2.295,10.2
			c3.57-5.865,9.945-11.22,16.83-11.22c10.455,0,15.555,7.395,15.555,17.85c0,15.555-10.455,29.07-23.97,29.07
			c-6.63,0-10.965-4.845-13.005-9.435l-4.845,19.635h7.905l-2.55,9.435h-25.755L189.21,578.54z M236.895,540.8
			c0-5.355-2.805-9.945-8.67-9.945c-7.905,0-14.535,7.905-14.535,17.85c0,5.865,2.805,9.435,9.18,9.435
			C230.775,558.65,236.895,550.235,236.895,540.8z"/>
		<path fill="#FFFFFF" d="M247.605,578.54h6.63l10.965-46.92h-8.415l2.55-9.435h18.105l-2.295,10.2
			c3.57-5.865,9.945-11.22,16.83-11.22c10.455,0,15.555,7.395,15.555,17.85c0,15.555-10.455,29.07-23.97,29.07
			c-6.63,0-10.965-4.845-13.005-9.435l-4.845,19.635h7.905l-2.55,9.435H245.31L247.605,578.54z M295.035,540.8
			c0-5.355-2.805-9.945-8.67-9.945c-7.905,0-14.535,7.905-14.535,17.85c0,5.865,2.805,9.435,9.18,9.435
			C288.915,558.65,295.035,550.235,295.035,540.8z"/>
		<path fill="#FFFFFF" d="M323.595,532.13h-8.415l2.55-9.435h17.85l-2.805,13.005c5.355-9.435,10.455-14.28,16.065-14.28
			c4.08,0,7.65,2.805,7.65,7.395c0,4.08-3.315,7.395-7.395,7.395c-3.57,0-6.12-2.55-6.885-5.1c-3.315,1.02-8.67,6.885-10.965,16.065
			l-5.1,20.655h-11.73L323.595,532.13z"/>
		<path fill="#FFFFFF" d="M367.2,548.705v0.765c0,5.1,4.08,9.435,12.75,9.435c4.845,0,9.435-1.02,14.79-4.08l-2.295,10.2
			c-4.845,2.295-8.67,3.315-15.3,3.315c-10.965,0-21.42-6.885-21.42-19.635c0-15.3,10.965-27.54,24.48-27.54
			c11.73,0,19.635,6.12,19.635,17.34c0,2.805-0.255,6.12-1.785,9.945L367.2,548.705L367.2,548.705z M368.73,541.055h20.4
			c0.255-1.02,0.255-2.295,0.255-3.315c0-4.335-2.805-6.885-8.415-6.885C375.105,530.855,370.77,534.935,368.73,541.055z"/>
		<path fill="#FFFFFF" d="M436.56,558.65c0-1.785,0.255-3.315,0.765-5.1l3.315-12.495c0.255-1.53,0.255-2.55,0.255-3.57
			c0-4.08-2.55-6.12-6.12-6.12c-4.845,0-7.905,3.315-9.945,10.2l-6.63,26.52h-11.73l9.18-35.955h-8.415l2.55-9.435h17.85
			l-2.295,10.455c3.315-5.865,9.435-11.22,15.3-11.22c6.63,0,11.985,4.845,11.985,13.515c0,2.295-0.255,4.845-1.02,7.65
			l-3.315,11.985c-0.255,1.02-0.255,2.295-0.255,3.315c0,2.295,0.765,3.315,2.55,3.315c1.53,0,3.57-1.02,5.865-7.395l4.845,1.785
			c-2.55,9.435-7.65,13.515-13.77,13.515C440.385,568.34,436.56,564.515,436.56,558.65z"/>
		<path fill="#FFFFFF" d="M489.855,521.42c6.12,0,10.455,5.1,12.495,9.945l6.885-29.835h-7.905l2.55-9.435h19.38l-14.28,61.455
			c-0.255,2.295-0.765,3.57-0.765,4.845c0,1.785,0.765,2.805,2.295,2.805c1.53,0,3.57-1.02,5.865-7.395l4.845,1.785
			c-3.315,10.455-9.18,13.515-13.77,13.515c-5.865,0-9.435-4.08-9.435-10.2c-3.57,5.355-9.18,10.2-16.32,10.2
			c-8.415,0-14.535-6.885-14.535-17.34C466.14,535.445,476.595,521.42,489.855,521.42z M500.565,541.055
			c0-5.865-2.805-9.435-8.67-9.435c-7.65,0-13.77,8.415-13.77,17.85c0,5.355,2.55,9.435,7.905,9.435
			C493.68,558.905,500.565,551,500.565,541.055z"/>
		<path fill="#FFFFFF" d="M535.245,532.13h-7.905l2.55-9.435h17.85l-2.805,13.005c5.355-9.435,10.455-14.28,16.065-14.28
			c4.08,0,7.65,2.805,7.65,7.395c0,4.08-3.315,7.395-7.395,7.395c-3.57,0-6.12-2.55-6.885-5.1c-3.315,1.02-8.67,6.885-10.965,16.065
			l-5.1,20.655h-11.73L535.245,532.13z"/>
		<path fill="#FFFFFF" d="M579.36,548.705v0.765c0,5.1,4.08,9.435,12.75,9.435c4.845,0,9.435-1.02,14.79-4.08l-2.295,10.2
			c-4.845,2.295-8.67,3.315-15.3,3.315c-10.965,0-21.42-6.885-21.42-19.635c0-15.3,10.965-27.54,24.48-27.54
			c11.73,0,19.635,6.12,19.635,17.34c0,2.805-0.255,6.12-1.785,9.945L579.36,548.705L579.36,548.705z M580.38,541.055h20.4
			c0.255-1.02,0.255-2.295,0.255-3.315c0-4.335-2.805-6.885-8.415-6.885S582.42,534.935,580.38,541.055z"/>
	</g>
</g>
</svg>
