<svg id="Calque_1" data-name="Calque 1" xmlns="http://www.w3.org/2000/svg" viewBox="0 0 240 240"><defs><style>.cls-1{fill:#e78947;}.cls-2{fill:#63aeaa;}</style></defs><title>pictos_JRS</title><g id="G0sofm"><path class="cls-1" d="M119.64,186.9c-0.88,0-2.26,0-3.64-.1-1.09-.06-2.18-0.19-3.28-0.31-1.24-.13-2.48-0.33-3.71-0.54-1-.16-1.91-0.33-2.85-0.58-0.47-.13-1-0.2-1.44-0.32-1.52-.37-3-0.82-4.5-1.28s-2.81-1-4.2-1.52-2.57-1-3.82-1.66-2.22-1.08-3.3-1.68c-1.24-.69-2.46-1.4-3.67-2.15s-2.37-1.55-3.52-2.39c-1.48-1.07-2.89-2.22-4.28-3.4s-2.92-2.64-4.3-4-2.63-2.85-3.87-4.34c-1.06-1.27-2-2.61-3-4-0.76-1.08-1.5-2.17-2.19-3.3s-1.31-2.13-1.89-3.23-1.2-2.22-1.73-3.36-1.18-2.49-1.66-3.78c-0.29-.79-0.63-1.57-0.92-2.36-0.21-.56-0.4-1.14-0.59-1.71s-0.48-1.41-.68-2.13-0.51-1.63-.68-2.47c-0.11-.54-0.3-1.06-0.41-1.59-0.22-1-.44-2.06-0.63-3.1-0.14-.77-0.26-1.55-0.39-2.33s-0.23-1.62-.32-2.43c-0.19-1.81-.29-3.62-0.35-5.43,0-1-.08-2.09,0-3.12,0.06-1.24,0-2.48.16-3.71s0.18-2.41.39-3.61c0.09-.5.07-1,0.17-1.51,0.22-1.09.37-2.19,0.6-3.27q0.28-1.38.61-2.75c0.21-.86.44-1.71,0.69-2.55s0.52-1.75.81-2.61,0.58-1.7.89-2.54,0.62-1.57.94-2.35,0.6-1.39.92-2.08,0.53-1.15.81-1.71c0.37-.74.75-1.48,1.15-2.21s1-1.75,1.49-2.59c0.72-1.15,1.44-2.31,2.23-3.42s1.71-2.37,2.62-3.51q1.82-2.27,3.83-4.37,2.17-2.27,4.55-4.33a63.65,63.65,0,0,1,5.69-4.41c1.6-1.1,3.23-2.14,4.92-3.09S90.41,60,92,59.23c1-.48,2.09-1,3.16-1.39s2.14-.85,3.24-1.2c0.53-.17,1.06-0.38,1.59-0.55,0.78-.25,1.56-0.46,2.34-0.69l1.1-.3c1.09-.28,2.18-0.55,3.28-0.77s2.4-.47,3.61-0.66c1-.15,1.92-0.29,2.89-0.37,0.78-.06,1.57-0.19,2.35-0.22s1.69-.11,2.53-0.14,1.77-.07,2.66,0c2,0,4,.13,5.95.33,1.23,0.13,2.46.28,3.68,0.48,1.5,0.25,3,.51,4.47.86q1.54,0.37,3.06.77c1.39,0.37,2.74.82,4.1,1.28s2.56,0.93,3.82,1.45q2.31,1,4.55,2.12c1,0.54,2.1,1.08,3.11,1.67a64.15,64.15,0,0,1,7,4.71c1.2,0.93,2.37,1.89,3.51,2.9,0.91,0.8,1.81,1.61,2.66,2.47a66.82,66.82,0,0,1,5.05,5.66c0.9,1.14,1.76,2.29,2.59,3.48s1.54,2.31,2.26,3.5,1.45,2.53,2.13,3.83c0.49,0.93.94,1.88,1.39,2.83,0.6,1.28,1.14,2.59,1.65,3.91s1,2.74,1.43,4.14c0.32,1,.6,2,0.88,3.08s0.47,1.94.68,2.91,0.46,2.23.62,3.36c0.1,0.71.2,1.42,0.32,2.13,0.07,0.39.09,0.78,0.13,1.17q0.31,3.13.35,6.28c0,1.92,0,3.83-.13,5.74-0.06,1.15-.19,2.3-0.33,3.45s-0.32,2.2-.49,3.29q-0.19,1.16-.42,2.32c-0.11.56-.27,1.12-0.4,1.68s-0.2.93-.33,1.39-0.32,1.14-.46,1.71-0.24.83-.36,1.25c-0.18.65-.39,1.29-0.61,1.92-0.37,1.09-.76,2.17-1.18,3.25-0.28.7-.56,1.41-0.86,2.11-0.4.93-.8,1.86-1.24,2.77-0.35.72-.7,1.44-1.08,2.14-0.54,1-1.11,2-1.7,3q-1.12,1.91-2.37,3.73c-0.46.67-.94,1.33-1.42,2q-1.43,2-3,3.79a67.83,67.83,0,0,1-6.15,6.3c-1,.94-2.12,1.85-3.22,2.71s-2.46,1.88-3.74,2.74c-1.55,1-3.12,2-4.75,3-1,.59-2.11,1.16-3.2,1.69s-2,1-3,1.39-1.88.81-2.85,1.15c-0.78.27-1.55,0.58-2.34,0.84s-1.47.48-2.21,0.69-1.57.44-2.36,0.65c-1,.25-1.91.48-2.87,0.66-0.7.14-1.4,0.32-2.11,0.41a22.58,22.58,0,0,1-2.42.34,9.78,9.78,0,0,0-1,.16A64.17,64.17,0,0,1,119.64,186.9Zm0-2.15c1.14,0,2.29,0,3.42,0,1.71-.09,3.43-0.22,5.13-0.44q1.57-.2,3.13-0.45c0.69-.11,1.39-0.21,2.07-0.38s1.35-.29,2-0.45c1.14-.26,2.27-0.56,3.39-0.89s1.94-.58,2.9-0.91c1.26-.44,2.52-0.88,3.76-1.39s2.55-1.09,3.81-1.69,2.73-1.38,4.07-2.13a57.78,57.78,0,0,0,5-3.17,63.58,63.58,0,0,0,5.09-3.95q1.55-1.34,3-2.74c0.54-.51,1.08-1,1.58-1.58,0.72-.79,1.45-1.57,2.15-2.38s1.53-1.8,2.26-2.73q1.48-1.89,2.79-3.91c0.57-.88,1.14-1.77,1.67-2.68s0.92-1.61,1.36-2.42,1-1.9,1.43-2.87,0.81-1.76,1.16-2.66,0.62-1.53.9-2.31c0.22-.62.45-1.24,0.66-1.87s0.41-1.2.58-1.8c0.23-.78.44-1.57,0.64-2.36s0.46-1.71.63-2.58c0.32-1.61.61-3.23,0.84-4.86,0.19-1.37.35-2.74,0.43-4.12a54.76,54.76,0,0,0,.12-6c-0.06-1.18-.06-2.37-0.18-3.55-0.16-1.58-.32-3.16-0.59-4.73-0.11-.61-0.21-1.22-0.32-1.83-0.26-1.44-.6-2.87-1-4.28-0.17-.67-0.38-1.32-0.56-2-0.39-1.42-.88-2.82-1.38-4.2-0.36-1-.75-1.94-1.16-2.89-0.55-1.28-1.12-2.55-1.75-3.79s-1.38-2.61-2.13-3.88c-0.94-1.59-1.93-3.13-3-4.63-0.81-1.13-1.66-2.23-2.54-3.32-1.21-1.5-2.49-2.94-3.81-4.33s-2.68-2.65-4.09-3.89q-2.47-2.17-5.15-4.09c-1.44-1-2.91-2-4.44-2.91s-2.95-1.69-4.48-2.43-3.08-1.44-4.65-2.09c-1.39-.57-2.81-1.05-4.24-1.54s-2.61-.78-3.92-1.15c-0.39-.11-0.79-0.22-1.19-0.3-1-.19-1.92-0.42-2.89-0.61-1.16-.22-2.33-0.42-3.5-0.57s-2.57-.34-3.86-0.4-2.47-.16-3.71-0.19c-1.07,0-2.14,0-3.21,0-1.8.08-3.6,0.18-5.39,0.39s-3.35.44-5,.77c-0.51.1-1,.2-1.53,0.32-0.84.19-1.67,0.38-2.5,0.6-1.07.29-2.15,0.57-3.2,0.93-0.87.29-1.74,0.57-2.59,0.88s-1.51.6-2.27,0.9q-1.93.74-3.78,1.66c-1.55.77-3.08,1.57-4.57,2.45s-3.16,1.94-4.68,3c-1,.69-1.94,1.44-2.9,2.18a60.82,60.82,0,0,0-5,4.38A62.18,62.18,0,0,0,69.8,79c-1.07,1.3-2.1,2.64-3.08,4s-1.82,2.67-2.65,4.06-1.69,2.95-2.46,4.47-1.57,3.3-2.25,5c-0.29.72-.58,1.43-0.83,2.17-0.41,1.21-.81,2.42-1.18,3.65-0.21.73-.41,1.46-0.61,2.19-0.27,1-.48,2-0.7,3-0.12.55-.24,1.1-0.33,1.66-0.24,1.52-.46,3-0.63,4.56-0.21,1.91-.33,3.82-0.37,5.73a60.67,60.67,0,0,0,.42,8.14c0.1,0.88.21,1.76,0.35,2.64s0.27,1.61.43,2.41c0.19,1,.4,1.93.63,2.88s0.54,2.15.88,3.21l0.31,1c0.2,0.64.4,1.29,0.62,1.92s0.44,1.12.64,1.69c0.27,0.77.59,1.52,0.91,2.27s0.76,1.66,1.15,2.49A54,54,0,0,0,64,153.67q1.64,2.7,3.55,5.23a62.74,62.74,0,0,0,4.74,5.59c0.71,0.74,1.44,1.45,2.18,2.17a56.16,56.16,0,0,0,4.28,3.74c0.83,0.66,1.69,1.3,2.55,1.94q1.58,1.16,3.24,2.2t3.63,2.13c0.89,0.48,1.79.94,2.7,1.39s1.71,0.78,2.56,1.17,1.81,0.77,2.73,1.12c1.14,0.43,2.29.86,3.46,1.2,1,0.28,1.91.6,2.87,0.86,1.62,0.42,3.24.83,4.89,1.13,1.12,0.21,2.24.41,3.37,0.57,1.38,0.19,2.76.34,4.15,0.45A43.31,43.31,0,0,0,119.65,184.75Z"/><path class="cls-1" d="M78.42,59.07A1.45,1.45,0,1,1,78.37,62a1.44,1.44,0,0,1-1.45-1.44A1.48,1.48,0,0,1,78.42,59.07Z"/><path class="cls-1" d="M49.42,128.71a1.5,1.5,0,0,1-1.4,1.45,1.54,1.54,0,0,1-1.48-1.49A1.42,1.42,0,0,1,48,127.24,1.46,1.46,0,0,1,49.42,128.71Z"/><path class="cls-1" d="M172.49,171.49a1.48,1.48,0,0,1-1.51,1.44,1.39,1.39,0,0,1-1.4-1.4A1.46,1.46,0,0,1,172.49,171.49Z"/><path class="cls-1" d="M55,153.52A1.5,1.5,0,0,1,53.5,152a1.44,1.44,0,0,1,1.42-1.42,1.46,1.46,0,0,1,1.49,1.49A1.44,1.44,0,0,1,55,153.52Z"/><path class="cls-1" d="M47.34,133.64a1.45,1.45,0,0,1,1.38-1.56,1.48,1.48,0,0,1,1.46,1.53A1.54,1.54,0,0,1,48.73,135,1.4,1.4,0,0,1,47.34,133.64Z"/><path class="cls-1" d="M189,141.17a1.43,1.43,0,0,1,1.39,1.49,1.46,1.46,0,0,1-1.48,1.42,1.44,1.44,0,0,1-1.42-1.53A1.41,1.41,0,0,1,189,141.17Z"/><path class="cls-1" d="M69.33,173.22a1.52,1.52,0,0,1-1.49-1.47,1.4,1.4,0,0,1,1.5-1.38,1.43,1.43,0,0,1,1.39,1.5A1.34,1.34,0,0,1,69.33,173.22Z"/><path class="cls-1" d="M85,184.9a1.48,1.48,0,0,1-1.5-1.49A1.45,1.45,0,0,1,85,182a1.42,1.42,0,0,1,1.41,1.47A1.39,1.39,0,0,1,85,184.9Z"/><path class="cls-1" d="M117.77,191a1.54,1.54,0,0,1,1.46,1.49,1.45,1.45,0,0,1-1.53,1.41,1.36,1.36,0,0,1-1.37-1.45A1.48,1.48,0,0,1,117.77,191Z"/><path class="cls-1" d="M129.62,46.64A1.4,1.4,0,0,1,131,48a1.5,1.5,0,0,1-1.48,1.43,1.46,1.46,0,0,1-1.43-1.41A1.42,1.42,0,0,1,129.62,46.64Z"/><path class="cls-1" d="M106.63,48.9a1.45,1.45,0,1,1-2.89-.07A1.45,1.45,0,0,1,106.63,48.9Z"/><path class="cls-1" d="M143.85,50a1.42,1.42,0,0,1,1.45,1.38,1.46,1.46,0,1,1-2.92,0A1.4,1.4,0,0,1,143.85,50Z"/><path class="cls-1" d="M95.3,187.65a1.45,1.45,0,0,1-1.45,1.44,1.53,1.53,0,0,1-1.44-1.47A1.45,1.45,0,1,1,95.3,187.65Z"/><path class="cls-1" d="M191,99.21a1.45,1.45,0,0,1-2.9,0,1.4,1.4,0,0,1,1.45-1.43A1.52,1.52,0,0,1,191,99.21Z"/><path class="cls-1" d="M72.18,66.64a1.43,1.43,0,0,1-2.85.1,1.54,1.54,0,0,1,1.47-1.53A1.42,1.42,0,0,1,72.18,66.64Z"/><path class="cls-1" d="M64,75.21a1.38,1.38,0,0,1-1.43-1.35A1.52,1.52,0,0,1,64,72.36,1.43,1.43,0,1,1,64,75.21Z"/><path class="cls-1" d="M49,123.83a1.46,1.46,0,0,1-1.45,1.46,1.45,1.45,0,0,1,0-2.9A1.41,1.41,0,0,1,49,123.83Z"/><path class="cls-1" d="M165,177.91a1.47,1.47,0,0,1-1.47,1.46,1.45,1.45,0,0,1,0-2.9A1.37,1.37,0,0,1,165,177.91Z"/><path class="cls-1" d="M110.07,49.49a1.43,1.43,0,0,1-1.51-1.41,1.46,1.46,0,0,1,1.36-1.45A1.44,1.44,0,0,1,111.47,48,1.4,1.4,0,0,1,110.07,49.49Z"/><path class="cls-1" d="M48.26,110.62a1.35,1.35,0,0,1-1.41-1.46,1.4,1.4,0,0,1,1.4-1.45A1.46,1.46,0,1,1,48.26,110.62Z"/><path class="cls-1" d="M156.82,183.22a1.43,1.43,0,0,1-1.51,1.46,1.37,1.37,0,0,1-1.34-1.39,1.45,1.45,0,0,1,1.5-1.48A1.36,1.36,0,0,1,156.82,183.22Z"/><path class="cls-1" d="M64.47,168.24a1.43,1.43,0,1,1,2.86,0,1.36,1.36,0,0,1-1.39,1.43A1.48,1.48,0,0,1,64.47,168.24Z"/><path class="cls-1" d="M168.88,174.79a1.42,1.42,0,0,1-1.46,1.46,1.43,1.43,0,1,1,0-2.86A1.43,1.43,0,0,1,168.88,174.79Z"/><path class="cls-1" d="M57.29,86a1.43,1.43,0,0,1-2.86,0,1.56,1.56,0,0,1,1.5-1.52A1.41,1.41,0,0,1,57.29,86Z"/><path class="cls-1" d="M85.3,55.42A1.41,1.41,0,0,1,86.79,54a1.37,1.37,0,0,1,1.41,1.48,1.43,1.43,0,0,1-1.41,1.4A1.51,1.51,0,0,1,85.3,55.42Z"/><path class="cls-1" d="M137.23,191.83a1.43,1.43,0,0,1-1.48-1.41A1.47,1.47,0,0,1,137.2,189a1.44,1.44,0,0,1,1.45,1.48A1.35,1.35,0,0,1,137.23,191.83Z"/><path class="cls-1" d="M61,79.09A1.41,1.41,0,0,1,59.6,77.7a1.62,1.62,0,0,1,1.48-1.49,1.43,1.43,0,0,1,1.4,1.44A1.37,1.37,0,0,1,61,79.09Z"/><path class="cls-1" d="M47.43,120.37a1.45,1.45,0,0,1,0-2.89A1.45,1.45,0,1,1,47.43,120.37Z"/><path class="cls-1" d="M152.84,56.68a1.44,1.44,0,1,1,0-2.88,1.46,1.46,0,0,1,1.42,1.46A1.4,1.4,0,0,1,152.84,56.68Z"/><path class="cls-1" d="M50.45,95a1.46,1.46,0,0,1,1.4-1.49,1.48,1.48,0,0,1,1.47,1.48,1.41,1.41,0,0,1-1.42,1.43A1.36,1.36,0,0,1,50.45,95Z"/><path class="cls-1" d="M172.45,71.23A1.47,1.47,0,0,1,171,69.79a1.45,1.45,0,0,1,1.48-1.42,1.51,1.51,0,0,1,1.45,1.47A1.44,1.44,0,0,1,172.45,71.23Z"/><path class="cls-1" d="M186.14,88.58A1.39,1.39,0,0,1,187.53,90a1.46,1.46,0,0,1-1.43,1.42A1.43,1.43,0,1,1,186.14,88.58Z"/><path class="cls-1" d="M161.06,180.64a1.51,1.51,0,0,1-1.5,1.51,1.38,1.38,0,0,1-1.41-1.39,1.43,1.43,0,0,1,1.46-1.49A1.45,1.45,0,0,1,161.06,180.64Z"/><path class="cls-1" d="M178.65,75.89a1.5,1.5,0,0,1,1.51,1.48,1.43,1.43,0,0,1-1.45,1.39,1.39,1.39,0,0,1-1.43-1.42A1.37,1.37,0,0,1,178.65,75.89Z"/><path class="cls-1" d="M169,64.93a1.5,1.5,0,0,1,1.41,1.49,1.44,1.44,0,0,1-2.87-.08A1.39,1.39,0,0,1,169,64.93Z"/><path class="cls-1" d="M92.63,53.34a1.43,1.43,0,0,1-1.44,1.45,1.39,1.39,0,0,1-1.42-1.41,1.46,1.46,0,0,1,1.51-1.48A1.39,1.39,0,0,1,92.63,53.34Z"/><path class="cls-1" d="M53,149a1.46,1.46,0,0,1-1.46-1.48,1.41,1.41,0,0,1,1.39-1.39,1.45,1.45,0,0,1,1.49,1.45A1.42,1.42,0,0,1,53,149Z"/><path class="cls-1" d="M49.76,136.91a1.44,1.44,0,0,1,1.5,1.37,1.53,1.53,0,0,1-1.46,1.5,1.47,1.47,0,0,1-1.44-1.45A1.41,1.41,0,0,1,49.76,136.91Z"/><path class="cls-1" d="M89.35,187.1a1.47,1.47,0,0,1-1.47-1.42,1.52,1.52,0,0,1,1.53-1.42,1.45,1.45,0,0,1,1.37,1.47A1.34,1.34,0,0,1,89.35,187.1Z"/><path class="cls-1" d="M52.63,143a1.4,1.4,0,0,1-1.4,1.43A1.51,1.51,0,0,1,49.77,143a1.47,1.47,0,0,1,1.44-1.41A1.44,1.44,0,0,1,52.63,143Z"/><path class="cls-1" d="M47.66,115.47A1.46,1.46,0,0,1,46.24,114a1.5,1.5,0,0,1,1.46-1.41A1.48,1.48,0,0,1,49.13,114,1.43,1.43,0,0,1,47.66,115.47Z"/><path class="cls-1" d="M124.67,49a1.42,1.42,0,0,1-1.44-1.49,1.48,1.48,0,0,1,1.42-1.36,1.55,1.55,0,0,1,1.48,1.43A1.46,1.46,0,0,1,124.67,49Z"/><path class="cls-1" d="M155.74,57.6a1.39,1.39,0,0,1,1.41-1.4,1.47,1.47,0,0,1,1.46,1.46A1.45,1.45,0,0,1,157.15,59,1.39,1.39,0,0,1,155.74,57.6Z"/><path class="cls-1" d="M127.51,193.52a1.36,1.36,0,0,1-1.38-1.4,1.41,1.41,0,0,1,1.4-1.46,1.42,1.42,0,0,1,1.47,1.45A1.5,1.5,0,0,1,127.51,193.52Z"/><path class="cls-1" d="M185.37,85.62a1.42,1.42,0,0,1-2.84,0,1.39,1.39,0,0,1,1.38-1.47A1.44,1.44,0,0,1,185.37,85.62Z"/><path class="cls-1" d="M165.14,64.64a1.51,1.51,0,0,1-1.39-1.51,1.45,1.45,0,0,1,2.89.09A1.45,1.45,0,0,1,165.14,64.64Z"/><path class="cls-1" d="M159.87,60.26a1.4,1.4,0,0,1,1.37-1.45,1.56,1.56,0,0,1,1.47,1.49,1.47,1.47,0,0,1-1.48,1.42A1.4,1.4,0,0,1,159.87,60.26Z"/><path class="cls-1" d="M58.3,83.18a1.29,1.29,0,0,1-1.36-1.35,1.44,1.44,0,0,1,1.52-1.49,1.39,1.39,0,0,1,1.31,1.42A1.43,1.43,0,0,1,58.3,83.18Z"/><path class="cls-1" d="M132.48,190a1.5,1.5,0,0,1,1.39,1.43,1.47,1.47,0,0,1-1.48,1.42A1.37,1.37,0,0,1,131,191.4,1.45,1.45,0,0,1,132.48,190Z"/><path class="cls-1" d="M82.49,59.25a1.38,1.38,0,0,1-1.43-1.43,1.48,1.48,0,0,1,1.38-1.43A1.43,1.43,0,1,1,82.49,59.25Z"/><path class="cls-1" d="M114.89,49a1.41,1.41,0,1,1,0-2.82,1.45,1.45,0,0,1,1.45,1.44A1.37,1.37,0,0,1,114.89,49Z"/><path class="cls-1" d="M64.19,164.51A1.43,1.43,0,0,1,62.76,166a1.51,1.51,0,0,1-1.42-1.52,1.39,1.39,0,0,1,1.45-1.36A1.42,1.42,0,0,1,64.19,164.51Z"/><path class="cls-1" d="M189.39,94.57a1.42,1.42,0,1,1-1.4-1.44A1.48,1.48,0,0,1,189.39,94.57Z"/><path class="cls-1" d="M190.29,136.45a1.53,1.53,0,0,1,1.48,1.4,1.47,1.47,0,0,1-1.44,1.52,1.44,1.44,0,0,1-1.44-1.46A1.48,1.48,0,0,1,190.29,136.45Z"/><path class="cls-1" d="M183,154.6A1.39,1.39,0,0,1,184.4,156a1.45,1.45,0,1,1-2.89,0A1.44,1.44,0,0,1,183,154.6Z"/><path class="cls-1" d="M176.09,164.13a1.41,1.41,0,0,1,1.44-1.4,1.44,1.44,0,0,1,1.43,1.42,1.47,1.47,0,0,1-1.42,1.47A1.43,1.43,0,0,1,176.09,164.13Z"/><path class="cls-1" d="M124.12,192.43a1.43,1.43,0,0,1-1.42,1.41,1.4,1.4,0,0,1-1.45-1.37,1.45,1.45,0,0,1,1.43-1.5A1.51,1.51,0,0,1,124.12,192.43Z"/><path class="cls-1" d="M112.83,193.54a1.39,1.39,0,0,1-1.4-1.38,1.45,1.45,0,1,1,2.9,0A1.41,1.41,0,0,1,112.83,193.54Z"/><path class="cls-1" d="M47.75,104.37a1.43,1.43,0,0,1,1.4-1.48,1.47,1.47,0,0,1,1.42,1.43,1.5,1.5,0,0,1-1.43,1.48A1.41,1.41,0,0,1,47.75,104.37Z"/><path class="cls-1" d="M74.45,64.9A1.51,1.51,0,0,1,73,63.53,1.49,1.49,0,0,1,74.5,62a1.42,1.42,0,0,1,1.4,1.48A1.46,1.46,0,0,1,74.45,64.9Z"/><path class="cls-1" d="M146.57,186a1.44,1.44,0,0,1,1.45,1.4,1.48,1.48,0,0,1-1.5,1.46,1.42,1.42,0,0,1-1.41-1.48A1.38,1.38,0,0,1,146.57,186Z"/><path class="cls-1" d="M142,187.66a1.5,1.5,0,0,1,1.44,1.47,1.46,1.46,0,0,1-1.5,1.4,1.39,1.39,0,0,1-1.39-1.44A1.44,1.44,0,0,1,142,187.66Z"/><path class="cls-1" d="M192.81,133.12a1.49,1.49,0,0,1-1.4,1.46,1.46,1.46,0,0,1-1.47-1.47,1.44,1.44,0,0,1,1.43-1.42A1.41,1.41,0,0,1,192.81,133.12Z"/><path class="cls-1" d="M192.3,115a1.49,1.49,0,0,1-1.46-1.4,1.45,1.45,0,1,1,2.89,0A1.47,1.47,0,0,1,192.3,115Z"/><path class="cls-1" d="M61.31,160.57a1.44,1.44,0,0,1-2.88,0,1.4,1.4,0,0,1,1.45-1.44A1.43,1.43,0,0,1,61.31,160.57Z"/><path class="cls-1" d="M103.23,192a1.43,1.43,0,1,1,0-2.85,1.38,1.38,0,0,1,1.43,1.4A1.41,1.41,0,0,1,103.23,192Z"/><path class="cls-1" d="M97.16,51.55A1.41,1.41,0,0,1,95.76,53a1.44,1.44,0,1,1,0-2.88A1.39,1.39,0,0,1,97.16,51.55Z"/><path class="cls-1" d="M194,118.48a1.44,1.44,0,1,1-2.87,0A1.44,1.44,0,0,1,194,118.48Z"/><path class="cls-1" d="M100.43,51.51A1.51,1.51,0,0,1,99,50.06a1.47,1.47,0,0,1,1.47-1.43A1.4,1.4,0,0,1,101.86,50,1.47,1.47,0,0,1,100.43,51.51Z"/><path class="cls-1" d="M152.47,185.54a1.43,1.43,0,1,1-1.42-1.46A1.39,1.39,0,0,1,152.47,185.54Z"/><path class="cls-1" d="M140.61,50a1.44,1.44,0,0,1-1.46,1.43,1.46,1.46,0,0,1-1.42-1.47,1.4,1.4,0,0,1,1.39-1.41A1.46,1.46,0,0,1,140.61,50Z"/><path class="cls-1" d="M181.46,79.92a1.46,1.46,0,0,1,1.45,1.45,1.43,1.43,0,0,1-1.4,1.44A1.45,1.45,0,1,1,181.46,79.92Z"/><path class="cls-1" d="M106.6,191.48a1.43,1.43,0,0,1,1.49-1.43,1.45,1.45,0,0,1,1.37,1.47A1.43,1.43,0,0,1,106.6,191.48Z"/><path class="cls-1" d="M82.2,181a1.46,1.46,0,0,1-1.39,1.42,1.48,1.48,0,0,1-1.48-1.51A1.43,1.43,0,0,1,82.2,181Z"/><path class="cls-1" d="M53.71,89a1.44,1.44,0,0,1,1.46,1.48,1.41,1.41,0,0,1-1.46,1.39,1.38,1.38,0,0,1-1.41-1.42A1.42,1.42,0,0,1,53.71,89Z"/><path class="cls-1" d="M50.36,101a1.33,1.33,0,0,1-1.43-1.38,1.45,1.45,0,0,1,1.4-1.5,1.49,1.49,0,0,1,1.46,1.46A1.41,1.41,0,0,1,50.36,101Z"/><path class="cls-1" d="M192.49,124.84a1.52,1.52,0,0,1-1.46-1.51,1.44,1.44,0,0,1,1.43-1.37,1.37,1.37,0,0,1,1.43,1.44A1.41,1.41,0,0,1,192.49,124.84Z"/><path class="cls-1" d="M99.93,189.24a1.44,1.44,0,1,1-2.88,0,1.38,1.38,0,0,1,1.46-1.4A1.42,1.42,0,0,1,99.93,189.24Z"/><path class="cls-1" d="M191.7,107.31a1.4,1.4,0,0,1,1.43,1.43,1.42,1.42,0,0,1-1.4,1.43,1.53,1.53,0,0,1-1.48-1.43A1.47,1.47,0,0,1,191.7,107.31Z"/><path class="cls-1" d="M134.42,47.41a1.4,1.4,0,0,1,1.44,1.34,1.45,1.45,0,1,1-2.9.06A1.39,1.39,0,0,1,134.42,47.41Z"/><path class="cls-1" d="M174.35,169.37a1.43,1.43,0,0,1,.07-2.86A1.43,1.43,0,1,1,174.35,169.37Z"/><path class="cls-1" d="M72.91,173.7a1.43,1.43,0,0,1,.05,2.86,1.49,1.49,0,0,1-1.5-1.47A1.39,1.39,0,0,1,72.91,173.7Z"/><path class="cls-1" d="M76.79,179.62a1.53,1.53,0,0,1-1.5-1.45,1.46,1.46,0,0,1,1.48-1.41,1.39,1.39,0,0,1,1.41,1.45A1.43,1.43,0,0,1,76.79,179.62Z"/><path class="cls-1" d="M181.8,160.18a1.44,1.44,0,0,1-1.47,1.45,1.49,1.49,0,0,1-1.4-1.46,1.45,1.45,0,0,1,1.47-1.41A1.38,1.38,0,0,1,181.8,160.18Z"/><path class="cls-1" d="M148.41,51.75a1.42,1.42,0,0,1,1.46,1.41,1.49,1.49,0,0,1-1.45,1.44A1.43,1.43,0,0,1,147,53.15,1.34,1.34,0,0,1,148.41,51.75Z"/><path class="cls-1" d="M174.3,73.44A1.37,1.37,0,0,1,175.69,72a1.47,1.47,0,0,1,1.45,1.5,1.43,1.43,0,0,1-1.42,1.38A1.39,1.39,0,0,1,174.3,73.44Z"/><path class="cls-1" d="M186.65,151.7a1.47,1.47,0,0,1-1.44,1.45,1.56,1.56,0,0,1-1.41-1.46,1.48,1.48,0,0,1,1.43-1.42A1.37,1.37,0,0,1,186.65,151.7Z"/><path class="cls-1" d="M187.24,148.65a1.43,1.43,0,0,1,0-2.86,1.4,1.4,0,0,1,1.42,1.42A1.46,1.46,0,0,1,187.24,148.65Z"/><path class="cls-1" d="M192.08,129.72a1.43,1.43,0,1,1,1.45-1.4A1.44,1.44,0,0,1,192.08,129.72Z"/><path class="cls-1" d="M57.24,157.82a1.44,1.44,0,0,1,0-2.87,1.44,1.44,0,0,1,1.45,1.45A1.41,1.41,0,0,1,57.24,157.82Z"/><path class="cls-1" d="M190.8,105.33a1.41,1.41,0,0,1-1.44-1.44,1.43,1.43,0,1,1,2.85.08A1.37,1.37,0,0,1,190.8,105.33Z"/><path class="cls-1" d="M67.4,68.79a1.33,1.33,0,0,1,1.26,1.79,1.54,1.54,0,0,1-1.22,1A1.24,1.24,0,0,1,66.22,71a1.12,1.12,0,0,1-.17-1.26,1.94,1.94,0,0,1,.8-0.91A1.52,1.52,0,0,1,67.4,68.79Z"/><path class="cls-1" d="M119.87,46.38a1.84,1.84,0,0,0,.25,0,0.81,0.81,0,0,1,.86.37,1.31,1.31,0,0,1,.17,1,1.37,1.37,0,0,1-1.24,1.09,1.26,1.26,0,0,1-1.18-.44,1.3,1.3,0,0,1-.22-1.38,1,1,0,0,1,.92-0.64h0.42Z"/><path class="cls-1" d="M58.19,119.93A61.94,61.94,0,0,1,120.29,58c16.47,0.24,30.78,5.9,42.72,17.27A61.94,61.94,0,1,1,58.19,119.93Zm67.44-61c-39-.14-66.55,27.2-66.59,60.95a61.09,61.09,0,0,0,122.18.22,60.49,60.49,0,0,0-18.84-44.19C150.57,64.71,136.44,59.1,125.63,59Z"/><path class="cls-2" d="M108.34,106.88c0-3,0-6.06,0-9.09,0-1.9,0-3.8.08-5.71,0-1.14.09-2.28,0.14-3.42a2,2,0,0,1,.05-0.33c0.13-.59.22-0.67,0.82-0.68,1.37,0,2.73,0,4.1.08a0.67,0.67,0,0,1,.73.57c0.14,0.49.23,1,.34,1.48,0.3,1.39.6,2.78,0.89,4.17,0.33,1.6.69,3.19,1.07,4.78a17,17,0,0,0,.66,2.31c0.06,0.14.08,0.4,0.28,0.35a0.42,0.42,0,0,0,.17-0.44c0-.28,0-0.56,0-0.84-0.16-3.89-.11-7.78-0.12-11.67a1.22,1.22,0,0,1,0-.33,0.63,0.63,0,0,1,.61-0.44c1.24,0,2.48,0,3.72,0a0.71,0.71,0,0,1,.75.79c0,1.83,0,3.66,0,5.5,0,1.52,0,3,0,4.57,0,2.23,0,4.45,0,6.68-0.07,4.13,0,8.26-.07,12.39a2,2,0,0,1-.12.79,0.71,0.71,0,0,1-.57.45,10.6,10.6,0,0,1-3.45,0l-0.17,0a1.14,1.14,0,0,1-1.14-1c-0.23-1.06-.46-2.12-0.7-3.17q-0.55-2.45-1.1-4.9c-0.27-1.21-.56-2.41-0.84-3.62-0.08-.34-0.15-0.69-0.24-1a0.92,0.92,0,0,0-.2-0.46,0.2,0.2,0,0,0-.38.08,1.82,1.82,0,0,0-.06.67q0,5.79,0,11.59c0,0.23,0,.45,0,0.68a0.94,0.94,0,0,1-.78,1,3.78,3.78,0,0,1-1.12.17l-2.16,0a0.87,0.87,0,0,1-1-1C108.27,114.15,108.31,110.51,108.34,106.88Z"/><path class="cls-2" d="M138.32,117a2.83,2.83,0,0,1-2.11,1.45,10.52,10.52,0,0,1-3.36.15,8.77,8.77,0,0,1-2.34-.52,4.66,4.66,0,0,1-2.92-3.27,11.89,11.89,0,0,1-.43-3.34q0-4.42,0-8.84c0-2,0-4.09,0-6.13a33.16,33.16,0,0,1,.15-3.38,9.88,9.88,0,0,1,.73-3,3.85,3.85,0,0,1,2.6-2.23,12.1,12.1,0,0,1,4.65-.29,8.44,8.44,0,0,1,1.89.41,4.56,4.56,0,0,1,3.11,3.44,12.86,12.86,0,0,1,.34,2.34c0.12,1.91.09,3.83,0.1,5.75,0,0.13,0,.25,0,0.38a0.49,0.49,0,0,1-.54.52c-0.28,0-.56,0-0.85,0l-3,0a0.63,0.63,0,0,1-.76-0.73c0-1.22-.07-2.45-0.11-3.67a10.2,10.2,0,0,0-.3-2.3,2.72,2.72,0,0,0-.42-1,0.91,0.91,0,0,0-1.37-.14,1.9,1.9,0,0,0-.56,1.11,8.51,8.51,0,0,0-.16,1.55q0,7.91,0,15.81a4,4,0,0,0,.66,2.19,0.91,0.91,0,0,0,1,.49,1.06,1.06,0,0,0,.7-0.56,3.4,3.4,0,0,0,.4-1.19,9,9,0,0,0,.16-1.64c0-.83,0-1.66,0-2.49,0-.51,0-0.53-0.52-0.53H134.5a0.4,0.4,0,0,1-.47-0.49c0-.93,0-1.86,0-2.79,0-.25,0-0.51,0-0.76a0.54,0.54,0,0,1,.62-0.62l5.5,0a0.6,0.6,0,0,1,.67.6,3.2,3.2,0,0,1,0,.42q0,6.81,0,13.61a3.89,3.89,0,0,1-.07.84,0.45,0.45,0,0,1-.54.45c-0.23,0-.45,0-0.68,0a0.63,0.63,0,0,1-.7-0.48l-0.32-.87A0.62,0.62,0,0,0,138.32,117Z"/><path class="cls-2" d="M127.27,145.49q0,2.79,0,5.58c0,0.07,0,.14,0,0.21a0.82,0.82,0,0,1-.72.94,3.36,3.36,0,0,1-1,.17c-0.72,0-1.44,0-2.16,0a0.71,0.71,0,0,1-.82-0.75,2.71,2.71,0,0,1,0-.34q0-3.32,0-6.64c0-.37-0.05-0.73,0-1.1,0.09-3.63,0-7.27.1-10.9,0-1.62,0-3.24.08-4.86,0-.87,0-1.75.08-2.62a6.05,6.05,0,0,1,.14-1.21,0.38,0.38,0,0,1,.44-0.36c1.27,0,2.54,0,3.8.07h0.08c0.72-.08.8,0.32,0.9,0.82q0.66,3.27,1.4,6.51c0.27,1.19.54,2.38,0.84,3.57,0.14,0.54.33,1.07,0.5,1.61a0.2,0.2,0,0,0,.17.17,0.19,0.19,0,0,0,.18-0.15,1.1,1.1,0,0,0,.06-0.62c-0.1-.84,0-1.69-0.08-2.53-0.14-2.79-.06-5.58-0.08-8.37,0-.89.17-1.07,1.05-1.07h2.71a0.86,0.86,0,0,1,1,1.08c-0.11,2.93,0,5.86-.09,8.79-0.1,4,0,8-.07,12,0,1.79,0,3.58,0,5.37a3.21,3.21,0,0,1-.11.88,0.75,0.75,0,0,1-.72.6,13.51,13.51,0,0,1-3.24,0,1.06,1.06,0,0,1-1-.87c-0.12-.48-0.23-1-0.34-1.44-0.23-1-.46-2.09-0.7-3.13q-0.56-2.45-1.12-4.89c-0.18-.79-0.37-1.59-0.57-2.38a1,1,0,0,0-.24-0.53c-0.16-.15-0.27-0.13-0.35.06a1.56,1.56,0,0,0-.1.62q0,2.83,0,5.66h0Z"/><path class="cls-2" d="M157,118.82c-0.69,0-1.38,0-2.07,0a0.57,0.57,0,0,1-.61-0.41,14.28,14.28,0,0,1-.62-2.28c-0.21-.92-0.35-1.85-0.5-2.78-0.07-.43-0.1-0.46-0.54-0.47h-1.23a0.41,0.41,0,0,0-.5.43c-0.07.59-.17,1.17-0.27,1.75q-0.22,1.29-.45,2.58c0,0.25-.09.5-0.15,0.74a0.45,0.45,0,0,1-.55.44h-4.65a0.37,0.37,0,0,1-.38-0.48c0.17-1,.35-2.08.52-3.12s0.32-2,.48-3c0.2-1.17.4-2.33,0.6-3.49s0.38-2.33.57-3.5c0.15-.89.3-1.78,0.45-2.66,0.19-1.14.38-2.28,0.58-3.41,0.14-.82.29-1.63,0.44-2.45,0.19-1.05.37-2.1,0.57-3.15s0.4-2,.61-3a23.44,23.44,0,0,1,.56-2.34c0-.11.07-0.21,0.1-0.32a0.42,0.42,0,0,1,.44-0.33l0.76,0,2.66,0a0.55,0.55,0,0,1,.71.54q0.37,1.47.63,3c0.2,1.11.41,2.21,0.6,3.32s0.38,2.3.57,3.46c0.15,0.93.31,1.86,0.46,2.79,0.19,1.21.38,2.42,0.56,3.63,0.15,1,.31,1.95.45,2.92s0.31,2.06.46,3.09l0.39,2.59,0.53,3.46q0.16,1,.32,2c0.05,0.34,0,.43-0.37.43H157Zm-4.88-15a0.6,0.6,0,0,0-.2.42,30.8,30.8,0,0,0-.48,3.3c-0.08.67-.06,0.67,0.6,0.73s0.83-.07.73-0.77c-0.12-.86-0.23-1.73-0.38-2.59A3,3,0,0,0,152.12,103.78Z"/><path class="cls-2" d="M93.91,95.51c0,0.84,0,1.53,0,2.22a0.67,0.67,0,0,1-.74.82c-1.3.1-2.59,0-3.88,0a0.45,0.45,0,0,1-.46-0.36,1.7,1.7,0,0,1,0-.46c0-1,.1-2.05.08-3.08a3.24,3.24,0,0,0-.39-1.5,1,1,0,0,0-1.64-.19A2,2,0,0,0,86.36,94a6.93,6.93,0,0,0-.08,1.09c0,0.52,0,1,0,1.56a3,3,0,0,0,.51,1.76,12.72,12.72,0,0,0,1.57,2c1.17,1.24,2.36,2.46,3.51,3.72A8.87,8.87,0,0,1,94,107.76a4.11,4.11,0,0,1,.16,1.08c0,1,0,2,0,3a8.42,8.42,0,0,1-.8,3.6,5.6,5.6,0,0,1-4,3.15,6.63,6.63,0,0,1-4.33-.39,6.72,6.72,0,0,1-3.2-3.3A7.7,7.7,0,0,1,81,111.6c0-.94,0-1.89,0-2.83a1.28,1.28,0,0,1,.07-0.41,0.51,0.51,0,0,1,.47-0.37h0.13c1.25,0,2.51-.11,3.76-0.12,0.54,0,.59,0,0.7.56a2.59,2.59,0,0,1,0,.55c0,0.82,0,1.63,0,2.45a3.28,3.28,0,0,0,.28,1.23,1.21,1.21,0,0,0,1,.79,1,1,0,0,0,1.11-.52,2.56,2.56,0,0,0,.31-1.17c0-.65,0-1.3.07-1.94a2,2,0,0,0-.37-1.36,11.52,11.52,0,0,0-1.52-1.81c-1.16-1.17-2.34-2.33-3.49-3.5a9.62,9.62,0,0,1-1.93-2.8,4.87,4.87,0,0,1-.44-2c0-1,0-2.09,0-3.13a10.79,10.79,0,0,1,.57-3.61A6.23,6.23,0,0,1,84.88,88a7.67,7.67,0,0,1,4.62-.53,5.11,5.11,0,0,1,3.17,2.15,6.94,6.94,0,0,1,1.15,3.14A26.76,26.76,0,0,1,93.91,95.51Z"/><path class="cls-2" d="M97.93,146.48c0,1.58,0,3.16,0,4.74,0,0.87-.05.91-0.92,1a15.53,15.53,0,0,1-3,0,0.45,0.45,0,0,1-.49-0.47,4,4,0,0,1-.06-0.71c0-1.89,0-3.78,0-5.67,0.09-6.93,0-13.87.05-20.8,0-.2,0-0.4,0-0.59a0.62,0.62,0,0,1,.59-0.6h5.5a7.5,7.5,0,0,1,2.49.37,5.16,5.16,0,0,1,2,1.2,2.82,2.82,0,0,1,.85,2.05c0,1.45,0,2.9,0,4.35,0,1,0,1.94-.06,2.91a4.23,4.23,0,0,1-2.55,3.82,0.28,0.28,0,0,0-.25.24,0.27,0.27,0,0,0,.23.22,6.11,6.11,0,0,1,.85.46,3.42,3.42,0,0,1,1.42,1.73,11.27,11.27,0,0,1,.65,2.91c0.19,1.56.11,3.12,0.16,4.68a20.76,20.76,0,0,0,.36,3.18,2.12,2.12,0,0,1,0,.29,0.46,0.46,0,0,1-.31.49,1.28,1.28,0,0,1-.49.09l-3,0c-0.21,0-.42,0-0.63-0.06a0.51,0.51,0,0,1-.58-0.53c-0.06-.57-0.12-1.15-0.16-1.72-0.1-1.56-.11-3.12-0.09-4.69a12.74,12.74,0,0,0-.27-2.72,4,4,0,0,0-.51-1.33,1.5,1.5,0,0,0-1.25-.67A0.4,0.4,0,0,0,98,141a2.3,2.3,0,0,0-.08.71q0,2.41,0,4.82h0Zm0.25-14.91h0q0,1.52,0,3a2.28,2.28,0,0,0,.07.58,0.54,0.54,0,0,0,.48.42,1.31,1.31,0,0,0,1.49-.95,10.59,10.59,0,0,0,.33-2.33c0-.39,0-0.79.05-1.18a7.14,7.14,0,0,0-.14-2.39,1.21,1.21,0,0,0-1.15-1.1,4.45,4.45,0,0,0-.75.07,0.42,0.42,0,0,0-.33.3,1.1,1.1,0,0,0,0,.42Q98.19,130,98.19,131.57Z"/><path class="cls-2" d="M118.82,152.36c-0.58,0-1.16,0-1.73,0a0.52,0.52,0,0,1-.57-0.38,13.14,13.14,0,0,1-.56-2c-0.17-.78-0.3-1.57-0.45-2.36,0-.15-0.07-0.3-0.1-0.45a0.34,0.34,0,0,0-.37-0.28h-1.35a0.38,0.38,0,0,0-.44.36c-0.15.84-.29,1.69-0.44,2.53s-0.28,1.46-.43,2.19a0.47,0.47,0,0,1-.55.41h-4a1.11,1.11,0,0,1-.29,0,0.33,0.33,0,0,1-.28-0.37c0-.11,0-0.23,0-0.34,0.12-.71.28-1.41,0.37-2.12,0.11-.92.3-1.83,0.44-2.74q0.28-1.77.58-3.53c0.21-1.2.36-2.42,0.55-3.62,0.14-.87.3-1.75,0.45-2.62l0.46-2.66c0.19-1.07.37-2.13,0.56-3.2s0.41-2.27.63-3.4,0.46-2.4.79-3.58a0.62,0.62,0,0,1,.8-0.6q1.39,0,2.79,0c0.52,0,.58.07,0.71,0.59,0.34,1.38.58,2.78,0.82,4.18,0.15,0.86.32,1.71,0.46,2.57,0.19,1.15.37,2.3,0.56,3.45,0.15,0.89.33,1.77,0.45,2.66s0.27,1.64.39,2.46,0.24,1.53.36,2.29l0.48,3c0.19,1.22.41,2.44,0.57,3.66s0.34,2.36.52,3.54c0,0.32,0,.4-0.37.4h-1.82Zm-5.22-10.61c0,0.17,0,.33,0,0.5a0.27,0.27,0,0,0,.29.37,4.61,4.61,0,0,0,.76,0c0.33,0,.39-0.14.35-0.47-0.15-1.08-.3-2.16-0.45-3.24a0.51,0.51,0,0,0-.23-0.5c-0.24,0-.28.26-0.33,0.46A18.32,18.32,0,0,0,113.6,141.75Z"/><path class="cls-2" d="M137.11,137.2c0-2.89,0-5.22,0-7.54a7.87,7.87,0,0,1,1.65-4.91,4.8,4.8,0,0,1,3.89-2,6.29,6.29,0,0,1,3.14.67,4.7,4.7,0,0,1,1.8,1.74,8.14,8.14,0,0,1,1.11,3.89,27.26,27.26,0,0,1,0,2.87,1.76,1.76,0,0,1-.08.46,0.54,0.54,0,0,1-.53.41,23.92,23.92,0,0,1-2.66,0l-0.63,0a0.58,0.58,0,0,1-.68-0.7c0-.7,0-1.41,0-2.11a3.28,3.28,0,0,0-.39-1.62,0.89,0.89,0,0,0-.69-0.49,0.82,0.82,0,0,0-.85.42,3.92,3.92,0,0,0-.51,1.51,24.79,24.79,0,0,0-.27,3.79q0,5.24,0,10.49a6.73,6.73,0,0,0,.25,1.88,2.78,2.78,0,0,0,.59,1.06,0.86,0.86,0,0,0,1.24,0,1.72,1.72,0,0,0,.47-0.69,5.48,5.48,0,0,0,.28-1.36c0.1-1,.06-2,0.07-3a2,2,0,0,1,0-.34,0.4,0.4,0,0,1,.43-0.37c0.87-.09,1.75,0,2.62,0a6.12,6.12,0,0,1,1.1,0,0.47,0.47,0,0,1,.42.4,1.8,1.8,0,0,1,0,.42c0,0.8,0,1.61,0,2.41a12.2,12.2,0,0,1-.34,3,9.33,9.33,0,0,1-.89,2.1,6.63,6.63,0,0,1-1.06,1.41,5,5,0,0,1-2.89,1.36,6,6,0,0,1-3.22-.4,4.42,4.42,0,0,1-2.19-2,9.11,9.11,0,0,1-1.07-3.87C137,142.92,137.18,139.77,137.11,137.2Z"/><path class="cls-2" d="M150.21,137.83q0-6.76,0-13.53c0-.07,0-0.14,0-0.21a0.41,0.41,0,0,1,.44-0.5,2.92,2.92,0,0,1,.46,0c1.87,0,3.75,0,5.62,0l2.53,0.05a0.53,0.53,0,0,1,.64.66q0,1.65,0,3.3c0,0.85,0,.86-0.88.86h-3.3a2.17,2.17,0,0,0-.38,0,0.46,0.46,0,0,0-.42.49c-0.07,1.73-.07,3.46-0.06,5.2a0.6,0.6,0,0,0,.62.7,4.44,4.44,0,0,0,.59,0h2.45c0.4,0,.41,0,0.49.41a5.82,5.82,0,0,1,0,1.56c-0.06.87-.12,1.74-0.14,2.61,0,0.15,0,.31,0,0.47,0,0.48-.11.59-0.61,0.59h-2.83a0.49,0.49,0,0,0-.61.56c-0.13,1.56-.08,3.12-0.07,4.69,0,0.21,0,.42.05,0.63a0.67,0.67,0,0,0,.7.72h0.3c1.14-.12,2.28,0,3.42-0.06h0.08a0.5,0.5,0,0,1,.57.61c0,1.14,0,2.28,0,3.42,0,0.21,0,.42,0,0.63a0.42,0.42,0,0,1-.31.44,3.34,3.34,0,0,1-1.2.19q-3.17.08-6.34,0c-0.42,0-.84-0.08-1.26-0.09a0.51,0.51,0,0,1-.54-0.44,1.83,1.83,0,0,1,0-.55q0-6.72,0-13.44h0Z"/><path class="cls-2" d="M81.79,137.66q0-6.66,0-13.32c0-.65.09-0.9,0.87-0.9,3.09,0,6.17,0,9.26,0h0.25a0.42,0.42,0,0,1,.45.49c0,0.73.07,1.46,0,2.19,0,0.35-.06.7,0,1.05a0.84,0.84,0,0,1-.89.9h-4.1c-0.43,0-.52.1-0.52,0.53q0,3,0,6c0,0.52.15,0.65,0.69,0.66,1,0,2,0,3-.07a2.51,2.51,0,0,1,.38,0,0.43,0.43,0,0,1,.45.42,2.5,2.5,0,0,1,0,.42c0,1.23,0,2.45,0,3.68a3.57,3.57,0,0,1-.06.5,0.37,0.37,0,0,1-.45.39H87.77c-0.47,0-.56.11-0.59,0.57a44.22,44.22,0,0,0,0,4.73c0.06,1.75,0,3.49.06,5.24,0,0.53-.1.66-0.62,0.69-1.39.06-2.79,0.07-4.18,0-0.5,0-.6-0.16-0.6-0.66q0-6.76,0-13.53h0Z"/><path class="cls-2" d="M104,103.28c0,4.73,0,9.47,0,14.2,0,1.14-.32,1.31-1.24,1.4a10.47,10.47,0,0,1-1.86,0l-1.26-.07a0.94,0.94,0,0,1-1-.9,2.34,2.34,0,0,1,0-.55c0-1.07,0-2.14,0-3.21q0-12.4,0-24.81a6.28,6.28,0,0,1,0-1,0.64,0.64,0,0,1,.79-0.66c1.23,0,2.45.07,3.67,0.09a0.8,0.8,0,0,1,.86.81c0,0.21,0,.42,0,0.63q0,7,0,14.07h0Z"/></g></svg>