<svg id="Calque_1" data-name="Calque 1" xmlns="http://www.w3.org/2000/svg" viewBox="0 0 240 240"><defs><style>.cls-1{fill:#144e88;}</style></defs><title>pictos_JRS</title><g id="_9DRLTt" data-name="9DRLTt"><path class="cls-1" d="M89.49,133.84l-0.31-.37a1.32,1.32,0,0,0-.09.34c0.07,1.27.07,2.54,0.24,3.8s0.51,2.43.77,3.64v0c0.24,0.82.11,1.07-.71,1.28-0.58.15-.61,0.17-0.59,0.76,0,0.81.06,1.62,0.13,2.43a1.48,1.48,0,0,0,1.28,1.42,0.32,0.32,0,0,0,.28-0.09c0.42-.72.83-1.44,1.22-2.17a0.44,0.44,0,0,0-.06-0.4c-0.32-.15-0.23-0.35-0.13-0.57l1.24-2.59,0.12-.26,0.75-1.49-0.53,0c-0.47,0-.57-0.2-0.4-0.63a1.31,1.31,0,0,0,.09-0.54,16.52,16.52,0,0,1,.09-4.52c0.16-.74.29-1.49,0.51-2.21a13.21,13.21,0,0,0,.34-3.17,6.27,6.27,0,0,1,.47-2.45,0.55,0.55,0,0,0-.07-0.37c-0.14-.32-0.32-0.63-0.44-1a1.43,1.43,0,0,1,.05-1.22c0.13-.24.22-0.5,0.36-0.73a7.93,7.93,0,0,0,.69-2.52,7.54,7.54,0,0,1,.52-1.48c0.27-.61.62-1.19,0.89-1.81a3.61,3.61,0,0,1,1.4-1.69c0.38-.24.71-0.53,1.07-0.79a1.24,1.24,0,0,1,1.17-.3l-0.52.35,0.49,0.53,0.12,0c-0.16-.41.12-0.5,0.37-0.62A8.38,8.38,0,0,0,101,114a0.34,0.34,0,0,0,.09-0.59,2.57,2.57,0,0,1-.68-2.17,3.35,3.35,0,0,1,1.94-2.49,1.63,1.63,0,0,1,.87-0.08,4.49,4.49,0,0,1,3.19,2,3.73,3.73,0,0,1,.34.64,0.61,0.61,0,0,1-.13.75,5.29,5.29,0,0,0-.73,1.25,0.69,0.69,0,0,0,0,.35,0.92,0.92,0,0,1-.25,1.17,3.3,3.3,0,0,0-.75,1,0.45,0.45,0,0,1-.64.14,6.3,6.3,0,0,1-1.05-.52,0.53,0.53,0,0,0-.73.08l-0.7.64a3.33,3.33,0,0,1,1.47,2.21,1.66,1.66,0,0,1-.06,1.41,4.77,4.77,0,0,0-.29.88c-0.1.36-.15,0.74-0.28,1.09a5.08,5.08,0,0,0,.06,3c0.13,0.52.28,1,.41,1.57,0.05,0.22.07,0.44,0.1,0.68a0.74,0.74,0,0,1-.21,0,2.42,2.42,0,0,0-3.05,2.8,4.67,4.67,0,0,0,.36,1.19,0.41,0.41,0,0,1-.07.53,6.18,6.18,0,0,0-1.58,4.15c0,0.43,0,.87,0,1.3H98.9A7.19,7.19,0,0,0,99,136.2a6.35,6.35,0,0,1,1.33-3.51,1.67,1.67,0,0,1,.54-0.47,0.75,0.75,0,0,0,.31-1.17,2.22,2.22,0,0,1-.3-2.07,1.51,1.51,0,0,1,1.48-1.11,2.78,2.78,0,0,1,2.85,1.85,0.28,0.28,0,0,1,0,.23c-0.22.32-.45,0.63-0.67,1a0.48,0.48,0,0,0-.14.28c0.2,0.64-.39,1-0.54,1.5-0.09.31-.43,0.25-0.7,0.11-0.48-.24-0.57-0.2-0.55.34s0.13,0.82.17,1.23a4.3,4.3,0,0,1,0,.68,0.58,0.58,0,0,0,.28,0,2,2,0,0,0,.48-1,1.28,1.28,0,0,1,.35-0.74,0.53,0.53,0,0,1,.73.21c0.46,0.51.43,0.67,0,1.21a5,5,0,0,0-.31.85q-0.48,1-1,2a0.52,0.52,0,0,1-.76.32,3,3,0,0,1,.17,2.32,1.26,1.26,0,0,0,0,.67c0.11,0.77.23,1.54,0.37,2.31,0.08,0.42.2,0.82,0.31,1.27l-0.22.09a0.69,0.69,0,0,0-.55,1c0.12,0.51.27,1,.42,1.52,0.07,0.23.12,0.41-.2,0.54s-0.09.36,0.06,0.45a5.06,5.06,0,0,0,2,.89,4.17,4.17,0,0,1,.53.11l0,0.15a1.62,1.62,0,0,1-.44.15c-0.87,0-1.75,0-2.62.06-0.67,0-.79-0.11-0.71-0.77,0-.36.22-0.76-0.3-1a1.28,1.28,0,0,1-.19-0.64c-0.13-.47-0.26-0.94-0.4-1.4a0.28,0.28,0,0,0-.17-0.19,0.48,0.48,0,0,0-.2.16,5.85,5.85,0,0,1-.5.44c-0.45.32-.93,0.6-1.36,0.93a2.14,2.14,0,0,0-.37.52c-0.38-.08-0.51,0-0.36.42a6.82,6.82,0,0,0,.52,1.08,1.69,1.69,0,0,0,.46.35l0.2,0.17a0.8,0.8,0,0,1-.22.2,1.44,1.44,0,0,1-1.32-.41,2.88,2.88,0,0,0-1.26-1.11,0.64,0.64,0,0,1-.31-0.76,0.54,0.54,0,0,1,.44-0.51,3.2,3.2,0,0,0,.61-0.32,0.35,0.35,0,0,0,.18-0.2,1.16,1.16,0,0,1,.76-1.08c0.51-.39.52-0.38,0.12-0.93a2.52,2.52,0,0,0,.73-2.13,0.41,0.41,0,0,1,0-.24c0.49-.86-0.15-1.49-0.47-2.17a0.55,0.55,0,0,0-.84.09c-1.12,1.6-2.44,3.08-3.07,5-0.09.27-.2,0.56-0.61,0.33a0.4,0.4,0,0,0-.27.19,1.53,1.53,0,0,0,.48,2.12c0.47,0.39.94,0.77,1.44,1.12a5.42,5.42,0,0,0,.66.3,1.67,1.67,0,0,1,.3.26,3.81,3.81,0,0,1-.33.26,1.78,1.78,0,0,1-.2,0,2.45,2.45,0,0,1-2-.25,4.52,4.52,0,0,0-1.09-.19c-0.27,0-.54,0-0.81,0a13.93,13.93,0,0,0-3.9.25,0.64,0.64,0,0,1-.84-0.73,3.58,3.58,0,0,1,.11-0.84,5.05,5.05,0,0,0,0-2.48c-0.17-.71-0.26-1.43-0.37-2.16a0.54,0.54,0,0,0-.54-0.5,2.06,2.06,0,0,0-1.53.37,3.1,3.1,0,0,1-1.26.21,0.9,0.9,0,0,0-.75.38c-0.58.76-1.19,1.51-1.79,2.25a1.41,1.41,0,0,0-.1,1.63,1,1,0,0,0,.45.37c0.37,0.2.75,0.37,1.13,0.53a5.7,5.7,0,0,0,.69.22,2.18,2.18,0,0,1,.39.08,1.89,1.89,0,0,1,.34.29,1.22,1.22,0,0,1-.33.28,6.74,6.74,0,0,1-3,.1,3.9,3.9,0,0,0-.72,0l-2.7.2c-0.63,0-1.26.14-1.9,0.15a0.7,0.7,0,0,1-.8-1,9.19,9.19,0,0,0-.11-5,0.46,0.46,0,0,0-.45-0.39,15.53,15.53,0,0,0-3.72-.13,2.43,2.43,0,0,0-.83.31c-1.26.68-2.52,1.34-3.76,2.06a0.9,0.9,0,0,0-.33,1.33c0.11,0.23.14,0.5,0.26,0.72a8.61,8.61,0,0,0,.92,1.45,2.52,2.52,0,0,0,.87.32,2.48,2.48,0,0,1,.44.31,1.13,1.13,0,0,1-.39.3c-0.58.09-1.16,0.15-1.75,0.2A1.42,1.42,0,0,1,64,149,1.74,1.74,0,0,0,63,147.83a2.78,2.78,0,0,1-.7-0.41,0.79,0.79,0,0,1,.08-1.42,5.2,5.2,0,0,0,1.7-1.32c0.84-.9,1.75-1.72,2.65-2.57,0.22-.21.18-0.32-0.07-0.44a4.55,4.55,0,0,1-.64-0.35,0.73,0.73,0,0,0-1-.07l-0.07-.12a4.44,4.44,0,0,1,.52-0.46,8.85,8.85,0,0,0,2.91-2.93,0.56,0.56,0,0,0,.07-0.37,9.78,9.78,0,0,1,.18-5.32c0.46-1.38,1-2.72,1.58-4.07,0.13-.32.06-0.37-0.25-0.49a5.86,5.86,0,0,1-1.52-.82,1.59,1.59,0,0,1-.52-1.79,2.27,2.27,0,0,1,.74-1.4,1.52,1.52,0,0,0,0-.82,0.7,0.7,0,0,0-.25,0c-0.5.2-1,.4-1.48,0.63a0.73,0.73,0,0,0-.26.35c-0.11.24-.18,0.51-0.3,0.75a0.75,0.75,0,0,1-.91.08l-0.33-.26a1.28,1.28,0,0,0,.23-0.18,0.43,0.43,0,0,0,.1-0.24,1.17,1.17,0,0,0-.2-0.09l-0.41-.09c0.76-.45,1.47-0.84,2.13-1.3a4.75,4.75,0,0,0,1-1,3.93,3.93,0,0,1,1.64-1,0.64,0.64,0,0,0,.35-0.25,0.49,0.49,0,0,0-.13-0.43,1.43,1.43,0,0,1-.44-1.88,1.58,1.58,0,0,1,1.63-1,5.37,5.37,0,0,1,1.24.16,1.13,1.13,0,0,1,.63,1.88,0.46,0.46,0,0,0-.09.36,1.11,1.11,0,0,1-.35,1.09,0.73,0.73,0,0,1-1,.29,0.49,0.49,0,0,0-.24,0,0.65,0.65,0,0,0,.13.26,0.88,0.88,0,0,0,1.32-.18A5,5,0,0,0,73,120a11.05,11.05,0,0,1,2.07-2.48,1.38,1.38,0,0,1,1.08-.5,4,4,0,0,0-.45.57,0.6,0.6,0,0,0,.15.29c0.44-.46.86-0.88,1.25-1.33a0.59,0.59,0,0,0,.17-0.44,0.9,0.9,0,0,0-.52-0.39,1,1,0,0,1-1.09-1.23,4.89,4.89,0,0,1,.3-1.84A2.65,2.65,0,0,1,78,111a2.28,2.28,0,0,1,1.8.14,0.6,0.6,0,0,0,.43.06,0.7,0.7,0,0,1,.82.44,14.13,14.13,0,0,1,.69,1.28c0.43,1,.41,1-0.28,1.71a0.53,0.53,0,0,0-.18.41c0.3,0.63-.17,1.13-0.24,1.7a1,1,0,0,1-.06.19,0.8,0.8,0,0,1-1.31.54,0.53,0.53,0,0,0-.84.18c0,0.07-.1.12-0.16,0.19-0.42.51-.38,0.49-0.11,1.1,0.4,0.9.75,1.82,1.08,2.74a1.28,1.28,0,0,1-.28,1.32,9.41,9.41,0,0,0-1.73,3,9.66,9.66,0,0,0-.36,1.57,0.69,0.69,0,0,0,.12.41,2.3,2.3,0,0,1,0,2.11,0.22,0.22,0,0,1-.09.13,0.73,0.73,0,0,0-.41.9c0,0.55,0,1.11,0,1.66a1.05,1.05,0,0,1,0,.44,1.82,1.82,0,0,0,0,1.21c0.13,0.77.18,1.55,0.31,2.32,0.27,1.64.57,3.27,0.85,4.91a6.11,6.11,0,0,1,.08,1.13,0.44,0.44,0,0,1-.27.31,4.36,4.36,0,0,1-.88.13,0.31,0.31,0,0,0-.35.35,27,27,0,0,0,0,2.76A2.44,2.44,0,0,0,77.89,148a0.39,0.39,0,0,0,.3-0.16c0.25-.38.47-0.77,0.7-1.16s0.61-1,.89-1.49c0.38-.7.73-1.41,1.1-2.12,0-.09.08-0.19,0.12-0.31a9.45,9.45,0,0,0-1.17-.39,1.5,1.5,0,0,0-.61.22,2,2,0,0,1,.29-0.57,2.55,2.55,0,0,0,.79-2,32.76,32.76,0,0,1,.57-5.23c0.07-.55.11-1.1,0.2-1.65a1.52,1.52,0,0,1,.85-1.41c-0.2-.21-0.2-0.21-1,0.35,0.25-.69.46-1.28,0.68-1.87,0.31-.81.67-1.6,0.95-2.41a1.59,1.59,0,0,0,0-.9,9.39,9.39,0,0,0-.55-1.39,2.51,2.51,0,0,1,0-2.12c0.48-1.17,1-2.35,1.39-3.54a3.25,3.25,0,0,1,2-1.81,1.1,1.1,0,0,1,.31,0c-0.14.51,0.24,0.53,0.46,0.63,0.05-.24.1-0.47,0.16-0.7a0.73,0.73,0,0,0-.79-1,0.84,0.84,0,0,1-.53-0.12c-1.27-1.22-1.84-2.62-.69-4.24l0.25-.34a1,1,0,0,1-.73-1.29c0-.23,0-0.46,0-0.69a1.78,1.78,0,0,1,.62-1.4,0.6,0.6,0,0,0,.18-0.44A2.44,2.44,0,0,1,86,106a5.91,5.91,0,0,1,2.33-.45,0.44,0.44,0,0,0,.34-0.13,0.54,0.54,0,0,1,.57-0.27A0.74,0.74,0,0,0,90,105a0.36,0.36,0,0,1,.27,0,5.19,5.19,0,0,1,3.83,2.45,4.37,4.37,0,0,1-.09,4.34,1.78,1.78,0,0,1-1.35.94,4.31,4.31,0,0,0,.36,1.84,10,10,0,0,1,.54,1.73c0.1,0.32.17,0.66,0.29,1a0.62,0.62,0,0,1-.2.77,19.63,19.63,0,0,0-1.48,1.66c-0.22.27-.38,0.57-0.83,0.38,0.17,0.34.38,0.47,0.73,0.21l0.08,0.07a1.47,1.47,0,0,1-.2.41q-0.83.86-1.68,1.7a2.75,2.75,0,0,0-.8,1.59,23.34,23.34,0,0,0-.14,5.5c0.07,0.9.31,1.78,0.45,2.67A1.81,1.81,0,0,1,89.49,133.84Zm-1-16.07c-0.06.9,0.31,1.24,1.08,1.1,0.17,0,.35,0,0.52,0a0.9,0.9,0,0,0,.44-0.16c0.45-.43.88-0.87,1.3-1.33A0.81,0.81,0,0,0,92,116.9a7.2,7.2,0,0,0-.49-3.09,1.16,1.16,0,0,0-.85-0.71,1.68,1.68,0,0,1,0,.44,2.17,2.17,0,0,1-.27.85,0.88,0.88,0,0,0-.16,1,0.79,0.79,0,0,1,0,.64,1.09,1.09,0,0,0-.25.85,1.61,1.61,0,0,1-.12.63,0.55,0.55,0,0,1-.81.42Z"/><path class="cls-1" d="M199.74,81.94a9.36,9.36,0,0,1-2.35,2.4,2.74,2.74,0,0,1-1,.21c-1.5.19-3,.34-4.5,0.55-1.67.23-3.34,0.49-5,.78-2,.35-3.93.74-5.89,1.14s-4.07.86-6.1,1.31c-1.82.41-3.63,0.83-5.44,1.29-3.07.79-6.15,1.57-9.2,2.43q-5,1.4-9.86,2.94c-3.28,1-6.57,2.07-9.8,3.25-4.77,1.74-9.5,3.57-14.23,5.43-2.56,1-5.07,2.15-7.61,3.23l-0.25.1c0-.51-0.08-1-0.12-1.46-0.18-1.78-.31-3.58-0.56-5.35a23.44,23.44,0,0,0-2.12-7,15.43,15.43,0,0,0-7-7.47,19.64,19.64,0,0,0-5.68-1.7,36.23,36.23,0,0,0-5.69-.47c-1.38,0-2.76-.05-4.13,0-2.62.2-5.24,0.46-7.86,0.76-1.73.2-3.45,0.49-5.17,0.77-1.12.18-2.23,0.43-3.34,0.65-1.77.36-3.55,0.72-5.31,1.11-1.38.31-2.76,0.65-4.14,1-1.9.48-3.8,1-5.69,1.46Q59.31,90,57,90.7c-2,.6-4.09,1.21-6.13,1.86-2.46.78-4.9,1.6-7.35,2.42-0.95.31-1.89,0.66-2.83,1-0.37.12-.47,0-0.39-0.36,0-.11,0-0.21.06-0.32a1.33,1.33,0,0,1,1.05-1.2c2-.58,4-1.23,6-1.87s4.22-1.35,6.33-2,4.31-1.33,6.47-2c2.56-.77,5.12-1.54,7.7-2.26s5-1.34,7.48-2c2.25-.56,4.51-1.1,6.79-1.56s4.85-.94,7.3-1.29,5.17-.71,7.77-0.85a53.44,53.44,0,0,1,10.12.26,31.08,31.08,0,0,1,8.24,2.18A19.93,19.93,0,0,1,125.1,91,25.67,25.67,0,0,1,128,98.2c0.09,0.38.22,0.38,0.51,0.27,1.66-.62,3.31-1.26,5-1.84q4.09-1.42,8.22-2.76c2.39-.78,4.78-1.54,7.19-2.23,3.24-.94,6.5-1.81,9.76-2.69,1.58-.43,3.16-0.83,4.75-1.2,2.38-.56,4.77-1.08,7.15-1.61,1.45-.32,2.9-0.64,4.36-0.91,2.36-.44,4.73-0.85,7.11-1.25,1.8-.3,3.6-0.59,5.41-0.84s3.51-.45,5.27-0.63c2.12-.22,4.25-0.4,6.37-0.6l0.64-.07Z"/><path class="cls-1" d="M137.93,149.28c0.21-.77.4-1.45,0.6-2.13,1.1-3.73,2.46-7.38,3.91-11,1.89-4.67,3.86-9.31,5.8-14,0.33-.78.34-0.8-0.51-0.77s-1.86.13-2.79,0.19l-0.63,0c0.25-.41.43-0.75,0.65-1.06a4.52,4.52,0,0,1,2.26-1.89,9.58,9.58,0,0,1,2.36-.31c1.38-.06,2.76-0.08,4.13,0a32.59,32.59,0,0,1,9.36,1.29,8.6,8.6,0,0,1,3.74,2.11,3.69,3.69,0,0,1,.88,3.86,8.19,8.19,0,0,1-2.82,3.83,24,24,0,0,1-6,3.57c-1.32.58-2.68,1.08-4,1.62-0.25.1-.39,0.18-0.2,0.49,1.24,2,2.46,4,3.7,6a14.16,14.16,0,0,0,3.26,3.79,5.63,5.63,0,0,0,3.45,1.22,1.06,1.06,0,0,1,.2.06,1.79,1.79,0,0,1-.31.49,12.68,12.68,0,0,1-2,1.45,11.89,11.89,0,0,1-2.64.86,3.55,3.55,0,0,1-2.92-.8,10.41,10.41,0,0,1-2.72-3.08c-1.41-2.34-2.76-4.71-4.16-7.05-0.49-.81-1-1.58-1.6-2.34-0.17-.23-0.16-0.35.06-0.52a9.51,9.51,0,0,1,3-1.62,2,2,0,0,1,.75-0.11,8.54,8.54,0,0,0,5.32-1.52,12.26,12.26,0,0,0,3.37-2.7,4.82,4.82,0,0,0,1.06-2.33,3,3,0,0,0-1.21-2.88,8.86,8.86,0,0,0-3.92-1.75c-1.24-.27-2.5-0.44-3.75-0.62a0.54,0.54,0,0,0-.44.24c-1.2,2.48-2.42,5-3.56,7.46-0.85,1.88-1.64,3.8-2.38,5.72s-1.42,3.82-2,5.76c-0.57,1.79-1.07,3.6-1.48,5.43a1.82,1.82,0,0,1-1.24,1.5c-1.29.47-2.57,1-3.86,1.44A3.39,3.39,0,0,1,137.93,149.28Z"/><path class="cls-1" d="M169.28,142.25a6.65,6.65,0,0,0,2.25,3.29,6.25,6.25,0,0,0,5.2,1.22,9.84,9.84,0,0,0,4.36-1.84,5.54,5.54,0,0,0,2.33-4.14,4,4,0,0,0-.69-2.42,9.64,9.64,0,0,0-3-2.72c-1-.64-2-1.24-3-1.89a10,10,0,0,1-3.31-3.05,5.42,5.42,0,0,1,.76-6.45,18.8,18.8,0,0,1,8.57-4.94,23.81,23.81,0,0,1,5.1-.82,12.26,12.26,0,0,1,4.83.61l0.28,0.12a7.58,7.58,0,0,1-.51.84,7.45,7.45,0,0,1-2.86,2.15,0.55,0.55,0,0,1-.63-0.07,8.64,8.64,0,0,0-7.7-.95,5.75,5.75,0,0,0-3.75,4.85,3.81,3.81,0,0,0,1.59,3.66c0.94,0.67,2,1.22,3,1.83,1.23,0.76,2.48,1.5,3.66,2.32a7.48,7.48,0,0,1,1.58,1.5,4.53,4.53,0,0,1,.48,5,10.13,10.13,0,0,1-2.76,3.45,23.26,23.26,0,0,1-7.36,4.35,16.74,16.74,0,0,1-6.8,1.07,8.1,8.1,0,0,1-3.65-1l-0.11-.06c-1.24-.75-1.39-1.29-0.79-2.59A8.1,8.1,0,0,1,169.28,142.25Z"/><path class="cls-1" d="M116.49,149.77l2-.41a11.66,11.66,0,0,0,8.09-6,34.17,34.17,0,0,0,2.81-6.58c0.72-2.29,1.45-4.58,2-6.91,0.66-2.6,1.16-5.24,1.73-7.87,0.14-.65.19-1.31,0.37-1.95a1.28,1.28,0,0,1,.59-0.76,8.46,8.46,0,0,1,2.1-.69c1.36-.21,2.73-0.3,4.1-0.43a0.89,0.89,0,0,1,.21,0c-0.1.3-.18,0.57-0.28,0.85-1.15,3.23-2.3,6.46-3.46,9.68-1.42,3.92-2.68,7.91-4.41,11.71A21.58,21.58,0,0,1,129.1,146a13.93,13.93,0,0,1-6.12,4.1,13.13,13.13,0,0,1-3.74.63,4,4,0,0,1-2.12-.31,4.89,4.89,0,0,1-.71-0.58Z"/><path class="cls-1" d="M129.44,155.95c0.17,0.52.38,0.45,0.65,0.28a0.77,0.77,0,0,1,1.09.1,0.47,0.47,0,0,0,.44,0c0.71-.56,1.5-0.43,1.55.8a9.83,9.83,0,0,1,0,1.22,0.93,0.93,0,0,1-.28.35,1.41,1.41,0,0,1-.15-0.39c0-.49,0-1-0.08-1.49a0.42,0.42,0,0,0-.66-0.34,0.81,0.81,0,0,0-.58.92,7.14,7.14,0,0,1,0,1,0.77,0.77,0,0,1-.26.28,1.13,1.13,0,0,1-.16-0.35c0-.49,0-1-0.08-1.48a0.45,0.45,0,0,0-.75-0.33,0.91,0.91,0,0,0-.55.94,4.92,4.92,0,0,1,0,.93,0.81,0.81,0,0,1-.19.3,0.78,0.78,0,0,1-.23-0.3q0-1,0-1.95A1.73,1.73,0,0,1,129.44,155.95Z"/><path class="cls-1" d="M141.79,157.72c0,0.39,0,.78,0,1.17a1,1,0,0,1-1.47.83,0.23,0.23,0,0,1-.11-0.19,0.23,0.23,0,0,1,.17-0.13c0.13,0,.27,0,0.4,0a0.62,0.62,0,0,0,.58-0.79,0.31,0.31,0,0,0-.28-0.11,1.08,1.08,0,0,1-1.35-.05,1.46,1.46,0,0,1-.3-1.58,1.23,1.23,0,0,1,1.14-.83c1.16-.06,1.23,0,1.23,1.14q0,0.26,0,.53h0Zm-0.43-.45V157c0-.47-0.12-0.58-0.6-0.58a1,1,0,0,0-.85,1.56,0.68,0.68,0,0,0,1.08.25A0.85,0.85,0,0,0,141.36,157.28Z"/><path class="cls-1" d="M173.4,158.46l-0.24.15a1,1,0,0,1-1.58-.57,1.41,1.41,0,0,1,1.54-2c0.39,0.06.52-.08,0.49-0.45a4.79,4.79,0,0,1,0-.85,0.8,0.8,0,0,1,.22-0.29,0.78,0.78,0,0,1,.17.3c0,1.17,0,2.35,0,3.52a1.3,1.3,0,0,1-.19.44Zm0.21-1.14c0-.75-0.29-1-0.87-0.9a1.15,1.15,0,0,0-.67,1.54,0.68,0.68,0,0,0,1.15.25A0.88,0.88,0,0,0,173.61,157.31Z"/><path class="cls-1" d="M186.81,158.77l-0.15-.34a0.57,0.57,0,0,0-.19.06,1,1,0,0,1-1.22.17,1.23,1.23,0,0,1-.56-1.26,1.32,1.32,0,0,1,1.66-1.32c0.36,0,.43-0.08.41-0.38a5,5,0,0,1,0-.89,0.9,0.9,0,0,1,.27-0.33,0.86,0.86,0,0,1,.15.31c0,1.19,0,2.38,0,3.57A0.33,0.33,0,0,1,186.81,158.77Zm-0.06-1.43c0-.79-0.26-1.05-0.83-0.93a1.1,1.1,0,0,0-.75,1.3c0.16,0.75.66,0.92,1.26,0.46A0.81,0.81,0,0,0,186.75,157.34Z"/><path class="cls-1" d="M133.87,158c0-.53,0-1.05,0-1.58a0.88,0.88,0,0,1,.17-0.32,1,1,0,0,0,.25.18,0.43,0.43,0,0,0,.32,0,1.06,1.06,0,0,1,1.73.82,1.36,1.36,0,0,1-1.71,1.62c-0.29-.06-0.37,0-0.36.3a1.47,1.47,0,0,1,0,.4,0.62,0.62,0,0,1-.21.39c-0.28,0-.21-0.2-0.21-0.37,0-.49,0-1,0-1.46h0Zm0.41-.56c0,0.46-.13.87,0.41,1a0.89,0.89,0,0,0,1.07-.45,1.25,1.25,0,0,0-.13-1.37,0.56,0.56,0,0,0-.74-0.1A0.92,0.92,0,0,0,134.28,157.42Z"/><path class="cls-1" d="M127.17,156.06a1.38,1.38,0,1,1-1.43,1.34A1.28,1.28,0,0,1,127.17,156.06Zm-1,1.35a0.92,0.92,0,0,0,.93,1,1,1,0,0,0,1-1,1,1,0,0,0-1-1.07A1,1,0,0,0,126.21,157.41Z"/><path class="cls-1" d="M180.22,157.35h-0.61c-0.36,0-.48.19-0.32,0.52a1.16,1.16,0,0,0,1.23.58,2.73,2.73,0,0,1,.55,0c0,0.34-.32.29-0.52,0.33a1.4,1.4,0,0,1-1.73-1.78,1.26,1.26,0,0,1,1.14-.93,1.05,1.05,0,0,1,1.19.7c0.17,0.45.08,0.59-.4,0.59h-0.53ZM180,157h0a2.23,2.23,0,0,0,.36,0,0.5,0.5,0,0,0,.3-0.11,0.48,0.48,0,0,0-.11-0.35,0.67,0.67,0,0,0-.94-0.07,1.52,1.52,0,0,0-.28.4c0.14,0,.28.1,0.43,0.13A1.07,1.07,0,0,0,180,157Z"/><path class="cls-1" d="M191,157.35h-0.65c-0.34,0-.39.16-0.3,0.44a1.12,1.12,0,0,0,1.29.66c0.16,0,.38-0.28.49,0a0.92,0.92,0,0,1-.45.28,1.51,1.51,0,0,1-1.65-.58,1.62,1.62,0,0,1,.09-1.65,1.27,1.27,0,0,1,1.34-.46,1,1,0,0,1,.8.78c0.11,0.38,0,.49-0.36.49H191Zm-0.18-.3h0a2.11,2.11,0,0,0,.36,0,0.45,0.45,0,0,0,.3-0.13,0.41,0.41,0,0,0-.1-0.32,0.68,0.68,0,0,0-1-.08,1.53,1.53,0,0,0-.26.41c0.13,0,.27.09,0.4,0.11A1.55,1.55,0,0,0,190.79,157Z"/><path class="cls-1" d="M177,158.29a1,1,0,0,1-.16.37,1.69,1.69,0,0,1-2-.41,1.5,1.5,0,0,1,.31-2,1.19,1.19,0,0,1,1.91.73c0,0.23,0,.34-0.26.33H175.5c-0.45,0-.55.18-0.34,0.58a1,1,0,0,0,1.09.53C176.46,158.42,176.67,158.36,177,158.29Zm-1.06-2a6.47,6.47,0,0,0-.63.37,0.33,0.33,0,0,0-.08.28,0.3,0.3,0,0,0,.23.11,6.37,6.37,0,0,0,.8,0,0.38,0.38,0,0,0,.29-0.15,0.36,0.36,0,0,0-.11-0.31A3.21,3.21,0,0,0,175.91,156.29Z"/><path class="cls-1" d="M146.89,157.35h-0.73c-0.29,0-.35.15-0.26,0.4a1.1,1.1,0,0,0,1.3.69,2.11,2.11,0,0,1,.53,0,1.72,1.72,0,0,1-.5.3,1.45,1.45,0,0,1-1.57-.5,1.41,1.41,0,0,1-.06-1.57,1.28,1.28,0,0,1,1.42-.62,1.11,1.11,0,0,1,.82.86c0.06,0.29,0,.44-0.34.43h-0.61Zm-0.23-.3a0.71,0.71,0,0,0,.2,0l0.5-.18a1.67,1.67,0,0,0-.44-0.46,0.73,0.73,0,0,0-.56.07,1.55,1.55,0,0,0-.36.43l0.5,0.14A0.75,0.75,0,0,0,146.66,157Z"/><path class="cls-1" d="M158.94,158.42a0.77,0.77,0,0,1-.17.26,1.67,1.67,0,0,1-2-.53,1.49,1.49,0,0,1,.62-2,1.14,1.14,0,0,1,1.66.77c0.08,0.28,0,.44-0.33.43h-1.3c-0.32,0-.41.13-0.3,0.43a1.06,1.06,0,0,0,1.28.66l0.46-.11Zm-1.07-2.1a3.49,3.49,0,0,0-.61.39c-0.18.17-.09,0.33,0.15,0.34a4.63,4.63,0,0,0,.73,0,2,2,0,0,0,.43-0.14,2.09,2.09,0,0,0-.27-0.41A1.48,1.48,0,0,0,157.87,156.31Z"/><path class="cls-1" d="M120.29,158.49a1.17,1.17,0,0,1-1.26.23,0.74,0.74,0,0,1-.4-0.47,0.79,0.79,0,0,1,.36-0.55,4,4,0,0,1,.87-0.3c0.21-.07.47-0.06,0.42-0.42a0.59,0.59,0,0,0-.61-0.58,1.91,1.91,0,0,0-.47.1c-0.14,0-.27.11-0.4,0.16l-0.1-.08a0.78,0.78,0,0,1,.23-0.34,5.13,5.13,0,0,1,1.18-.15,0.6,0.6,0,0,1,.56.6c0,0.37,0,.75.06,1.13,0,0.19.06,0.37,0.07,0.56a2.34,2.34,0,0,1,0,.35l-0.35-.14A0.78,0.78,0,0,1,120.29,158.49Zm-0.71.17a6.74,6.74,0,0,0,.64-0.62,0.73,0.73,0,0,0,0-.38,2,2,0,0,0-.34,0,1.44,1.44,0,0,0-.49.16,0.64,0.64,0,0,0-.3.39A1.66,1.66,0,0,0,119.58,158.66Z"/><path class="cls-1" d="M138.47,158.57a6.81,6.81,0,0,1-1.13.22,0.62,0.62,0,0,1-.68-0.52,0.57,0.57,0,0,1,.48-0.65l0.73-.22c0.25-.07.52-0.1,0.45-0.47a0.59,0.59,0,0,0-.69-0.53,4.47,4.47,0,0,0-.61.19,0.43,0.43,0,0,1-.31,0,1.27,1.27,0,0,1,.23-0.33,1,1,0,0,1,.41-0.16c0.9-.13,1.41,0,1.41,1.09a12.44,12.44,0,0,0,.15,1.3,0.26,0.26,0,0,1-.06.21,0.3,0.3,0,0,1-.26,0A0.33,0.33,0,0,1,138.47,158.57Zm-0.83.07a5.82,5.82,0,0,0,.6-0.56,0.79,0.79,0,0,0,0-.38,1.85,1.85,0,0,0-.36,0,1,1,0,0,0-.46.13,0.67,0.67,0,0,0-.31.43A1.31,1.31,0,0,0,137.64,158.65Z"/><path class="cls-1" d="M182.39,156.36a6.78,6.78,0,0,1,.86-0.3,0.58,0.58,0,0,1,.74.47,17.35,17.35,0,0,1,.13,2,0.63,0.63,0,0,1-.24.21,0.73,0.73,0,0,1-.21-0.28c0-.31,0-0.62,0-0.93a1.87,1.87,0,0,0,0-.24c0-.56-0.26-0.85-0.59-0.83a1,1,0,0,0-.87.95c0,0.35,0,.7,0,1.05a0.22,0.22,0,1,1-.43,0c0-.62,0-1.24,0-1.87a1.34,1.34,0,0,1,.19-0.44Z"/><path class="cls-1" d="M142.53,157.4c0-.32,0-0.65,0-1a0.91,0.91,0,0,1,.15-0.3,2.05,2.05,0,0,0,.27.15,0.73,0.73,0,0,0,.3.06,0.67,0.67,0,0,0,.2-0.12,0.82,0.82,0,0,1,1.35.69,11.19,11.19,0,0,1,0,1.5,0.8,0.8,0,0,1-.26.31,1,1,0,0,1-.2-0.36c0-.49,0-1,0-1.48s-0.36-.56-0.77-0.35a0.9,0.9,0,0,0-.61,1,3.9,3.9,0,0,1,0,.89,0.86,0.86,0,0,1-.22.32,1,1,0,0,1-.19-0.33c0-.32,0-0.65,0-1h0Z"/><path class="cls-1" d="M177.31,156.41a0.45,0.45,0,0,1,0-.13,1,1,0,0,0,.41-1.06,0.88,0.88,0,0,1,1.17-.73,0.72,0.72,0,0,1,.21.25,0.6,0.6,0,0,1-.28.11,0.44,0.44,0,0,0-.6.26,3,3,0,0,0,0,.9,1,1,0,0,0,.24.09,1.86,1.86,0,0,1,.21.13,0.54,0.54,0,0,1-.19.21c-0.33,0-.34.24-0.33,0.49,0,0.46,0,.92,0,1.38a0.52,0.52,0,0,1-.2.39c-0.29,0-.22-0.23-0.22-0.41,0-.43,0-0.86,0-1.3S177.68,156.44,177.31,156.41Z"/><path class="cls-1" d="M164,156.16a3,3,0,0,1-.11.38c-0.28.64-.56,1.29-0.85,1.92a0.44,0.44,0,0,1-.31.24,0.52,0.52,0,0,1-.35-0.26c-0.29-.65-0.57-1.31-0.83-2a0.82,0.82,0,0,1,0-.35,0.85,0.85,0,0,1,.37.2c0.2,0.43.36,0.87,0.54,1.31a3.7,3.7,0,0,0,.25.42c0.48-.64.43-1.53,1.08-2Z"/><path class="cls-1" d="M155.37,156c0.22,0.05.45,0.09,0.66,0.16a0.48,0.48,0,0,1,.13.21,0.55,0.55,0,0,1-.24.1,2,2,0,0,0-.46-0.12,2.24,2.24,0,0,0-.55.24,1.67,1.67,0,0,0,.28.44,4.43,4.43,0,0,0,.63.37,0.69,0.69,0,0,1,.42.79,0.74,0.74,0,0,1-.75.57,4.1,4.1,0,0,1-.95-0.18,0.23,0.23,0,0,1-.11-0.17,0.28,0.28,0,0,1,.2-0.14,4.8,4.8,0,0,1,.5.15,0.47,0.47,0,0,0,.64-0.25,0.76,0.76,0,0,0-.29-0.49,2.06,2.06,0,0,0-.49-0.29,0.74,0.74,0,0,1-.54-0.81A0.84,0.84,0,0,1,155.37,156Z"/><path class="cls-1" d="M123.4,158.39a0.85,0.85,0,0,1-.24.32,1.37,1.37,0,0,1-1.77-.72,1.33,1.33,0,0,1,.72-1.83,2.66,2.66,0,0,1,1.07-.05,0.63,0.63,0,0,1,.16.26,0.71,0.71,0,0,1-.34.09,0.87,0.87,0,0,0-1,.29,1,1,0,0,0-.1,1.21,0.93,0.93,0,0,0,1,.42l0.35-.07Z"/><path class="cls-1" d="M125,158.76a1.29,1.29,0,0,1-1.47-1.35,1.31,1.31,0,0,1,1.41-1.37,0.91,0.91,0,0,1,.36,0,1.17,1.17,0,0,1,.27.27,0.84,0.84,0,0,1-.35.1,0.93,0.93,0,0,0-1.17.6,0.94,0.94,0,0,0,.42,1.22,2.79,2.79,0,0,0,.77.1,2.75,2.75,0,0,1,.34.09,1.2,1.2,0,0,1-.29.27A0.73,0.73,0,0,1,125,158.76Z"/><path class="cls-1" d="M148.77,156.1l0.19,0.34a1.66,1.66,0,0,1,.37-0.26,1.45,1.45,0,0,1,.53-0.07,0.28,0.28,0,0,1,.13.24,0.34,0.34,0,0,1-.25.19,0.88,0.88,0,0,0-.88.81c0,0.34,0,.68,0,1a1,1,0,0,1-.22.34,0.88,0.88,0,0,1-.2-0.33c0-.62,0-1.24,0-1.86a1.5,1.5,0,0,1,.18-0.45Z"/><path class="cls-1" d="M159.62,157.46c0-.34,0-0.68,0-1a0.93,0.93,0,0,1,.15-0.31,0.61,0.61,0,0,0,.63.12c0.2,0,.39-0.13.58-0.16a0.3,0.3,0,0,1,.17.21,0.37,0.37,0,0,1-.23.22,0.92,0.92,0,0,0-.89,1c0,0.28,0,.57,0,0.85a1.14,1.14,0,0,1-.2.37,1.07,1.07,0,0,1-.21-0.36,8.58,8.58,0,0,1,0-.89h0Z"/><path class="cls-1" d="M187.91,157.45c0-.34,0-0.68,0-1a0.92,0.92,0,0,1,.18-0.32,0.7,0.7,0,0,0,.22.16,0.85,0.85,0,0,0,.36,0,6,6,0,0,1,.58-0.17,0.65,0.65,0,0,1,.2.24,0.71,0.71,0,0,1-.27.19,0.92,0.92,0,0,0-.88.88c0,0.34,0,.67,0,1a0.21,0.21,0,1,1-.4,0c0-.32,0-0.65,0-1h0Z"/><path class="cls-1" d="M165.74,156.11l0.18,0.36a2.27,2.27,0,0,1,.4-0.28,1.13,1.13,0,0,1,.49-0.09,0.3,0.3,0,0,1,.18.24,0.33,0.33,0,0,1-.24.2,0.87,0.87,0,0,0-.87.9c0,0.32,0,.65,0,1a0.22,0.22,0,1,1-.4,0c0-.63,0-1.27,0-1.9a1.51,1.51,0,0,1,.13-0.41Z"/><path class="cls-1" d="M164.75,157.4c0,0.34,0,.68,0,1a0.81,0.81,0,0,1-.22.3,0.79,0.79,0,0,1-.22-0.31c0-.65,0-1.29,0-1.94a1,1,0,0,1,.27-0.38,1.34,1.34,0,0,1,.16.39c0,0.31,0,.62,0,0.93h0Z"/><path class="cls-1" d="M152.59,157a0.47,0.47,0,1,1-.94-0.05A0.47,0.47,0,1,1,152.59,157Z"/><path class="cls-1" d="M169.14,157.41a0.45,0.45,0,0,1-.49-0.48,0.44,0.44,0,0,1,.45-0.51,0.45,0.45,0,0,1,.49.48A0.47,0.47,0,0,1,169.14,157.41Z"/><path class="cls-1" d="M175.73,155.58c0.27-.26.22-0.75,0.76-0.73A0.69,0.69,0,0,1,175.73,155.58Z"/><path class="cls-1" d="M165,155.26a1.2,1.2,0,0,1-.46.28,0.45,0.45,0,0,1-.26-0.32,0.38,0.38,0,0,1,.27-0.24A1.31,1.31,0,0,1,165,155.26Z"/></g></svg>