<?xml version="1.0" encoding="utf-8"?>
<!-- Generator: Adobe Illustrator 19.0.0, SVG Export Plug-In . SVG Version: 6.00 Build 0)  -->
<svg version="1.1" id="Calque_1" xmlns="http://www.w3.org/2000/svg" xmlns:xlink="http://www.w3.org/1999/xlink" x="0px" y="0px"
	 viewBox="-185 277 240 240" style="enable-background:new -185 277 240 240;" xml:space="preserve">
<style type="text/css">
	.st0{fill:#FFFFFF;}
	.st1{fill:#FFFFFF;stroke:#FFFFFF;stroke-width:0.75;stroke-linejoin:round;stroke-miterlimit:10;}
</style>
<title>pictos_JRS</title>
<g>
	<path class="st0" d="M-43,377.3v11.6h2.7v3.3h-8.8v-3.3h2.4v-15h-2.4v-3.3h5.6l10.7,13.6v-10.3h-2.7v-3.3h8.7v3.3h-2.4v18.4h-2
		L-43,377.3z"/>
	<path class="st0" d="M-24.7,388.8h2.4v-15h-2.4v-3.3h8.1c7.8,0,12.4,4.1,12.4,10.6c0,6.6-4.4,11-12.8,11h-7.8L-24.7,388.8
		L-24.7,388.8z M-16.5,388.8c5.6,0,8.4-3,8.4-7.7s-3.3-7.3-8.7-7.3h-1.9v15H-16.5z"/>
	<path class="st0" d="M-1.4,388.8H1v-15h-2.4v-3.3H7c5,0,8.6,2.1,8.6,6.6c0,2.9-1.7,5-4.1,5.8l3.3,5.8h2.4v3.3h-5l-4.3-8.3
		c-0.4,0-0.9,0-1.3,0c-0.7,0-1.3,0-1.7,0v4.9h2.7v3.3h-8.8v-3.1L-1.4,388.8L-1.4,388.8z M11.6,377.3c0-2.3-1.9-3.3-4.9-3.3h-2v7
		c0.4,0,0.9,0,2.1,0C9.8,380.9,11.6,379.6,11.6,377.3z"/>
	<path class="st0" d="M19,388.8h2.4v-15H19v-3.3h16.2v6.1h-3.6v-2.9h-6.4v5.8h6.6v3.1h-6.6v6.1h6.4v-2.9h3.6v6.1H19V388.8z"/>
	<path class="st0" d="M-126.3,319.8c-33.4,0-58.5,24.8-58.5,57.6c0,34.5,23.7,57.6,58.9,57.6c15.7,0,30.5-5.7,41.5-15.8l-6.7-7
		c-10,9.1-21.8,13.8-34.7,13.8c-27.7,0-47.6-20.5-47.6-48.8c0-27.5,20.1-48.4,46.8-48.4c14.3,0,21.5,4.1,24.7,6.6l3.3,2.6l-1.9,3.7
		c-0.3,0.6-0.7,2.1-0.7,4c0,5,3.3,8,8.8,8c4.9,0,8.1-4,8.1-9.8C-84.5,332.2-101.3,319.8-126.3,319.8z"/>
	<path class="st0" d="M-160.5,381.4c0-6.3,4.6-11.3,11.1-11.3c6.6,0,11,4.9,11,11.3c0,6.3-4.6,11.3-11.1,11.3
		C-156,392.6-160.5,387.7-160.5,381.4z M-142.1,381.4c0-4.6-3-7.7-7.3-7.7c-4.1,0-7.3,3.3-7.3,7.7c0,4.6,3,7.7,7.3,7.7
		S-142.1,385.8-142.1,381.4z"/>
	<path class="st0" d="M-136,388.8h2.6l0.7-15h-2.7v-3.3h5.8l6.7,12l6.7-12h5.8v3.3h-2.7l0.7,15h2.6v3.3h-8.8v-3.3h2.6l-0.4-11.1
		l-6.1,10.8h-0.4l-6.1-10.8l-0.4,11.1h2.6v3.3h-8.8L-136,388.8L-136,388.8z"/>
	<path class="st0" d="M-107.6,388.8h2.4v-15h-2.4v-3.3h8.7c4.6,0,8.1,2.7,8.1,7.1c0,5-3.6,7.4-8.6,7.4c-1,0-1.7,0-2.1,0v3.9h2.7v3.3
		h-8.8C-107.6,392.2-107.6,388.8-107.6,388.8z M-94.5,377.6c0-2.3-1.9-3.7-4.6-3.7h-2.3v7.8c0.4,0,0.9,0,2.4,0
		C-96.2,381.7-94.5,380.1-94.5,377.6z"/>
	<path class="st0" d="M-88.5,388.8h2.4v-15h-2.4v-3.3h8.4c5,0,8.6,2.1,8.6,6.6c0,2.9-1.7,5-4.1,5.8l3.3,5.8h2.4v3.3h-5l-4.3-8.3
		c-0.4,0-0.9,0-1.3,0c-0.7,0-1.3,0-1.7,0v4.9h2.7v3.3h-8.8v-3.1L-88.5,388.8L-88.5,388.8z M-75.4,377.3c0-2.3-1.9-3.3-4.9-3.3h-2v7
		c0.4,0,0.9,0,2.1,0C-77.4,380.9-75.4,379.6-75.4,377.3z"/>
	<path class="st0" d="M-68.1,388.8h2.4v-15h-2.4v-3.3H-52v6.1h-3.6v-2.9H-62v5.8h6.6v3.1H-62v6.1h6.4v-2.9h3.6v6.1h-16.1V388.8z"/>
	<path class="st1" d="M-62.7,433.5h1.6l3.7-16h-2.4v-0.1h2.6l-0.9,3.7c0.9-2.1,2.7-3.9,5-3.9c2.4,0,3.9,1.7,3.9,4.4
		c0,3.3-2.1,6.7-5.6,6.7c-2.4,0-4-1.9-4-4.4v-0.3l-2.3,9.7h2.4v0.1L-62.7,433.5L-62.7,433.5z M-49.3,421.7c0-2.7-1.4-4.4-3.7-4.4
		c-3.3,0-5.6,3.7-5.6,6.7c0,2.6,1.6,4.3,3.9,4.3C-51.4,428.4-49.3,424.9-49.3,421.7z"/>
	<path class="st1" d="M-45.1,423.6c0-3.3,2.3-6.4,5.7-6.4c2.6,0,4.6,1.7,4.6,4.9c0,3.3-2.4,6.4-5.7,6.4
		C-43.1,428.4-45.1,426.6-45.1,423.6z M-35,421.9c0-3-1.9-4.7-4.4-4.7c-3.3,0-5.6,3.1-5.6,6.3c0,3,1.9,4.7,4.4,4.7
		C-37.3,428.4-35,425.2-35,421.9z"/>
	<path class="st1" d="M-29,417.2l-1.4,5.8c-0.3,1.3-0.4,2.3-0.4,2.9c0,1.4,0.9,2.4,2.3,2.4c2.4,0,4.9-2.9,5.7-6.4l1.1-4.6h0.1
		l-2,8.3c-0.1,0.4-0.1,0.9-0.1,1.3c0,0.9,0.4,1.4,1.3,1.4s1.4-0.7,2-2.1h0.1c-0.6,1.6-1.1,2.3-2.1,2.3c-0.9,0-1.4-0.7-1.4-1.6
		c0-0.4,0-0.7,0.1-1.3l0.6-2c-1.1,2.9-3.3,4.9-5.3,4.9c-1.6,0-2.4-1-2.4-2.4c0-0.6,0.1-1.4,0.4-2.9l1.4-5.7h-2.4v-0.1L-29,417.2
		L-29,417.2z"/>
	<path class="st1" d="M-14,417.5h-2.3v-0.1h2.6l-1.1,4.4c1-2.9,2.3-4.6,3.7-4.6c0.6,0,0.9,0.3,0.9,0.6c0,0.1-0.1,0.3-0.3,0.3
		c-0.3,0-0.3-0.1-0.3-0.3c0-0.1,0.1-0.3,0.1-0.3c-0.1-0.1-0.3-0.1-0.4-0.1c-1.6,0-3.1,2.4-4.3,6.6l-1.1,4.4h-0.3L-14,417.5z"/>
	<g>
		<path class="st0" d="M-130.9,462.6c0-6.1,4.1-11.6,9.3-11.6c2.4,0,4.3,2,5,4l1.3-3.7h4.1l-3,12.1c-0.1,0.7-0.3,1.4-0.3,1.9
			c0,0.7,0.3,1.1,0.9,1.1s1.4-0.4,2.3-2.9l1.9,0.7c-1.3,4.1-3.4,5.3-5.4,5.3c-2.3,0-3.7-1.6-3.7-4c-1.4,2.1-3.6,4-6.4,4
			C-128.5,469.4-130.9,466.7-130.9,462.6z M-117.5,458.7c0-2.3-1.1-3.7-3.4-3.7c-3,0-5.4,3.3-5.4,7c0,2.1,1,3.7,3.1,3.7
			C-120,465.7-117.5,462.6-117.5,458.7z"/>
		<path class="st0" d="M-110.8,473.4h2.6l4.3-18.4h-3.3l1-3.7h7.1l-0.9,4c1.4-2.3,3.9-4.4,6.6-4.4c4.1,0,6.1,2.9,6.1,7
			c0,6.1-4.1,11.4-9.4,11.4c-2.6,0-4.3-1.9-5.1-3.7l-1.9,7.7h3.1l-1,3.7h-10.1L-110.8,473.4z M-92.1,458.6c0-2.1-1.1-3.9-3.4-3.9
			c-3.1,0-5.7,3.1-5.7,7c0,2.3,1.1,3.7,3.6,3.7C-94.5,465.6-92.1,462.3-92.1,458.6z"/>
		<path class="st0" d="M-87.9,473.4h2.6L-81,455h-3.3l1-3.7h7.1l-0.9,4c1.4-2.3,3.9-4.4,6.6-4.4c4.1,0,6.1,2.9,6.1,7
			c0,6.1-4.1,11.4-9.4,11.4c-2.6,0-4.3-1.9-5.1-3.7l-1.9,7.7h3.1l-1,3.7h-10.1L-87.9,473.4z M-69.3,458.6c0-2.1-1.1-3.9-3.4-3.9
			c-3.1,0-5.7,3.1-5.7,7c0,2.3,1.1,3.7,3.6,3.7C-71.7,465.6-69.3,462.3-69.3,458.6z"/>
		<path class="st0" d="M-58.1,455.2h-3.3l1-3.7h7l-1.1,5.1c2.1-3.7,4.1-5.6,6.3-5.6c1.6,0,3,1.1,3,2.9c0,1.6-1.3,2.9-2.9,2.9
			c-1.4,0-2.4-1-2.7-2c-1.3,0.4-3.4,2.7-4.3,6.3l-2,8.1h-4.6L-58.1,455.2z"/>
		<path class="st0" d="M-41,461.7v0.3c0,2,1.6,3.7,5,3.7c1.9,0,3.7-0.4,5.8-1.6l-0.9,4c-1.9,0.9-3.4,1.3-6,1.3
			c-4.3,0-8.4-2.7-8.4-7.7c0-6,4.3-10.8,9.6-10.8c4.6,0,7.7,2.4,7.7,6.8c0,1.1-0.1,2.4-0.7,3.9L-41,461.7L-41,461.7z M-40.4,458.7h8
			c0.1-0.4,0.1-0.9,0.1-1.3c0-1.7-1.1-2.7-3.3-2.7C-37.9,454.7-39.6,456.3-40.4,458.7z"/>
		<path class="st0" d="M-13.8,465.6c0-0.7,0.1-1.3,0.3-2l1.3-4.9c0.1-0.6,0.1-1,0.1-1.4c0-1.6-1-2.4-2.4-2.4c-1.9,0-3.1,1.3-3.9,4
			l-2.6,10.4h-4.6l3.6-14.1h-3.3l1-3.7h7l-0.9,4.1c1.3-2.3,3.7-4.4,6-4.4c2.6,0,4.7,1.9,4.7,5.3c0,0.9-0.1,1.9-0.4,3l-1.3,4.7
			c-0.1,0.4-0.1,0.9-0.1,1.3c0,0.9,0.3,1.3,1,1.3c0.6,0,1.4-0.4,2.3-2.9l1.9,0.7c-1,3.7-3,5.3-5.4,5.3
			C-12.3,469.4-13.8,467.9-13.8,465.6z"/>
		<path class="st0" d="M7.1,451c2.4,0,4.1,2,4.9,3.9l2.7-11.7h-3.1l1-3.7h7.6l-5.6,24.1c-0.1,0.9-0.3,1.4-0.3,1.9
			c0,0.7,0.3,1.1,0.9,1.1s1.4-0.4,2.3-2.9l1.9,0.7c-1.3,4.1-3.6,5.3-5.4,5.3c-2.3,0-3.7-1.6-3.7-4c-1.4,2.1-3.6,4-6.4,4
			c-3.3,0-5.7-2.7-5.7-6.8C-2.2,456.5,1.9,451,7.1,451z M11.3,458.7c0-2.3-1.1-3.7-3.4-3.7c-3,0-5.4,3.3-5.4,7c0,2.1,1,3.7,3.1,3.7
			C8.6,465.7,11.3,462.6,11.3,458.7z"/>
		<path class="st0" d="M24.9,455.2h-3.1l1-3.7h7l-1.1,5.1c2.1-3.7,4.1-5.6,6.3-5.6c1.6,0,3,1.1,3,2.9c0,1.6-1.3,2.9-2.9,2.9
			c-1.4,0-2.4-1-2.7-2c-1.3,0.4-3.4,2.7-4.3,6.3l-2,8.1h-4.6L24.9,455.2z"/>
		<path class="st0" d="M42.2,461.7v0.3c0,2,1.6,3.7,5,3.7c1.9,0,3.7-0.4,5.8-1.6l-0.9,4c-1.9,0.9-3.4,1.3-6,1.3
			c-4.3,0-8.4-2.7-8.4-7.7c0-6,4.3-10.8,9.6-10.8c4.6,0,7.7,2.4,7.7,6.8c0,1.1-0.1,2.4-0.7,3.9L42.2,461.7L42.2,461.7z M42.6,458.7
			h8c0.1-0.4,0.1-0.9,0.1-1.3c0-1.7-1.1-2.7-3.3-2.7S43.4,456.3,42.6,458.7z"/>
	</g>
</g>
</svg>
