<?xml version="1.0" encoding="utf-8"?>
<!-- Generator: Adobe Illustrator 19.0.0, SVG Export Plug-In . SVG Version: 6.00 Build 0)  -->
<svg version="1.1" id="Layer_1" xmlns="http://www.w3.org/2000/svg" xmlns:xlink="http://www.w3.org/1999/xlink" x="0px" y="0px"
	 viewBox="0 0 250 250" style="enable-background:new 0 0 250 250;" xml:space="preserve">
<style type="text/css">
	.st0{fill:#EBE6E5;}
</style>
<g sketch:type="MSPage">
	<g transform="translate(-135.000000, -225.000000)" sketch:type="MSArtboardGroup">
		<path sketch:type="MSShapeGroup" class="st0" d="M260,243.9c-58.6,0-106.1,47.5-106.1,106.1S201.4,456.1,260,456.1
			S366.1,408.6,366.1,350S318.6,243.9,260,243.9z M198.8,333.7h69.9l-15.5-15.4c-1.6-1.6-1.6-4.2,0-5.8l17.3-17.3
			c1.6-1.6,4.2-1.6,5.8,0l52,52c1.6,1.6,1.6,4.2,0,5.8l-52,52c-1.6,1.6-4.2,1.6-5.8,0l-17.3-17.3c-1.6-1.6-1.6-4.2,0-5.8l15.5-15.5
			h-69.9c-2.3,0-4.1-1.8-4.1-4.1v-24.5C194.7,335.5,196.5,333.7,198.8,333.7z"/>
	</g>
</g>
</svg>
