<?xml version="1.0" encoding="utf-8"?>
<!-- Generator: Adobe Illustrator 19.0.0, SVG Export Plug-In . SVG Version: 6.00 Build 0)  -->
<svg version="1.1" id="Calque_1" xmlns="http://www.w3.org/2000/svg" xmlns:xlink="http://www.w3.org/1999/xlink" x="0px" y="0px"
	 viewBox="-185 277 240 240" style="enable-background:new -185 277 240 240;" xml:space="preserve">
<style type="text/css">
	.st0{fill:#00A89E;}
	.st1{fill:none;stroke:#00A89E;stroke-width:1.65;stroke-miterlimit:10;}
	.st2{fill:none;stroke:#00A89E;stroke-width:0.8;stroke-miterlimit:10;}
</style>
<title>pictos_JRS</title>
<path class="st0" d="M-60.2,421.2l-5.3-62.8l-18,43L-60.2,421.2 M-106.9,440.1c3.8-12,45.9-115.2,46.7-90.6
	c0.8,24.6,7.8,78.2,4.2,80.7c-3.1,2.1-21.8-18.7-31.3-23.1c-1.7-0.2-9.9,26.2-17.6,40.5C-106.1,449.7-109.1,446.9-106.9,440.1z"/>
<path class="st0" d="M-44.7,384.7c6.5,1.9,1.1,6.2-2.2,6c-3.7-0.1-36.8,10.6-42.6,12.1c-5.8,1.5-4.3-5.4-2.2-6.2
	C-89.6,395.9-51.2,382.7-44.7,384.7"/>
<path class="st1" d="M-150.8,501.1c47.3-44.2,133.9-75,202.5-73.5"/>
<path class="st0" d="M-9,342.7c0.5,1.1,1.3,9.4-4.2,8c-16-4-32.1,16.7-24.1,23.5c4.9,4.2,43.4,4,34.8,24
	c-8.5,20-40.9,31.2-46.4,32.9s-10.8-4.3-9.6-6.1c1.2-1.7,14.4-1.6,31.7-14.2c17.3-12.6,25.6-18.8,9.7-23.3
	c-22.6-6.3-36.7-7.2-30.1-25C-41.4,347.1-11.8,336.6-9,342.7"/>
<path class="st0" d="M-2.7,331.9c-1.8-3.3,10.5-3.7,10.5-3.7S4.1,441.3,8,444.3s-12.3,7.3-11.9,4C-3.3,443.9,1.1,338.8-2.7,331.9"/>
<path class="st0" d="M-9.4,354.1c-2.1-7.3,54.6-37.7,63.4-1.2c9.2,37.7-51.6,55.4-58.2,51.6c-0.6-0.3-1.2-8.7,1.5-9.2
	c6.4-1.1,22.9,0.8,33.7-7.7c12.1-9.5,18.4-24.9,12.2-37c-6.2-12.1-17.1-11.5-26.2-9.6c-14.5,3.1-24.2,20.4-26.2,13.1"/>
<path class="st0" d="M-112,385.8c6.3-5.7,19.1-20.7,13-27.4c-16.1-17.9-94.2,47.2-77,81.4s83-15.2,86.9-17.1s5.8-3.1,4.8,3
	c-1,6.1-71.1,51.6-93.7,23.1c-34.1-42.9,66.8-120.4,83.2-92.9c7.8,13.2-7.6,30.5-14.1,34.7C-112.7,393-116.3,389.7-112,385.8"/>
<line class="st2" x1="-167" y1="293" x2="29.8" y2="293"/>
<line class="st2" x1="-167" y1="487.8" x2="29.8" y2="487.8"/>
<line class="st2" x1="-165.8" y1="292.9" x2="-165.8" y2="375.8"/>
<line class="st2" x1="28.7" y1="293.8" x2="28.7" y2="325.3"/>
<line class="st2" x1="28.7" y1="437.4" x2="28.7" y2="487.8"/>
<line class="st2" x1="-165.9" y1="463.9" x2="-165.9" y2="486.9"/>
</svg>
