<?xml version="1.0" encoding="utf-8"?>
<!-- Generator: Adobe Illustrator 19.0.0, SVG Export Plug-In . SVG Version: 6.00 Build 0)  -->
<svg version="1.1" id="Calque_1" xmlns="http://www.w3.org/2000/svg" xmlns:xlink="http://www.w3.org/1999/xlink" x="0px" y="0px"
	 viewBox="-185 277 240 240" style="enable-background:new -185 277 240 240;" xml:space="preserve">
<style type="text/css">
	.st0{fill:#171717;}
	.st1{fill:#EF7834;}
</style>
<title>pictos_JRS</title>
<path class="st0" d="M-106.2,397.5c-0.2-0.2-0.4-0.5-0.5-0.8c-0.1-0.8-0.4-1.5-1-2.1c-0.1-0.1-0.2-0.3-0.1-0.4c0.2-1-0.6-1.6-1-2.4
	c-0.1,0.5-0.1,1,0,1.4c0,0.3,0,0.6,0,0.8c0,0.7-0.2,1.2-0.5,1.8c-0.1,0.1,0,0.3,0.1,0.3c0,0,0,0,0.1,0s0.2-0.1,0.3-0.2
	c0.2-0.4,0.5-0.6,0.9-0.8c-1.2,1.6-2.1,3.5-2.6,5.5c-0.4,0-0.7-0.2-0.8-0.5c0-0.1-0.1-0.2-0.2-0.1l0,0c-0.3,0.1-0.4,0-0.3-0.3
	c0-0.2-0.1-0.4-0.3-0.5c-0.5-0.5-1-0.8-1.7-0.9c-0.3,0-0.7-0.2-0.7-0.6c0-0.2-0.2-0.4-0.5-0.5c-0.8-0.4-1.5-0.7-2.4-1.1
	c-0.2-0.1-0.4-0.1-0.6,0.1c0,0,0,0,0,0.1c-0.2,0.1-0.2,0.4-0.1,0.5l0.1,0.1c0.7,0.6,1.5,1.1,2.3,1.5c0.3,0.2,0.6,0.5,0.7,0.8
	c0.1,0.4,0.4,0.6,0.8,0.6c0.3,0,0.6,0.2,0.8,0.6c0.3,0.4,0.6,0.5,0.9,0c0.1-0.2,0.4-0.6,0.5,0.1c0,0.2,0.3,0.1,0.5,0.2
	c0.2,0,0.4,0,0.4,0.3s0.2,0.3,0.4,0.1c0.7-0.5,1.2-1.1,1.5-2c0.1-0.2,0.2-0.4,0.2-0.6c0-0.1,0-0.3,0.2-0.3s0.3,0.2,0.3,0.3l0,0
	c0,0.7,0,1.4,0,2.1c-0.1,1.1-0.3,2.2-0.7,3.2c0,0.2-0.2,0.4,0,0.5c0.2,0.1,0.3-0.1,0.5-0.3c0.9-1.1,1.6-2.3,2.2-3.6
	c0.2,0.3,0.2,0.5-0.2,1.1c-0.6,1-1.2,2-2,3c-0.4,0.4-0.5,1-0.4,1.4c0.1,0.6,0.2,1,0.1,1.6c0,0.3-0.1,0.5-0.3,0.7c0-0.8,0-1.5,0-2.2
	c0-0.2,0.1-0.4-0.1-0.5c-0.2,0-0.4,0.1-0.5,0.3c-0.4,0.6-0.7,1.2-0.9,1.8c-0.5,1-0.4,2.1,0.2,3c0.1,0.2,0,0.3-0.1,0.5
	c-0.6,0.8-1.1,1.5-1.8,2.1c-0.3,0.2-0.5,0.5-0.6,0.9c0.1,0.1,0.3,0,0.4-0.1c0.9-0.9,1.6-1.7,2.4-2.8c0.1-0.1,0.2-0.3,0.2-0.4
	c-0.2-0.3,0-0.6,0.2-0.8l0,0c0.5-0.3,0.1-1,0.8-1.2c0.4-0.3,0.7-0.7,0.9-1.1c1.1-1.4,1.9-3.1,2.2-4.8c0.1-0.4,0.2-0.9,0.3-1.2
	c0-0.1,0-0.4,0.2-0.3c0.2,0,0.3,0.1,0.3,0.3v0.1c-0.1,0.6-0.2,1.1-0.4,1.6c-0.6,1.8-1.3,3.5-2.3,5.2c-1.9,3.4-4.6,6.3-7.7,8.6
	c-1.9,1.3-3.9,2.4-6,3.2c-1.1,0.5-2.3,0.9-3.4,1.1c-2.8,0.7-5.5,0.9-8.3,0.6c-1.6-0.1-3.3-0.4-4.9-0.9c-1.8-0.6-3.5-1.3-5.2-2.2
	c-4.2-2.1-7.7-5.3-10.2-9.4c-0.7-1-1.1-2.1-1.6-3.1c-0.7-1.5-1.2-3.1-1.7-4.8c0-0.1,0-0.2,0-0.3c0.3-1,0.4-2,0.4-3
	c0.2,0.8,0.3,1.6,0.2,2.5c-0.1,0.4,0,0.8,0.1,1.1c0.2,0.9,0.5,1.8,1,2.6c0.6,0.9,1.3,1.6,2.2,2.2c0.1,0,0.1,0.1,0.1,0.1
	c1.2,1.3,2.9,2.4,4.7,2.8c0.9,0.4,1.8,0.6,2.7,0.9c1.1,0.3,2.4,0.4,3.5,0.5c0.3,0.1,0.5-0.1,0.6-0.3c0-0.1,0-0.2,0-0.3
	c0-0.8-0.3-1.4-0.8-2.1c-0.2-0.4-0.2-0.8,0-1.1c0.4-0.5,0.5-1,0.2-1.6c-0.1-0.1-0.2-0.6,0.3-0.3c0.1,0.1,0.2,0,0.3-0.1
	c0,0,0,0,0-0.1c0.3-0.6,0.8-1,1.3-1.3c0.2-0.1,0.3-0.2,0.3-0.4c-0.1-0.3-0.3-0.1-0.5-0.1s-0.7,0-1,0c-0.3,0-0.7,0.1-0.7,0.6
	c0,0.2,0,0.4,0,0.6c-0.2-0.1-0.3-0.3-0.2-0.4c0-0.7-0.4-0.8-0.9-0.7c-1.2,0-2.4-0.2-3.6-0.3c-0.5,0-0.9-0.3-1.4-0.3
	c-0.2,0-0.4,0.1-0.4,0.3v0.1c0,1.2,0.2,2.6,0.4,3.8c-0.1,0.8,0.1,1.4,0.5,2.1c0.1,0.1,0.1,0.4-0.1,0.4c-0.2,0-0.2-0.2-0.3-0.4
	c-0.1-0.8-0.3-1.5-0.5-2.3c0-0.1,0-0.3,0-0.4c0-0.8-0.1-1.5-0.3-2.2c-0.1-0.3-0.1-0.7,0-1c0.1-0.3-0.1-0.5-0.4-0.6c0,0-0.1,0-0.2,0
	c-0.7-0.2-1.2-0.4-1.9-0.7c-0.1-0.1-0.1-0.1-0.2-0.2c0.5,0,1,0.2,1.4,0.4c0.1,0,0.3,0.1,0.4,0.1c0.7,0.2,0.7,0.1,0.7-0.6
	c-0.1-2.1-0.1-4.2,0.2-6.2c0-0.3,0.1-0.5,0.1-0.8c0-0.7-0.1-0.8-0.8-0.8h-0.2c-0.6-0.7-1.5-0.6-2.3-1c-0.4-0.3-0.9,0.1-0.9,0.8
	c-0.1,1.1-0.4,2.3-0.6,3.4c-0.2,0.8,0,1.6-0.2,2.5c-0.2,0.4-0.1,0.8,0.3,1l0,0c0.1,0,0.2,0.2,0,0.3c-0.1,0.1-0.3,0.1-0.4,0
	c-0.7-0.7-1.3-1.3-2.1-1.9c0.5,0.1,1,0.4,1.3,0.7c0.2,0.2,0.4,0.3,0.7,0.3c0.3-0.1,0.1-0.4,0.1-0.7c0-0.9,0.1-1.8,0.2-2.7
	c0.2-0.8,0.3-1.5,0.4-2.4c0.1-0.4,0.2-0.8,0.4-1.1c0.1-0.4,0-0.7-0.4-0.9c-0.7-0.3-1.1-0.9-1.5-1.4c-0.1-0.1-0.2-0.2-0.4-0.2
	s-0.1,0.2-0.2,0.3c-0.1,0.5-0.3,0.9-0.5,1.2c-0.1,0.2-0.1,0.4-0.1,0.6c0.1,0.2,0,0.5-0.2,0.7c-0.2-0.2-0.2-0.5,0-0.7
	c0.3-0.7,0.5-1.3,0.7-2.1c0.1-0.3,0.2-0.7-0.3-0.8c-0.3,0-0.2-0.2-0.1-0.4c0.1-0.1,0-0.3-0.1-0.4l0,0c-0.2-0.1-0.3,0.1-0.4,0.2
	c-0.5,0.6-0.8,1.3-0.9,2c-0.2,1-0.3,1.9-0.3,2.9c-0.1,0.4,0,0.8,0.2,1.1c0.1,0.1,0.1,0.3,0,0.4l0,0c-0.1,0.1-0.3,0.1-0.4,0l0,0
	c-0.2-0.2-0.3,0.1-0.4,0.3c-0.2,0.8-0.4,1.4-0.6,2.2c-0.4,1.7-0.9,3.3-1.3,5.1c-0.4,1.3-0.7,2.7-1,4c-0.7,2.4-1.3,4.8-2,7.2
	c-0.5,1.6-1,3.2-1.2,4.9c-0.1,0.8-0.7,1.3-1.4,1.5c-1.1,0.3-2.3,0.7-3.4,1c-0.4,0.1-0.8,0.1-1.1,0.1c-2.6,0.1-5.2-0.5-7.4-1.7
	c-0.5-0.3-0.9-0.6-1.2-1c-0.2-0.2-0.3-0.4-0.2-0.7c0.6-1.9,1.1-3.7,1.6-5.6c0.5-1.6,0.9-3.2,1.3-4.8c0.6-1.9,1-3.8,1.6-5.7
	c0.4-1.2,0.7-2.6,1-3.8c0.5-1.5,0.9-3.1,1.3-4.7c0.4-1.5,0.9-3.2,1.3-5c0.3-1.2,0.7-2.4,1-3.6c0.4-1.2,0.7-2.4,1-3.6
	c0.5-1.6,1-3.2,1.4-5c0.5-1.6,0.9-3.2,1.3-4.8c0.4-1.2,0.8-2.5,1-3.7c0.4-1.2,0.8-2.7,1-4c0.1-0.3,0.3-0.6,0.7-0.7
	c1.1-0.3,2.2-0.7,3.3-1c0.2-0.1,0.4-0.1,0.6,0c0.9,0.5,1.8,0.8,2.8,1l3.7,1c0.8,0.2,1.4,0.4,2.2,0.7c0.3,0.1,0.5,0,0.8-0.1
	c0.4-0.1,0.5,0,0.4,0.4l-1.1,4.2c-0.4,1.2-0.7,2.6-1,3.8c-0.5,1.7-0.9,3.5-1.4,5.2v0.2c0,0.1-0.1,0.3,0,0.4c0.1,0.1,0.2-0.1,0.3-0.2
	c1-1.5,2.1-2.9,3.4-4c1.4-1.4,3.1-2.7,5-3.6c0.3-0.1,0.6-0.3,1-0.5c0.8-0.7,2-0.7,2.7,0.1c-0.1,0.1-0.4,0.1-0.5,0
	c-0.5-0.3-1-0.3-1.5,0c-0.1,0-0.2,0-0.2,0.2c0,0.1,0.1,0.2,0.3,0.2c0.7,0,1.3,0,2,0.1c0.1,0,0.2,0,0.2-0.1c0-0.4,0.2-0.3,0.4-0.1
	c0.2,0.2,0.4,0.2,0.5,0c0.1-0.2-0.1-0.3-0.2-0.4c-0.2-0.3-0.4-0.6-0.8-0.7c-0.1,0-0.4,0.1-0.4-0.2c0-0.2,0.1-0.4,0.3-0.4
	c0.2-0.1,0.5,0,0.6,0.2l0,0c0.1,0.4,0.3,0.7,0.6,1c0.1,0.1,0,0.4,0.3,0.3c0.2-0.1,0.2-0.3,0.2-0.4c-0.1-0.1-0.1-0.2,0-0.3
	c0.3,0.6,0.4,0.5,0.7,0c0.3-0.5,0.5-0.7,0.8-1c0.1-0.1,0.2-0.3,0-0.4c-0.1-0.1-0.2-0.1-0.3,0c-0.3,0.1-0.6,0.3-0.7,0.6
	c0,0.1-0.1,0.3-0.2,0.2c-0.2-0.2-0.4-0.3-0.5-0.5c-0.1-0.1,0.1-0.2,0.2-0.2c0.7-0.2,1.4-0.4,2.1-0.6c0.5-0.1,1-0.2,1.4-0.4
	c0.3-0.1,0.6-0.1,0.8,0v0.1c-0.2,0.1-0.3,0.1-0.4,0.3c0,0.1,0,0.2,0.1,0.2l0,0c0.2,0,0.4,0,0.5-0.2c0.1-0.4,0.4-0.6,0.8-0.6
	c2-0.3,4-0.3,5.9,0c1.4,0.2,2.9,0.5,4.3,0.9c2.3,0.8,4.6,1.8,6.6,3.1c5.6,3.4,9.6,9,11.3,15.4c0.4,1.5,0.8,3.1,1,4.6
	c0.3,1.7,0.4,3.4,0.3,5.2c0,1.2-0.2,2.5-0.4,3.7c0,0.1,0,0.2,0,0.3s-0.1,0.2-0.2,0.3c-0.2,0-0.2-0.2-0.1-0.3
	c0.2-0.8,0.3-1.5,0.4-2.3c0-0.3,0-0.6-0.1-0.9c-0.1-0.2-0.1-0.4-0.1-0.5c0.4-2.5,0.2-5.1-0.7-7.4c0-0.2,0-0.4-0.3-0.4
	s-0.1,0.3-0.1,0.4c-0.1,0.8-0.2,1.5-0.5,2.2c0,0.1-0.1,0.2-0.2,0.1s0-0.1,0-0.2c0.4-1,0.6-1.9,0.7-2.9c0-0.4-0.1-0.8-0.3-1
	c-0.5-0.5-0.9-1-1.1-1.6c-0.1,0-0.3,0.1-0.3,0.3l0,0c0,0.2-0.2,0.4-0.4,0.4c-0.1,0-0.2,0-0.3-0.1c-0.2-0.1-0.5-0.1-0.5,0.2
	c0,0.5-0.2,1-0.5,1.4c-0.1,0.2-0.1,0.5,0.1,0.7c0.7,1,1.2,2.1,1.7,3.1c0.3,0.6,0.5,0.2,0.6,0.2c-0.2,0.6-0.1,1.2,0.2,1.7
	C-106.5,395.6-106.3,396.6-106.2,397.5z M-122.6,387.2c0.1-0.3,0-0.7-0.2-0.9c-0.1-0.1-0.1-0.2,0-0.3l0,0c0.1-0.1,0.2-0.2,0-0.3
	c-0.1-0.1-0.3,0-0.3,0.1l0,0c-0.2,0.3-0.4,0.7-0.6,1s-0.2,0.3,0,0.5c0.1,0.2,0.4,0.2,0.6,0.1C-123,387.2-122.9,387-122.6,387.2
	c-0.3,0.5-0.8,0.9-1.3,1c-0.4,0-0.7,0.3-0.7,0.6c0,0.2,0.1,0.4,0.2,0.5c0.1,0.2,0.3,0.5,0.4,0.7c0,0.3,0.2,0.5,0.5,0.6
	c0.3-0.1,0.5-0.3,0.6-0.6c0.1-0.2,0.2-0.3,0.3-0.5c0.1-0.2,0.3-0.3,0.6-0.3c0.7-0.2,1.3-0.5,2-0.9c0.3-0.2,0.4-0.7,0.1-1
	c-0.1-0.2-0.4-0.3-0.6-0.3L-122.6,387.2z M-129,394.6c-0.4-0.1-0.3,0.4-0.6,0.5c0-1.1-0.9-0.9-1.4-1c-0.2-0.1-0.4,0-0.6-0.1
	c-0.3-0.1-0.6-0.3-0.8-0.5c-0.5-0.8-0.7-0.7-1.1,0l-0.2,0.3c-0.3,0.4-0.5,0.7-1,0.4c-0.3-0.1-0.9,0.4-0.8,0.6c0.5,0.7-0.1,1-0.5,1.3
	c-0.4,0.3-0.6,0.8-0.4,1.2c0.3,0.4,0.2,1-0.2,1.1l-0.1,0.1c-0.1,0.1-0.2,0.2-0.3,0.3c-0.4,0.4-0.9,0.7-1.4,0.8
	c-0.3,0-0.6-0.1-0.8-0.4c-0.2-0.1-0.3-0.1-0.5-0.1c-0.6,0-1-0.5-1-1c0-0.2,0-0.3,0.1-0.4c0.3-0.6,0.2-1.3-0.1-1.9
	c-0.3-0.5-0.1-0.6,0.4-0.6c0.8,0,1.5-0.2,2.4-0.2c0.4,0,0.4-0.3,0.5-0.6c0.1-0.3,0-0.3-0.2-0.3c-0.4,0-0.8,0-1.1,0.1
	c-0.5,0.2-1,0.3-1.4,0.2c-0.2,0-0.5,0-0.7,0c-1,0.3-1.9,0.4-2.9,0.3c-1.4,0-2.9-0.1-4.3-0.4c-0.2,0-0.4,0-0.4,0.2
	c0,0.6-0.3,1.1-0.3,1.8c0,2-0.3,4-0.1,5.9c0,0.3,0.2,0.6,0.5,0.6c0.9,0.3,1.7,0.3,2.6,0.5c1,0.1,1.9,0.1,2.9,0
	c0.2,0,0.5-0.1,0.3-0.4c-0.3-0.7-0.4-1.3-0.2-2c0.1,0.1,0.2,0.2,0.3,0.4c0.1,0.5,0.1,1,0,1.4c-0.1,0.4,0.2,0.7,0.5,0.8
	c0.1,0,0.2,0,0.3,0c0.5,0,1,0,1.4,0c0.5,0,0.5-0.2,0.4-0.5c-0.2-0.7,0.1-1.3,0.7-1.6c0.4-0.2,0.7-0.7,0.6-1.1c0-0.3,0.1-0.4,0.4-0.2
	c0.7,0.2,1.3,0.1,1.9-0.3c0.4-0.1,0.6-0.5,0.5-0.8c0-0.1-0.1-0.1-0.1-0.2c-0.1-0.2,0-0.4,0.1-0.5c0.1,0,0.2,0,0.2,0.1c0,0,0,0,0,0.1
	c0,0.7,0.4,0.4,0.7,0.3c0.3-0.1,0.6-0.2,0.9-0.3c1-0.3,1.9-0.7,2.8-1.1c1-0.6,0.6,0.7,1,0.9c0.2,0,0.3,0.2,0.2,0.4
	c0,0.1,0,0.1-0.1,0.1l0,0c-0.5,0.4-0.1,0.6,0.3,0.7c0.4,0.1,0.3,0,0.5,0.1c0.5,0.1,1,0,1.4-0.5c0.3-0.2,0-0.6-0.2-0.9V398
	c0-0.1-0.1-0.3,0.1-0.3c0.2,0,0.2,0.1,0.2,0.3c0.1,0.5,0.3,1,0.6,1.4c0.1,0.3,0.5,0.5,0.9,0.4c0.4-0.1,0.8-0.2,1.1-0.1
	c0.2,0.1,0.5,0,0.6-0.3c0.2-0.2,0.2-0.4,0-0.6c-0.3-0.4-0.2-0.9,0.1-1.1c0,0,0,0,0.1,0c0.2-0.3,0.7-0.4,1-0.1l0,0
	c0.1,0.1,0.2,0.1,0.3,0.1c0.9-0.3,1.6-0.6,2.5-0.8c0.2,0,0.4-0.3,0.4-0.5c0-0.1-0.1-0.2-0.1-0.2c-0.5-0.7-0.8-1.4-1.2-2.1
	c-0.2-0.3-0.5-0.9-1-0.3c-0.1,0.1-0.2,0.1-0.2,0l0,0c-0.2-0.4-1-0.2-0.9-1l-0.1-0.2c-0.5,0.2-0.6-0.3-0.7-0.5
	c-0.2-0.2-0.2-0.4-0.4-0.3c-0.3,0.1-0.5,0.2-0.6,0.5c0,0.4,0,0.5-0.4,0.5c-0.1,0-0.2,0-0.2,0.1c0,0.1,0,0.2,0.1,0.2
	c0.5,0,0.6,0.6,1,0.6c0.1,0,0.2,0,0.2,0.1c0,0,0,0,0,0.1c0,0.2-0.2,0.1-0.3,0.1s-0.3-0.1-0.4,0.1c0,0.1,0.1,0.3,0.2,0.3
	c0.1,0.1,0.2,0.2,0.3,0.3c0.1,0.1,0.1,0.2,0,0.3c-0.1,0.1-0.2,0.1-0.3,0c-0.2-0.1-0.3-0.1-0.4-0.3c-0.8-0.8-1.8-1.2-2.5-2.1
	c-0.3-0.5-1-0.7-1.5-0.3c-0.2,0.2-0.4,0.4-0.5,0.6c-0.1-0.6-0.4-1-0.9-1.4c-0.1-0.1-0.2-0.2-0.3-0.1c-0.1,0.1-0.2,0.2,0,0.3
	c0.2,0.1,0.3,0.2,0,0.4c-0.3,0.1-0.2,0.4,0.1,0.5c0.3,0,0.7,0.2,0.8,0.5c0.1,0.1,0.2,0.2,0.4,0.1c0.1-0.1,0.3-0.1,0.4,0.1
	c0,0,0,0,0,0.1c0.1,0.2,0.4,0.3,0.6,0.3h0.9c0.1,0,0.3,0,0.3,0.2c0,0.2-0.1,0.2-0.3,0.1c-0.4,0-0.6,0-0.5,0.5L-129,394.6z
	 M-147.9,389.8c0.1-0.3,0.2-0.5,0.2-0.8c0-0.8,0.2-1.6,0.5-2.3c0.1-0.4,0.2-0.8,0.2-1.1c0-0.3-0.5,0-0.7-0.2
	c-0.1-0.1-0.1-0.1-0.2-0.1c-0.5-0.1-1-0.3-1.4-0.4c-0.1-0.1-0.3,0-0.4,0.1c-0.4,0.6-0.6,1.2-1,1.8c-0.2,0.4-0.4,0.9-0.5,1.2
	c-0.2,0.6-0.6,1.1-0.7,1.7c-0.2,0.9-0.6,1.5-0.7,2.4c0,0.3,0,0.5,0.3,0.6c0.8,0.5,1.7,0.8,2.6,1c0.9,0,0.9,0.1,1-0.8
	c0-0.2,0-0.4,0-0.6C-148.6,391.5-148.3,390.6-147.9,389.8c0.1,1-0.5,1.8-0.4,2.8c0,0.2,0,0.5-0.2,0.7c-0.4,0.6,0,0.6,0.4,0.7
	c1.3,0.3,2.8,0.4,4.2,0.2c0.2,0,0.4-0.1,0.4-0.3c0-0.1,0-0.1,0-0.2c0-0.9,0-1.6,0-2.5c-0.1-0.3,0.1-0.5,0.3-0.7c0,1,0,2.1,0,3.1
	c0,0.3,0,0.5,0.4,0.5c0.6,0.1,1.1,0.1,1.7,0c1-0.3,2.2-0.2,3.2-0.6c0.3-0.1,0.4-0.3,0.2-0.4c-0.2-0.2-0.4-1.1-1.2-1
	c-0.2,0-0.4-0.1-0.4-0.3c0,0,0,0,0-0.1c0-0.3,0.3-0.3,0.5-0.2c0.2,0,0.5,0.1,0.6-0.1c0.1-0.3,0.3-0.5,0.5-0.6c0.5-0.2,0.8-0.6,0.8-1
	c0.1-0.2,0.2-0.3,0.4-0.4c0.1-0.1,0.2-0.2,0.3-0.4c0-0.7,0.5-1.2,1.1-1.4c0.2-0.1,0.4-0.3,0.3-0.5c0-0.1-0.1-0.2-0.2-0.2
	c-0.5-0.5-0.6-1.1-0.2-1.7c0.1-0.2,0.2-0.1,0.3,0c0.2,0.3,0.2,0.7,0,1c-0.2,0.4,0.1,0.7,0.4,0.9s0.5,0,0.7-0.2
	c0.1-0.2,0.3-0.3,0.5-0.2h0.1c0.3,0.1,0.4,0,0.3-0.3c-0.1-0.3-0.2-0.3,0-0.5c0.3,0.5,0.6,0.5,0.9,0c0.1-0.1,0.3-0.2,0.5-0.2
	c0.3,0,0.6-0.3,0.6-0.6c0-0.1-0.1-0.3-0.1-0.4c-0.1-0.2-0.2-0.5-0.3-0.7c0-0.3,0-0.5,0.4-0.4c0.4,0.1,0.3,0.3,0.5,0
	c0.1-0.2,0-0.4-0.2-0.5c0,0,0,0-0.1,0c-0.2,0-0.4-0.2-0.4-0.3c0-0.6-0.4-0.3-0.7-0.3c-0.2,0.2-0.4,0.2-0.7,0.1
	c0-0.2,0.5-0.3,0.1-0.6c-0.5-0.3-0.7-1-0.4-1.4c0.1-0.2,0.1-0.4,0.1-0.5c0.1-0.2,0-0.4-0.1-0.6c-0.2-0.1-0.4,0-0.6,0.1
	c-0.2,0.1-0.4,0.4-0.3,0.6c0.3,0.4,0.2,0.9-0.1,1.1c-0.2,0.3-0.2,0.7,0,1c0.2,0.3,0.6,0.5,1,0.4c0.1-0.1,0.2-0.1,0.2,0
	c0,0.1-0.1,0.3-0.2,0.3c-0.3,0.2-0.4,0.6-0.4,1c0.1,0.5,0.1,0.9,0.2,1.3c0.2,0.7-0.3,0.7-0.7,0.7c-0.4,0.1-0.6,0.1-0.3-0.4
	c0-0.1,0.1-0.3,0-0.3c-0.4-0.2-0.7-0.6-0.9-1c-0.1-0.1-0.2-0.4-0.5-0.3c-0.2,0.1-0.3,0.3-0.3,0.5c0,0.3,0,0.6-0.4,0.5
	c-0.4-0.1-0.9,0.1-0.9-0.5c0-0.2,0-0.3-0.2-0.2c-0.5,0.1-1,0.3-1.2,0.7c0,0.1-0.1,0.2-0.2,0.1c-0.1-0.1-0.2-0.2-0.2-0.3
	c0-0.4,0.1-0.8,0.3-1c0.2,0.5,0.4,1,1,0.4c0.1-0.1,0.2-0.1,0.3-0.1c0.2,0,0.2,0,0.3-0.2c0-0.4,0.1-0.9,0.2-1.2
	c0.4-0.5,0.5-1,0.9-1.4c0.4-0.5,0.4-1,0.1-1.5c-0.3-0.7-0.6-1.4-1-2c-0.7-1.1-1.1-2.3-1.7-3.5c-0.2-0.2-0.3-0.5-0.3-0.8
	c0.1,0,0.3,0.1,0.3,0.2c0.1,0.6,0.6,1.1,1,1.4c0.1,0.1,0.2,0.3,0.2,0.4c0,0.2,0,0.5,0,0.7c0,0.4,0.2,0.5,0.6,0.2
	c0.2-0.2,0.5-0.3,0.8-0.4c0.7-0.1,0.4-0.4,0.2-0.7c-0.4-0.3-0.7-0.7-1-1c0.4,0,0.7,0.2,1,0.5c0.8,0.7,0.8,0.7,1.7,0.2l0,0
	c0.3-0.2,0.3-0.3,0-0.5c-0.6-0.4-1.2-0.7-1.8-0.8c-0.1,0-0.3-0.1-0.2-0.3l0,0c0-0.2,0.2,0,0.4,0c0.8,0.3,1.4,0.6,2.1,1
	c0.2,0.2,0.5,0.2,0.6,0l0,0c0.2-0.2,0.6-0.3,0.5-0.6c-0.1-0.2-0.4-0.4-0.7-0.4c-0.6-0.2-1-0.3-1.6-0.4c-0.2,0-0.4-0.1-0.5-0.2
	c-0.2-0.1-0.3-0.1-0.5-0.1c-0.4,0.1-0.9,0.1-1.2-0.2c-0.3-0.2-0.7,0-0.9,0.3l0,0c-0.1,0.2,0.1,0.4,0.4,0.6c0.4,0.3,0.7,0.6,0.9,1
	c-0.5-0.3-0.9-0.6-1.2-0.9c-0.3-0.1-0.5-0.8-0.9-0.2c-0.1,0.1-0.2,0-0.3-0.1c-0.1-0.1-0.3-0.1-0.5,0c-0.5,0.3-1,0.6-1.6,0.7
	c-0.6,0.1-1.1,0-1.6-0.2c-0.1-0.1-0.2-0.2-0.2-0.4s0.2-0.1,0.3-0.1c0.1,0,0.4,0,0.4-0.1c0.1-0.3,0.4-0.6,0.7-0.7
	c0.2-0.1,0.1-0.3,0-0.3c-0.9-0.2-1.8-0.1-2.7,0.4c0.1,0.1,0.4,0.1,0.3,0.3c-0.1,0.2-0.2,0.2-0.4,0.2c-0.1,0-0.3,0-0.4,0
	c-0.5,0.1-0.6,0.3-0.2,0.7c-0.1,0-0.3,0.1-0.4,0.2c-0.1,0.1-0.7,0.3,0,0.5c0.1,0,0.1,0.1,0.1,0.2c0,0,0,0.1-0.1,0.1
	c-0.1,0.3-0.4,0.4-0.7,0.4c-0.2,0-0.4,0.1-0.4,0.2c0,0.1,0,0.1,0,0.2c0.1,0.3,0.1,0.6,0.1,0.9c0,0.2,0.2,0.3,0.4,0.4
	c0.1,0,0.3,0,0.3-0.2c0-0.2-0.1-0.4-0.2-0.5l-0.1-0.1c-0.1,0-0.3-0.1-0.2-0.3c0.1-0.2,0.3-0.4,0.5-0.4s0.2,0.2,0.2,0.3
	s0,0.2,0.1,0.2h0.1c0.2,0,0.1-0.2,0-0.3c-0.2-0.5,0.4-0.9,0.1-1.3l0.9-0.4c0.2-0.1,0.4-0.2,0.7-0.3c0.2-0.1,0.6-0.1,0.6,0.1
	c0.1,0.3,0.2,0.6,0.4,0.8c0.1,0.4,0.3,0.3,0.5,0c0.4-0.2,0.8-0.2,1.1-0.1c0.1,0.1,0,0.3,0,0.3c-0.1,0.1-0.1,0.2,0,0.3l0,0
	c0.1,0.1,0.3,0.1,0.4,0l0,0l0.4-0.2c-0.1,0.6-0.3,1.1-0.5,1.6c-0.1,0.3-0.1,0.6,0,0.9c0,0.1,0.2,0.3,0.3,0.1c0.3-0.3,0.6-0.3,1-0.2
	c0.2,0,0.4-0.1,0.4-0.3v-0.1c0-0.3,0-0.5,0-0.8c-0.1-0.9-0.1-1.8,0.1-2.7c0.1,0.9,0.1,1.7,0.1,2.6c-0.1,0.5,0.2,1,0.7,1h0.1
	c-0.9,0.1-0.7,0.6-0.6,1c0.1,0.6,0.1,1.2,0,1.8c-0.3-0.4-0.4-1-0.3-1.4c0-1,0-1-1-1c-0.1,0-0.2,0-0.3,0c-0.3-0.2-0.7,0-0.9,0.3v0.1
	c-0.1,0.4-0.2,0.8-0.3,1.1c0,0.7-0.4,1.4-0.4,2.1l-0.2,0.1c-0.1-0.4-0.1-0.8,0.1-1c0.1-0.2,0.2-0.4,0.2-0.6c-0.1-0.4,0.1-0.8,0.4-1
	c0.3-0.2,0-0.4-0.1-0.5c0-0.2-0.2-0.3-0.3-0.3c0,0,0,0-0.1,0c-0.2,0-0.4,0-0.3,0.3c0,0.3-0.2,0.3-0.4,0.2s-0.4-0.1-0.6,0.1l0,0
	c-0.1,0.2,0,0.4,0.2,0.5s0.4,0.4,0.2,0.7s-0.4,0.2-0.6,0c-0.1-0.1-0.2-0.1-0.3-0.1c0,0,0,0-0.1,0.1c-0.1,0.1-0.2,0.2-0.1,0.3
	c0,0.2,0.2,0.1,0.3,0.1c0.1,0,0.3-0.1,0.3,0.1c0,0.2-0.1,0.2-0.2,0.2c-0.5,0.4-1.2,0.3-1.4,1.2c-0.3,1-0.7,1.9-1,2.8
	c-0.1,0.5-0.2,0.9-0.4,1.3c-0.4,0.7-0.6,1.4-0.8,2.2C-147.7,388.5-147.8,389.1-147.9,389.8L-147.9,389.8z M-171.1,421.9h0.7
	c0.4,0.1,0.8-0.3,0.9-0.7v-0.1c0.1-0.5,0.2-1,0.4-1.4c0.3-1.1,0.7-2.3,1-3.4c0.3-1.1,0.7-2.6,1-3.8c0.5-2,1.1-4,1.7-6
	c0.4-1.5,0.8-3.1,1.2-4.7c0.7-1.9,1-3.9,1.6-5.8c0.8-2.4,1.3-4.9,2.1-7.3c0.7-2.4,1.4-5.1,2.1-7.6c0.6-1.9,1-3.8,1.5-5.7
	c0.8-2.6,1.4-5.2,2.2-7.8c0-0.2,0.1-0.4-0.1-0.5c-0.8-0.4-1.6-0.7-2.5-1c-1.9-0.6-3.8-1-5.8-1c-0.2,0-0.4,0.1-0.4,0.3l-0.9,3.1
	c-0.3,1.2-0.7,2.4-1,3.6c-0.4,1.2-0.7,2.4-1,3.6c-0.5,1.6-0.9,3.2-1.3,4.8c-0.4,1.6-1,3.3-1.4,5.1c-0.3,1.1-0.7,2.3-1,3.5
	c-0.3,1.1-0.8,2.6-1.1,3.8c-0.6,2-1.1,3.9-1.6,5.9c-0.4,1.1-0.7,2.4-1,3.5c-0.4,1.1-0.6,2.4-1,3.5c-0.7,2.4-1.3,4.7-2,7.1
	c-0.6,2.1-1,4.2-1.7,6.2c-0.1,0.3,0,0.6,0.3,0.8c0.3,0.2,0.5,0.4,0.7,0.5C-175.6,421.3-173.4,421.9-171.1,421.9z M-168.8,421.2
	c-0.1,0.4,0.1,0.3,0.4,0.3l2.9-1c0.2-0.1,0.3-0.2,0.4-0.4c0.6-2.1,1.1-4.1,1.7-6.2c0.7-2.4,1.2-4.8,1.9-7.2c0.5-1.8,0.9-3.6,1.4-5.4
	c0.6-1.8,1-3.5,1.4-5.2c0.3-0.6,0.5-1.2,0.6-1.9c0.1-2.1,0.5-4.1,1-6.1c0.3-1.2,0.8-2.5,1.4-3.6c0.6-0.9,1-1.8,1.4-2.9
	c0.2-0.8,0.4-1.5,0.6-2.3c0.3-1.3,0.8-2.7,1.1-3.9c0.5-1.6,0.9-3.2,1.3-4.9c0.4-1.4,0.8-2.9,1.1-4.2c0.1-0.4,0-0.5-0.4-0.4
	s-1.2,0.3-1.9,0.5c-0.6,0-1,0.4-1.3,0.9c-0.4,1.6-0.9,3.1-1.3,4.8c-0.4,1.2-0.7,2.6-1,3.8c-0.6,1.9-1,3.7-1.6,5.6
	c-0.5,1.9-0.9,3.3-1.4,5s-0.9,3.1-1.3,4.6c-0.4,1.2-0.7,2.5-1,3.7c-0.3,1.2-0.8,2.4-1,3.6c-0.4,1.2-0.7,2.6-1,3.8
	c-0.4,1.2-0.8,2.7-1.1,3.9c-0.4,1.3-0.7,2.5-1,3.6c-0.5,1.6-0.9,3.2-1.3,4.9c-0.4,1.2-0.7,2.5-1,3.6
	C-168.4,419.4-168.6,420.3-168.8,421.2L-168.8,421.2z M-131.3,417.3c0-0.1,0.1-0.2,0.2-0.2l0,0c0.3-0.1,0.7-0.1,0.3-0.7
	c-0.2-0.3-0.3-0.6-0.4-0.9c0-0.4-0.2-0.4-0.5-0.3c-0.9,0.3-1.8,0.5-2.7,0.5c-0.7,0.3-1.4,0.3-2.1,0c-1-0.6-2.3-0.8-3.1-1.9
	c-0.1-0.1-0.1-0.1-0.2-0.2c-0.6,0.3-0.7-0.4-1-0.6c-0.5-0.2-0.9-0.7-1-1.2c0-0.1-0.1-0.1-0.2-0.1c-0.8,0-1.5-0.4-2.3-0.4
	c-0.9-0.2-1.7-0.3-2.6-0.4c-0.1,0-0.2,0-0.2-0.1c-0.3-0.2-0.6-0.2-0.9,0c-0.3,0.3,0.2,0.4,0.3,0.6c0.3,1.1,0.7,2.2,1.2,3.1
	c0.1,0.7,0.6,1.2,1.2,1.5c0.2,0,0.2,0.3,0,0.4s-0.3,0.1-0.5,0c-0.4-0.4-0.9-0.6-1.3-0.8c-0.7-0.3-1.4-0.7-2.1-1v-0.1
	c0.8,0.3,1.5,0.6,2.3,1c0.1,0,0.2,0.1,0.3,0c0.1-0.1,0-0.2,0-0.3l-0.5-1.1c-0.5-1-0.9-1.9-1.1-2.9c0-0.4-0.3-0.8-0.7-1
	c-1.3-0.5-2.7-1.1-3.8-1.9c-0.1-0.1-0.2-0.2-0.4,0c-0.1,0.1-0.1,0.3,0,0.4c0.3,0.7,0.6,1.4,0.9,2.1c0.4,1.1,1,2.1,2,2.9
	c0.2,0.1,0.3,0.2,0.3,0.3c0.1,0.4,0.4,0.8,0.8,1c1,0.6,1.9,1.2,2.8,2.1c0.5,0.7,1.3,0.9,1.8,1.4c0.1,0.1,0.3,0.1,0.4,0
	s0-0.2-0.1-0.3c-0.4-0.4-0.8-0.8-1-1.3c1.6,2.2,4.2,3.4,6.9,3.5c-0.2,0.1-0.5,0.3-0.7,0.4c1,0.3,2.1,0.5,3.1,0.6
	c-0.2-0.3-0.6-0.5-0.9-0.5c-0.4,0-0.4,0-0.3-0.4c0-0.1,0-0.2-0.1-0.3c-0.7-0.7-1.1-1.4-1.6-2.3c-0.2-0.4-0.6-0.7-1-0.6
	c-1,0-1.9-0.1-2.9-0.4c-0.4,0-0.8-0.2-1.2-0.3c-0.2,0-0.3-0.1-0.3-0.3l0,0c0.3-0.1,0.7,0,1,0.1c0.2,0.1,0.5,0.2,0.7,0.2
	c1,0.2,1.9,0.2,2.9,0.3c0.3,0,0.4,0,0.3-0.3c-0.1-0.3-0.2-0.2,0-0.3c0.1,0,0.2,0,0.3,0.1l0,0c0.2,0.4,0.5,0.8,0.7,1.2
	c0.5,1,1,1.8,1.8,2.5c0.3,0.3,0.9,0.3,1,0.5c0.4,0.7,1.1,1,1.8,0.9c1.7,0.2,3.4,0.2,5.2,0c0.1,0,0.3-0.1,0.3-0.2
	c0-0.1,0-0.2-0.1-0.3c-0.3-0.4-0.8-0.7-1.2-0.6c0.4-0.4,0.4-0.4,0.2-0.9c-0.3-0.4-0.5-0.9-0.5-1.3c0.4,0.5,0.7,1,1,1.5
	c0.1,0.3,0.4,0.5,0.7,0.4c0.5-0.2,1-0.4,1.4-0.4c0.9-0.3,1.8-0.5,2.8-0.9c0.7-0.2,1.3-0.5,1.8-1c0.1-0.1,0.4-0.3,0.2-0.4
	c-0.3-0.4-0.8-0.8-1.1-1c-1-0.3-2-0.7-3.1-1c0.3-0.1,0.4-0.2,0.6-0.3c0.3-0.1,0.5-0.5,0.4-0.9c0-0.4-0.4-0.6-0.7-0.6c0,0,0,0-0.1,0
	c-0.6,0-1.1,0.2-1.6,0.5c-0.2,0.1-0.4,0.1-0.5,0c-0.2-0.5-0.8-0.6-1.1-0.4l0,0c-0.6,0.1-1,0.3-1.6,0.6c-0.1,0-0.2,0.2-0.2,0.3
	c0,0,0,0.1,0.1,0.1c0.2,0.4,0.3,0.8,0.4,1.1c0,0.3,0.1,0.5,0.4,0.5c0.1,0,0.1,0,0.2,0c0.6-0.2,1.1-0.4,1.8-0.5
	c0.5-0.1,1-0.3,1.4-0.5c0.1-0.1,0.2,0,0.3,0.1c0,0,0,0,0,0.1c-0.3,0.2-0.6,0.3-1,0.3c-0.6,0.4-1.2,0.5-2,0.6c-0.4,0-0.8,0.1-1,0.4
	c-0.1,0.1-0.1,0.2-0.3,0C-130.9,417.4-131.1,417.3-131.3,417.3L-131.3,417.3z M-133.4,369.9c0.2-0.3,0-0.6,0.2-0.9s0.2-0.2,0-0.3
	c-0.3-0.1-0.6-0.1-0.9,0c-0.1,0-0.1,0.1-0.2,0.1c0,0.1,0.1,0.1,0.1,0.2c0.1,0.1,0.5,0.1,0.3,0.4c-0.1,0.2-0.4,0.2-0.6,0l0,0
	c-0.3-0.2-0.7-0.3-1-0.2c-0.3,0-0.8,0.7-0.9-0.1h-0.2c-0.7,0.2-1.3,0.7-1.7,1.3c-0.1,0.1-0.1,0.2,0,0.3l0,0c0.1,0,0.2,0,0.2,0
	c0.5-0.4,1.1-0.4,1.6,0.1c0.2,0.1,0.4,0.1,0.6,0c0.3-0.3,0.6-0.3,0.9,0.1c-0.2,0.2-0.7-0.1-0.7,0.3s-0.2,0.3-0.4,0.4
	c-0.3,0-0.6,0.2-0.8,0.4c0.8,0,1.2,0.6,1.9,0.6c0.6,0,1.2,0.1,1.8,0.3c0.3,0,0.4-0.3,0.7,0c0.2,0.3,0.3,0.3,0.4,0
	c0.1-0.3,0.3-0.2,0.2-0.4c-0.1-0.2-0.3-0.3-0.4-0.2c-0.7,0-1.2-0.1-1.9-0.3c0.9,0,1.8-0.1,2.7-0.3c0.1,0,0.1,0,0.2,0v0.1
	c0,0.2,0.2,0.3,0,0.5c-0.1,0.1-0.2,0.2-0.4,0.3c-0.2,0.1-0.3,0.3-0.3,0.6c0,0.3,0.2,0.2,0.4,0.3c0.1,0,0.2,0.1,0.2,0.2l0,0
	c0,0.1-0.1,0.2-0.2,0.2l0,0c-0.1,0-0.4-0.1-0.4,0.2c0,0.2,0.2,0.4,0.5,0.4c0.3,0,0.5,0.1,0.7,0.2c-0.6,0.3-0.9,0.3-1.4-0.4
	c-0.1-0.1-0.2-0.5-0.5-0.3c-0.3,0.1-0.5,0.3-0.6,0.6c0,0.3,0.3,0.4,0.5,0.5c0.8,0.5,1.6,1,2.4,1.4c0.1,0,0.1,0.2,0.3,0.1
	c0.1-0.1,0.1-0.2,0-0.3c-0.2-0.5,0.1-1,0.5-1.2c0.3-0.2,0.2-0.4,0-0.5c-0.4-0.2-0.8-0.3-1.1-0.4c-0.1,0-0.2-0.1-0.2-0.2
	c0.2-0.1,0.4-0.1,0.5,0c0.3,0.3,0.8,0.3,1.1,0.1c0.2,0,0.4-0.1,0.4-0.4c0-0.2-0.3-0.2-0.5-0.2l-0.5-0.1c-0.4,0-0.7-0.3-0.7-0.6
	c0.1-0.3,0.4-0.6,0.7-0.6c0.1,0,0.1,0,0.2,0s0.4,0,0.4-0.2c0-0.2-0.2-0.1-0.4-0.1c-0.5,0.3-1,0.2-1.3-0.2c-0.1-0.1-0.2-0.1-0.3,0
	c-0.2,0.1-0.4,0.1-0.5-0.1l0,0c-0.3-0.6-0.9-0.9-1.4-0.8c-0.1,0-0.2,0-0.2-0.1l0,0c0-0.1,0.1-0.2,0.2-0.2c0.2,0,0.5,0,0.5-0.3
	C-133,369.8-133.2,369.8-133.4,369.9L-133.4,369.9z M-155.2,390.2c0,0.2,0,0.5,0.1,0.7c0.6,0.6,1.2,1,1.9,1.4c0.1,0,0.3,0.1,0.3-0.1
	c0.1-0.4,0.2-0.7,0.3-1c0.2-0.8,0.4-1.5,0.7-2.2c0.4-1,0.8-2,1.2-3c0.1-0.3,0.2-0.5,0.3-0.7c0.2-0.2,0.2-0.6,0-0.8
	c-0.1-0.1-0.2-0.1-0.3-0.2c-0.4-0.1-0.7-0.4-1-0.6c-0.1-0.1-0.2-0.2-0.4-0.1l-0.1,0.1c-0.3,0.6-0.8,1.1-1,1.7
	c-0.3,0.4-0.4,1-0.3,1.4c0.2,0.3,0,0.7-0.3,0.8c-0.1,0.1-0.3,0.1-0.4,0.1c-0.2,0-0.3,0.1-0.4,0.2c-0.1,0.1,0,0.4-0.3,0.3
	c-0.3-0.1-0.1-0.3-0.1-0.5c0.1-0.3,0-0.5-0.2-0.7c-0.3-0.1-0.6-0.1-0.9,0.1c-0.2,0.1-0.2,0.2-0.2,0.4c0.1,0.2,0.3,0.1,0.4,0
	c0.1-0.1,0.2-0.1,0.3,0l0,0c0.1,0.2,0,0.3-0.1,0.4c-0.3,0.4-0.5,1-0.5,1.4c0,0.2,0.1,0.3,0.3,0.3s0.2-0.1,0.2-0.2
	c0.1-0.2,0.3-0.5,0.4-0.7c0.1-0.3,0.4-0.4,0.7-0.4c0.3,0,0.1,0.3,0.1,0.5c0,0.1,0.1,0.2,0.1,0.2c0.1,0.2,0.2,0.4,0,0.5
	c-0.2,0.1-0.4,0.1-0.6,0c0,0,0,0,0-0.1c-0.3-0.4-0.4-0.1-0.6,0C-155.1,389.7-155.2,390-155.2,390.2z M-116.1,387.4
	c0.6,0,1.2-0.7,1-1c-0.2-0.5-0.6-0.8-1-1c-0.4,0-0.6-0.2-0.4-0.7c0.1-0.2,0-0.4-0.2-0.5c0,0,0,0-0.1,0c-0.2-0.1-0.3,0-0.4,0.2
	c0,0.2-0.1,0.2-0.2,0.1c-0.2-0.2-0.5-0.3-0.8-0.3c-0.5-0.1-0.9-0.6-0.9-1c0-0.1,0-0.1,0-0.2c0.1-0.2,0-0.3-0.1-0.4
	c-0.2-0.1-0.5-0.1-0.6,0c-0.3,0.1-0.4,0.5-0.4,0.8c0,0.7,0.3,1.3,0.8,1.7s1,0.6,1.7,0.7c0.3,0,0.5,0.2,0.5,0.4v0.1
	c-0.1,0.5,0.2,0.9,0.7,1C-116.2,387.4-116.1,387.4-116.1,387.4L-116.1,387.4z M-130.2,378.2c0.1,0.1,0.3,0,0.4-0.1
	c0-0.1,0-0.2-0.1-0.2l0,0c-0.4-0.2-0.3-0.5-0.1-0.8c0.1-0.3,0.2-0.3,0-0.4c-0.5-0.2-1-0.5-1.3-0.9c-1-0.4-1.6-1.6-3-0.6
	c-0.6,0.4-0.7,0.3-0.2,0.8c0.1,0.1,0.2,0.2,0.3,0.3c0.3,0.8,1.1,1,1.9,0.8c0,0,0.1,0,0.1-0.1c0.2-0.1,0.4-0.1,0.7-0.1
	c0.4-0.2,0.8-0.1,1,0.3c0.2,0.4-0.3,0.6-0.6,0.8c-0.3,0.2-0.3,0.2-0.2,0.4c0.3,0.3,0.7,0.5,1.1,0.5c0.1,0,0.2,0,0.2-0.2l0,0
	c0-0.1-0.1-0.2-0.2-0.2l0,0c-0.1,0-0.4,0-0.3-0.2C-130.3,378.1-130.4,378.2-130.2,378.2z M-121.4,392.7c-0.6,0-0.7,0.2-0.4,0.9
	c0.4,0.7,0.8,1.4,1.1,2.2c0,0.1,0.2,0.2,0.3,0.1c0.1,0,0.1-0.1,0.1-0.1c0.2-0.2,0.4-0.4,0.7-0.5c0.7-0.3,0.8-0.5,0.6-1.2
	c0-0.1,0-0.3,0-0.4c-0.1-0.7-0.3-1.2-0.8-1.7c-0.1-0.1-0.1-0.5-0.3-0.3c-0.3,0.1-0.5,0.3-0.6,0.6
	C-120.6,392.7-121,392.7-121.4,392.7L-121.4,392.7z M-127.5,420.6c-0.2,0-0.5-0.2-0.6,0.1c-0.1,0.2,0,0.4,0.2,0.6
	c0.5,0.4,1.1,0.5,1.7,0.4c0.6-0.3,1.1-0.5,1.7-0.6c1-0.4,1.9-0.6,2.9-1c0.2-0.1,0.3-0.2,0.3-0.4c0-0.1-0.1-0.1-0.2-0.1
	c-0.6,0-1,0-1.6-0.3c-0.3,0-0.6,0.1-0.9,0.3c-0.6,0.1-1.1,0.4-1.8,0.5C-126.3,420.3-126.8,420.5-127.5,420.6L-127.5,420.6z
	 M-145.3,380.8c-0.5,0.4-1,0.8-1.6,1c-1,0.5-1.7,1.3-2.1,2.3c-0.2,0.3-0.2,0.6,0.3,0.5c0.2,0,0.4,0.1,0.6,0.2
	c0.5,0.4,1.1,0.3,1.4-0.2c0.1-0.1,0.2-0.3,0.2-0.4C-146.1,383.1-145.7,382-145.3,380.8z M-146.3,377.4c-0.1,0-0.2,0-0.3,0.1
	c-1.7,1.7-3.2,3.5-4.7,5.4c-0.2,0.2-0.2,0.4,0,0.6l0.1,0.1c0.3,0.3,0.7,0.5,1,0.7c0.1,0.1,0.2,0.2,0.4,0c0.1-0.1,0.1-0.3,0-0.4l0,0
	c-0.1-0.1-0.1-0.3-0.1-0.4c0.2-0.6,0.4-1,0.6-1.6c0.2-0.2,0.3-0.4,0.4-0.6c-0.1-0.4,0.1-0.7,0.4-0.9c0.6-0.3,1-0.8,1.3-1.2
	C-146.9,378.5-146.6,377.9-146.3,377.4L-146.3,377.4z M-151.8,365.6L-151.8,365.6c-1.4-0.3-2.7-0.9-4-1.1c-0.3-0.1-0.7-0.2-1-0.3
	c-0.6-0.1-1.1,0-1.6,0.3c0,0.1-0.1,0.1-0.1,0.2c0.1,0.1,0.2,0.1,0.3,0.2c0.5,0.1,1,0.3,1.5,0.6c0.8,0.3,1.5,0.6,2.4,0.8
	c0.9,0,1.6-0.1,2.5-0.4C-151.8,365.7-151.8,365.7-151.8,365.6z M-109.8,391.1c0.2,0,0.4-0.1,0.4-0.3c0-0.4-0.2-0.8-0.6-1
	c-0.2-0.2-0.3,0-0.4,0.1s-0.3,0-0.5-0.1c-0.1-0.1-0.3-0.1-0.3,0.1c0,0.6-0.5,1-1,1c-0.3,0-0.6-0.1-0.8-0.3c-0.5-0.4-0.6,0-0.9,0.3
	c-0.2,0.3-0.2,0.5,0.2,0.7c0.6,0.2,1.1,0.5,1.6,0.8c0.6,0.5,1,0.1,1-0.6c0-0.3,0-0.7,0-1c0-0.4,0.1-0.4,0.4-0.2
	C-110.1,390.9-110,391.1-109.8,391.1z M-155,384c0.3,0,0.5-0.3,0.5-0.5c0-0.2,0.1-0.4,0.3-0.5c0.9-0.6,1.4-1.4,1.5-2.5
	c0.2,0,0.2,0.5,0.4,0.2c0.4-0.3,0.7-0.5,1-0.8c0.4-0.6,0.8-1,1.3-1.3c0.4-0.3,0.7-0.6,1-1c0.1-0.1,0.1-0.2,0.1-0.3l0,0
	c-0.1-0.1-0.2-0.1-0.3,0l0,0c-0.5,0.6-1.5,0.7-1.8,1.5c-0.1,0.1-0.2,0.2-0.3,0.3c0,0-0.1,0.1-0.2,0c-0.4-0.6-0.5,0-0.6,0.2
	c-0.1,0.3-0.3,0.6-0.6,0.9c-0.8,0.4-1.3,1-1.4,1.9c-0.1,0.2-0.2,0.4-0.3,0.5C-154.7,383-154.9,383.5-155,384z M-134.3,377
	c-0.2-0.3-0.4-0.6-0.7-0.9c-0.2-0.3-0.6-0.4-0.9-0.2c-0.1,0-0.1,0.1-0.2,0.2c-0.2,0.3-0.5,0.4-0.8,0.5c-0.3,0-0.3,0.3-0.2,0.5l1,2.1
	c0,0.1,0,0.4,0.3,0.3c0.2-0.1,0.3-0.3,0.2-0.5l0,0c-0.1-0.2,0-0.6,0.2-0.7c0.1,0,0.1,0,0.2-0.1C-134.6,378-134.8,377.3-134.3,377
	L-134.3,377z M-152,411.5c0-0.1,0-0.2,0-0.3c-0.5-0.7-0.8-1.4-1-2.2c-0.1-0.6-0.3-1-0.7-1.5c-0.6-0.5-1.1-1-1.5-1.6
	c-0.1-0.1-0.2-0.3-0.4-0.2c-0.2,0.1,0,0.3,0,0.4c0.5,1,1,2.1,1.6,3.1c0.5,0.8,1,1.4,1.4,2.2c0,0.1,0.2,0.2,0.3,0.2
	C-152,411.6-152,411.6-152,411.5z M-162.4,364.2c0.6,0,1.1,0,1.7,0.1c0.4,0.2,0.8,0.4,1.2,0.3c0.6-0.1,1.1-0.3,1.7-0.6
	C-159.2,363.2-160.9,363.3-162.4,364.2L-162.4,364.2z M-146.4,376.8c0-0.2-0.1-0.3-0.3-0.4c-0.1-0.1-0.3-0.1-0.4,0l0,0
	c-0.4,0.5-1.3,0.6-1.2,1.5c0,0.1-0.1,0.1-0.2,0.1c-0.5,0.3-0.9,0.8-1,1.3c-0.1,0.1-0.1,0.2,0,0.3l0,0c0.1,0.1,0.2,0,0.2-0.1
	c0.1-0.1,0.2-0.2,0.3-0.3c0.7-0.8,1.4-1.5,2.3-2.3C-146.5,377-146.4,376.9-146.4,376.8z M-151.4,380.3c-0.5,0.4-0.8,1-0.9,1.7
	c0,0.3,0.2,0.6,0.5,0.7c0.3,0.1,0.3-0.2,0.4-0.4c0.3-0.4,0.6-0.8,0.9-1.1c0.5-0.5,0.7-1.1,0.3-1.7c0-0.1,0-0.3-0.2-0.3
	s-0.2,0.2-0.2,0.4c0,0.8-0.3,1.4-0.8,1.9c-0.1,0.1-0.2,0.1-0.3,0.1c-0.1-0.1-0.1-0.2,0-0.3C-151.3,381-151.3,380.7-151.4,380.3
	L-151.4,380.3z M-125.1,388.8c-0.1,0-0.2,0.1-0.2,0.1c-0.1,0.7,0.1,1.3,0.7,1.8c0.3,0.2,0.5,0.3,0.1,0.6c-0.1,0.1-0.2,0.3,0,0.4
	c0.1,0.1,0.3,0.1,0.4,0l0,0c0.3-0.2,0.5-0.6,0.4-1c-0.3-0.6-0.7-1.1-1-1.7C-124.8,389-125,388.9-125.1,388.8L-125.1,388.8z
	 M-116.5,381.9c-0.1-0.5-0.5-0.9-1-1c-0.1,0-0.3,0.1-0.3,0.2v0.1c0.1,0.5,0.4,1,1,1.1C-116.7,382.2-116.5,382.1-116.5,381.9
	L-116.5,381.9z M-149.2,375.9c1-0.3,2-0.8,2.7-1.5C-147.5,374.6-148.5,375.2-149.2,375.9L-149.2,375.9z M-113.1,409.4
	c0-0.3-0.2-0.3-0.3-0.2c-0.4,0.2-0.6,0.6-0.7,1c-0.1,0.1-0.1,0.3,0,0.4s0.3,0.1,0.4,0C-113.4,410.3-113.2,409.9-113.1,409.4
	L-113.1,409.4z M-124.1,387.4c-0.3,0.1-0.6,0.1-0.8,0c-0.1-0.1-0.3,0-0.3,0.1c0,0,0,0.1,0,0.2c0,0.3,0.1,0.5,0.3,0.7
	c0.2,0.1,0.5,0,0.6-0.2C-124.3,387.9-124.2,387.7-124.1,387.4L-124.1,387.4z M-141.9,377.6c0.2,0,0.3-0.1,0.3-0.2
	c0.1-0.4,0.3-0.9,0.3-1.2c0-0.1,0.2-0.4,0-0.4c-0.2-0.1-0.4,0.2-0.4,0.3c-0.1,0.4-0.2,0.8-0.4,1.1c-0.1,0.1-0.1,0.3,0,0.4
	C-142,377.6-141.9,377.6-141.9,377.6z M-146.9,375.8c0-0.1-0.1-0.3-0.2-0.3c-0.2,0-0.3,0.1-0.4,0.3c-0.2,0.3-0.2,0.9-0.8,0.4
	c-0.1,0-0.1,0-0.2,0.1l0,0c-0.1,0.1-0.1,0.1,0,0.2l0,0c0.2,0.2,0.4,0.2,0.7,0.2C-147.4,376.5-147.1,376.2-146.9,375.8L-146.9,375.8z
	 M-115,412c-0.2,0-0.2,0.1-0.2,0.2c0.1,0.4,0.4,0.8,0.7,1c0.1,0.1,0.4,0,0.3-0.2C-114.4,412.6-114.7,412.3-115,412L-115,412z
	 M-132.5,369.5l0.7-0.2c0.1,0,0.3-0.1,0.3-0.3l0,0c0-0.2-0.2-0.2-0.3-0.2l0,0c-0.2,0-0.4,0.1-0.6,0.2c-0.2,0.1-0.4,0-0.4,0.2
	C-132.9,369.4-132.7,369.5-132.5,369.5z M-143.6,374.5c0-0.1-0.1-0.2-0.1-0.2c-0.4,0.1-0.8,0.3-1,0.6c-0.1,0.1-0.1,0.2,0,0.3
	c0.1,0.1,0.3,0,0.4-0.1c0.1-0.3,0.4-0.4,0.6-0.5C-143.6,374.6-143.6,374.6-143.6,374.5L-143.6,374.5z M-129.7,380.8
	c0-0.3-0.3-0.5-0.6-0.5c-0.1-0.1-0.3,0-0.4,0.2v0.1c0.1,0.3,0.3,0.4,0.6,0.5C-129.9,381.1-129.8,381.1-129.7,380.8L-129.7,380.8z
	 M-152.7,384.5c0.4-0.4,0.7-0.9,0.8-1.4c0-0.1-0.1-0.1-0.1-0.1c-0.1,0-0.2,0-0.2,0.1l0,0l-0.6,1
	C-152.8,384.3-152.8,384.4-152.7,384.5L-152.7,384.5z M-131.6,381.3c-0.1-0.3-0.3-0.5-0.5-0.7c-0.1,0-0.1,0-0.1,0.1c0,0,0,0,0,0.1
	c0,0.3,0.2,0.6,0.5,0.8C-131.7,381.5-131.6,381.4-131.6,381.3z M-127.5,373c0.2,0.3,0,0.7,0.4,0.7c0.1,0,0.2-0.1,0.3-0.2l0,0
	C-126.8,373.2-127.1,373.2-127.5,373L-127.5,373z M-146.5,374.2c0.1-0.2,0.3-0.4,0.4-0.6c0-0.1-0.1-0.2-0.1-0.2h-0.1
	c-0.3,0.1-0.5,0.3-0.6,0.6C-146.8,374.2-146.7,374.2-146.5,374.2L-146.5,374.2z M-128.3,373.1c-0.2-0.2-0.5-0.4-0.8-0.4
	C-128.9,373-128.7,373.1-128.3,373.1L-128.3,373.1z M-118.5,396.8c0-0.3-0.2-0.6-0.5-0.6c-0.1,0-0.1,0.1-0.2,0.1
	C-119,396.7-118.8,396.8-118.5,396.8z M-149.9,377.2c0.4,0.1,0.7,0,1-0.2c0-0.1,0-0.1,0-0.2c0-0.1-0.2-0.1-0.3-0.1
	C-149.4,376.8-149.6,377-149.9,377.2z M-145.4,372.4c-0.2,0.1-0.4,0.3-0.6,0.5c0,0.1,0.1,0.1,0.2,0.1c0.3,0,0.5-0.2,0.6-0.5
	C-145.1,372.4-145.2,372.4-145.4,372.4L-145.4,372.4z M-131.2,369.7c-0.1-0.2-0.2-0.2-0.4-0.2c-0.1,0-0.3,0-0.3,0.2
	c0,0.2,0.3,0.2,0.4,0.2S-131.3,369.9-131.2,369.7C-131.2,369.8-131.2,369.8-131.2,369.7L-131.2,369.7z M-112.5,412.9
	c0-0.1-0.1-0.2-0.2-0.2c0,0,0,0-0.1,0s-0.2,0.1-0.2,0.2s0.1,0.2,0.2,0.2l0,0C-112.6,413.2-112.5,413.1-112.5,412.9
	C-112.5,413-112.5,413-112.5,412.9z M-152.9,382.9c0.3,0,0.6,0.2,0.7-0.1c0.1-0.3,0.1-0.3-0.1-0.4
	C-152.5,382.3-152.6,382.7-152.9,382.9z"/>
<path class="st0" d="M-94.6,378c0-2.2,0-4.3,0-6.5c-0.1-0.2,0.1-0.5,0.3-0.6c0.1,0,0.1,0,0.2,0c1.9,0,3.7,0,5.6,0.1
	c2,0,3.6,1.6,3.6,3.7c0,1-0.5,2-1.2,2.8c-0.3,0.3-0.3,0.4,0,0.6c0.7,0.5,1.1,1.1,1.4,1.8c0.8,1.9-0.3,4-2.2,4.8H-87
	c-0.5,0.2-1,0.3-1.6,0.3c-1.8,0-3.6,0-5.4,0c-0.5,0-0.7-0.1-0.7-0.7C-94.7,382.2-94.7,380.1-94.6,378L-94.6,378L-94.6,378z
	 M-91.8,381c0,0.4,0,0.9,0,1.3c0,0.5,0.1,0.5,0.4,0.5c0.9,0,1.7,0,2.7,0c0.9-0.1,1.5-0.8,1.6-1.6c0-0.8-0.4-1.4-1.1-1.7
	c-0.6-0.2-1-0.2-1.6-0.2c-0.6-0.2-1.1-0.1-1.7,0.1C-91.8,379.9-91.9,380.4-91.8,381L-91.8,381z M-91.8,375c0,0.7,0,1.1,0,1.6
	c-0.1,0.2,0.1,0.4,0.2,0.4h0.1c0.7,0,1.4,0,2.1,0c1,0,1.7-0.7,1.8-1.6c0.2-1-0.5-1.8-1.4-2c-0.4-0.1-0.7-0.1-1-0.1
	c-0.6-0.1-1.1-0.1-1.6,0.1C-91.9,373.9-91.9,374.4-91.8,375L-91.8,375z"/>
<path class="st0" d="M-90.4,389.7c1.5,0,3,0.4,4.3,1.1c0.5,0.3,0.7,0.5,0.3,1c-0.3,0.4-0.5,0.9-0.7,1.2c-0.2,0.3-0.3,0.5-0.6,0.1
	c-0.8-0.8-1.8-1.2-2.9-1.4c-0.9-0.2-1.8,0.2-2.4,1c-0.4,0.9,0,2,0.9,2.4c0.1,0.1,0.3,0.1,0.5,0.1c1.2,0.4,2.4,0.8,3.6,1.3
	c0.8,0.3,1.4,0.9,1.8,1.5c0.8,1.5,0.5,3.4-0.9,4.6c-1,0.8-2.1,1.1-3.3,1.2c-1.7,0.1-3.4-0.4-5-1.2c-0.3-0.1-0.5-0.5-0.4-0.8v-0.1
	c0.3-0.6,0.5-1,0.6-1.6c0.1-0.4,0.3-0.3,0.5-0.1c0.5,0.4,1,0.7,1.4,1c1,0.6,2.1,0.8,3.2,0.5c0.7-0.2,1.2-0.8,1.3-1.4
	c0.1-0.7-0.3-1.2-0.9-1.5c-1-0.5-2.1-0.9-3.2-1.1c-1.2-0.3-2.3-1.1-2.9-2.3c-0.9-1.9,0-4.2,1.9-5.1c0.1,0,0.2-0.1,0.3-0.1
	C-91.9,389.7-91.2,389.6-90.4,389.7z"/>
<path class="st0" d="M11,381.7c0,2,0,4.1,0,6.1c0.1,0.3-0.1,0.7-0.5,0.7l0,0l-1.9,0.5c-0.3,0.1-0.4,0-0.4-0.4c0.1-1.4,0-2.9,0-4.2
	c0.1-0.1,0.1-0.3,0-0.4c-0.2-0.1-0.3,0.1-0.3,0.2c-1.4,1.3-3.7,1.2-5-0.2c-0.5-0.5-0.8-1-0.9-1.6c-0.4-1.6-0.4-3.2,0-4.9
	c0.4-1.3,1.6-2.4,3.1-2.5c1-0.1,2,0.3,2.8,1c0.1,0.1,0.2,0.2,0.3,0.2c0.1-0.1,0.2-0.2,0.1-0.4c-0.2-0.7,0.2-0.8,0.8-0.8
	c0.5,0,0.9,0,1.3,0s0.7,0.1,0.7,0.6C11,377.7,11,379.7,11,381.7L11,381.7L11,381.7z M8.3,380c0.1-0.7,0-1.4-0.2-2.1
	c-0.3-0.7-1-1-1.7-1s-1.2,0.5-1.5,1c-0.4,1.2-0.4,2.7,0,3.9c0.2,0.7,0.8,1.1,1.4,1.1c0.7,0.1,1.4-0.2,1.7-0.9
	C8.3,381.6,8.5,380.8,8.3,380L8.3,380z"/>
<path class="st0" d="M-73.2,378.2c0-2.1,0-4.3,0-6.4c0-0.3,0-0.4,0.3-0.4c0.7-0.1,1.2-0.2,1.9-0.4c0.5-0.1,0.6,0.1,0.6,0.5
	c0,1.4,0,2.8,0,4.1c0,0.1-0.1,0.4,0.1,0.4c0.1,0,0.3-0.1,0.3-0.2c1.4-1.3,3.7-1.1,5,0.3c0.2,0.2,0.4,0.5,0.5,0.7
	c0.3,0.6,0.5,1.2,0.5,1.9c0,1.1,0.1,2.3,0,3.3c-0.1,1.3-1.1,2.5-2.5,2.9c-1.1,0.4-2.5,0.1-3.4-0.8c-0.1-0.1-0.2-0.2-0.3-0.2
	c-0.2,0.1-0.2,0.3-0.2,0.4l0,0c0.1,0.6-0.2,0.8-0.8,0.7c-0.6,0-1,0-1.4,0c-0.2,0.1-0.5-0.1-0.6-0.3c0-0.1,0-0.2,0-0.2
	c0-1,0-2.1,0-3.1C-73.1,380.3-73.1,379.3-73.2,378.2L-73.2,378.2L-73.2,378.2z M-70.4,380.1c0,0.4,0,0.9,0,1.3
	c0.1,1,0.8,1.6,1.7,1.7c1,0,1.7-0.6,1.9-1.5c0.1-1,0.1-1.9,0-2.9c0-0.3-0.1-0.7-0.3-1c-0.5-0.7-1.3-1-2.1-0.8
	c-0.8,0.3-1.2,1-1.2,1.8C-70.4,379.4-70.4,379.7-70.4,380.1L-70.4,380.1z"/>
<path class="st0" d="M-23.3,378.1c0-2.1,0-4.2,0-6.3c-0.1-0.3,0.1-0.6,0.4-0.7c0.1,0,0.1,0,0.2,0c0.6,0,1.1-0.1,1.7-0.2
	c0.3-0.1,0.4,0.1,0.4,0.4c0,1.5,0,3.1,0,4.7c0,0.1-0.1,0.4,0,0.4c0.1,0.1,0.3-0.1,0.4-0.3c1.3-1.4,3.5-1.5,5-0.2
	c0.2,0.2,0.4,0.4,0.6,0.7c0.4,0.5,0.6,1,0.6,1.6c0,2.1,0,4.2,0,6.3c0,0.4-0.1,0.6-0.5,0.5c-0.4,0-1.1,0-1.8,0
	c-0.2,0.1-0.4-0.1-0.5-0.3c0-0.1,0-0.1,0-0.2c0-1.7,0-3.4,0-5.2c0.1-0.8-0.3-1.4-0.9-1.8s-1.2-0.4-1.8-0.1c-0.7,0.3-1.1,1-1.1,1.7
	c0,1.8,0,3.5,0,5.3c0.1,0.2-0.1,0.5-0.3,0.5c-0.1,0-0.2,0-0.2,0c-0.6,0-1.1,0-1.8,0c-0.2,0.1-0.5-0.1-0.5-0.3c0-0.1,0-0.1,0-0.2
	c0-1,0-2.2,0-3.2c0-1,0-2.1,0-3.1l0,0H-23.3z"/>
<path class="st0" d="M-44.4,396.8c0-2.1,0-4.3,0-6.4c0-0.4,0.1-0.6,0.6-0.6c2.6,0,5.1,0,7.6,0c0.3,0,0.4,0,0.4,0.4
	c0,0.6,0,1.1,0,1.7c0,0.6-0.2,0.4-0.5,0.4c-1.5,0-3.1,0-4.8,0c-0.5,0-0.6,0.1-0.6,0.6c0,0.8,0,1.5,0,2.3c-0.1,0.2,0.1,0.5,0.3,0.6
	c0.1,0,0.2,0,0.3,0c1.3,0,2.7,0,4,0c0.5,0,0.7,0.1,0.6,0.6c0,0.4,0,0.9,0,1.2c0.1,0.2-0.1,0.5-0.3,0.5c-0.1,0-0.1,0-0.2,0
	c-1.4,0-2.8,0-4.1,0c-0.2-0.1-0.5,0.1-0.6,0.3c0,0.1,0,0.2,0,0.2c0,1.6,0,3.1,0,4.8c0,0.7,0,0.7-0.8,0.7c-0.8,0-1,0-1.4,0
	s-0.6-0.2-0.6-0.6C-44.4,401.2-44.4,399-44.4,396.8L-44.4,396.8L-44.4,396.8z"/>
<path class="st0" d="M-15.1,399c0-1.4,0-2.9,0-4.3c-0.1-0.3,0.1-0.6,0.4-0.7h0.1c0.6-0.1,1.1-0.1,1.7-0.3c0.6-0.2,0.5,0.1,0.5,0.5
	c-0.1,0.3-0.1,0.6,0,0.9c0.3,0.2,0.5-0.3,0.7-0.6c1-0.9,2.3-1,3.4-0.7c1.4,0.5,2.4,1.8,2.3,3.2c0,2,0,4,0,6c0,0.4,0,0.7-0.6,0.6
	c-0.6,0-1.1,0-1.7,0c-0.2,0.1-0.4-0.1-0.5-0.3c0-0.1,0-0.1,0-0.2c0-1.8,0-3.5,0-5.3c0.1-1-0.7-2-1.7-2.1c-1-0.1-2,0.7-2.1,1.7
	c0,0.1,0,0.2,0,0.3c0,1.7,0,3.5,0,5.2c0,0.5-0.1,0.6-0.6,0.6c-0.6-0.1-1-0.1-1.6,0c-0.5,0-0.6-0.1-0.6-0.5
	C-15.2,402.1-15.2,400.7-15.1,399L-15.1,399L-15.1,399z"/>
<path class="st0" d="M24.1,380c0,1.5,0,3.1,0,4.6c0.1,0.2-0.1,0.4-0.2,0.4s-0.1,0-0.2,0h-1.6c-0.3,0.1-0.5-0.1-0.6-0.4
	c0-0.1,0-0.2,0-0.3c0-0.1,0-0.3,0-0.4c0-0.1,0-0.4-0.2-0.4c-0.2,0-0.2,0.1-0.3,0.3c-0.9,1-2.2,1.4-3.4,1c-1.3-0.3-2.3-1.4-2.5-2.7
	c-0.2-2.1,0-4.2-0.1-6.3c0-1,0-1,1-1c0.5-0.2,1-0.1,1.5,0.1c0.2,0.5,0.2,1,0.1,1.5c0,1.4,0,2.7,0,4.1c-0.1,1,0.7,1.9,1.7,2
	c0.2,0,0.5,0,0.7-0.1c0.7-0.2,1.2-0.8,1.3-1.5c0-1.9,0-3.7,0-5.6c0-0.5,0.1-0.6,0.6-0.6c0.6,0,1,0,1.6,0c0.4,0,0.7,0.1,0.6,0.6
	C24.1,377,24.1,378.5,24.1,380L24.1,380L24.1,380z"/>
<path class="st0" d="M-71.3,399c0-1.4,0-3,0-4.5c-0.1-0.2,0.1-0.4,0.3-0.5c0,0,0.1,0,0.2,0c0.6,0,1.1-0.2,1.7-0.2
	c0.6-0.1,0.7,0,0.7,0.6c0,0.3-0.2,0.7,0,0.8c0.2,0.1,0.4-0.3,0.6-0.5c1-0.9,2.3-1.1,3.5-0.7c1.3,0.4,2.3,1.6,2.3,3
	c0,2.1,0,4.3,0,6.4c0,0.4-0.1,0.5-0.6,0.5c-0.6,0-1,0-1.6,0c-0.4,0-0.6-0.1-0.6-0.5c0-1.7,0-3.5,0-5.2c0.1-1-0.8-2-1.8-2l0,0
	c-1,0-1.9,1-1.9,2.1c0,1.7,0,3.4,0,5.2c0,0.5-0.1,0.7-0.7,0.6c-0.6,0-1,0-1.6,0c-0.4,0-0.5-0.1-0.5-0.5
	C-71.4,402-71.4,400.6-71.3,399L-71.3,399L-71.3,399z"/>
<path class="st0" d="M-1.9,381.7c0,0.7,0,1.4,0,2.1c0,0.2-0.2,0.4-0.4,0.4c-1.2,0.7-2.8,1-4.2,0.9c-2.2-0.2-3.9-2-3.9-4.3
	c-0.2-1.2,0.1-2.6,0.6-3.7c0.7-1.2,1.9-2,3.2-2.2c1.6-0.3,3.2,0.2,4.3,1.4c0.8,0.9,1,2,0.8,3.1c-0.3,1-1.1,1.5-2.1,1.4
	c-1.2,0-2.4,0-3.6,0c-0.5,0-0.6,0.2-0.5,0.6c0.3,0.9,1,1.4,1.9,1.4c1.2,0.1,2.5-0.3,3.5-1C-2.2,381.8-2,381.8-1.9,381.7z M-6,379.1
	h1.4c0.2,0,0.5-0.1,0.5-0.4c0,0,0,0,0-0.1c0.1-0.4,0-0.8-0.3-1c-0.5-0.7-1.3-0.9-2.1-0.6c-0.7,0.3-1.1,1-1.2,1.7
	c0,0.3,0.1,0.4,0.4,0.4L-6,379.1L-6,379.1z"/>
<path class="st0" d="M32.7,380.9c-0.6,0-1.1,0-1.7,0c-0.6,0-0.5,0.2-0.4,0.6c0.3,0.9,1,1.4,1.8,1.5c1.3,0.2,2.7-0.3,3.6-1.1
	c0.3-0.2,0.4,0,0.4,0.2c0,0.6,0,1.1,0,1.8c0,0.2-0.2,0.4-0.4,0.4c-1.7,1-3.8,1.2-5.7,0.6c-1-0.4-1.8-1.2-2.2-2.3
	c-0.8-1.9-0.6-4.2,0.6-5.9c0.8-1.1,2.1-1.7,3.4-1.7c1.8-0.2,3.5,0.8,4.3,2.5c0.7,1,0.3,2.4-0.7,3.1c-0.5,0.3-1,0.4-1.6,0.4
	C33.8,380.9,33.2,380.9,32.7,380.9z M32.3,379.1h1.2c0.4,0,0.7-0.2,0.8-0.6c0-0.1,0-0.3-0.1-0.4c-0.3-0.9-1.1-1.3-2-1.1
	c-0.9,0.2-1.5,1-1.6,1.8c0,0.2,0.1,0.3,0.3,0.4h0.1L32.3,379.1L32.3,379.1z"/>
<path class="st0" d="M15.8,399.7c-0.7,0-1.2,0-1.9,0s-0.6,0.2-0.4,0.7c0.3,1,1.2,1.5,2.3,1.4c1.1,0,2.3-0.4,3.1-1.1
	c0.1-0.1,0.2-0.1,0.3-0.1c0.1,0.1,0.2,0.2,0.1,0.3c0,0.6,0,1,0,1.6c0,0.3-0.1,0.5-0.4,0.6c-1.7,1-3.9,1.2-5.8,0.5
	c-1.4-0.7-2.4-2.1-2.4-3.7c-0.1-1.1,0-2.4,0.4-3.5c0.5-1,1.3-1.9,2.5-2.3c1.4-0.5,3.1-0.3,4.4,0.6c1.2,0.9,1.8,2.5,1.4,4
	c-0.2,0.6-0.8,1-1.4,1.1C17.4,399.7,16.6,399.7,15.8,399.7z M15.1,398.1h1.3c0.4,0,0.7-0.3,0.8-0.7c0-0.1,0-0.2-0.1-0.3
	c-0.2-0.9-1.1-1.4-2-1.2c-0.9,0.2-1.5,1-1.5,1.8c0,0.2,0.1,0.4,0.3,0.4h0.1H15.1L15.1,398.1z"/>
<path class="st0" d="M-74.2,400.4c0,1.1,0,2.1,0,3c0.1,0.3-0.1,0.6-0.3,0.6c-0.1,0-0.2,0-0.3,0c-0.5,0-1,0-1.4,0
	c-0.2,0.1-0.5-0.1-0.5-0.3c0-0.1,0-0.1,0-0.2s0-0.3-0.1-0.4c-0.2-0.1-0.3,0.1-0.4,0.2c-1.6,1.2-4,1-5.2-0.8
	c-0.1-0.1-0.2-0.3-0.3-0.4c-0.8-1.6,0-3.6,1.6-4.3c0.1-0.1,0.2-0.1,0.4-0.1c1.2-0.5,2.7-0.2,3.6,0.7c0.2,0.2,0.3,0.1,0.4-0.1
	c0.3-1-0.2-1.9-1-2.4c-0.8-0.3-1.6-0.3-2.4,0c-0.4,0.2-0.9,0.4-1.2,0.7s-0.6,0.1-0.7-0.2c-0.1-0.4-0.2-0.7-0.4-1
	c-0.1-0.2,0-0.5,0.3-0.6c0,0,0,0,0.1,0c1.4-0.8,3.1-1,4.8-0.7c1.6,0.4,2.8,1.7,3,3.3C-74.1,398.4-74.2,399.4-74.2,400.4z
	 M-78.6,399.3c-0.2,0-0.3,0-0.5,0c-0.7,0.1-1.2,0.5-1.4,1.1c-0.1,0.5,0.1,1,0.6,1.3c0.9,0.5,1.9,0.5,2.7,0c0.6-0.4,0.8-1.1,0.4-1.7
	c-0.2-0.2-0.4-0.4-0.7-0.5C-77.9,399.3-78.3,399.3-78.6,399.3L-78.6,399.3z"/>
<path class="st0" d="M34.3,399.7h-1.7c-0.5,0-0.7,0.2-0.5,0.7c0.4,0.9,1.1,1.4,2.1,1.4c1.2,0.1,2.5-0.4,3.3-1.1
	c0.1-0.1,0.2-0.2,0.3-0.1c0.1,0.1,0.1,0.2,0.1,0.3c0,0.6,0,1,0,1.6c0,0.2-0.1,0.4-0.2,0.5c-1.5,1-4.8,1.5-6.6,0.2
	c-1.1-0.9-1.8-2.2-1.8-3.6c-0.1-0.9,0-1.7,0.2-2.5c0.6-2.3,2.9-3.7,5.2-3.2c1.5,0.1,2.8,1.1,3.3,2.6c0.6,1.6,0.2,3.1-1.9,3.3
	C35.6,399.7,34.9,399.7,34.3,399.7L34.3,399.7L34.3,399.7z M33.6,398h1.2c0.5,0,0.9-0.3,0.9-0.8c0-0.1,0-0.2-0.1-0.3
	c-0.3-0.8-1-1.2-1.8-1.1c-0.9,0.1-1.5,0.7-1.7,1.4c-0.1,0.7,0,0.8,0.6,0.8H33.6L33.6,398z"/>
<path class="st0" d="M-36.7,380c0.2,1.6-0.5,3.1-1.7,4.2c-1,0.8-2.4,1.1-3.7,1c-1.8,0-3.4-1.2-3.9-3.1c-0.7-2.4-0.4-5,1.7-6.3
	c2.3-1.5,5.3-1,6.9,1.2c0.3,0.5,0.6,1,0.7,1.5C-36.7,379-36.7,379.5-36.7,380z M-39.3,380c0-0.4,0-0.7,0-1c-0.1-1-0.8-1.7-1.7-1.9
	c-1-0.2-2.1,0.4-2.4,1.4c-0.3,1-0.3,2.2,0,3.2c0.3,0.8,1,1.3,1.8,1.4c0.9,0.1,1.7-0.4,2.1-1.1C-39.3,381.3-39.3,380.7-39.3,380
	L-39.3,380z"/>
<path class="st0" d="M-27.2,398.8c-0.2-2.1,1-4.1,3-4.8c2.5-1,5.3,0.1,6.4,2.6c0,0,0,0.1,0.1,0.1c1,2.2,0.4,4.7-1.4,6.2
	c-2.1,1.7-5.2,1.3-7-0.8c-0.5-0.6-0.9-1.3-1-2.1C-27.2,399.7-27.2,399.2-27.2,398.8z M-20.1,398.8c0.1-0.6,0-1-0.2-1.5
	c-0.3-0.9-1-1.4-2-1.4c-0.9,0-1.6,0.6-1.9,1.3c-0.3,1-0.4,2-0.2,3.1c0.1,1,1,1.9,2.1,1.8c1,0,1.8-0.7,2-1.6
	C-20.1,399.8-20.1,399.3-20.1,398.8L-20.1,398.8z"/>
<path class="st0" d="M44.8,404c-1.3,0-2.6-0.3-3.7-0.9c-0.3-0.1-0.5-0.3-0.4-0.6v-0.1c0.1-0.5,0.2-1,0.2-1.4s0.2-0.5,0.6-0.3
	c0.9,0.6,1.8,1,2.9,1c0.3,0,0.5,0,0.8,0c0.5,0,0.9-0.3,0.9-0.8c0.1-0.5-0.3-0.9-0.7-1c-0.8-0.3-1.4-0.5-2.3-0.7
	c-1-0.2-1.9-0.9-2.3-1.8c-0.6-1.4,0.1-3.1,1.4-3.6c0.2-0.1,0.3-0.1,0.5-0.2c1.7-0.4,3.5-0.2,5.2,0.6c0.3,0.1,0.5,0.4,0.4,0.7l0,0
	c-0.1,0.5-0.2,1-0.2,1.5c0,0.4-0.1,0.5-0.5,0.2c-0.8-0.6-1.6-0.9-2.6-1c-0.4-0.1-0.9-0.1-1.2,0.1c-0.4,0.1-0.7,0.6-0.5,1
	c0.1,0.2,0.2,0.4,0.4,0.5c0.7,0.3,1.3,0.6,2,0.7c1,0.2,1.9,0.8,2.6,1.6c0.8,1.3,0.3,3.1-1.1,3.9c-0.2,0.1-0.4,0.2-0.6,0.2
	C45.9,404,45.3,404,44.8,404z"/>
<path class="st0" d="M-55.5,404c-1.2,0-2.6-0.3-3.7-0.9c-0.3-0.1-0.5-0.4-0.4-0.7c0,0,0,0,0-0.1c0.1-0.5,0.1-1,0.1-1.4
	c0-0.6,0.3-0.5,0.6-0.3c1,0.6,2,1,3.1,1.1h0.6c0.5,0,0.9-0.4,1-0.8s-0.2-0.8-0.6-0.9c-0.7-0.3-1.3-0.5-2.1-0.6
	c-1.6-0.2-2.9-1.7-2.7-3.3c0-0.2,0.1-0.4,0.1-0.6c0.4-1,1.1-1.6,2.1-1.8c1.7-0.4,3.4-0.2,5.1,0.6c0.3,0.1,0.4,0.3,0.4,0.5l0,0
	c0,0.5-0.1,1-0.1,1.5s-0.3,0.5-0.7,0.3c-0.8-0.5-1.7-0.9-2.7-1c-0.3,0-0.7,0-1,0.1c-0.3,0.1-0.6,0.4-0.6,0.7c0,0.4,0.2,0.7,0.5,0.9
	c0.6,0.3,1.2,0.5,1.9,0.7c0.6,0.2,1.1,0.4,1.6,0.7c1.3,0.8,1.7,2.5,0.9,3.8c-0.2,0.4-0.5,0.7-0.9,0.9C-53.7,403.8-54.6,404-55.5,404
	z"/>
<path class="st0" d="M44.3,374.9c1.1,0,2.3,0.2,3.3,0.8c0.2,0.1,0.4,0.2,0.4,0.5c0,0.7-0.1,1.3-0.3,2c-0.1,0.3-0.3,0.1-0.5,0
	c-1-0.8-2.2-1-3.4-1c-0.4,0-0.8,0.3-0.9,0.7c-0.1,0.4,0.2,0.8,0.6,0.9c0.8,0.3,1.5,0.6,2.3,0.8c1,0.2,1.7,0.9,2.3,1.6
	c0.6,1.3,0.1,3-1.2,3.6c-1,0.5-2.3,0.6-3.4,0.4c-0.9-0.1-1.6-0.3-2.4-0.7c-0.4-0.1-0.6-0.5-0.5-0.8l0,0c0.1-0.5,0.1-1,0-1.5
	c-0.1-0.1-0.1-0.2,0-0.3c0.1-0.1,0.3,0,0.4,0.1c1,0.7,2.1,1,3.2,1.2c0.5,0.1,1,0,1.2-0.4c0.4-0.6,0-1.2-0.9-1.4
	c-0.9-0.2-1.6-0.4-2.4-0.7c-1.1-0.3-1.9-1.3-2-2.5c-0.2-1,0.4-2.1,1.2-2.7C42.4,375.1,43.3,374.8,44.3,374.9z"/>
<path class="st1" d="M-38,413l-0.5,2.2c-0.2,0.7-0.3,1.4-0.5,2.1c0,0.1-0.1,0.2-0.1,0.3c-0.6,0.2-1.1,0.3-1.7,0.1
	c-0.3,0-0.5-0.3-0.5-0.6c-0.3-1-0.5-1.8-0.7-2.8c-0.4-1.4-0.8-2.8-1.1-4.1c-0.1-0.3-0.3-0.9,0-1c0.4-0.2,0.9-0.2,1.3,0
	c0.3,0.2,0.4,0.4,0.4,0.7c0.4,1.6,0.9,3.2,1.2,5c0.6,2.5,0,0.1,0.1,0.3c0.2-0.3,0.4-0.7,0.4-1.1c0.2-1.1,0.7-2.3,0.8-3.5
	c0-0.5,0.4-0.8,0.8-0.8h0.1c1,0,1,0,1.2,1l1,4.2c0,0.1,0.1,0.3,0.2,0.4c0.2-0.6,0.3-1,0.4-1.5c0.3-1.4,0.7-2.8,1-4.2
	c0-0.2,0.2-0.4,0.5-0.4l0,0c0.2,0,0.4,0,0.6,0c0.7,0,0.8,0.1,0.6,0.8c-0.3,1-0.5,1.9-0.8,2.9c-0.3,1.4-0.7,2.8-1,4.1
	c0,0.5-0.5,0.8-1,0.8l0,0c-0.3,0-0.7,0-1,0c-0.4,0-0.4-0.2-0.5-0.5c-0.4-1.1-0.6-2.4-0.9-3.5C-37.6,413.4-37.8,413.2-38,413z"/>
<path class="st0" d="M-2.6,398.5c0-0.8,0-1.5,0-2.3c0-0.4-0.1-0.5-0.5-0.5c-1.1,0-1.1,0-1.1-1c0-0.9,0-0.9,0.9-0.9
	c0.6,0,0.8-0.2,0.7-0.8c0-0.6,0-1.2,0-1.8c0-0.3,0.1-0.5,0.4-0.6h0.1c0.7,0,1.3-0.1,1.9-0.3c0.3-0.1,0.3,0.2,0.3,0.4
	c0,0.8,0,1.5,0,2.3c0,0.6,0.2,0.7,0.7,0.7s1.3,0,1.9,0c0.2-0.1,0.4,0.1,0.5,0.3c0,0.1,0,0.1,0,0.2v0.1c0,1.4,0,1.4-1.3,1.4
	c-0.6-0.2-1.1-0.1-1.6,0.1c-0.2,0.5-0.2,1-0.1,1.6c0,1,0,1.9,0,2.9c0,1.4,1,1.7,2.2,1.2c0.6-0.2,0.6-0.3,0.6,0.4c0,0.2,0,0.4,0,0.6
	c0.1,1,0.1,1-0.8,1.2c-0.9,0.4-1.9,0.4-2.8,0.1c-1.4-0.5-1.8-1.4-2-3.1C-2.7,400-2.7,399.2-2.6,398.5L-2.6,398.5L-2.6,398.5z"/>
<path class="st0" d="M-32.5,379.7c0-0.8,0-1.5,0-2.4c0.1-0.2-0.1-0.5-0.3-0.5c-0.1,0-0.2,0-0.2,0c-1.1,0-1.1,0-1.1-1
	c0-0.8,0-0.8,0.8-0.8c0.8,0,0.9,0.1,0.9-0.9c0-0.6,0-1.1,0-1.7c-0.1-0.2,0-0.4,0.2-0.4h0.1c0.7-0.1,1.2-0.2,1.9-0.3
	c0.4-0.1,0.5,0.1,0.5,0.4c0,0.8,0,1.5,0,2.4c-0.1,0.2,0.1,0.5,0.3,0.6c0.1,0,0.2,0,0.2,0c0.7,0,1.4,0,2.1,0c0.4,0,0.6,0.1,0.5,0.5
	c0,0.1,0,0.3,0,0.4c0,1,0.2,1-1,1c-0.6,0-1.1,0-1.6,0c-0.2,0-0.4,0.1-0.4,0.3c0,0.1,0,0.1,0,0.2c0,1.4,0,2.9,0,4.3
	c-0.1,0.7,0.4,1.3,1.1,1.4c0.3,0,0.7,0,1-0.2c0.7-0.3,0.7-0.3,0.7,0.4l0,0c0.2,0.4,0.2,0.9,0,1.2c-0.5,0.4-1,0.6-1.7,0.6
	c-0.6,0.1-1.1,0-1.7-0.1c-1.3-0.4-2.2-1.6-2.1-3C-32.6,381.2-32.5,380.4-32.5,379.7L-32.5,379.7L-32.5,379.7z"/>
<path class="st0" d="M-57.2,377.9c0,2.2,0,4.4,0,6.6c0,0.4-0.1,0.6-0.5,0.5c-0.4,0-1.1,0-1.8,0c-0.2,0.1-0.4-0.1-0.5-0.3
	c0-0.1,0-0.1,0-0.2c0-4.2,0-8.5,0-12.7c-0.1-0.3,0.1-0.7,0.5-0.7c0.1,0,0.1,0,0.2,0c0.6,0,1.1-0.1,1.7-0.2c0.4-0.1,0.4,0.3,0.4,0.5
	c0,1.4,0,2.9,0,4.4C-57.2,376.5-57.2,377.2-57.2,377.9L-57.2,377.9L-57.2,377.9z"/>
<path class="st1" d="M7.2,413.5c0-1.2,0-2.5,0-3.6c0-0.5,0-0.7,0.6-0.6c1.1,0.1,2.2,0,3.3,0.1c0.9,0.1,1.6,0.7,1.9,1.5
	c0.3,0.8,0,1.6-0.6,2.2c-0.2,0.2-0.3,0.3,0,0.5c1,0.8,1.2,2.2,0.5,3.2c-0.1,0.1-0.2,0.2-0.3,0.3c-0.3,0.3-0.8,0.5-1.1,0.5
	c-1.3,0.2-2.7,0-4,0.1c-0.4,0-0.3-0.3-0.3-0.6C7.2,415.9,7.2,414.7,7.2,413.5z M8.8,415.1c0,0.3,0,0.6,0,0.9c0,0.2,0.1,0.4,0.3,0.4
	l0,0c0.7,0.1,1.3,0,2-0.2c0.5-0.3,0.7-0.9,0.4-1.3c-0.1-0.2-0.3-0.3-0.4-0.4c-0.4-0.2-0.9-0.3-1.3-0.2
	C8.9,414.2,8.9,414.2,8.8,415.1z M8.8,411.9v0.4c-0.1,0.2,0,0.3,0.2,0.4h0.1c0.5,0.1,1,0.1,1.4,0c0.4-0.1,0.8-0.4,0.9-0.8
	c0.2-0.6-0.2-1.1-0.7-1.3l0,0C9.4,410.2,8.8,410.5,8.8,411.9L8.8,411.9z"/>
<path class="st0" d="M22.2,399.1c0-1.4,0-2.9,0-4.4c-0.1-0.3,0.1-0.7,0.5-0.7c0.1,0,0.1,0,0.2,0c0.6,0,1.1-0.1,1.7-0.2
	c0.1-0.1,0.3,0,0.4,0.2c0,0.1,0,0.1,0,0.2c0,0.3,0,0.6,0,0.9s-0.1,0.4,0.1,0.4c0.2,0,0.2-0.2,0.3-0.3c0.5-1,1.5-1.4,2.6-1.2
	c0.4,0,0.6,0.2,0.5,0.7c-0.1,0.5-0.1,1-0.1,1.4c0,0.4-0.1,0.5-0.6,0.4c-1-0.3-2.1,0.2-2.6,1.2c-0.1,0.3-0.2,0.6-0.2,1
	c0,1.6,0,3.3,0,5c0,0.4-0.1,0.6-0.6,0.6c-0.6,0-1.1,0-1.7,0c-0.4,0-0.5-0.1-0.5-0.5C22.1,402.1,22.1,400.7,22.2,399.1L22.2,399.1
	L22.2,399.1z"/>
<path class="st0" d="M-34.1,399c0-1.4,0-2.9,0-4.3c-0.1-0.3,0.1-0.7,0.5-0.8c0.1,0,0.1,0,0.2,0c0.6,0,1.1-0.1,1.7-0.2
	c0.3-0.1,0.3,0.1,0.3,0.4c0,0.2,0,0.6,0,0.9c0,0.3,0,0.3,0.1,0.3s0.2-0.1,0.2-0.2c0.5-1,1.4-1.4,2.5-1.3c0.5,0,0.7,0.2,0.6,0.7
	c-0.1,0.4-0.1,0.9-0.1,1.2s-0.2,0.6-0.6,0.5c-1-0.3-2.1,0.3-2.6,1.2c-0.1,0.2-0.2,0.5-0.1,0.8c0,1.7,0,3.3,0,5.1
	c0,0.5-0.1,0.6-0.6,0.6c-0.6,0-1,0-1.6,0c-0.4,0-0.5-0.2-0.5-0.5C-34,401.9-34,400.4-34.1,399L-34.1,399L-34.1,399z"/>
<path class="st1" d="M32.1,413.5c0,1.2,0,2.5,0,3.6c0,0.5,0,0.8-0.7,0.6c-0.7-0.1-0.9,0.1-1-0.5c0-0.1-0.3,0-0.4,0
	c-0.9,0.7-2.2,0.6-3-0.4c-0.3-0.4-0.5-0.9-0.5-1.4c0-0.7,0-1.4,0-2.1c0.1-1.1,1-1.9,2.2-1.9c0.5,0,1,0.1,1.3,0.4
	c0.1,0.1,0.3,0.1,0.4,0l0,0c0.1-0.1,0.1-0.3,0-0.4c-0.1-0.7-0.1-1.3,0-2.1c0-0.2,0.2-0.4,0.3-0.4c1.2-0.3,1.2-0.3,1.2,1
	c0,1,0,2.1,0,3.1l0,0L32.1,413.5z M28.3,414.8c0,0.1,0,0.4,0,0.6c0,0.6,0.4,1,1,1.1c0.7,0.1,1.2-0.4,1.2-1l0,0c0-0.6,0-1.1,0-1.6
	s-0.4-0.8-0.9-0.9c-0.4-0.2-0.8-0.1-1,0.2C28.3,413.5,28.1,414.2,28.3,414.8L28.3,414.8z"/>
<path class="st1" d="M-22.8,413.5c0-1.1,0-2.3,0-3.5c0-0.3-0.1-0.6,0.2-0.7c0.4-0.2,0.9-0.2,1.3-0.1c0.1,0.1,0.2,0.3,0.1,0.4
	c0,0.7,0,1.4,0,2.1c-0.1,0.2,0,0.4,0.1,0.5c0.2,0.1,0.3-0.1,0.4-0.2c1-0.8,2.3-0.6,3.1,0.4c0.1,0.1,0.1,0.2,0.2,0.3
	c0.2,0.3,0.3,0.6,0.3,0.9c0,1.2,0,2.5,0,3.6c0.1,0.2-0.1,0.5-0.3,0.6c-0.1,0-0.2,0-0.3,0c-1.1-0.1-1,0-1.1-1.1
	c0.1-0.9,0.1-1.7,0-2.6c-0.1-0.6-0.5-1-1-1c-0.6,0-1,0.4-1.1,1c-0.1,1-0.1,2,0,3c0.1,0.3,0,0.6-0.2,0.8c-0.5,0.1-0.9,0.1-1.3,0
	c-0.2,0-0.1-0.4-0.1-0.6c0-0.6,0-1.2,0-1.8C-22.7,414.7-22.7,414-22.8,413.5L-22.8,413.5L-22.8,413.5z"/>
<path class="st1" d="M-85,413.5c0-1.1,0-2.4,0-3.5c-0.1-0.3,0.1-0.7,0.5-0.8c0.1,0,0.2,0,0.3,0c1,0,1,0,1,1c0,0.5,0,1,0,1.5
	c0,0.1,0,0.3,0.1,0.4s0.3,0,0.4-0.1c0.9-0.7,2.1-0.6,2.9,0.2c0.4,0.4,0.6,0.9,0.6,1.4c0,0.7,0,1.4,0,2.1c-0.1,1.1-1.1,2-2.3,1.9
	c-0.5,0-0.9-0.1-1.1-0.4c-0.1-0.1-0.3-0.2-0.4,0c-0.4,0.4-1,0.5-1.4,0.4c-0.2-0.2-0.3-0.5-0.2-0.8c0-0.6,0-1.1,0-1.7
	C-84.9,414.6-85,414-85,413.5L-85,413.5L-85,413.5z M-81.2,414.8c0-0.4,0-0.8,0-1.2c-0.2-0.5-0.8-0.8-1.2-0.7c-0.6,0.1-1,0.6-1,1.1
	c0,0.4,0,0.9,0,1.3c0,0.6,0.4,1,0.9,1.2c0.5,0.1,1-0.1,1.2-0.5C-81.2,415.6-81.1,415.2-81.2,414.8L-81.2,414.8z"/>
<path class="st0" d="M-50.1,380c0,1.5,0,3.1,0,4.6c0.1,0.2-0.1,0.4-0.3,0.5c0,0-0.1,0-0.2,0h-1.9c-0.3,0-0.4-0.1-0.4-0.5
	c0-3,0-6,0-9c-0.1-0.2,0.1-0.5,0.3-0.5h0.1c0.6,0,1.2-0.1,1.8-0.3c0.4,0,0.5,0.1,0.5,0.5C-50.1,376.9-50.1,378.4-50.1,380L-50.1,380
	L-50.1,380z"/>
<path class="st0" d="M-77.6,380c0,1.5,0,3.1,0,4.6c0,0.4-0.1,0.6-0.5,0.6c-0.5,0-1.1,0-1.8,0c-0.2,0-0.4-0.1-0.5-0.3
	c0-0.1,0-0.1,0-0.2c0-3,0-5.9,0-8.9c-0.1-0.3,0.1-0.5,0.4-0.5h0.1c0.7,0,1.2-0.2,1.9-0.3c0.4,0,0.3,0.3,0.3,0.5
	C-77.6,376.9-77.6,378.4-77.6,380L-77.6,380L-77.6,380z"/>
<path class="st0" d="M8.1,398.7c0,1.5,0,3,0,4.5c0,0.8,0,0.8-0.8,0.8c-0.5,0-1,0-1.4,0c-0.2,0.1-0.5-0.1-0.5-0.3c0-0.1,0-0.2,0-0.2
	c0-3.1,0-6,0-9.1c-0.1-0.2,0.1-0.4,0.3-0.5c0.1,0,0.1,0,0.2,0c0.7,0,1.3-0.1,1.9-0.3c0.3-0.1,0.4,0,0.4,0.4
	C8.2,395.6,8.2,397.1,8.1,398.7L8.1,398.7L8.1,398.7z"/>
<path class="st1" d="M-2.7,414.7c0,0.9,0,1.6,0,2.5c0,0.4-0.1,0.6-0.6,0.6c-0.2,0-0.4,0-0.6,0c-0.3,0.1-0.5-0.1-0.6-0.3
	c0-0.1,0-0.1,0-0.2c0-0.4-0.1-0.4-0.4-0.1c-0.8,0.9-2,0.9-2.9,0.2c-0.1-0.1-0.2-0.2-0.3-0.3c-0.3-0.3-0.4-0.7-0.4-1
	c0.1-1.3,0.1-2.7,0-3.9c0-0.1,0-0.1,0-0.2c0.4-0.2,0.9-0.3,1.2-0.2c0.3,0,0.4,0.2,0.4,0.5c-0.1,1-0.1,2.2,0,3.2c0.1,0.6,0.5,1,1,1
	c0.6,0.1,1-0.4,1.1-1c0-0.1,0-0.1,0-0.2c0-1,0-1.9,0-2.9c0-0.7,0.1-0.8,0.8-0.8h0.4c0.3-0.1,0.5,0.1,0.6,0.3c0,0.1,0,0.2,0,0.3
	C-2.7,413-2.7,413.8-2.7,414.7L-2.7,414.7L-2.7,414.7z"/>
<path class="st1" d="M-68.3,415.5c0,0.6,0,1.1,0,1.6c0,0.3,0,0.7-0.2,0.7c-0.4,0.2-0.9,0.1-1.2-0.1c-0.2-0.3-0.3-0.2-0.6,0
	c-0.8,0.4-1.7,0.4-2.4,0c-0.6-0.4-1-1-1-1.8c0.1-0.8,0.7-1.4,1.4-1.7c0.7-0.3,1.4-0.1,2.1,0.3c0.3,0.2,0.3,0.1,0.4-0.2
	c0.1-0.6-0.3-1.2-0.9-1.3c-0.2,0-0.4,0-0.6,0c-0.4,0.1-0.8,0.2-1,0.4c-0.2,0.2-0.6,0.3-0.7-0.1s-0.5-0.8,0.1-1
	c1-0.6,2.3-0.7,3.4-0.1c0.8,0.5,1.1,1.2,1.2,2.1c0,0.5,0,1,0,1.4l0,0L-68.3,415.5z M-70.9,416.7c0.5,0.1,1-0.2,1-0.7v-0.1
	c0-0.5-0.4-0.9-0.9-0.9c-0.6-0.2-1.2,0.1-1.4,0.7c0,0,0,0,0,0.1C-72.2,416.3-71.9,416.5-70.9,416.7L-70.9,416.7z"/>
<path class="st1" d="M-55.6,415.2h-0.9c-0.2,0-0.4,0-0.5,0.2c-0.1,0.2,0,0.4,0.1,0.6c0.5,0.7,1.4,0.9,2.1,0.5
	c0.3-0.1,0.6-0.2,0.9-0.4c0.3-0.2,0.4-0.1,0.5,0.2c0.2,0.5-0.1,1-0.6,1.2c-0.1,0-0.2,0.1-0.3,0.1c-1,0.3-1.9,0.3-2.9,0
	c-0.7-0.3-1.1-0.8-1.3-1.4c-0.6-1.3-0.3-3,0.8-4c0.9-0.7,2-0.8,3-0.4c0.9,0.2,1.4,1,1.5,1.8c0.2,0.7-0.2,1.3-0.8,1.5
	c-0.1,0-0.2,0-0.3,0.1C-54.7,415-55.2,415-55.6,415.2L-55.6,415.2L-55.6,415.2z M-55.7,414.1h0.4c0.2,0,0.5-0.1,0.6-0.3
	c0.1-0.3,0-0.5-0.2-0.7c-0.4-0.5-1-0.6-1.5-0.2c-0.1,0-0.1,0.1-0.2,0.2c-0.2,0.2-0.3,0.5-0.3,0.8c0.2,0.3,0.5,0.2,0.8,0.2
	C-56,414-55.9,414.1-55.7,414.1z"/>
<path class="st1" d="M33.7,414.4c-0.1-0.9,0.3-1.8,1-2.3c0.4-0.3,1-0.5,1.4-0.5c1.3-0.3,2.6,0.6,3,1.9c0.2,0.7-0.1,1.3-0.8,1.6
	c-0.1,0-0.2,0.1-0.4,0.1c-0.8,0.1-1.5,0.1-2.3,0.1c-0.2,0-0.4,0-0.5,0.2c-0.1,0.2,0,0.4,0.1,0.6c0.6,0.6,1.4,0.8,2.1,0.4
	c0.2-0.1,0.4-0.2,0.6-0.3c0.2,0,0.4-0.5,0.7-0.2c0.2,0.5,0.1,1-0.2,1.4c-1.1,0.6-2.4,0.7-3.5,0.1C34,416.9,33.7,416.2,33.7,414.4z
	 M36.3,414h0.5c0.3,0,0.7,0,0.7-0.4c0.1-0.3-0.1-0.7-0.4-0.8c-0.2-0.1-0.5-0.2-0.7-0.2c-0.5,0.1-1,0.5-1,1
	C35.3,414.3,35.9,413.9,36.3,414L36.3,414L36.3,414z"/>
<path class="st1" d="M-15.7,414.6c-0.1-1.5,1-3,2.7-3.1c0.1,0,0.2,0,0.2,0c1.6-0.1,3,1.1,3.1,2.7c0,0.2,0,0.3,0,0.5
	c0.2,1.6-0.9,3.1-2.5,3.3c-1.6,0.2-3.1-0.9-3.3-2.5C-15.7,415.3-15.7,414.9-15.7,414.6z M-14,414.6c0,0.3,0,0.6,0.1,0.8
	c0,0.5,0.3,0.9,0.8,1c0.5,0.2,1,0,1.4-0.4c0.4-0.7,0.5-1.4,0.3-2.2c-0.1-0.6-0.6-1-1.1-1c-0.6-0.1-1.1,0.3-1.3,1
	C-14,414-14,414.3-14,414.6L-14,414.6z"/>
<path class="st1" d="M14.8,414.7c-0.2-1.5,0.9-2.9,2.3-3.1c0.1,0,0.2,0,0.3,0c1.5-0.2,3,0.9,3.2,2.5c0,0.2,0,0.4,0,0.6
	c0.2,1.5-1,3-2.5,3.1c-0.2,0-0.4,0-0.7,0c-1.5,0-2.8-1.2-2.8-2.8C14.8,414.9,14.8,414.8,14.8,414.7z M19,414.7L19,414.7
	c0-0.3,0-0.5,0-0.8c-0.1-0.7-0.9-1.1-1.5-1c-0.2,0-0.5,0.2-0.7,0.3c-0.5,0.6-0.6,1.3-0.4,2c0,0.7,0.5,1.2,1.1,1.2h0.1
	c0.7,0.1,1.2-0.4,1.2-1c0-0.1,0-0.1,0-0.2C19,415,19,414.9,19,414.7L19,414.7z"/>
<path class="st1" d="M-95.4,413.5c0-1.2,0-2.4,0-3.6c0-0.5,0.1-0.7,0.7-0.7c1.1,0,1.1-0.3,1.1,1.1c0,1.8,0,3.6,0,5.4
	c0,0.3,0.1,0.5,0.4,0.5c0.1,0,0.1,0,0.2,0c0.9,0,1.7,0,2.6,0c0.5,0,0.7,0,0.6,0.6c0,0.2,0,0.3,0,0.5s-0.1,0.4-0.3,0.4h-0.1
	c-1.4,0-2.9,0-4.3,0c-0.3,0.1-0.6-0.1-0.6-0.4c0-0.1,0-0.2,0-0.3C-95.3,415.9-95.3,414.7-95.4,413.5L-95.4,413.5L-95.4,413.5z"/>
<path class="st1" d="M47.6,417.8l-1.8-0.3c-0.4,0-0.6-0.3-0.6-0.7c0-0.1,0-0.2,0-0.2c0-0.2,0-0.3,0-0.5c0-0.4,0.1-0.5,0.5-0.3
	c0.6,0.4,1.1,0.6,1.8,0.6c0.4,0,0.8,0,0.9-0.4c0.1-0.4-0.3-0.6-0.7-0.7c-0.5-0.1-1-0.3-1.5-0.5c-0.9-0.3-1.3-1.2-1-2.2
	c0.1-0.3,0.3-0.5,0.5-0.7c0.6-0.4,1.2-0.6,1.9-0.5c0.6,0,1.1,0.1,1.7,0.3c0.4,0,0.6,0.4,0.6,0.7v0.1c-0.1,0.9-0.1,0.9-0.9,0.5
	c-0.5-0.3-1-0.4-1.6-0.3c-0.3-0.1-0.5,0.1-0.6,0.3c-0.1,0.3,0.1,0.5,0.4,0.6l1.6,0.6c0.9,0.2,1.4,1.1,1.1,2c0,0.1-0.1,0.2-0.1,0.3
	C49.3,417.5,48.5,417.9,47.6,417.8z"/>
<path class="st1" d="M-49.3,417.7c-0.7,0-1.3-0.2-2-0.4c-0.5-0.3-0.7-1-0.4-1.4c0.2-0.2,0.5-0.2,0.7,0c0.4,0.3,1,0.5,1.4,0.5
	c0.4,0,0.9,0.1,1-0.4c0-0.4-0.3-0.8-0.7-0.8h-0.1c-0.7-0.1-1.2-0.3-1.8-0.7c-0.5-0.3-0.8-1-0.7-1.5c0-0.7,0.4-1.2,1-1.4
	c1-0.3,2.3-0.2,3.2,0.2c0.3,0.4,0.4,1,0.1,1.4c-0.2,0.1-0.4,0.1-0.5,0c-0.6-0.4-1.1-0.5-1.8-0.4c-0.2-0.1-0.5,0.1-0.5,0.3
	c-0.1,0.2,0,0.5,0.3,0.6c0.5,0.3,1,0.5,1.6,0.6c0.7,0.2,1.2,0.9,1.3,1.5c0.1,0.8-0.5,1.5-1.2,1.7C-48.6,417.7-49,417.7-49.3,417.7z"
	/>
<path class="st1" d="M-27.6,414.6c0-0.5,0-0.9,0-1.4c0-0.6-0.1-0.7-0.6-0.6c-0.5,0.1-0.5-0.2-0.5-0.5s0-0.7,0.4-0.7
	c0.4,0,0.6-0.3,0.6-0.7c0-0.1,0-0.2,0-0.3c-0.1-0.5,0.3-1,0.8-1c0.2,0,0.5,0,0.7,0.1c0.2,0.1,0.3,0.3,0.3,0.5c0,1.4,0,1.4,1.4,1.4
	c0.3,0,0.5,0.1,0.6,0.4c0,0.1,0,0.1,0,0.2c0,0.4-0.1,0.7-0.6,0.7c-1.3-0.1-1.3-0.1-1.4,1.2c0,0.4,0,0.9,0,1.3c-0.1,0.5,0.2,1,0.6,1
	c0.2,0.1,0.5,0,0.7-0.1c0.1,0,0.2-0.1,0.3,0c0.1,0.3,0.1,0.7,0,1c-0.1,0.3-0.3,0.4-0.6,0.4l-0.9,0.1c-1,0.1-1.8-0.6-1.9-1.4
	c0-0.1,0-0.1,0-0.2C-27.6,415.5-27.6,415.1-27.6,414.6L-27.6,414.6L-27.6,414.6z"/>
<path class="st1" d="M-0.8,414.5c0-0.3,0-0.5,0-0.8c0-0.6,0-1-0.8-1c-0.4,0-0.3-0.5-0.3-0.8c0-0.2,0.1-0.3,0.2-0.4
	c0.1,0,0.1,0,0.2,0c0.5,0.1,0.6-0.1,0.6-0.6c0,0,0-0.1,0-0.2c0-1.1,0-1.1,1.1-1.2c0.5-0.1,0.6,0.1,0.6,0.5c-0.1,0.5-0.1,1,0,1.4
	c0.4,0.2,0.9,0.3,1.3,0.1c0.3,0,0.5,0.2,0.5,0.5c0,0.1,0,0.1,0,0.2c0,0.3,0,0.6-0.5,0.6c-1.4,0-1.4,0-1.4,1.4c0,0.5,0,1,0,1.4
	c-0.1,0.4,0.2,0.9,0.7,0.9c0.1,0,0.3,0,0.4,0c0.2,0,0.5-0.4,0.7,0c0.1,0.4,0,0.9-0.4,1.1c-0.7,0.2-1.3,0.2-2,0
	c-0.4-0.2-0.7-0.6-0.8-1C-0.9,415.8-0.9,415.2-0.8,414.5z"/>
<path class="st1" d="M-77.9,414.7c0-0.8,0-1.6,0-2.4c0-0.3,0-0.7,0.4-0.6s1-0.6,1.2,0.3c0.1,0.4,0.4,0.2,0.6,0.1
	c0.3-0.3,0.7-0.5,1.1-0.5c0.3,0,0.5,0.1,0.5,0.4c0,0.1,0,0.1,0,0.2c0,0.3-0.1,0.5-0.1,0.8c0,0.1-0.1,0.3-0.3,0.3h-0.1
	c-0.7-0.2-1.4,0.2-1.5,1c0,0.2-0.1,0.4,0,0.5c0,0.9,0,1.7,0,2.6c0,0.5-0.1,0.8-0.7,0.6h-0.1c-1,0-1,0-1-1
	C-77.9,416.1-77.9,415.5-77.9,414.7L-77.9,414.7L-77.9,414.7z"/>
<path class="st1" d="M22.1,414.6c0-0.9,0-1.7,0-2.6c0-0.1,0-0.3,0.2-0.4c0.4-0.1,0.9-0.1,1.2-0.1c0.3,0,0.2,0.3,0.3,0.5
	c0,0.1,0,0.2,0.1,0.3c0.1,0,0.3,0,0.3-0.2l0,0c0.3-0.4,0.8-0.6,1.2-0.7c0.1,0,0.2,0,0.3,0c0.2,0.4,0.3,0.9,0.1,1.2
	c0,0.3-0.3,0.3-0.5,0.3c-0.7-0.2-1.3,0.3-1.5,1c0,0.2,0,0.4,0,0.6c0,0.9,0,1.6,0,2.5c0,0.4,0,0.7-0.6,0.6c-0.1,0-0.3,0-0.4,0
	c-0.7,0-0.8-0.1-0.8-0.8C22.1,416.1,22.1,415.5,22.1,414.6z"/>
<path class="st1" d="M40.6,414.8c0-0.8,0-1.6,0-2.4c0-0.5,0.1-0.8,0.7-0.7c0.6,0.1,1-0.4,1,0.5c0,0.2,0.3,0,0.4,0
	c0.4-0.3,0.8-0.5,1.2-0.5c0.3,0,0.5,0.1,0.4,0.4c0,0.3,0,0.6,0,0.9c0,0.2-0.1,0.4-0.3,0.4c-0.1,0-0.1,0-0.2,0
	c-0.7-0.2-1.4,0.2-1.6,1c-0.1,0.2-0.1,0.4,0,0.7c0,0.8,0,1.5,0,2.3c0,0.5-0.1,0.8-0.7,0.7c-1,0-1,0-1-1
	C40.7,416.1,40.7,415.5,40.6,414.8L40.6,414.8L40.6,414.8z"/>
<path class="st1" d="M-66.6,414.7c0-0.9,0-1.7,0-2.6c0-0.4,0.1-0.6,0.5-0.5c0.2,0,0.4,0,0.7,0c0.2,0,0.4,0,0.4,0.3
	c0,0.5,0.3,0.4,0.5,0.1c0.3-0.3,0.7-0.5,1-0.5c0.3-0.1,0.5,0.1,0.6,0.4c0,0.1,0,0.1,0,0.2c0,0.2,0,0.4,0,0.6c0,0.2,0,0.6-0.5,0.4
	c-0.7-0.1-1.3,0.3-1.4,1c-0.1,1-0.2,1.9-0.1,2.9c0,0.9,0,0.9-0.8,0.8s-0.9,0-0.9-1C-66.6,415.7-66.6,415.4-66.6,414.7L-66.6,414.7
	L-66.6,414.7z"/>
<path class="st1" d="M-87,414.6c0,0.9,0,1.7,0,2.6c0.1,0.2-0.1,0.5-0.3,0.5c-0.1,0-0.1,0-0.2,0c-1.1,0-1.1,0-1.1-1.1
	c0-1.4,0-2.9,0-4.3c0-0.5,0.1-0.8,0.7-0.7h0.1c0.3-0.1,0.5-0.1,0.8,0c0.1,0.3,0.2,0.6,0.1,1C-87,413.3-87,414-87,414.6L-87,414.6
	L-87,414.6z"/>
<path class="st1" d="M-31.4,414.6c0-0.8,0-1.6,0-2.4c0-0.4,0-0.7,0.6-0.6c0.1,0,0.2,0,0.2,0c0.9-0.1,0.9-0.1,0.9,0.8
	c0,1.5,0,3.1,0,4.6c0,0.8,0,0.9-0.8,0.8s-0.9,0-0.9-1C-31.4,416-31.4,415.3-31.4,414.6L-31.4,414.6L-31.4,414.6z"/>
<path class="st1" d="M-61.8,414.6c0-0.9,0-1.6,0-2.5c-0.1-0.2,0.1-0.5,0.3-0.5c0.1,0,0.1,0,0.2,0h0.4c0.9-0.1,0.9-0.1,0.9,0.9
	c0,1.5,0,3.1,0,4.7c0,0.5-0.1,0.7-0.7,0.7c-1-0.1-1,0-1-1.1C-61.8,416-61.8,415.4-61.8,414.6L-61.8,414.6L-61.8,414.6z"/>
<path class="st0" d="M-51.4,370.5c0.8-0.1,1.4,0.5,1.5,1.3c0,0.1,0,0.1,0,0.2c0,0.9-0.7,1.5-1.4,1.5c0,0,0,0-0.1,0
	c-0.9,0-1.5-0.6-1.6-1.4c-0.1-0.9,0.6-1.5,1.4-1.6C-51.5,370.5-51.5,370.5-51.4,370.5z"/>
<path class="st0" d="M-78.9,370.5c0.9,0,1.5,0.8,1.4,1.6c0,0.9-0.8,1.5-1.6,1.4c-0.9-0.1-1.5-0.8-1.4-1.6l0,0
	C-80.5,371.1-79.7,370.5-78.9,370.5z"/>
<path class="st0" d="M8.4,390.8c0,0.8-0.7,1.4-1.4,1.4c-0.1,0-0.1,0-0.2,0c-0.8,0.1-1.4-0.6-1.5-1.3c0-0.1,0-0.2,0-0.3
	c0-0.8,0.7-1.4,1.4-1.4h0.1C7.6,389.2,8.3,389.9,8.4,390.8C8.4,390.7,8.4,390.8,8.4,390.8z"/>
<path class="st0" d="M15.1,392.9c-0.6,0.1-1.1-0.2-1.4-0.7c-0.4-0.6-0.9-1.1-1.3-1.7c-0.1-0.1-0.2-0.2-0.1-0.4
	c0.1-0.1,0.3-0.1,0.4,0c0.6,0.1,1.1,0.1,1.6,0c0.3-0.1,0.7,0.1,0.8,0.4c0.3,0.6,0.7,1.1,1,1.7c0.2,0.2,0.2,0.4,0.2,0.6
	c-0.1,0.3-0.4,0.1-0.6,0.1H15.1L15.1,392.9z"/>
<path class="st0" d="M-7.7,371.4c0.9-0.3,1.7,0.2,2,1c0,0.1,0,0.1,0,0.2c0.2,0.4,0.5,0.8,0.7,1.1c0.2,0.4,0.1,0.5-0.3,0.4l0,0
	c-1,0.3-2.1-0.3-2.5-1.2c-0.3-0.4-0.6-0.8-1-1.1c-0.1-0.1-0.1-0.2-0.1-0.3c0-0.1,0.2-0.1,0.3-0.1L-7.7,371.4L-7.7,371.4z"/>
<path class="st1" d="M-61.8,409.7c0-0.5,0.4-0.9,0.9-1c0.6,0.1,1,0.5,1,1c0,0.5-0.4,0.9-0.9,0.9H-61c-0.5,0.1-0.9-0.2-1-0.7
	C-61.9,409.9-61.9,409.8-61.8,409.7z"/>
<path class="st1" d="M-30.5,410.7c-0.5,0-0.9-0.4-0.9-0.9c0-0.1,0-0.1,0-0.2c0.1-0.5,0.5-0.8,1-0.8c0.5,0.1,0.9,0.5,0.9,1
	S-30.1,410.7-30.5,410.7z"/>
<path class="st1" d="M-87.7,410.7c-0.4,0.1-0.8-0.2-0.9-0.6c0-0.1,0-0.2,0-0.3c-0.1-0.5,0.2-0.9,0.7-1c0.1,0,0.2,0,0.3,0
	c0.5,0,1,0.4,1,0.9s-0.4,0.9-0.9,0.9C-87.6,410.7-87.6,410.7-87.7,410.7z"/>
<path class="st0" d="M-157.4,401.1c-0.6-1.5-0.8-3.2-0.6-4.9c0.1,0,0.2,0.1,0.2,0.1l0,0c-0.1,1.1,0.3,2.2,0.3,3.3
	c0,0.2,0.1,0.5,0.2,0.7C-157.2,400.6-157.2,400.9-157.4,401.1z"/>
<path class="st0" d="M-105.9,400.9c-0.1,0-0.2-0.1-0.2-0.1c-0.2-0.8,0-1.5,0.4-2.1c0.3-0.1,0.3,0.1,0.2,0.3c-0.1,0.3-0.2,0.7-0.3,1
	C-105.7,400.2-105.8,400.6-105.9,400.9z"/>
<path class="st0" d="M-157.3,397.1c0-0.2,0-0.4,0.3-0.4s0.2,0.2,0.2,0.4c0,0.3,0.1,0.6,0.2,0.9c0,0.1,0.3,0.3,0,0.5
	c-0.2,0.1-0.4,0-0.5-0.2v-0.1C-157.1,397.8-157.3,397.5-157.3,397.1z"/>
<path class="st0" d="M-153.9,402.6c0.2,0.7,0.2,1.4,0,2.1C-154.1,404-154.1,403.2-153.9,402.6z"/>
<path class="st0" d="M-153.5,406.8c-0.3-0.4-0.4-0.9-0.2-1.3C-153.4,405.8-153.3,406.3-153.5,406.8z"/>
<path class="st0" d="M-106.2,398.7c-0.2-0.3-0.3-0.8-0.1-1.1C-105.9,397.9-105.9,398.4-106.2,398.7z"/>
<path class="st0" d="M-156.4,394c0.2,0.3,0.2,0.7,0,1C-156.7,394.7-156.7,394.3-156.4,394z"/>
<path class="st0" d="M-170.7,416.6c0.1,0.2,0.1,0.5,0,0.7c0,0.1,0,0.2-0.1,0.2h-0.1c-0.1,0-0.1-0.1-0.1-0.2c0,0,0,0,0.1-0.1
	C-170.8,417.1-170.9,416.9-170.7,416.6z"/>
<path class="st0" d="M-139.1,389.9c-0.1-0.1-0.3-0.2-0.4-0.1c-0.3,0-0.4,0-0.3-0.4c0.1-0.4-0.2-0.8,0.4-0.8c0,0,0-0.2,0-0.3
	c-0.2-0.4-0.5-0.9-0.7-1.2c-0.3-0.4-0.3-1,0-1.4c0-0.1,0.2-0.2,0.3-0.2c0.2,0,0.1,0.2,0.1,0.3c0,0.1,0,0.3,0.3,0.3
	c0.3,0,0.3-0.1,0.4,0.1c0.1,0.2,0,0.3-0.2,0.4l0,0c-0.4,0.2-0.3,0.4,0,0.6c0.2,0.2,0.5,0.4,0.9,0.4c0.2,0,0.2,0.2,0.3,0.3
	c0,0.1,0,0.8,0.6,0.8c0.2,0,0.1,0.3,0,0.4c-0.2,0.4-0.3,0.9-0.3,1.3c-0.4-0.7-0.8-0.3-1.1,0c-0.2,0.2-0.4,0.3-0.7,0.2
	c-0.1,0-0.2-0.1-0.1-0.3C-139.5,390-139.4,389.8-139.1,389.9C-139.2,390-139.1,390-139.1,389.9z"/>
<path class="st0" d="M-143.3,388.5c-0.1-0.9-0.1-1.7,0-2.6c0.1-0.2,0.1-0.5-0.1-0.6c-0.2-0.2-0.3,0-0.5,0c-0.8,0.3-1.5,0.3-2.3,0
	c0.8,0,1.4,0,2.2,0c0.4,0.1,0.7-0.1,0.8-0.5c0-0.1,0-0.2,0-0.3c0-0.4,0-0.7,0.2-1c0.1,0.4,0.2,0.7,0.1,1c0,0.3,0,0.4,0.5,0.4
	c0.9,0,1.8-0.2,2.7-0.4c0.1,0,0.3,0,0.3,0.1c-0.2,0.4-0.7,0.5-1,0.4h-0.1c-0.8,0.2-1.4,0.3-2.2,0.3c-0.3,0.1-0.5,0.4-0.4,0.8
	c0,0.7,0,1.2,0,1.9C-143,388.3-143.1,388.4-143.3,388.5z"/>
<path class="st0" d="M-142.6,381.6c0.3,0.5,0.3,1,0,1.5c-0.6,0.3-1.2,0.3-1.7,0c-0.1-0.1-0.1-0.3,0-0.4l0,0c0.4-0.1-0.1-0.6,0.2-0.8
	c0.3,0.1,0.5,0.2,0.7,0.3C-143.1,382.3-142.7,382.1-142.6,381.6z"/>
<path class="st0" d="M-141.1,389.7c-0.2,0-0.4,0-0.4-0.2c0-0.2,0.3-0.6-0.2-0.8c-0.1,0,0-0.2,0.2-0.2c0.3,0,0.6-0.2,0.7-0.5
	c0.1-0.2,0.2-0.3,0.4-0.2c0.1,0.1,0.2,0.2,0.1,0.4c-0.1,0.4-0.1,0.8-0.1,1.1C-140.4,389.7-140.7,389.7-141.1,389.7z"/>
<path class="st0" d="M-139.2,381.3c0.3,0.5,0.4,1,0.3,1.5c0,0.1,0,0.2-0.1,0.2c-0.1,0-0.2-0.1-0.2-0.2
	C-139.3,382.2-139.2,381.8-139.2,381.3z"/>
<path class="st0" d="M-138.1,376.7c0.1,0,0.3,0,0.3,0.2c0,0.2-0.2,0.2-0.3,0.2c-0.1,0-0.3,0-0.3-0.1
	C-138.4,376.8-138.2,376.7-138.1,376.7L-138.1,376.7z"/>
<path class="st0" d="M-140.4,374c0.1,0.4,0.1,0.7-0.3,0.8C-140.8,374.6-140.7,374.2-140.4,374z"/>
<path class="st0" d="M-138.6,386L-138.6,386c0.3,0.3,0.3,0.7,0.2,1c0,0.1-0.1,0.1-0.1,0.1s0,0-0.1-0.1
	C-138.7,386.6-138.7,386.3-138.6,386z"/>
<path class="st0" d="M-143.5,373.2c-0.1,0-0.1-0.1-0.1-0.2c0.1-0.1,0.2-0.1,0.3,0l0,0L-143.5,373.2z"/>
<path class="st0" d="M-143.4,373c0,0,0.1,0.1,0,0.2c-0.1,0.1-0.2,0.1-0.2,0L-143.4,373z"/>
<path class="st0" d="M-139.4,415.9c-0.2-0.1-0.3-0.3-0.3-0.5c0.1-0.3-0.1-0.7-0.3-0.9c-0.1-0.1-0.1-0.3,0-0.4h0.1
	c0.1,0.1,0.2,0.2,0.2,0.4C-139.5,415-139.4,415.5-139.4,415.9z"/>
<path class="st0" d="M-129.9,420.9c-0.7,0.3-1.4,0.4-2.2,0.2C-131.3,420.8-130.6,420.7-129.9,420.9z"/>
<path class="st0" d="M-129.1,395.3c0.1,0.1,0.6-0.1,0.3,0.4c0,0.1,0,0.2,0,0.2c0,0.2,0.3,0.6,0,0.7c-0.5,0-1,0-1.3-0.3
	c-0.1-0.1-0.1-0.2,0-0.3l0.1-0.1c0.4,0,0.8,0,0.8-0.6C-129.3,395.3-129.2,395.3-129.1,395.3z"/>
<path class="st0" d="M-132.5,395.6c0-0.1,0-0.2,0-0.3c0-0.1,0-0.3,0.1-0.4c0.1,0,0.3,0.1,0.3,0.3c0,0.2,0,0.2,0,0.2
	c0,0.1,0.2,0.7-0.2,0.8C-132.7,396.3-132.4,395.8-132.5,395.6z"/>
<path class="st0" d="M-143.3,397.9c0.2,0.9,0.3,1.6,0.1,2.5C-143.4,399.5-143.4,398.7-143.3,397.9z"/>
<path class="st0" d="M-128.9,394.4c0.4,0.1,0.6,0.5,0.5,0.9c0,0,0,0.1-0.1,0.1c0,0.1-0.1,0.1-0.2,0.1c-0.1,0-0.1,0-0.1-0.1
	c0,0,0,0,0-0.1C-128.9,394.9-128.9,394.6-128.9,394.4L-128.9,394.4z"/>
<path class="st0" d="M-134.6,371.3c0.9-0.2,1.6-0.2,2.5,0C-132.9,371.5-133.7,371.5-134.6,371.3z"/>
<path class="st0" d="M-135.2,369.7c0.3-0.1,0.7,0,0.9,0.2v0.1c0,0-0.2,0.2-0.2,0.1C-134.8,370-135,369.9-135.2,369.7z"/>
<path class="st0" d="M-135,370.4c-0.4,0-0.8-0.1-1-0.3C-135.6,369.9-135.6,369.9-135,370.4z"/>
<path class="st0" d="M-120.2,393c-0.1,0.3-0.3,0.5-0.5,0.6c-0.1,0-0.2-0.1-0.2-0.2c0,0,0,0,0-0.1c0.1-0.3,0.3-0.5,0.5-0.6
	C-120.2,392.7-120.2,392.9-120.2,393z"/>
</svg>
