<svg id="Calque_1" data-name="Calque 1" xmlns="http://www.w3.org/2000/svg" viewBox="0 0 240 240"><title>pictos_JRS</title><path d="M166.41,57.57l2.9-5a9,9,0,1,0-5-2.86L77,201a2.86,2.86,0,0,0,1,3.91,2.83,2.83,0,0,0,1.43.38,2.87,2.87,0,0,0,2.49-1.43L140.64,102.2l62,35.79,5.47-26.6,20.3-18Z"/><path d="M115.82,122.27l3.31-5.72L91.54,68.75,82,52.22l-1.47-2.54a9,9,0,1,0-5,2.86L77,55.08,11.61,92.86l22.55,20,6.08,29.55,65.42-37.77ZM44.25,133.52l-4.87-23.64-18-16,58.55-33.8,22.9,39.67Z"/><path d="M129,133.73l-3.3,5.73,37.18,64.4a2.86,2.86,0,0,0,2.48,1.43,2.83,2.83,0,0,0,1.43-.38,2.86,2.86,0,0,0,1-3.91Z"/></svg>