<svg xmlns="http://www.w3.org/2000/svg" viewBox="0 0 240 240"><defs><style>.cls-1{isolation:isolate;}.cls-2{fill:#8dc449;mix-blend-mode:multiply;}</style></defs><title>pictos_JRS</title><g class="cls-1"><g id="Calque_1" data-name="Calque 1"><circle class="cls-2" cx="77.19" cy="117.14" r="3.26" transform="translate(-56.69 159.05) rotate(-74)"/><circle class="cls-2" cx="93.32" cy="121.77" r="3.26" transform="translate(-49.46 177.89) rotate(-74)"/><circle class="cls-2" cx="109.44" cy="126.39" r="3.26" transform="translate(-42.22 196.74) rotate(-74)"/><circle class="cls-2" cx="72.57" cy="133.26" r="3.26" transform="translate(-75.54 166.28) rotate(-74)"/><circle class="cls-2" cx="88.69" cy="137.89" r="3.26" transform="translate(-68.31 185.13) rotate(-74)"/><circle class="cls-2" cx="104.82" cy="142.51" r="3.26" transform="translate(-61.07 203.98) rotate(-74)"/><circle class="cls-2" cx="67.94" cy="149.39" r="3.26" transform="translate(-94.39 173.51) rotate(-74)"/><circle class="cls-2" cx="84.07" cy="154.01" r="3.26" transform="translate(-87.15 192.36) rotate(-74)"/><circle class="cls-2" cx="100.19" cy="158.64" r="3.26" transform="translate(-79.92 211.21) rotate(-74)"/><circle class="cls-2" cx="125.57" cy="131.02" r="3.26" transform="translate(-34.99 215.59) rotate(-74)"/><circle class="cls-2" cx="141.69" cy="135.64" r="3.26" transform="translate(-27.76 234.44) rotate(-74)"/><circle class="cls-2" cx="157.81" cy="140.26" r="3.26" transform="translate(-20.53 253.29) rotate(-74)"/><circle class="cls-2" cx="120.94" cy="147.14" r="3.26" transform="matrix(0.28, -0.96, 0.96, 0.28, -53.84, 222.82)"/><circle class="cls-2" cx="137.06" cy="151.76" r="3.26" transform="translate(-46.61 241.67) rotate(-74)"/><circle class="cls-2" cx="153.19" cy="156.39" r="3.26" transform="translate(-39.37 260.52) rotate(-74)"/><circle class="cls-2" cx="116.32" cy="163.26" r="3.26" transform="translate(-72.69 230.06) rotate(-74)"/><circle class="cls-2" cx="132.44" cy="167.89" r="3.26" transform="translate(-65.46 248.91) rotate(-74)"/><circle class="cls-2" cx="148.56" cy="172.51" r="3.26" transform="translate(-58.22 267.75) rotate(-74)"/><circle class="cls-2" cx="91.44" cy="67.49" r="3.26" transform="translate(1.35 136.77) rotate(-74)"/><circle class="cls-2" cx="107.56" cy="72.11" r="3.26" transform="translate(8.59 155.62) rotate(-74)"/><circle class="cls-2" cx="123.68" cy="76.74" r="3.26" transform="translate(15.82 174.47) rotate(-74)"/><circle class="cls-2" cx="86.81" cy="83.61" r="3.26" transform="translate(-17.49 144.01) rotate(-74)"/><circle class="cls-2" cx="102.94" cy="88.24" r="3.26" transform="translate(-10.26 162.85) rotate(-74)"/><circle class="cls-2" cx="119.06" cy="92.86" r="3.26" transform="translate(-3.03 181.7) rotate(-74)"/><circle class="cls-2" cx="82.19" cy="99.74" r="3.26" transform="translate(-36.34 151.24) rotate(-74)"/><circle class="cls-2" cx="98.31" cy="104.36" r="3.26" transform="translate(-29.11 170.09) rotate(-74)"/><circle class="cls-2" cx="114.43" cy="108.98" r="3.26" transform="translate(-21.88 188.94) rotate(-74)"/><circle class="cls-2" cx="139.81" cy="81.36" r="3.26" transform="translate(23.05 193.32) rotate(-74)"/><circle class="cls-2" cx="155.93" cy="85.99" r="3.26" transform="translate(30.29 212.17) rotate(-74)"/><circle class="cls-2" cx="172.06" cy="90.61" r="3.26" transform="translate(37.52 231.02) rotate(-74)"/><circle class="cls-2" cx="135.18" cy="97.49" r="3.26" transform="translate(4.2 200.55) rotate(-74)"/><circle class="cls-2" cx="151.31" cy="102.11" r="3.26" transform="translate(11.44 219.4) rotate(-74)"/><circle class="cls-2" cx="167.43" cy="106.74" r="3.26" transform="translate(18.67 238.25) rotate(-74)"/><circle class="cls-2" cx="130.56" cy="113.61" r="3.26" transform="translate(-14.64 207.78) rotate(-74)"/><circle class="cls-2" cx="146.68" cy="118.23" r="3.26" transform="translate(-7.41 226.63) rotate(-74)"/><circle class="cls-2" cx="162.81" cy="122.86" r="3.26" transform="translate(-0.18 245.48) rotate(-74)"/></g></g></svg>